<svg id="Layer_1" data-name="Layer 1" xmlns="http://www.w3.org/2000/svg" width="283.13" height="146.45" viewBox="0 0 283.13 146.45"><defs><style>.cls-1{fill:#14bf96;}.cls-1,.cls-4{stroke:#00e5ae;stroke-width:1.05px;}.cls-1,.cls-3,.cls-4{stroke-miterlimit:10;}.cls-2{fill:#fff;}.cls-3{fill:#ff714d;stroke:#ffb8a6;stroke-width:0.97px;}.cls-4{fill:none;}</style></defs><title>Artboard 13</title><rect class="cls-1" x="0.95" y="0.53" width="89.16" height="42.44" rx="4.65"/><path class="cls-2" d="M8.93,23.2a1.56,1.56,0,0,1,1.4.77A3.85,3.85,0,0,1,10.81,26a3.87,3.87,0,0,1-.48,2.07,1.56,1.56,0,0,1-1.4.77,1.56,1.56,0,0,1-1.39-.77A3.87,3.87,0,0,1,7.06,26,3.85,3.85,0,0,1,7.54,24,1.56,1.56,0,0,1,8.93,23.2Zm-1,4,1.85-2.9a1.1,1.1,0,0,0-.38-.43.84.84,0,0,0-.43-.11.94.94,0,0,0-.87.63A3.84,3.84,0,0,0,7.76,26c0,.15,0,.31,0,.49A4.43,4.43,0,0,0,7.89,27.18ZM10,24.92,8.13,27.83a1.16,1.16,0,0,0,.34.38.82.82,0,0,0,.43.12,1,1,0,0,0,.93-.73A4.45,4.45,0,0,0,10.11,26,4.11,4.11,0,0,0,10,24.92Z"/><path class="cls-2" d="M13,28.17V24.05a5.72,5.72,0,0,1-.56.39,3.93,3.93,0,0,1-.75.33v-.58A4.5,4.5,0,0,0,13,23.36h.64v4.81h1.29v.54H11.7v-.54Z"/><path class="cls-2" d="M17.24,28.17V24.05a5.72,5.72,0,0,1-.56.39,3.93,3.93,0,0,1-.75.33v-.58a4.37,4.37,0,0,0,1.31-.83h.65v4.81h1.28v.54H15.93v-.54Z"/><path class="cls-2" d="M21.64,23.2A1.54,1.54,0,0,1,23,24,3.85,3.85,0,0,1,23.51,26,3.87,3.87,0,0,1,23,28.1a1.64,1.64,0,0,1-2.78,0A3.87,3.87,0,0,1,19.77,26,3.85,3.85,0,0,1,20.25,24,1.54,1.54,0,0,1,21.64,23.2Zm-1.05,4,1.85-2.9a1,1,0,0,0-.38-.43.83.83,0,0,0-.42-.11,1,1,0,0,0-.88.63,3.84,3.84,0,0,0-.3,1.62c0,.15,0,.31,0,.49A5.62,5.62,0,0,0,20.59,27.18Zm2.08-2.26-1.83,2.91a1.06,1.06,0,0,0,.34.38.8.8,0,0,0,.43.12,1,1,0,0,0,.93-.73A4.67,4.67,0,0,0,22.81,26,3.72,3.72,0,0,0,22.67,24.92Z"/><path class="cls-2" d="M25.71,28.17V24.05a5.72,5.72,0,0,1-.56.39,3.93,3.93,0,0,1-.75.33v-.58a4.37,4.37,0,0,0,1.31-.83h.64v4.81h1.29v.54H24.4v-.54Z"/><path class="cls-2" d="M30,28.17V24.05a5.72,5.72,0,0,1-.56.39,3.93,3.93,0,0,1-.75.33v-.58A4.5,4.5,0,0,0,30,23.36h.64v4.81h1.28v.54H28.64v-.54Z"/><path class="cls-2" d="M34.18,28.17V24.05a5.72,5.72,0,0,1-.56.39,3.93,3.93,0,0,1-.75.33v-.58a4.37,4.37,0,0,0,1.31-.83h.64v4.81h1.29v.54H32.87v-.54Z"/><path class="cls-2" d="M38.58,23.2A1.56,1.56,0,0,1,40,24,3.85,3.85,0,0,1,40.45,26,3.87,3.87,0,0,1,40,28.1a1.64,1.64,0,0,1-2.78,0A3.87,3.87,0,0,1,36.71,26,3.85,3.85,0,0,1,37.19,24,1.54,1.54,0,0,1,38.58,23.2Zm-1,4,1.85-2.9a1,1,0,0,0-.38-.43.84.84,0,0,0-.43-.11.94.94,0,0,0-.87.63A3.84,3.84,0,0,0,37.4,26c0,.15,0,.31,0,.49A4.43,4.43,0,0,0,37.53,27.18Zm2.08-2.26-1.83,2.91a1,1,0,0,0,.34.38.8.8,0,0,0,.43.12,1,1,0,0,0,.93-.73A4.67,4.67,0,0,0,39.75,26,4.11,4.11,0,0,0,39.61,24.92Z"/><path class="cls-2" d="M42.65,28.17V24.05a5.72,5.72,0,0,1-.56.39,3.93,3.93,0,0,1-.75.33v-.58a4.37,4.37,0,0,0,1.31-.83h.64v4.81h1.29v.54H41.34v-.54Z"/><path class="cls-2" d="M46.89,28.17V24.05c-.2.15-.38.28-.56.39a4.59,4.59,0,0,1-.75.33v-.58a4.5,4.5,0,0,0,1.31-.83h.64v4.81h1.28v.54H45.58v-.54Z"/><path class="cls-2" d="M51.28,23.2a1.54,1.54,0,0,1,1.39.77A3.85,3.85,0,0,1,53.15,26a3.87,3.87,0,0,1-.48,2.07,1.64,1.64,0,0,1-2.78,0A3.87,3.87,0,0,1,49.41,26,3.85,3.85,0,0,1,49.89,24,1.54,1.54,0,0,1,51.28,23.2Zm-1,4,1.84-2.9a1,1,0,0,0-.38-.43.8.8,0,0,0-.42-.11,1,1,0,0,0-.88.63A3.84,3.84,0,0,0,50.1,26c0,.15,0,.31,0,.49A4.43,4.43,0,0,0,50.24,27.18Zm2.07-2.26-1.83,2.91a1.06,1.06,0,0,0,.34.38.8.8,0,0,0,.43.12,1,1,0,0,0,.93-.73A4.67,4.67,0,0,0,52.45,26,3.72,3.72,0,0,0,52.31,24.92Z"/><path class="cls-2" d="M55.36,28.17V24.05a5.81,5.81,0,0,1-.57.39,4.09,4.09,0,0,1-.74.33v-.58a4.5,4.5,0,0,0,1.31-.83H56v4.81h1.28v.54H54.05v-.54Z"/><path class="cls-2" d="M59.75,23.2a1.54,1.54,0,0,1,1.39.77A3.85,3.85,0,0,1,61.62,26a3.87,3.87,0,0,1-.48,2.07,1.64,1.64,0,0,1-2.78,0A3.87,3.87,0,0,1,57.88,26,3.85,3.85,0,0,1,58.36,24,1.54,1.54,0,0,1,59.75,23.2Zm-1,4,1.85-2.9a1,1,0,0,0-.38-.43.83.83,0,0,0-.42-.11,1,1,0,0,0-.88.63,3.84,3.84,0,0,0-.3,1.62c0,.15,0,.31,0,.49A5.62,5.62,0,0,0,58.7,27.18Zm2.08-2.26L59,27.83a1.06,1.06,0,0,0,.34.38.8.8,0,0,0,.43.12,1,1,0,0,0,.93-.73A4.67,4.67,0,0,0,60.92,26,3.72,3.72,0,0,0,60.78,24.92Z"/><path class="cls-2" d="M63.82,28.17V24.05a5.72,5.72,0,0,1-.56.39,4.09,4.09,0,0,1-.74.33v-.58a4.45,4.45,0,0,0,1.3-.83h.65v4.81h1.28v.54H62.52v-.54Z"/><path class="cls-2" d="M68.22,23.2a1.54,1.54,0,0,1,1.39.77A3.85,3.85,0,0,1,70.09,26a3.87,3.87,0,0,1-.48,2.07,1.64,1.64,0,0,1-2.78,0A3.87,3.87,0,0,1,66.35,26,3.85,3.85,0,0,1,66.83,24,1.54,1.54,0,0,1,68.22,23.2Zm-1,4L69,24.28a1,1,0,0,0-.38-.43.83.83,0,0,0-.42-.11,1,1,0,0,0-.88.63A3.84,3.84,0,0,0,67,26c0,.15,0,.31,0,.49A5.62,5.62,0,0,0,67.17,27.18Zm2.08-2.26-1.83,2.91a1.06,1.06,0,0,0,.34.38.8.8,0,0,0,.43.12,1,1,0,0,0,.93-.73A4.67,4.67,0,0,0,69.39,26,3.72,3.72,0,0,0,69.25,24.92Z"/><path class="cls-2" d="M72.29,28.17V24.05a5.72,5.72,0,0,1-.56.39,3.93,3.93,0,0,1-.75.33v-.58a4.37,4.37,0,0,0,1.31-.83h.64v4.81h1.29v.54H71v-.54Z"/><path class="cls-2" d="M76.69,23.2a1.54,1.54,0,0,1,1.39.77A3.85,3.85,0,0,1,78.56,26a3.87,3.87,0,0,1-.48,2.07,1.64,1.64,0,0,1-2.78,0A3.87,3.87,0,0,1,74.82,26,3.85,3.85,0,0,1,75.3,24,1.54,1.54,0,0,1,76.69,23.2Zm-1,4,1.85-2.9a1,1,0,0,0-.38-.43.84.84,0,0,0-.43-.11.94.94,0,0,0-.87.63,3.84,3.84,0,0,0-.3,1.62c0,.15,0,.31,0,.49A4.2,4.2,0,0,0,75.64,27.18Zm2.08-2.26-1.83,2.91a1.06,1.06,0,0,0,.34.38.8.8,0,0,0,.43.12,1,1,0,0,0,.93-.73A4.67,4.67,0,0,0,77.86,26,4.11,4.11,0,0,0,77.72,24.92Z"/><path class="cls-2" d="M80.76,28.17V24.05a5.72,5.72,0,0,1-.56.39,3.93,3.93,0,0,1-.75.33v-.58a4.37,4.37,0,0,0,1.31-.83h.64v4.81h1.29v.54H79.45v-.54Z"/><path class="cls-2" d="M8.93,31.67a1.54,1.54,0,0,1,1.4.77,3.83,3.83,0,0,1,.48,2.06,3.87,3.87,0,0,1-.48,2.07,1.56,1.56,0,0,1-1.4.77,1.56,1.56,0,0,1-1.39-.77,3.87,3.87,0,0,1-.48-2.07,3.83,3.83,0,0,1,.48-2.06A1.54,1.54,0,0,1,8.93,31.67Zm-1,4,1.85-2.89a1.14,1.14,0,0,0-.38-.44.91.91,0,0,0-1.3.53,3.84,3.84,0,0,0-.3,1.62c0,.15,0,.31,0,.48A4.09,4.09,0,0,0,7.89,35.64ZM10,33.38,8.13,36.3a1.28,1.28,0,0,0,.34.38.82.82,0,0,0,.43.12,1,1,0,0,0,.93-.73,4.45,4.45,0,0,0,.28-1.62A4.18,4.18,0,0,0,10,33.38Z"/><path class="cls-2" d="M13,36.64V32.52a5.72,5.72,0,0,1-.56.39,5.79,5.79,0,0,1-.75.33v-.58A4.72,4.72,0,0,0,13,31.83h.64v4.81h1.29v.53H11.7v-.53Z"/><path class="cls-2" d="M17.24,36.64V32.52a5.72,5.72,0,0,1-.56.39,5.79,5.79,0,0,1-.75.33v-.58a4.58,4.58,0,0,0,1.31-.83h.65v4.81h1.28v.53H15.93v-.53Z"/><path class="cls-2" d="M21.64,31.67a1.53,1.53,0,0,1,1.39.77,3.83,3.83,0,0,1,.48,2.06A3.87,3.87,0,0,1,23,36.57a1.64,1.64,0,0,1-2.78,0,3.87,3.87,0,0,1-.48-2.07,3.83,3.83,0,0,1,.48-2.06A1.53,1.53,0,0,1,21.64,31.67Zm-1.05,4,1.85-2.89a1.06,1.06,0,0,0-.38-.44.94.94,0,0,0-.42-.11,1,1,0,0,0-.88.64,3.84,3.84,0,0,0-.3,1.62c0,.15,0,.31,0,.48A5.11,5.11,0,0,0,20.59,35.64Zm2.08-2.26L20.84,36.3a1.16,1.16,0,0,0,.34.38.8.8,0,0,0,.43.12,1,1,0,0,0,.93-.73,4.67,4.67,0,0,0,.27-1.62A3.79,3.79,0,0,0,22.67,33.38Z"/><path class="cls-2" d="M25.87,31.67a1.54,1.54,0,0,1,1.4.77,3.93,3.93,0,0,1,.47,2.06,4,4,0,0,1-.47,2.07,1.65,1.65,0,0,1-2.79,0A3.87,3.87,0,0,1,24,34.5a3.83,3.83,0,0,1,.48-2.06A1.54,1.54,0,0,1,25.87,31.67Zm-1,4,1.85-2.89a1.14,1.14,0,0,0-.38-.44.91.91,0,0,0-1.3.53,3.84,3.84,0,0,0-.3,1.62c0,.15,0,.31,0,.48A4.09,4.09,0,0,0,24.83,35.64Zm2.08-2.26L25.07,36.3a1.16,1.16,0,0,0,.34.38.8.8,0,0,0,.43.12,1,1,0,0,0,.93-.73,4.45,4.45,0,0,0,.28-1.62A4.18,4.18,0,0,0,26.91,33.38Z"/><path class="cls-2" d="M30.11,31.67a1.53,1.53,0,0,1,1.39.77A3.83,3.83,0,0,1,32,34.5a3.87,3.87,0,0,1-.48,2.07,1.64,1.64,0,0,1-2.78,0,3.87,3.87,0,0,1-.48-2.07,3.83,3.83,0,0,1,.48-2.06A1.53,1.53,0,0,1,30.11,31.67Zm-1.05,4,1.85-2.89a1.06,1.06,0,0,0-.38-.44.91.91,0,0,0-1.3.53,3.84,3.84,0,0,0-.3,1.62c0,.15,0,.31,0,.48A3.91,3.91,0,0,0,29.06,35.64Zm2.08-2.26L29.31,36.3a1.16,1.16,0,0,0,.34.38.8.8,0,0,0,.43.12,1,1,0,0,0,.93-.73,4.67,4.67,0,0,0,.27-1.62A4.18,4.18,0,0,0,31.14,33.38Z"/><path class="cls-2" d="M34.18,36.64V32.52a5.72,5.72,0,0,1-.56.39,5.79,5.79,0,0,1-.75.33v-.58a4.58,4.58,0,0,0,1.31-.83h.64v4.81h1.29v.53H32.87v-.53Z"/><path class="cls-2" d="M38.58,31.67a1.54,1.54,0,0,1,1.39.77,3.83,3.83,0,0,1,.48,2.06A3.87,3.87,0,0,1,40,36.57a1.64,1.64,0,0,1-2.78,0,3.87,3.87,0,0,1-.48-2.07,3.83,3.83,0,0,1,.48-2.06A1.53,1.53,0,0,1,38.58,31.67Zm-1,4,1.85-2.89a1.06,1.06,0,0,0-.38-.44.91.91,0,0,0-1.3.53,3.84,3.84,0,0,0-.3,1.62c0,.15,0,.31,0,.48A4.09,4.09,0,0,0,37.53,35.64Zm2.08-2.26L37.78,36.3a1.06,1.06,0,0,0,.34.38.8.8,0,0,0,.43.12,1,1,0,0,0,.93-.73,4.67,4.67,0,0,0,.27-1.62A4.18,4.18,0,0,0,39.61,33.38Z"/><path class="cls-2" d="M42.81,31.67a1.53,1.53,0,0,1,1.39.77,3.83,3.83,0,0,1,.48,2.06,3.87,3.87,0,0,1-.48,2.07,1.64,1.64,0,0,1-2.78,0,3.87,3.87,0,0,1-.48-2.07,3.83,3.83,0,0,1,.48-2.06A1.53,1.53,0,0,1,42.81,31.67Zm-1,4,1.84-2.89a1,1,0,0,0-.38-.44.88.88,0,0,0-.42-.11,1,1,0,0,0-.87.64,3.84,3.84,0,0,0-.3,1.62c0,.15,0,.31,0,.48A4.09,4.09,0,0,0,41.77,35.64Zm2.08-2.26L42,36.3a1.16,1.16,0,0,0,.34.38.8.8,0,0,0,.43.12,1,1,0,0,0,.93-.73A4.67,4.67,0,0,0,44,34.45,4.18,4.18,0,0,0,43.85,33.38Z"/><path class="cls-2" d="M46.89,36.64V32.52c-.2.15-.38.28-.56.39a7.37,7.37,0,0,1-.75.33v-.58a4.72,4.72,0,0,0,1.31-.83h.64v4.81h1.28v.53H45.58v-.53Z"/><path class="cls-2" d="M51.28,31.67a1.53,1.53,0,0,1,1.39.77,3.83,3.83,0,0,1,.48,2.06,3.87,3.87,0,0,1-.48,2.07,1.64,1.64,0,0,1-2.78,0,3.87,3.87,0,0,1-.48-2.07,3.83,3.83,0,0,1,.48-2.06A1.53,1.53,0,0,1,51.28,31.67Zm-1,4,1.84-2.89a1,1,0,0,0-.38-.44.91.91,0,0,0-.42-.11,1,1,0,0,0-.88.64,3.84,3.84,0,0,0-.3,1.62c0,.15,0,.31,0,.48A4.09,4.09,0,0,0,50.24,35.64Zm2.07-2.26L50.48,36.3a1.16,1.16,0,0,0,.34.38.8.8,0,0,0,.43.12,1,1,0,0,0,.93-.73,4.67,4.67,0,0,0,.27-1.62A3.79,3.79,0,0,0,52.31,33.38Z"/><path class="cls-2" d="M55.36,36.64V32.52a5.81,5.81,0,0,1-.57.39,6.23,6.23,0,0,1-.74.33v-.58a4.72,4.72,0,0,0,1.31-.83H56v4.81h1.28v.53H54.05v-.53Z"/><path class="cls-2" d="M59.75,31.67a1.53,1.53,0,0,1,1.39.77,3.83,3.83,0,0,1,.48,2.06,3.87,3.87,0,0,1-.48,2.07,1.64,1.64,0,0,1-2.78,0,3.87,3.87,0,0,1-.48-2.07,3.83,3.83,0,0,1,.48-2.06A1.53,1.53,0,0,1,59.75,31.67Zm-1,4,1.85-2.89a1.06,1.06,0,0,0-.38-.44.94.94,0,0,0-.42-.11,1,1,0,0,0-.88.64,3.84,3.84,0,0,0-.3,1.62c0,.15,0,.31,0,.48A5.11,5.11,0,0,0,58.7,35.64Zm2.08-2.26L59,36.3a1.16,1.16,0,0,0,.34.38.8.8,0,0,0,.43.12,1,1,0,0,0,.93-.73,4.67,4.67,0,0,0,.27-1.62A3.79,3.79,0,0,0,60.78,33.38Z"/><path class="cls-2" d="M63.82,36.64V32.52a5.72,5.72,0,0,1-.56.39,6.23,6.23,0,0,1-.74.33v-.58a4.66,4.66,0,0,0,1.3-.83h.65v4.81h1.28v.53H62.52v-.53Z"/><path class="cls-2" d="M68.22,31.67a1.53,1.53,0,0,1,1.39.77,3.83,3.83,0,0,1,.48,2.06,3.87,3.87,0,0,1-.48,2.07,1.64,1.64,0,0,1-2.78,0,3.87,3.87,0,0,1-.48-2.07,3.83,3.83,0,0,1,.48-2.06A1.53,1.53,0,0,1,68.22,31.67Zm-1,4L69,32.75a1.06,1.06,0,0,0-.38-.44.94.94,0,0,0-.42-.11,1,1,0,0,0-.88.64,3.84,3.84,0,0,0-.3,1.62c0,.15,0,.31,0,.48A5.11,5.11,0,0,0,67.17,35.64Zm2.08-2.26L67.42,36.3a1.16,1.16,0,0,0,.34.38.8.8,0,0,0,.43.12,1,1,0,0,0,.93-.73,4.67,4.67,0,0,0,.27-1.62A3.79,3.79,0,0,0,69.25,33.38Z"/><path class="cls-2" d="M72.29,36.64V32.52a5.72,5.72,0,0,1-.56.39,5.79,5.79,0,0,1-.75.33v-.58a4.58,4.58,0,0,0,1.31-.83h.64v4.81h1.29v.53H71v-.53Z"/><path class="cls-2" d="M76.53,36.64V32.52a5.72,5.72,0,0,1-.56.39,5.79,5.79,0,0,1-.75.33v-.58a4.72,4.72,0,0,0,1.31-.83h.64v4.81h1.28v.53H75.22v-.53Z"/><path class="cls-2" d="M80.92,31.67a1.53,1.53,0,0,1,1.39.77,3.83,3.83,0,0,1,.48,2.06,3.87,3.87,0,0,1-.48,2.07,1.64,1.64,0,0,1-2.78,0,3.87,3.87,0,0,1-.48-2.07,3.83,3.83,0,0,1,.48-2.06A1.53,1.53,0,0,1,80.92,31.67Zm-1,4,1.84-2.89a1,1,0,0,0-.38-.44.88.88,0,0,0-.42-.11,1,1,0,0,0-.87.64,3.84,3.84,0,0,0-.3,1.62c0,.15,0,.31,0,.48A4.09,4.09,0,0,0,79.88,35.64ZM82,33.38,80.12,36.3a1.16,1.16,0,0,0,.34.38.8.8,0,0,0,.43.12,1,1,0,0,0,.93-.73,4.67,4.67,0,0,0,.28-1.62A4.18,4.18,0,0,0,82,33.38Z"/><path class="cls-2" d="M28.3,14.44v-.92a5,5,0,0,0,2.12.56,1.79,1.79,0,0,0,.76-.16,1.19,1.19,0,0,0,.56-.44,1.16,1.16,0,0,0,.19-.62,1.19,1.19,0,0,0-.26-.74,3.24,3.24,0,0,0-1-.77l-.5-.28-.5-.29a2.28,2.28,0,0,1-1.33-2A2,2,0,0,1,29,7.38a2.58,2.58,0,0,1,1.86-.58A5.08,5.08,0,0,1,32.38,7v.84a4.53,4.53,0,0,0-1.62-.32,1.53,1.53,0,0,0-1,.34,1.09,1.09,0,0,0-.09,1.57,3.08,3.08,0,0,0,.76.57l.39.23.47.29.39.23a2.22,2.22,0,0,1,1.25,1.92,2,2,0,0,1-.64,1.51,2.83,2.83,0,0,1-2.05.63,4.63,4.63,0,0,1-.85-.08A7.22,7.22,0,0,1,28.3,14.44Z"/><path class="cls-2" d="M38.82,14.24a4.72,4.72,0,0,1-2.06.52,2.47,2.47,0,0,1-1.32-.37,2.57,2.57,0,0,1-.92-1.05,3,3,0,0,1-.35-1.45,3.3,3.3,0,0,1,.33-1.44,2.62,2.62,0,0,1,.93-1.07A2.42,2.42,0,0,1,36.75,9a1.94,1.94,0,0,1,1.56.69,3.22,3.22,0,0,1,.59,2.14V12H35.14a2.24,2.24,0,0,0,.24,1,1.71,1.71,0,0,0,.62.7,1.64,1.64,0,0,0,.88.24,4.09,4.09,0,0,0,1.94-.59Zm-3.62-2.9h2.72v-.13a1.6,1.6,0,0,0-.33-1.06,1.09,1.09,0,0,0-.88-.39,1.3,1.3,0,0,0-1,.4A2.21,2.21,0,0,0,35.2,11.34Z"/><path class="cls-2" d="M43.94,13.38a2.91,2.91,0,0,1-1,1,2.17,2.17,0,0,1-1.08.35,1.67,1.67,0,0,1-1.23-.59,2.62,2.62,0,0,1-.54-1.8,3.85,3.85,0,0,1,.36-1.69,3,3,0,0,1,1-1.17,2.49,2.49,0,0,1,1.5-.44,7.59,7.59,0,0,1,.78.06l.23,0h.92v7.57h-.91Zm0-1.08V10a3.43,3.43,0,0,0-.9-.13,1.81,1.81,0,0,0-1.41.65,2.62,2.62,0,0,0-.55,1.77,2.05,2.05,0,0,0,.3,1.22.88.88,0,0,0,.7.42,1.57,1.57,0,0,0,.94-.43A4.25,4.25,0,0,0,43.94,12.3Z"/><path class="cls-2" d="M51.88,12.56v-.68h1l.53-2H51.88V9.19h1.67L54.12,7h.71l-.57,2.16h1.39L56.24,7H57l-.59,2.16h.83v.68h-1l-.54,2h1.55v.68H55.45l-.55,2h-.73l.56-2H53.38l-.54,2h-.72l.54-2Zm1.68-.68h1.36l.54-2H54.09Z"/><path class="cls-2" d="M60.31,13.85V8a6.92,6.92,0,0,1-.8.56A5.53,5.53,0,0,1,58.45,9V8.2A6.39,6.39,0,0,0,60.31,7h.91v6.82H63v.76H58.45v-.76Z"/><rect class="cls-3" x="0.48" y="55.3" width="89.16" height="35.85" rx="4.27"/><path class="cls-2" d="M8.46,78a1.53,1.53,0,0,1,1.39.77,4.68,4.68,0,0,1,0,4.13,1.51,1.51,0,0,1-1.39.77,1.54,1.54,0,0,1-1.39-.77,4.68,4.68,0,0,1,0-4.13A1.56,1.56,0,0,1,8.46,78Zm-1,4,1.85-2.9a1.1,1.1,0,0,0-.38-.43.84.84,0,0,0-.43-.11.94.94,0,0,0-.87.64,3.78,3.78,0,0,0-.3,1.62c0,.15,0,.31,0,.48A4.43,4.43,0,0,0,7.42,82ZM9.5,79.69,7.66,82.6A1.06,1.06,0,0,0,8,83a.73.73,0,0,0,.43.13,1,1,0,0,0,.93-.74,4.37,4.37,0,0,0,.28-1.62A4.11,4.11,0,0,0,9.5,79.69Z"/><path class="cls-2" d="M12.7,78a1.54,1.54,0,0,1,1.39.77,4.68,4.68,0,0,1,0,4.13,1.53,1.53,0,0,1-1.39.77,1.53,1.53,0,0,1-1.39-.77,4.68,4.68,0,0,1,0-4.13A1.54,1.54,0,0,1,12.7,78Zm-1,4,1.85-2.9a1,1,0,0,0-.38-.43.84.84,0,0,0-.43-.11.94.94,0,0,0-.87.64,3.78,3.78,0,0,0-.3,1.62c0,.15,0,.31,0,.48A5.62,5.62,0,0,0,11.65,82Zm2.08-2.26L11.9,82.6a1.06,1.06,0,0,0,.34.38.73.73,0,0,0,.43.13,1,1,0,0,0,.93-.74,4.59,4.59,0,0,0,.27-1.62A3.72,3.72,0,0,0,13.73,79.69Z"/><path class="cls-2" d="M16.77,82.94V78.82a5.72,5.72,0,0,1-.56.39,3.93,3.93,0,0,1-.75.33V79a4.37,4.37,0,0,0,1.31-.83h.64v4.81H18.7v.54H15.46v-.54Z"/><path class="cls-2" d="M21.17,78a1.54,1.54,0,0,1,1.39.77,4.68,4.68,0,0,1,0,4.13,1.64,1.64,0,0,1-2.78,0,4.68,4.68,0,0,1,0-4.13A1.54,1.54,0,0,1,21.17,78Zm-1.05,4L22,79.05a1,1,0,0,0-.38-.43.83.83,0,0,0-.42-.11.94.94,0,0,0-.88.64,3.78,3.78,0,0,0-.3,1.62c0,.15,0,.31,0,.48A4.2,4.2,0,0,0,20.12,82Zm2.08-2.26L20.37,82.6a1.06,1.06,0,0,0,.34.38.73.73,0,0,0,.43.13,1,1,0,0,0,.93-.74,4.59,4.59,0,0,0,.27-1.62A4.11,4.11,0,0,0,22.2,79.69Z"/><path class="cls-2" d="M25.24,82.94V78.82a5.72,5.72,0,0,1-.56.39,3.93,3.93,0,0,1-.75.33V79a4.37,4.37,0,0,0,1.31-.83h.64v4.81h1.29v.54H23.93v-.54Z"/><path class="cls-2" d="M29.48,82.94V78.82c-.2.15-.38.28-.56.39a4.23,4.23,0,0,1-.75.33V79a4.5,4.5,0,0,0,1.31-.83h.64v4.81H31.4v.54H28.17v-.54Z"/><path class="cls-2" d="M33.71,82.94V78.82a5.72,5.72,0,0,1-.56.39,3.93,3.93,0,0,1-.75.33V79a4.37,4.37,0,0,0,1.31-.83h.64v4.81h1.29v.54H32.4v-.54Z"/><path class="cls-2" d="M38.1,78a1.56,1.56,0,0,1,1.4.77,4.68,4.68,0,0,1,0,4.13,1.65,1.65,0,0,1-2.79,0,4.68,4.68,0,0,1,0-4.13A1.56,1.56,0,0,1,38.1,78Zm-1,4,1.85-2.9a1.1,1.1,0,0,0-.38-.43.84.84,0,0,0-.43-.11.94.94,0,0,0-.87.64,3.78,3.78,0,0,0-.3,1.62c0,.15,0,.31,0,.48A4.43,4.43,0,0,0,37.06,82Zm2.08-2.26L37.3,82.6a1.08,1.08,0,0,0,.35.38.71.71,0,0,0,.43.13,1,1,0,0,0,.93-.74,4.59,4.59,0,0,0,.27-1.62A4.11,4.11,0,0,0,39.14,79.69Z"/><path class="cls-2" d="M42.18,82.94V78.82a5.72,5.72,0,0,1-.56.39,3.93,3.93,0,0,1-.75.33V79a4.5,4.5,0,0,0,1.31-.83h.64v4.81h1.29v.54H40.87v-.54Z"/><path class="cls-2" d="M46.42,82.94V78.82a5.81,5.81,0,0,1-.57.39,4.09,4.09,0,0,1-.74.33V79a4.5,4.5,0,0,0,1.31-.83h.64v4.81h1.28v.54H45.11v-.54Z"/><path class="cls-2" d="M50.81,78a1.54,1.54,0,0,1,1.39.77,4.68,4.68,0,0,1,0,4.13,1.64,1.64,0,0,1-2.78,0,4.68,4.68,0,0,1,0-4.13A1.54,1.54,0,0,1,50.81,78Zm-1,4,1.84-2.9a1,1,0,0,0-.38-.43.8.8,0,0,0-.42-.11.94.94,0,0,0-.88.64,3.78,3.78,0,0,0-.3,1.62c0,.15,0,.31,0,.48A4.43,4.43,0,0,0,49.77,82Zm2.07-2.26L50,82.6a1.06,1.06,0,0,0,.34.38.73.73,0,0,0,.43.13,1,1,0,0,0,.93-.74A4.59,4.59,0,0,0,52,80.75,3.72,3.72,0,0,0,51.84,79.69Z"/><path class="cls-2" d="M55,78a1.53,1.53,0,0,1,1.39.77,4.68,4.68,0,0,1,0,4.13,1.51,1.51,0,0,1-1.39.77,1.54,1.54,0,0,1-1.39-.77,4.68,4.68,0,0,1,0-4.13A1.56,1.56,0,0,1,55,78Zm-1,4,1.85-2.9a1.1,1.1,0,0,0-.38-.43.84.84,0,0,0-.43-.11.94.94,0,0,0-.87.64,3.78,3.78,0,0,0-.3,1.62c0,.15,0,.31,0,.48A4.43,4.43,0,0,0,54,82Zm2.08-2.26L54.24,82.6a1.06,1.06,0,0,0,.34.38.73.73,0,0,0,.43.13,1,1,0,0,0,.93-.74,4.37,4.37,0,0,0,.28-1.62A4.11,4.11,0,0,0,56.08,79.69Z"/><path class="cls-2" d="M59.28,78a1.54,1.54,0,0,1,1.39.77,4.68,4.68,0,0,1,0,4.13,1.64,1.64,0,0,1-2.78,0,4.68,4.68,0,0,1,0-4.13A1.54,1.54,0,0,1,59.28,78Zm-1.05,4,1.85-2.9a1,1,0,0,0-.38-.43.84.84,0,0,0-.43-.11.94.94,0,0,0-.87.64,3.78,3.78,0,0,0-.3,1.62c0,.15,0,.31,0,.48A5.62,5.62,0,0,0,58.23,82Zm2.08-2.26L58.48,82.6a1.06,1.06,0,0,0,.34.38.73.73,0,0,0,.43.13,1,1,0,0,0,.93-.74,4.59,4.59,0,0,0,.27-1.62A3.72,3.72,0,0,0,60.31,79.69Z"/><path class="cls-2" d="M63.35,82.94V78.82a5.72,5.72,0,0,1-.56.39,3.93,3.93,0,0,1-.75.33V79a4.37,4.37,0,0,0,1.31-.83H64v4.81h1.29v.54H62v-.54Z"/><path class="cls-2" d="M67.75,78a1.54,1.54,0,0,1,1.39.77,4.68,4.68,0,0,1,0,4.13,1.64,1.64,0,0,1-2.78,0,4.68,4.68,0,0,1,0-4.13A1.54,1.54,0,0,1,67.75,78Zm-1,4,1.85-2.9a1,1,0,0,0-.38-.43.83.83,0,0,0-.42-.11.94.94,0,0,0-.88.64,3.78,3.78,0,0,0-.3,1.62c0,.15,0,.31,0,.48A4.2,4.2,0,0,0,66.7,82Zm2.08-2.26L67,82.6a1.06,1.06,0,0,0,.34.38.73.73,0,0,0,.43.13,1,1,0,0,0,.93-.74,4.59,4.59,0,0,0,.27-1.62A4.11,4.11,0,0,0,68.78,79.69Z"/><path class="cls-2" d="M71.82,82.94V78.82a5.72,5.72,0,0,1-.56.39,3.93,3.93,0,0,1-.75.33V79a4.37,4.37,0,0,0,1.31-.83h.64v4.81h1.29v.54H70.51v-.54Z"/><path class="cls-2" d="M76.22,78a1.54,1.54,0,0,1,1.39.77,4.68,4.68,0,0,1,0,4.13,1.64,1.64,0,0,1-2.78,0,4.68,4.68,0,0,1,0-4.13A1.54,1.54,0,0,1,76.22,78Zm-1,4L77,79.05a1.1,1.1,0,0,0-.38-.43.84.84,0,0,0-.43-.11.94.94,0,0,0-.87.64,3.78,3.78,0,0,0-.3,1.62c0,.15,0,.31,0,.48A4.43,4.43,0,0,0,75.17,82Zm2.08-2.26L75.42,82.6a1.06,1.06,0,0,0,.34.38.73.73,0,0,0,.43.13,1,1,0,0,0,.93-.74,4.59,4.59,0,0,0,.27-1.62A4.11,4.11,0,0,0,77.25,79.69Z"/><path class="cls-2" d="M80.29,82.94V78.82a5.72,5.72,0,0,1-.56.39,3.93,3.93,0,0,1-.75.33V79a4.37,4.37,0,0,0,1.31-.83h.64v4.81h1.29v.54H79v-.54Z"/><path class="cls-2" d="M24.83,69.22v-.93a5,5,0,0,0,2.12.56,2,2,0,0,0,.76-.15,1.21,1.21,0,0,0,.56-.45,1.17,1.17,0,0,0-.08-1.36,3.18,3.18,0,0,0-1-.76l-.5-.29-.5-.29a2.27,2.27,0,0,1-1.33-2,2,2,0,0,1,.59-1.44,2.62,2.62,0,0,1,1.86-.58,5.45,5.45,0,0,1,1.56.23v.84a4.51,4.51,0,0,0-1.62-.31,1.53,1.53,0,0,0-1,.33,1,1,0,0,0-.39.8,1.09,1.09,0,0,0,.3.78,3.33,3.33,0,0,0,.76.56l.38.23.48.29.39.23a2.24,2.24,0,0,1,1.25,1.92A2,2,0,0,1,28.8,69a2.84,2.84,0,0,1-2.05.63,4.63,4.63,0,0,1-.85-.08A6.67,6.67,0,0,1,24.83,69.22Z"/><path class="cls-2" d="M35.35,69a4.72,4.72,0,0,1-2.06.52A2.39,2.39,0,0,1,32,69.16a2.7,2.7,0,0,1-.93-1,3.21,3.21,0,0,1-.35-1.46A3.1,3.1,0,0,1,31,65.23,2.55,2.55,0,0,1,32,64.16a2.38,2.38,0,0,1,1.33-.39,1.92,1.92,0,0,1,1.56.7,3.24,3.24,0,0,1,.59,2.13v.2H31.67a2.23,2.23,0,0,0,.24,1,1.67,1.67,0,0,0,.62.71,1.72,1.72,0,0,0,.88.23,4.06,4.06,0,0,0,1.94-.58Zm-3.63-2.89h2.72V66a1.62,1.62,0,0,0-.32-1.06,1.09,1.09,0,0,0-.88-.39,1.29,1.29,0,0,0-1,.4A2.29,2.29,0,0,0,31.72,66.12Z"/><path class="cls-2" d="M40.46,68.15a2.83,2.83,0,0,1-1,1,2.11,2.11,0,0,1-1.07.35,1.64,1.64,0,0,1-1.23-.59,2.57,2.57,0,0,1-.54-1.79,3.86,3.86,0,0,1,.36-1.7,3,3,0,0,1,1-1.17,2.49,2.49,0,0,1,1.5-.43,7,7,0,0,1,.78,0l.23,0h.91V71.5h-.91Zm0-1.08V64.73a3.32,3.32,0,0,0-.9-.13,1.79,1.79,0,0,0-1.4.65A2.66,2.66,0,0,0,37.6,67a2,2,0,0,0,.31,1.23.88.88,0,0,0,.7.41,1.49,1.49,0,0,0,.93-.43A3.93,3.93,0,0,0,40.46,67.07Z"/><path class="cls-2" d="M48.41,67.33v-.68h1l.53-2H48.41V64h1.67l.57-2.16h.71L50.79,64h1.39l.59-2.16h.71L52.89,64h.83v.68h-1l-.54,2h1.55v.68H52l-.56,2H50.7l.56-2H49.91l-.54,2h-.72l.54-2Zm1.68-.68h1.35l.55-2H50.61Z"/><path class="cls-2" d="M55.62,69.38V68.7a4.3,4.3,0,0,1,.18-1.34,4.73,4.73,0,0,1,.64-1.2c.3-.45.54-.79.72-1l.79-1,.29-.36a4.62,4.62,0,0,0,.55-1H54.86V61.8h4.81v.61a1.45,1.45,0,0,1-.14.66,12,12,0,0,1-.87,1.32l-.35.48-.51.71c-.32.46-.56.82-.72,1.1a3.91,3.91,0,0,0-.35.85,4.67,4.67,0,0,0-.12,1.17v.68Z"/><path class="cls-2" d="M60.77,69.24v-1a4.43,4.43,0,0,0,1.94.57A1.71,1.71,0,0,0,64,68.39a1.5,1.5,0,0,0,.49-1.17A1.45,1.45,0,0,0,63.9,66a2.89,2.89,0,0,0-1.83-.45h-.5v-.76h.7a1.89,1.89,0,0,0,1.37-.42,1.32,1.32,0,0,0,.43-.95,1,1,0,0,0-.35-.8,1.48,1.48,0,0,0-1.06-.33,3.9,3.9,0,0,0-1.74.46v-.87a4.93,4.93,0,0,1,1.7-.34,2.64,2.64,0,0,1,1.91.54,1.73,1.73,0,0,1,.52,1.24,1.84,1.84,0,0,1-.27,1,2.27,2.27,0,0,1-1,.81,2.82,2.82,0,0,1,1,.48,2.06,2.06,0,0,1,.51.67,2.33,2.33,0,0,1-.62,2.62,2.92,2.92,0,0,1-2,.7,5.79,5.79,0,0,1-.79-.06A4,4,0,0,1,60.77,69.24Z"/><rect class="cls-1" x="1.02" y="103.48" width="89.16" height="42.44" rx="4.65"/><path class="cls-2" d="M9,126.16a1.56,1.56,0,0,1,1.4.77,4.77,4.77,0,0,1,0,4.13,1.56,1.56,0,0,1-1.4.77,1.56,1.56,0,0,1-1.39-.77,4.68,4.68,0,0,1,0-4.13A1.56,1.56,0,0,1,9,126.16Zm-1,4,1.85-2.9a1.1,1.1,0,0,0-.38-.43.85.85,0,0,0-.43-.12,1,1,0,0,0-.87.64,3.84,3.84,0,0,0-.3,1.62c0,.15,0,.31,0,.49A4.43,4.43,0,0,0,8,130.14ZM10,127.88,8.2,130.79a1.28,1.28,0,0,0,.34.38.82.82,0,0,0,.43.12,1,1,0,0,0,.93-.73,4.45,4.45,0,0,0,.28-1.62A4.11,4.11,0,0,0,10,127.88Z"/><path class="cls-2" d="M13.24,126.16a1.54,1.54,0,0,1,1.39.77,4.68,4.68,0,0,1,0,4.13,1.64,1.64,0,0,1-2.78,0,4.68,4.68,0,0,1,0-4.13A1.54,1.54,0,0,1,13.24,126.16Zm-1.05,4,1.85-2.9a1,1,0,0,0-.38-.43.84.84,0,0,0-.42-.12,1,1,0,0,0-.88.64,3.84,3.84,0,0,0-.3,1.62c0,.15,0,.31,0,.49A5.62,5.62,0,0,0,12.19,130.14Zm2.08-2.26-1.83,2.91a1.16,1.16,0,0,0,.34.38.8.8,0,0,0,.43.12,1,1,0,0,0,.93-.73,4.67,4.67,0,0,0,.27-1.62A3.72,3.72,0,0,0,14.27,127.88Z"/><path class="cls-2" d="M17.31,131.13V127a5.72,5.72,0,0,1-.56.39,4.09,4.09,0,0,1-.74.33v-.58a4.45,4.45,0,0,0,1.3-.83H18v4.81h1.29v.54H16v-.54Z"/><path class="cls-2" d="M21.71,126.16a1.54,1.54,0,0,1,1.39.77,4.68,4.68,0,0,1,0,4.13,1.64,1.64,0,0,1-2.78,0,4.68,4.68,0,0,1,0-4.13A1.54,1.54,0,0,1,21.71,126.16Zm-1.05,4,1.85-2.9a1,1,0,0,0-.38-.43.84.84,0,0,0-.42-.12,1,1,0,0,0-.88.64,3.84,3.84,0,0,0-.3,1.62c0,.15,0,.31,0,.49A5.62,5.62,0,0,0,20.66,130.14Zm2.08-2.26-1.83,2.91a1.16,1.16,0,0,0,.34.38.8.8,0,0,0,.43.12,1,1,0,0,0,.93-.73,4.67,4.67,0,0,0,.27-1.62A3.72,3.72,0,0,0,22.74,127.88Z"/><path class="cls-2" d="M25.94,126.16a1.56,1.56,0,0,1,1.4.77,4.77,4.77,0,0,1,0,4.13,1.65,1.65,0,0,1-2.79,0,4.68,4.68,0,0,1,0-4.13A1.56,1.56,0,0,1,25.94,126.16Zm-1,4,1.85-2.9a1,1,0,0,0-.39-.43.79.79,0,0,0-.42-.12,1,1,0,0,0-.87.64,3.84,3.84,0,0,0-.3,1.62c0,.15,0,.31,0,.49A4.43,4.43,0,0,0,24.9,130.14ZM27,127.88l-1.84,2.91a1.16,1.16,0,0,0,.34.38.82.82,0,0,0,.43.12,1,1,0,0,0,.93-.73,4.67,4.67,0,0,0,.28-1.62A4.11,4.11,0,0,0,27,127.88Z"/><path class="cls-2" d="M30.18,126.16a1.54,1.54,0,0,1,1.39.77,4.68,4.68,0,0,1,0,4.13,1.64,1.64,0,0,1-2.78,0,4.68,4.68,0,0,1,0-4.13A1.54,1.54,0,0,1,30.18,126.16Zm-1.05,4,1.85-2.9a1,1,0,0,0-.38-.43.84.84,0,0,0-.42-.12,1,1,0,0,0-.88.64A3.84,3.84,0,0,0,29,129c0,.15,0,.31,0,.49A3.35,3.35,0,0,0,29.13,130.14Zm2.08-2.26-1.83,2.91a1.16,1.16,0,0,0,.34.38.8.8,0,0,0,.43.12,1,1,0,0,0,.93-.73,4.67,4.67,0,0,0,.27-1.62A4.11,4.11,0,0,0,31.21,127.88Z"/><path class="cls-2" d="M34.41,126.16a1.54,1.54,0,0,1,1.39.77,4.68,4.68,0,0,1,0,4.13,1.64,1.64,0,0,1-2.78,0,4.68,4.68,0,0,1,0-4.13A1.54,1.54,0,0,1,34.41,126.16Zm-1,4,1.84-2.9a1,1,0,0,0-.38-.43.79.79,0,0,0-.42-.12,1,1,0,0,0-.87.64,3.84,3.84,0,0,0-.3,1.62c0,.15,0,.31,0,.49A4.43,4.43,0,0,0,33.37,130.14Zm2.07-2.26-1.83,2.91a1.16,1.16,0,0,0,.34.38.8.8,0,0,0,.43.12,1,1,0,0,0,.93-.73,4.67,4.67,0,0,0,.28-1.62A3.72,3.72,0,0,0,35.44,127.88Z"/><path class="cls-2" d="M38.65,126.16a1.54,1.54,0,0,1,1.39.77,4.68,4.68,0,0,1,0,4.13,1.64,1.64,0,0,1-2.78,0,4.6,4.6,0,0,1,0-4.13A1.54,1.54,0,0,1,38.65,126.16Zm-1,4,1.85-2.9a1.1,1.1,0,0,0-.38-.43.85.85,0,0,0-.43-.12,1,1,0,0,0-.87.64,3.84,3.84,0,0,0-.3,1.62c0,.15,0,.31,0,.49A4.43,4.43,0,0,0,37.6,130.14Zm2.08-2.26-1.83,2.91a1.06,1.06,0,0,0,.34.38.8.8,0,0,0,.43.12,1,1,0,0,0,.93-.73,4.67,4.67,0,0,0,.27-1.62A4.11,4.11,0,0,0,39.68,127.88Z"/><path class="cls-2" d="M42.88,126.16a1.54,1.54,0,0,1,1.39.77,4.68,4.68,0,0,1,0,4.13,1.64,1.64,0,0,1-2.78,0,4.68,4.68,0,0,1,0-4.13A1.54,1.54,0,0,1,42.88,126.16Zm-1,4,1.84-2.9a1,1,0,0,0-.38-.43.81.81,0,0,0-.42-.12.94.94,0,0,0-.87.64,3.84,3.84,0,0,0-.3,1.62c0,.15,0,.31,0,.49A4.43,4.43,0,0,0,41.84,130.14Zm2.08-2.26-1.84,2.91a1.16,1.16,0,0,0,.34.38.8.8,0,0,0,.43.12,1,1,0,0,0,.93-.73,4.67,4.67,0,0,0,.28-1.62A4.11,4.11,0,0,0,43.92,127.88Z"/><path class="cls-2" d="M47,131.13V127c-.2.15-.38.28-.56.39a4.59,4.59,0,0,1-.75.33v-.58a4.5,4.5,0,0,0,1.31-.83h.64v4.81h1.28v.54H45.65v-.54Z"/><path class="cls-2" d="M51.35,126.16a1.54,1.54,0,0,1,1.39.77,4.68,4.68,0,0,1,0,4.13,1.64,1.64,0,0,1-2.78,0,4.68,4.68,0,0,1,0-4.13A1.54,1.54,0,0,1,51.35,126.16Zm-1,4,1.84-2.9a1,1,0,0,0-.38-.43.81.81,0,0,0-.42-.12,1,1,0,0,0-.88.64,3.85,3.85,0,0,0-.29,1.62c0,.15,0,.31,0,.49A4.43,4.43,0,0,0,50.31,130.14Zm2.07-2.26-1.83,2.91a1.16,1.16,0,0,0,.34.38.8.8,0,0,0,.43.12,1,1,0,0,0,.93-.73,4.67,4.67,0,0,0,.27-1.62A3.72,3.72,0,0,0,52.38,127.88Z"/><path class="cls-2" d="M55.58,126.16a1.56,1.56,0,0,1,1.4.77,4.77,4.77,0,0,1,0,4.13,1.65,1.65,0,0,1-2.79,0,4.68,4.68,0,0,1,0-4.13A1.57,1.57,0,0,1,55.58,126.16Zm-1,4,1.85-2.9a1.1,1.1,0,0,0-.38-.43.85.85,0,0,0-.43-.12,1,1,0,0,0-.87.64,3.84,3.84,0,0,0-.3,1.62c0,.15,0,.31,0,.49A4.43,4.43,0,0,0,54.54,130.14Zm2.08-2.26-1.84,2.91a1.28,1.28,0,0,0,.34.38.82.82,0,0,0,.43.12,1,1,0,0,0,.93-.73,4.45,4.45,0,0,0,.28-1.62A4.11,4.11,0,0,0,56.62,127.88Z"/><path class="cls-2" d="M59.82,126.16a1.54,1.54,0,0,1,1.39.77,4.68,4.68,0,0,1,0,4.13,1.64,1.64,0,0,1-2.78,0,4.68,4.68,0,0,1,0-4.13A1.54,1.54,0,0,1,59.82,126.16Zm-1,4,1.85-2.9a1,1,0,0,0-.38-.43.84.84,0,0,0-.42-.12,1,1,0,0,0-.88.64,3.84,3.84,0,0,0-.3,1.62c0,.15,0,.31,0,.49A5.62,5.62,0,0,0,58.77,130.14Zm2.08-2.26L59,130.79a1.16,1.16,0,0,0,.34.38.8.8,0,0,0,.43.12,1,1,0,0,0,.93-.73,4.67,4.67,0,0,0,.27-1.62A3.72,3.72,0,0,0,60.85,127.88Z"/><path class="cls-2" d="M63.89,131.13V127a4.73,4.73,0,0,1-.56.39,4.09,4.09,0,0,1-.74.33v-.58a4.45,4.45,0,0,0,1.3-.83h.64v4.81h1.29v.54H62.59v-.54Z"/><path class="cls-2" d="M68.13,131.13V127a5.72,5.72,0,0,1-.56.39,3.93,3.93,0,0,1-.75.33v-.58a4.5,4.5,0,0,0,1.31-.83h.64v4.81h1.29v.54H66.82v-.54Z"/><path class="cls-2" d="M72.52,126.16a1.56,1.56,0,0,1,1.4.77,4.77,4.77,0,0,1,0,4.13,1.65,1.65,0,0,1-2.79,0,4.68,4.68,0,0,1,0-4.13A1.56,1.56,0,0,1,72.52,126.16Zm-1,4,1.85-2.9a1,1,0,0,0-.39-.43.79.79,0,0,0-.42-.12,1,1,0,0,0-.87.64,3.84,3.84,0,0,0-.3,1.62c0,.15,0,.31,0,.49A4.43,4.43,0,0,0,71.48,130.14Zm2.08-2.26-1.84,2.91a1.16,1.16,0,0,0,.34.38.82.82,0,0,0,.43.12,1,1,0,0,0,.93-.73,4.67,4.67,0,0,0,.28-1.62A4.11,4.11,0,0,0,73.56,127.88Z"/><path class="cls-2" d="M76.6,131.13V127a5.72,5.72,0,0,1-.56.39,4.23,4.23,0,0,1-.75.33v-.58a4.5,4.5,0,0,0,1.31-.83h.64v4.81h1.28v.54H75.29v-.54Z"/><path class="cls-2" d="M80.83,131.13V127a5.72,5.72,0,0,1-.56.39,3.93,3.93,0,0,1-.75.33v-.58a4.37,4.37,0,0,0,1.31-.83h.64v4.81h1.29v.54H79.52v-.54Z"/><path class="cls-2" d="M9,134.63a1.55,1.55,0,0,1,1.4.76,4.79,4.79,0,0,1,0,4.14,1.56,1.56,0,0,1-1.4.77,1.56,1.56,0,0,1-1.39-.77,4.7,4.7,0,0,1,0-4.14A1.55,1.55,0,0,1,9,134.63Zm-1,4,1.85-2.89a1.14,1.14,0,0,0-.38-.44.91.91,0,0,0-1.3.53,3.84,3.84,0,0,0-.3,1.62c0,.15,0,.31,0,.48A4.09,4.09,0,0,0,8,138.6ZM10,136.34,8.2,139.26a1.28,1.28,0,0,0,.34.38.82.82,0,0,0,.43.12A1,1,0,0,0,9.9,139a4.46,4.46,0,0,0,.28-1.63A4.17,4.17,0,0,0,10,136.34Z"/><path class="cls-2" d="M13.08,139.6v-4.12a5.72,5.72,0,0,1-.56.39,5.79,5.79,0,0,1-.75.33v-.58a4.72,4.72,0,0,0,1.31-.83h.64v4.81H15v.53H11.77v-.53Z"/><path class="cls-2" d="M17.47,134.63a1.53,1.53,0,0,1,1.39.76,4.7,4.7,0,0,1,0,4.14,1.53,1.53,0,0,1-1.39.77,1.56,1.56,0,0,1-1.39-.77,4.7,4.7,0,0,1,0-4.14A1.55,1.55,0,0,1,17.47,134.63Zm-1,4,1.84-2.89a1,1,0,0,0-.37-.44.91.91,0,0,0-1.3.53,3.84,3.84,0,0,0-.3,1.62c0,.15,0,.31,0,.48A4.09,4.09,0,0,0,16.43,138.6Zm2.08-2.26-1.84,2.92a1.16,1.16,0,0,0,.34.38.8.8,0,0,0,.43.12,1,1,0,0,0,.93-.73,4.46,4.46,0,0,0,.28-1.63A4.17,4.17,0,0,0,18.51,136.34Z"/><path class="cls-2" d="M21.71,134.63a1.54,1.54,0,0,1,1.39.76,4.7,4.7,0,0,1,0,4.14,1.64,1.64,0,0,1-2.78,0,4.7,4.7,0,0,1,0-4.14A1.54,1.54,0,0,1,21.71,134.63Zm-1.05,4,1.85-2.89a1.06,1.06,0,0,0-.38-.44.94.94,0,0,0-.42-.11,1,1,0,0,0-.88.64,3.84,3.84,0,0,0-.3,1.62c0,.15,0,.31,0,.48A5.11,5.11,0,0,0,20.66,138.6Zm2.08-2.26-1.83,2.92a1.16,1.16,0,0,0,.34.38.8.8,0,0,0,.43.12,1,1,0,0,0,.93-.73,4.68,4.68,0,0,0,.27-1.63A3.76,3.76,0,0,0,22.74,136.34Z"/><path class="cls-2" d="M25.94,134.63a1.55,1.55,0,0,1,1.4.76,4.79,4.79,0,0,1,0,4.14,1.65,1.65,0,0,1-2.79,0,4.7,4.7,0,0,1,0-4.14A1.55,1.55,0,0,1,25.94,134.63Zm-1,4,1.85-2.89a1.07,1.07,0,0,0-.39-.44.88.88,0,0,0-.42-.11,1,1,0,0,0-.87.64,3.84,3.84,0,0,0-.3,1.62c0,.15,0,.31,0,.48A4.09,4.09,0,0,0,24.9,138.6ZM27,136.34l-1.84,2.92a1.16,1.16,0,0,0,.34.38.82.82,0,0,0,.43.12,1,1,0,0,0,.93-.73,4.68,4.68,0,0,0,.28-1.63A4.17,4.17,0,0,0,27,136.34Z"/><path class="cls-2" d="M30.18,134.63a1.54,1.54,0,0,1,1.39.76,4.7,4.7,0,0,1,0,4.14,1.64,1.64,0,0,1-2.78,0,4.7,4.7,0,0,1,0-4.14A1.54,1.54,0,0,1,30.18,134.63Zm-1.05,4L31,135.71a1.06,1.06,0,0,0-.38-.44.94.94,0,0,0-.42-.11,1,1,0,0,0-.88.64,3.84,3.84,0,0,0-.3,1.62c0,.15,0,.31,0,.48A3.17,3.17,0,0,0,29.13,138.6Zm2.08-2.26-1.83,2.92a1.16,1.16,0,0,0,.34.38.8.8,0,0,0,.43.12,1,1,0,0,0,.93-.73,4.68,4.68,0,0,0,.27-1.63A4.17,4.17,0,0,0,31.21,136.34Z"/><path class="cls-2" d="M34.25,139.6v-4.12a5.72,5.72,0,0,1-.56.39,5.79,5.79,0,0,1-.75.33v-.58a4.58,4.58,0,0,0,1.31-.83h.64v4.81h1.29v.53H32.94v-.53Z"/><path class="cls-2" d="M38.49,139.6v-4.12c-.2.15-.38.28-.56.39a6.49,6.49,0,0,1-.75.33v-.58a4.72,4.72,0,0,0,1.31-.83h.64v4.81h1.28v.53H37.18v-.53Z"/><path class="cls-2" d="M42.72,139.6v-4.12a5.72,5.72,0,0,1-.56.39,5.79,5.79,0,0,1-.75.33v-.58a4.58,4.58,0,0,0,1.31-.83h.64v4.81h1.29v.53H41.41v-.53Z"/><path class="cls-2" d="M47,139.6v-4.12c-.2.15-.38.28-.56.39a7.37,7.37,0,0,1-.75.33v-.58a4.72,4.72,0,0,0,1.31-.83h.64v4.81h1.28v.53H45.65v-.53Z"/><path class="cls-2" d="M51.35,134.63a1.54,1.54,0,0,1,1.39.76,4.7,4.7,0,0,1,0,4.14,1.64,1.64,0,0,1-2.78,0,4.7,4.7,0,0,1,0-4.14A1.54,1.54,0,0,1,51.35,134.63Zm-1,4,1.84-2.89a1,1,0,0,0-.38-.44.91.91,0,0,0-.42-.11,1,1,0,0,0-.88.64,3.85,3.85,0,0,0-.29,1.62c0,.15,0,.31,0,.48A4.09,4.09,0,0,0,50.31,138.6Zm2.07-2.26-1.83,2.92a1.16,1.16,0,0,0,.34.38.8.8,0,0,0,.43.12,1,1,0,0,0,.93-.73,4.68,4.68,0,0,0,.27-1.63A3.76,3.76,0,0,0,52.38,136.34Z"/><path class="cls-2" d="M55.43,139.6v-4.12a5.81,5.81,0,0,1-.57.39,6.23,6.23,0,0,1-.74.33v-.58a4.72,4.72,0,0,0,1.31-.83h.64v4.81h1.28v.53H54.12v-.53Z"/><path class="cls-2" d="M59.82,134.63a1.54,1.54,0,0,1,1.39.76,4.7,4.7,0,0,1,0,4.14,1.64,1.64,0,0,1-2.78,0,4.7,4.7,0,0,1,0-4.14A1.54,1.54,0,0,1,59.82,134.63Zm-1,4,1.85-2.89a1,1,0,0,0-.38-.44.94.94,0,0,0-.42-.11,1,1,0,0,0-.88.64,3.84,3.84,0,0,0-.3,1.62c0,.15,0,.31,0,.48A5.11,5.11,0,0,0,58.77,138.6Zm2.08-2.26L59,139.26a1.16,1.16,0,0,0,.34.38.8.8,0,0,0,.43.12,1,1,0,0,0,.93-.73A4.68,4.68,0,0,0,61,137.4,3.76,3.76,0,0,0,60.85,136.34Z"/><path class="cls-2" d="M63.89,139.6v-4.12a4.73,4.73,0,0,1-.56.39,6.23,6.23,0,0,1-.74.33v-.58a4.66,4.66,0,0,0,1.3-.83h.64v4.81h1.29v.53H62.59v-.53Z"/><path class="cls-2" d="M68.13,139.6v-4.12a5.72,5.72,0,0,1-.56.39,5.79,5.79,0,0,1-.75.33v-.58a4.72,4.72,0,0,0,1.31-.83h.64v4.81h1.29v.53H66.82v-.53Z"/><path class="cls-2" d="M72.36,139.6v-4.12a5.72,5.72,0,0,1-.56.39,5.79,5.79,0,0,1-.75.33v-.58a4.58,4.58,0,0,0,1.31-.83H73v4.81h1.28v.53H71.05v-.53Z"/><path class="cls-2" d="M76.76,134.63a1.54,1.54,0,0,1,1.39.76,4.7,4.7,0,0,1,0,4.14,1.64,1.64,0,0,1-2.78,0,4.7,4.7,0,0,1,0-4.14A1.54,1.54,0,0,1,76.76,134.63Zm-1.05,4,1.85-2.89a1.06,1.06,0,0,0-.38-.44.94.94,0,0,0-.42-.11,1,1,0,0,0-.88.64,3.84,3.84,0,0,0-.3,1.62c0,.15,0,.31,0,.48A3.17,3.17,0,0,0,75.71,138.6Zm2.08-2.26L76,139.26a1.16,1.16,0,0,0,.34.38.8.8,0,0,0,.43.12,1,1,0,0,0,.93-.73,4.68,4.68,0,0,0,.27-1.63A4.17,4.17,0,0,0,77.79,136.34Z"/><path class="cls-2" d="M80.83,139.6v-4.12a5.72,5.72,0,0,1-.56.39,5.79,5.79,0,0,1-.75.33v-.58a4.58,4.58,0,0,0,1.31-.83h.64v4.81h1.29v.53H79.52v-.53Z"/><path class="cls-2" d="M25.37,117.4v-.92a5,5,0,0,0,2.12.56,1.79,1.79,0,0,0,.76-.16,1.19,1.19,0,0,0,.56-.44,1.15,1.15,0,0,0,.18-.62,1.23,1.23,0,0,0-.25-.75,3.57,3.57,0,0,0-1-.76l-.5-.28-.5-.29a2.28,2.28,0,0,1-1.33-2,2,2,0,0,1,.59-1.44,2.58,2.58,0,0,1,1.86-.58,5.08,5.08,0,0,1,1.56.23v.84a4.53,4.53,0,0,0-1.62-.32,1.53,1.53,0,0,0-1,.34,1,1,0,0,0-.38.8,1,1,0,0,0,.29.77,3.08,3.08,0,0,0,.76.57l.38.23.48.29.39.23A2.24,2.24,0,0,1,30,115.66a2,2,0,0,1-.64,1.5,2.84,2.84,0,0,1-2.05.63,4.64,4.64,0,0,1-.85-.07A6.89,6.89,0,0,1,25.37,117.4Z"/><path class="cls-2" d="M35.89,117.2a4.86,4.86,0,0,1-2.06.52,2.47,2.47,0,0,1-1.32-.37,2.66,2.66,0,0,1-.93-1,3.17,3.17,0,0,1-.35-1.45,3.31,3.31,0,0,1,.34-1.44,2.61,2.61,0,0,1,.92-1.07,2.46,2.46,0,0,1,1.33-.38,1.94,1.94,0,0,1,1.56.69,3.26,3.26,0,0,1,.59,2.14V115H32.21a2.24,2.24,0,0,0,.24,1A1.62,1.62,0,0,0,34,117a4.09,4.09,0,0,0,1.94-.59Zm-3.62-2.9H35v-.13a1.6,1.6,0,0,0-.32-1.06,1.09,1.09,0,0,0-.88-.39,1.3,1.3,0,0,0-1,.4A2.21,2.21,0,0,0,32.27,114.3Z"/><path class="cls-2" d="M41,116.34a3.09,3.09,0,0,1-1,1,2.17,2.17,0,0,1-1.08.35,1.67,1.67,0,0,1-1.23-.59,2.62,2.62,0,0,1-.54-1.8,3.85,3.85,0,0,1,.36-1.69,3,3,0,0,1,1-1.17A2.49,2.49,0,0,1,40,112a7.59,7.59,0,0,1,.78.06l.23,0h.91v7.57H41Zm0-1.08v-2.34a3.44,3.44,0,0,0-.91-.13,1.79,1.79,0,0,0-1.4.65,2.63,2.63,0,0,0-.56,1.77,2,2,0,0,0,.31,1.22.87.87,0,0,0,.7.42,1.6,1.6,0,0,0,.94-.43A4.44,4.44,0,0,0,41,115.26Z"/><path class="cls-2" d="M49,115.52v-.68h1l.53-2H49v-.68h1.67l.57-2.16h.71l-.57,2.16h1.39l.59-2.16H54l-.59,2.16h.83v.68h-1l-.54,2h1.55v.68H52.52l-.56,2h-.72l.56-2H50.45l-.54,2h-.72l.54-2Zm1.68-.68H52l.54-2H51.15Z"/><path class="cls-2" d="M55.31,117.43v-1a4.43,4.43,0,0,0,1.94.57,1.71,1.71,0,0,0,1.24-.46,1.5,1.5,0,0,0,.49-1.17,1.47,1.47,0,0,0-.54-1.18,2.89,2.89,0,0,0-1.83-.45h-.5V113h.7a1.85,1.85,0,0,0,1.37-.43,1.29,1.29,0,0,0,.43-1,1.08,1.08,0,0,0-.35-.8,1.53,1.53,0,0,0-1.06-.32,4,4,0,0,0-1.74.45v-.86a5,5,0,0,1,1.7-.35,2.59,2.59,0,0,1,1.91.55,1.72,1.72,0,0,1,.52,1.24,1.87,1.87,0,0,1-.27,1,2.41,2.41,0,0,1-1,.81,2.82,2.82,0,0,1,1,.48,2,2,0,0,1,.51.67,2.16,2.16,0,0,1,.17.86,2.23,2.23,0,0,1-.79,1.76,3,3,0,0,1-2,.69,5.67,5.67,0,0,1-.79-.05A4.45,4.45,0,0,1,55.31,117.43Z"/><path class="cls-2" d="M62.16,117.57v-.68a4.3,4.3,0,0,1,.18-1.34,5.12,5.12,0,0,1,.64-1.21c.3-.44.54-.78.73-1l.78-1,.29-.37a4.74,4.74,0,0,0,.56-1H61.41V110h4.81v.6a1.5,1.5,0,0,1-.15.67,12.23,12.23,0,0,1-.87,1.31c-.12.17-.23.33-.35.48l-.51.72c-.32.45-.56.82-.72,1.09a4,4,0,0,0-.35.86,4.62,4.62,0,0,0-.12,1.17v.68Z"/><rect class="cls-1" x="190.82" y="0.53" width="89.16" height="42.44" rx="4.65"/><path class="cls-2" d="M198.8,23.2a1.54,1.54,0,0,1,1.39.77,3.85,3.85,0,0,1,.48,2.06,3.87,3.87,0,0,1-.48,2.07,1.64,1.64,0,0,1-2.78,0,3.87,3.87,0,0,1-.48-2.07,3.85,3.85,0,0,1,.48-2.06A1.54,1.54,0,0,1,198.8,23.2Zm-1.05,4,1.85-2.9a1.1,1.1,0,0,0-.38-.43.84.84,0,0,0-.43-.11.94.94,0,0,0-.87.63,3.84,3.84,0,0,0-.3,1.62c0,.15,0,.31,0,.49A4.43,4.43,0,0,0,197.75,27.18Zm2.08-2.26L198,27.83a1.06,1.06,0,0,0,.34.38.8.8,0,0,0,.43.12,1,1,0,0,0,.93-.73A4.67,4.67,0,0,0,200,26,4.11,4.11,0,0,0,199.83,24.92Z"/><path class="cls-2" d="M202.87,28.17V24.05a5.72,5.72,0,0,1-.56.39,3.93,3.93,0,0,1-.75.33v-.58a4.37,4.37,0,0,0,1.31-.83h.64v4.81h1.29v.54h-3.24v-.54Z"/><path class="cls-2" d="M207.11,28.17V24.05a5.81,5.81,0,0,1-.57.39,4.09,4.09,0,0,1-.74.33v-.58a4.5,4.5,0,0,0,1.31-.83h.64v4.81H209v.54H205.8v-.54Z"/><path class="cls-2" d="M211.5,23.2a1.54,1.54,0,0,1,1.39.77,3.85,3.85,0,0,1,.48,2.06,3.87,3.87,0,0,1-.48,2.07,1.64,1.64,0,0,1-2.78,0,3.87,3.87,0,0,1-.48-2.07,3.85,3.85,0,0,1,.48-2.06A1.54,1.54,0,0,1,211.5,23.2Zm-1,4,1.84-2.9a1,1,0,0,0-.38-.43.8.8,0,0,0-.42-.11,1,1,0,0,0-.88.63,4,4,0,0,0-.29,1.62c0,.15,0,.31,0,.49A4.43,4.43,0,0,0,210.46,27.18Zm2.07-2.26-1.83,2.91a1.06,1.06,0,0,0,.34.38.8.8,0,0,0,.43.12,1,1,0,0,0,.93-.73,4.67,4.67,0,0,0,.28-1.62A3.72,3.72,0,0,0,212.53,24.92Z"/><path class="cls-2" d="M215.58,28.17V24.05c-.2.15-.38.28-.56.39a4.59,4.59,0,0,1-.75.33v-.58a4.5,4.5,0,0,0,1.31-.83h.64v4.81h1.28v.54h-3.23v-.54Z"/><path class="cls-2" d="M219.81,28.17V24.05a5.72,5.72,0,0,1-.56.39,3.93,3.93,0,0,1-.75.33v-.58a4.5,4.5,0,0,0,1.31-.83h.64v4.81h1.29v.54H218.5v-.54Z"/><path class="cls-2" d="M224,28.17V24.05a4.73,4.73,0,0,1-.56.39,4.09,4.09,0,0,1-.74.33v-.58a4.32,4.32,0,0,0,1.3-.83h.64v4.81H226v.54h-3.23v-.54Z"/><path class="cls-2" d="M228.44,23.2a1.54,1.54,0,0,1,1.39.77,3.85,3.85,0,0,1,.48,2.06,3.87,3.87,0,0,1-.48,2.07,1.64,1.64,0,0,1-2.78,0,3.87,3.87,0,0,1-.48-2.07,3.85,3.85,0,0,1,.48-2.06A1.54,1.54,0,0,1,228.44,23.2Zm-1.05,4,1.85-2.9a1,1,0,0,0-.38-.43.84.84,0,0,0-.43-.11.94.94,0,0,0-.87.63,3.84,3.84,0,0,0-.3,1.62c0,.15,0,.31,0,.49A5.62,5.62,0,0,0,227.39,27.18Zm2.08-2.26-1.83,2.91a1.06,1.06,0,0,0,.34.38.8.8,0,0,0,.43.12,1,1,0,0,0,.93-.73,4.67,4.67,0,0,0,.27-1.62A3.72,3.72,0,0,0,229.47,24.92Z"/><path class="cls-2" d="M232.52,28.17V24.05q-.3.22-.57.39a3.93,3.93,0,0,1-.75.33v-.58a4.55,4.55,0,0,0,1.32-.83h.64v4.81h1.28v.54H231.2v-.54Z"/><path class="cls-2" d="M236.75,28.17V24.05a5.72,5.72,0,0,1-.56.39,3.93,3.93,0,0,1-.75.33v-.58a4.5,4.5,0,0,0,1.31-.83h.64v4.81h1.29v.54h-3.24v-.54Z"/><path class="cls-2" d="M241.14,23.2a1.54,1.54,0,0,1,1.39.77A3.85,3.85,0,0,1,243,26a3.87,3.87,0,0,1-.48,2.07,1.64,1.64,0,0,1-2.78,0,3.87,3.87,0,0,1-.48-2.07,3.85,3.85,0,0,1,.48-2.06A1.54,1.54,0,0,1,241.14,23.2Zm-1,4,1.84-2.9a1,1,0,0,0-.38-.43.78.78,0,0,0-.42-.11.94.94,0,0,0-.87.63A3.84,3.84,0,0,0,240,26c0,.15,0,.31,0,.49A4.43,4.43,0,0,0,240.1,27.18Zm2.08-2.26-1.84,2.91a1.06,1.06,0,0,0,.34.38.8.8,0,0,0,.43.12,1,1,0,0,0,.93-.73,4.67,4.67,0,0,0,.28-1.62A4.11,4.11,0,0,0,242.18,24.92Z"/><path class="cls-2" d="M245.22,28.17V24.05c-.2.15-.38.28-.56.39a4.23,4.23,0,0,1-.75.33v-.58a4.5,4.5,0,0,0,1.31-.83h.64v4.81h1.28v.54h-3.23v-.54Z"/><path class="cls-2" d="M249.61,23.2A1.54,1.54,0,0,1,251,24a3.85,3.85,0,0,1,.48,2.06A3.87,3.87,0,0,1,251,28.1a1.64,1.64,0,0,1-2.78,0,3.87,3.87,0,0,1-.48-2.07,3.85,3.85,0,0,1,.48-2.06A1.54,1.54,0,0,1,249.61,23.2Zm-1,4,1.84-2.9a1,1,0,0,0-.38-.43.78.78,0,0,0-.42-.11.93.93,0,0,0-.87.63,3.69,3.69,0,0,0-.31,1.62c0,.15,0,.31,0,.49A4.43,4.43,0,0,0,248.57,27.18Zm2.07-2.26-1.83,2.91a1.06,1.06,0,0,0,.34.38.8.8,0,0,0,.43.12,1,1,0,0,0,.93-.73,4.67,4.67,0,0,0,.27-1.62A3.72,3.72,0,0,0,250.64,24.92Z"/><path class="cls-2" d="M253.69,28.17V24.05a5.81,5.81,0,0,1-.57.39,4.09,4.09,0,0,1-.74.33v-.58a4.5,4.5,0,0,0,1.31-.83h.64v4.81h1.28v.54h-3.23v-.54Z"/><path class="cls-2" d="M258.08,23.2a1.54,1.54,0,0,1,1.39.77A3.85,3.85,0,0,1,260,26a3.87,3.87,0,0,1-.48,2.07,1.64,1.64,0,0,1-2.78,0,3.87,3.87,0,0,1-.48-2.07,3.85,3.85,0,0,1,.48-2.06A1.54,1.54,0,0,1,258.08,23.2Zm-1,4,1.84-2.9a1,1,0,0,0-.38-.43.8.8,0,0,0-.42-.11,1,1,0,0,0-.88.63,4,4,0,0,0-.29,1.62c0,.15,0,.31,0,.49A4.43,4.43,0,0,0,257,27.18Zm2.07-2.26-1.83,2.91a1.06,1.06,0,0,0,.34.38.8.8,0,0,0,.43.12,1,1,0,0,0,.93-.73,4.67,4.67,0,0,0,.28-1.62A3.72,3.72,0,0,0,259.11,24.92Z"/><path class="cls-2" d="M262.16,28.17V24.05c-.2.15-.38.28-.56.39a4.59,4.59,0,0,1-.75.33v-.58a4.5,4.5,0,0,0,1.31-.83h.64v4.81h1.28v.54h-3.23v-.54Z"/><path class="cls-2" d="M266.55,23.2a1.54,1.54,0,0,1,1.39.77,3.85,3.85,0,0,1,.48,2.06,3.87,3.87,0,0,1-.48,2.07,1.64,1.64,0,0,1-2.78,0,3.87,3.87,0,0,1-.48-2.07,3.85,3.85,0,0,1,.48-2.06A1.54,1.54,0,0,1,266.55,23.2Zm-1,4,1.84-2.9a1,1,0,0,0-.38-.43.8.8,0,0,0-.42-.11,1,1,0,0,0-.88.63,3.84,3.84,0,0,0-.3,1.62c0,.15,0,.31,0,.49A4.43,4.43,0,0,0,265.51,27.18Zm2.07-2.26-1.83,2.91a1.06,1.06,0,0,0,.34.38.8.8,0,0,0,.43.12,1,1,0,0,0,.93-.73,4.67,4.67,0,0,0,.27-1.62A3.72,3.72,0,0,0,267.58,24.92Z"/><path class="cls-2" d="M270.62,28.17V24.05a4.73,4.73,0,0,1-.56.39,4.09,4.09,0,0,1-.74.33v-.58a4.32,4.32,0,0,0,1.3-.83h.65v4.81h1.28v.54h-3.23v-.54Z"/><path class="cls-2" d="M198.8,31.67a1.53,1.53,0,0,1,1.39.77,3.83,3.83,0,0,1,.48,2.06,3.87,3.87,0,0,1-.48,2.07,1.64,1.64,0,0,1-2.78,0,3.87,3.87,0,0,1-.48-2.07,3.83,3.83,0,0,1,.48-2.06A1.53,1.53,0,0,1,198.8,31.67Zm-1.05,4,1.85-2.89a1.14,1.14,0,0,0-.38-.44.91.91,0,0,0-1.3.53,3.84,3.84,0,0,0-.3,1.62c0,.15,0,.31,0,.48A4.09,4.09,0,0,0,197.75,35.64Zm2.08-2.26L198,36.3a1.16,1.16,0,0,0,.34.38.8.8,0,0,0,.43.12,1,1,0,0,0,.93-.73,4.67,4.67,0,0,0,.27-1.62A4.18,4.18,0,0,0,199.83,33.38Z"/><path class="cls-2" d="M202.87,36.64V32.52a5.72,5.72,0,0,1-.56.39,5.79,5.79,0,0,1-.75.33v-.58a4.58,4.58,0,0,0,1.31-.83h.64v4.81h1.29v.53h-3.24v-.53Z"/><path class="cls-2" d="M207.11,36.64V32.52a5.81,5.81,0,0,1-.57.39,6.23,6.23,0,0,1-.74.33v-.58a4.72,4.72,0,0,0,1.31-.83h.64v4.81H209v.53H205.8v-.53Z"/><path class="cls-2" d="M211.5,31.67a1.53,1.53,0,0,1,1.39.77,3.83,3.83,0,0,1,.48,2.06,3.87,3.87,0,0,1-.48,2.07,1.64,1.64,0,0,1-2.78,0,3.87,3.87,0,0,1-.48-2.07,3.83,3.83,0,0,1,.48-2.06A1.53,1.53,0,0,1,211.5,31.67Zm-1,4,1.84-2.89a1,1,0,0,0-.38-.44.91.91,0,0,0-.42-.11,1,1,0,0,0-.88.64,4,4,0,0,0-.29,1.62c0,.15,0,.31,0,.48A4.09,4.09,0,0,0,210.46,35.64Zm2.07-2.26L210.7,36.3a1.16,1.16,0,0,0,.34.38.8.8,0,0,0,.43.12,1,1,0,0,0,.93-.73,4.67,4.67,0,0,0,.28-1.62A3.79,3.79,0,0,0,212.53,33.38Z"/><path class="cls-2" d="M215.73,31.67a1.54,1.54,0,0,1,1.4.77,3.83,3.83,0,0,1,.47,2.06,3.87,3.87,0,0,1-.47,2.07,1.56,1.56,0,0,1-1.4.77,1.54,1.54,0,0,1-1.38-.77,3.78,3.78,0,0,1-.49-2.07,3.74,3.74,0,0,1,.49-2.06A1.52,1.52,0,0,1,215.73,31.67Zm-1,4,1.85-2.89a1.14,1.14,0,0,0-.38-.44.91.91,0,0,0-1.3.53,3.84,3.84,0,0,0-.3,1.62c0,.15,0,.31,0,.48A4.09,4.09,0,0,0,214.69,35.64Zm2.08-2.26-1.84,2.92a1.28,1.28,0,0,0,.34.38.82.82,0,0,0,.43.12,1,1,0,0,0,.93-.73,4.45,4.45,0,0,0,.28-1.62A4.18,4.18,0,0,0,216.77,33.38Z"/><path class="cls-2" d="M220,31.67a1.53,1.53,0,0,1,1.39.77,3.83,3.83,0,0,1,.48,2.06,3.87,3.87,0,0,1-.48,2.07,1.64,1.64,0,0,1-2.78,0,3.87,3.87,0,0,1-.48-2.07,3.83,3.83,0,0,1,.48-2.06A1.53,1.53,0,0,1,220,31.67Zm-1,4,1.84-2.89a1,1,0,0,0-.38-.44.91.91,0,0,0-.42-.11,1,1,0,0,0-.88.64,3.84,3.84,0,0,0-.3,1.62c0,.15,0,.31,0,.48A4.09,4.09,0,0,0,218.93,35.64ZM221,33.38l-1.83,2.92a1.16,1.16,0,0,0,.34.38.8.8,0,0,0,.43.12,1,1,0,0,0,.93-.73,4.67,4.67,0,0,0,.27-1.62A3.79,3.79,0,0,0,221,33.38Z"/><path class="cls-2" d="M224,36.64V32.52a4.73,4.73,0,0,1-.56.39,6.23,6.23,0,0,1-.74.33v-.58a4.52,4.52,0,0,0,1.3-.83h.64v4.81H226v.53h-3.23v-.53Z"/><path class="cls-2" d="M228.44,31.67a1.53,1.53,0,0,1,1.39.77,3.83,3.83,0,0,1,.48,2.06,3.87,3.87,0,0,1-.48,2.07,1.64,1.64,0,0,1-2.78,0,3.87,3.87,0,0,1-.48-2.07,3.83,3.83,0,0,1,.48-2.06A1.53,1.53,0,0,1,228.44,31.67Zm-1.05,4,1.85-2.89a1.06,1.06,0,0,0-.38-.44.91.91,0,0,0-1.3.53,3.84,3.84,0,0,0-.3,1.62c0,.15,0,.31,0,.48A5.11,5.11,0,0,0,227.39,35.64Zm2.08-2.26-1.83,2.92a1.16,1.16,0,0,0,.34.38.8.8,0,0,0,.43.12,1,1,0,0,0,.93-.73,4.67,4.67,0,0,0,.27-1.62A3.79,3.79,0,0,0,229.47,33.38Z"/><path class="cls-2" d="M232.67,31.67a1.54,1.54,0,0,1,1.4.77,3.93,3.93,0,0,1,.47,2.06,4,4,0,0,1-.47,2.07,1.65,1.65,0,0,1-2.79,0,3.87,3.87,0,0,1-.48-2.07,3.83,3.83,0,0,1,.48-2.06A1.54,1.54,0,0,1,232.67,31.67Zm-1,4,1.85-2.89a1.14,1.14,0,0,0-.38-.44.91.91,0,0,0-1.3.53,3.84,3.84,0,0,0-.3,1.62c0,.15,0,.31,0,.48A4.09,4.09,0,0,0,231.63,35.64Zm2.08-2.26-1.84,2.92a1.28,1.28,0,0,0,.34.38.82.82,0,0,0,.43.12,1,1,0,0,0,.93-.73,4.45,4.45,0,0,0,.28-1.62A4.18,4.18,0,0,0,233.71,33.38Z"/><path class="cls-2" d="M236.75,36.64V32.52a5.72,5.72,0,0,1-.56.39,5.79,5.79,0,0,1-.75.33v-.58a4.72,4.72,0,0,0,1.31-.83h.64v4.81h1.29v.53h-3.24v-.53Z"/><path class="cls-2" d="M241.14,31.67a1.53,1.53,0,0,1,1.39.77A3.83,3.83,0,0,1,243,34.5a3.87,3.87,0,0,1-.48,2.07,1.64,1.64,0,0,1-2.78,0,3.87,3.87,0,0,1-.48-2.07,3.83,3.83,0,0,1,.48-2.06A1.53,1.53,0,0,1,241.14,31.67Zm-1,4,1.84-2.89a1,1,0,0,0-.38-.44.88.88,0,0,0-.42-.11,1,1,0,0,0-.87.64,3.84,3.84,0,0,0-.3,1.62c0,.15,0,.31,0,.48A4.09,4.09,0,0,0,240.1,35.64Zm2.08-2.26-1.84,2.92a1.16,1.16,0,0,0,.34.38.8.8,0,0,0,.43.12,1,1,0,0,0,.93-.73,4.67,4.67,0,0,0,.28-1.62A4.18,4.18,0,0,0,242.18,33.38Z"/><path class="cls-2" d="M245.22,36.64V32.52c-.2.15-.38.28-.56.39a6.49,6.49,0,0,1-.75.33v-.58a4.72,4.72,0,0,0,1.31-.83h.64v4.81h1.28v.53h-3.23v-.53Z"/><path class="cls-2" d="M249.61,31.67a1.53,1.53,0,0,1,1.39.77,3.83,3.83,0,0,1,.48,2.06,3.87,3.87,0,0,1-.48,2.07,1.64,1.64,0,0,1-2.78,0,3.87,3.87,0,0,1-.48-2.07,3.83,3.83,0,0,1,.48-2.06A1.53,1.53,0,0,1,249.61,31.67Zm-1,4,1.84-2.89a1,1,0,0,0-.38-.44.88.88,0,0,0-.42-.11.94.94,0,0,0-.87.64,3.69,3.69,0,0,0-.31,1.62c0,.15,0,.31,0,.48A4.09,4.09,0,0,0,248.57,35.64Zm2.07-2.26-1.83,2.92a1.16,1.16,0,0,0,.34.38.8.8,0,0,0,.43.12,1,1,0,0,0,.93-.73,4.67,4.67,0,0,0,.27-1.62A3.79,3.79,0,0,0,250.64,33.38Z"/><path class="cls-2" d="M253.69,36.64V32.52a5.81,5.81,0,0,1-.57.39,6.23,6.23,0,0,1-.74.33v-.58a4.72,4.72,0,0,0,1.31-.83h.64v4.81h1.28v.53h-3.23v-.53Z"/><path class="cls-2" d="M258.08,31.67a1.53,1.53,0,0,1,1.39.77A3.83,3.83,0,0,1,260,34.5a3.87,3.87,0,0,1-.48,2.07,1.64,1.64,0,0,1-2.78,0,3.87,3.87,0,0,1-.48-2.07,3.83,3.83,0,0,1,.48-2.06A1.53,1.53,0,0,1,258.08,31.67Zm-1,4,1.84-2.89a1,1,0,0,0-.38-.44.91.91,0,0,0-.42-.11,1,1,0,0,0-.88.64,4,4,0,0,0-.29,1.62c0,.15,0,.31,0,.48A4.09,4.09,0,0,0,257,35.64Zm2.07-2.26-1.83,2.92a1.16,1.16,0,0,0,.34.38.8.8,0,0,0,.43.12,1,1,0,0,0,.93-.73,4.67,4.67,0,0,0,.28-1.62A3.79,3.79,0,0,0,259.11,33.38Z"/><path class="cls-2" d="M262.16,36.64V32.52c-.2.15-.38.28-.56.39a7.37,7.37,0,0,1-.75.33v-.58a4.72,4.72,0,0,0,1.31-.83h.64v4.81h1.28v.53h-3.23v-.53Z"/><path class="cls-2" d="M266.39,36.64V32.52a5.72,5.72,0,0,1-.56.39,5.79,5.79,0,0,1-.75.33v-.58a4.72,4.72,0,0,0,1.31-.83H267v4.81h1.29v.53h-3.24v-.53Z"/><path class="cls-2" d="M270.78,31.67a1.54,1.54,0,0,1,1.4.77,3.83,3.83,0,0,1,.47,2.06,3.87,3.87,0,0,1-.47,2.07,1.65,1.65,0,0,1-2.79,0,3.87,3.87,0,0,1-.48-2.07,3.83,3.83,0,0,1,.48-2.06A1.54,1.54,0,0,1,270.78,31.67Zm-1,4,1.85-2.89a1.14,1.14,0,0,0-.38-.44.91.91,0,0,0-1.3.53,3.84,3.84,0,0,0-.3,1.62c0,.15,0,.31,0,.48A4.09,4.09,0,0,0,269.74,35.64Zm2.08-2.26L270,36.3a1.16,1.16,0,0,0,.34.38.82.82,0,0,0,.43.12,1,1,0,0,0,.93-.73,4.45,4.45,0,0,0,.28-1.62A4.18,4.18,0,0,0,271.82,33.38Z"/><path class="cls-2" d="M218.16,14.44v-.92a5,5,0,0,0,2.12.56,1.87,1.87,0,0,0,.77-.16,1.21,1.21,0,0,0,.55-.44,1.16,1.16,0,0,0,.19-.62,1.19,1.19,0,0,0-.26-.74,3.24,3.24,0,0,0-1-.77l-.49-.28-.51-.29a2.3,2.3,0,0,1-1.33-2,1.93,1.93,0,0,1,.6-1.44,2.53,2.53,0,0,1,1.85-.58,5.19,5.19,0,0,1,1.57.23v.84a4.63,4.63,0,0,0-1.63-.32,1.48,1.48,0,0,0-1,.34,1,1,0,0,0-.39.8,1,1,0,0,0,.3.77,3,3,0,0,0,.75.57l.39.23.47.29.39.23a2.22,2.22,0,0,1,1.25,1.92,2,2,0,0,1-.64,1.51,2.82,2.82,0,0,1-2,.63,4.74,4.74,0,0,1-.86-.08A7.22,7.22,0,0,1,218.16,14.44Z"/><path class="cls-2" d="M228.69,14.24a4.78,4.78,0,0,1-2.06.52,2.43,2.43,0,0,1-1.32-.37,2.52,2.52,0,0,1-.93-1.05,3,3,0,0,1-.35-1.45,3.3,3.3,0,0,1,.33-1.44,2.62,2.62,0,0,1,.93-1.07A2.43,2.43,0,0,1,226.62,9a2,2,0,0,1,1.56.69,3.28,3.28,0,0,1,.58,2.14V12H225a2.24,2.24,0,0,0,.24,1,1.71,1.71,0,0,0,.62.7,1.64,1.64,0,0,0,.88.24,4.12,4.12,0,0,0,1.95-.59Zm-3.63-2.9h2.72v-.13a1.6,1.6,0,0,0-.33-1.06,1.08,1.08,0,0,0-.87-.39,1.31,1.31,0,0,0-1,.4A2.29,2.29,0,0,0,225.06,11.34Z"/><path class="cls-2" d="M233.8,13.38a2.91,2.91,0,0,1-1,1,2.17,2.17,0,0,1-1.08.35,1.64,1.64,0,0,1-1.22-.59,2.57,2.57,0,0,1-.55-1.8,3.85,3.85,0,0,1,.36-1.69,3,3,0,0,1,1-1.17,2.49,2.49,0,0,1,1.5-.44,7.59,7.59,0,0,1,.78.06l.24,0h.91v7.57h-.91Zm0-1.08V10a3.37,3.37,0,0,0-.9-.13,1.78,1.78,0,0,0-1.4.65,2.58,2.58,0,0,0-.56,1.77,2.05,2.05,0,0,0,.3,1.22.88.88,0,0,0,.7.42,1.57,1.57,0,0,0,.94-.43A4.25,4.25,0,0,0,233.8,12.3Z"/><path class="cls-2" d="M241.74,12.56v-.68h1l.53-2h-1.49V9.19h1.67L244,7h.71l-.56,2.16h1.38L246.1,7h.71l-.58,2.16h.82v.68h-1l-.54,2h1.55v.68h-1.74l-.55,2H244l.56-2h-1.35l-.54,2H242l.54-2Zm1.68-.68h1.36l.55-2H244Z"/><path class="cls-2" d="M250.17,13.85V8a6.16,6.16,0,0,1-.8.56,5.53,5.53,0,0,1-1.06.46V8.2A6.26,6.26,0,0,0,250.17,7h.91v6.82h1.82v.76h-4.59v-.76Z"/><rect class="cls-1" x="191.43" y="55.3" width="89.16" height="42.44" rx="4.65"/><path class="cls-2" d="M199.42,78a1.56,1.56,0,0,1,1.39.77,4.68,4.68,0,0,1,0,4.13,1.54,1.54,0,0,1-1.39.77,1.55,1.55,0,0,1-1.4-.77,4.68,4.68,0,0,1,0-4.13A1.57,1.57,0,0,1,199.42,78Zm-1,4,1.85-2.9a1.1,1.1,0,0,0-.38-.43.84.84,0,0,0-.43-.11.94.94,0,0,0-.87.64,3.78,3.78,0,0,0-.3,1.62c0,.15,0,.31,0,.48A4.43,4.43,0,0,0,198.37,82Zm2.08-2.26-1.84,2.91A1.08,1.08,0,0,0,199,83a.73.73,0,0,0,.43.13,1,1,0,0,0,.93-.74,4.59,4.59,0,0,0,.27-1.62A4.11,4.11,0,0,0,200.45,79.69Z"/><path class="cls-2" d="M203.65,78a1.54,1.54,0,0,1,1.39.77,4.68,4.68,0,0,1,0,4.13,1.64,1.64,0,0,1-2.78,0,4.68,4.68,0,0,1,0-4.13A1.54,1.54,0,0,1,203.65,78Zm-1.05,4,1.85-2.9a1,1,0,0,0-.38-.43.83.83,0,0,0-.42-.11,1,1,0,0,0-.88.64,3.78,3.78,0,0,0-.3,1.62c0,.15,0,.31,0,.48A5.62,5.62,0,0,0,202.6,82Zm2.08-2.26-1.83,2.91a1.06,1.06,0,0,0,.34.38.73.73,0,0,0,.43.13,1,1,0,0,0,.93-.74,4.59,4.59,0,0,0,.27-1.62A3.72,3.72,0,0,0,204.68,79.69Z"/><path class="cls-2" d="M207.73,82.94V78.82a5.81,5.81,0,0,1-.57.39,4.09,4.09,0,0,1-.74.33V79a4.64,4.64,0,0,0,1.31-.83h.64v4.81h1.28v.54h-3.23v-.54Z"/><path class="cls-2" d="M212.12,78a1.54,1.54,0,0,1,1.39.77,4.68,4.68,0,0,1,0,4.13,1.64,1.64,0,0,1-2.78,0,4.68,4.68,0,0,1,0-4.13A1.54,1.54,0,0,1,212.12,78Zm-1,4,1.84-2.9a1,1,0,0,0-.38-.43.8.8,0,0,0-.42-.11.94.94,0,0,0-.88.64,3.78,3.78,0,0,0-.3,1.62c0,.15,0,.31,0,.48A4.43,4.43,0,0,0,211.08,82Zm2.07-2.26-1.83,2.91a1.06,1.06,0,0,0,.34.38.73.73,0,0,0,.43.13,1,1,0,0,0,.93-.74,4.59,4.59,0,0,0,.27-1.62A3.72,3.72,0,0,0,213.15,79.69Z"/><path class="cls-2" d="M216.35,78a1.56,1.56,0,0,1,1.4.77,4.77,4.77,0,0,1,0,4.13,1.65,1.65,0,0,1-2.79,0,4.68,4.68,0,0,1,0-4.13A1.56,1.56,0,0,1,216.35,78Zm-1,4,1.85-2.9a1.1,1.1,0,0,0-.38-.43.84.84,0,0,0-.43-.11.94.94,0,0,0-.87.64,3.78,3.78,0,0,0-.3,1.62c0,.15,0,.31,0,.48A4.43,4.43,0,0,0,215.31,82Zm2.08-2.26-1.84,2.91a1.16,1.16,0,0,0,.34.38.75.75,0,0,0,.43.13,1,1,0,0,0,.93-.74,4.37,4.37,0,0,0,.28-1.62A4.11,4.11,0,0,0,217.39,79.69Z"/><path class="cls-2" d="M220.59,78a1.54,1.54,0,0,1,1.39.77,4.68,4.68,0,0,1,0,4.13,1.64,1.64,0,0,1-2.78,0,4.68,4.68,0,0,1,0-4.13A1.54,1.54,0,0,1,220.59,78Zm-1.05,4,1.85-2.9a1,1,0,0,0-.38-.43.83.83,0,0,0-.42-.11.94.94,0,0,0-.88.64,3.78,3.78,0,0,0-.3,1.62c0,.15,0,.31,0,.48A5.62,5.62,0,0,0,219.54,82Zm2.08-2.26-1.83,2.91a1.06,1.06,0,0,0,.34.38.73.73,0,0,0,.43.13,1,1,0,0,0,.93-.74,4.59,4.59,0,0,0,.27-1.62A3.72,3.72,0,0,0,221.62,79.69Z"/><path class="cls-2" d="M224.82,78a1.53,1.53,0,0,1,1.39.77,4.68,4.68,0,0,1,0,4.13,1.51,1.51,0,0,1-1.39.77,1.54,1.54,0,0,1-1.39-.77,4.68,4.68,0,0,1,0-4.13A1.56,1.56,0,0,1,224.82,78Zm-1,4,1.84-2.9a1,1,0,0,0-.37-.43.84.84,0,0,0-.43-.11.94.94,0,0,0-.87.64,3.78,3.78,0,0,0-.3,1.62c0,.15,0,.31,0,.48A4.43,4.43,0,0,0,223.78,82Zm2.08-2.26L224,82.6a1.06,1.06,0,0,0,.34.38.73.73,0,0,0,.43.13,1,1,0,0,0,.93-.74,4.37,4.37,0,0,0,.28-1.62A4.11,4.11,0,0,0,225.86,79.69Z"/><path class="cls-2" d="M229.06,78a1.54,1.54,0,0,1,1.39.77,4.68,4.68,0,0,1,0,4.13,1.64,1.64,0,0,1-2.78,0,4.68,4.68,0,0,1,0-4.13A1.54,1.54,0,0,1,229.06,78ZM228,82l1.85-2.9a1,1,0,0,0-.38-.43.84.84,0,0,0-.43-.11.94.94,0,0,0-.87.64,3.78,3.78,0,0,0-.3,1.62c0,.15,0,.31,0,.48A4.2,4.2,0,0,0,228,82Zm2.08-2.26-1.83,2.91a1,1,0,0,0,.34.38.73.73,0,0,0,.43.13,1,1,0,0,0,.93-.74,4.59,4.59,0,0,0,.27-1.62A4.11,4.11,0,0,0,230.09,79.69Z"/><path class="cls-2" d="M233.29,78a1.54,1.54,0,0,1,1.39.77,4.68,4.68,0,0,1,0,4.13,1.64,1.64,0,0,1-2.78,0,4.68,4.68,0,0,1,0-4.13A1.54,1.54,0,0,1,233.29,78Zm-1,4,1.85-2.9a1,1,0,0,0-.39-.43.78.78,0,0,0-.42-.11.94.94,0,0,0-.87.64,3.78,3.78,0,0,0-.3,1.62c0,.15,0,.31,0,.48A4.43,4.43,0,0,0,232.25,82Zm2.08-2.26-1.84,2.91a1.06,1.06,0,0,0,.34.38.73.73,0,0,0,.43.13,1,1,0,0,0,.93-.74,4.58,4.58,0,0,0,.28-1.62A4.11,4.11,0,0,0,234.33,79.69Z"/><path class="cls-2" d="M237.37,82.94V78.82a5.72,5.72,0,0,1-.56.39,4.23,4.23,0,0,1-.75.33V79a4.5,4.5,0,0,0,1.31-.83H238v4.81h1.28v.54h-3.23v-.54Z"/><path class="cls-2" d="M241.76,78a1.54,1.54,0,0,1,1.39.77,4.68,4.68,0,0,1,0,4.13,1.64,1.64,0,0,1-2.78,0,4.68,4.68,0,0,1,0-4.13A1.54,1.54,0,0,1,241.76,78Zm-1,4,1.84-2.9a1,1,0,0,0-.38-.43.78.78,0,0,0-.42-.11.94.94,0,0,0-.87.64,3.63,3.63,0,0,0-.3,1.62c0,.15,0,.31,0,.48A4.43,4.43,0,0,0,240.72,82Zm2.07-2.26L241,82.6a1.06,1.06,0,0,0,.34.38.73.73,0,0,0,.43.13,1,1,0,0,0,.93-.74,4.59,4.59,0,0,0,.27-1.62A3.72,3.72,0,0,0,242.79,79.69Z"/><path class="cls-2" d="M246,78a1.56,1.56,0,0,1,1.39.77,4.68,4.68,0,0,1,0,4.13,1.54,1.54,0,0,1-1.39.77,1.55,1.55,0,0,1-1.4-.77,4.68,4.68,0,0,1,0-4.13A1.57,1.57,0,0,1,246,78ZM245,82l1.85-2.9a1.1,1.1,0,0,0-.38-.43.84.84,0,0,0-.43-.11.94.94,0,0,0-.87.64,3.78,3.78,0,0,0-.3,1.62c0,.15,0,.31,0,.48A4.43,4.43,0,0,0,245,82ZM247,79.69l-1.84,2.91a1.08,1.08,0,0,0,.35.38.73.73,0,0,0,.43.13,1,1,0,0,0,.93-.74,4.59,4.59,0,0,0,.27-1.62A4.11,4.11,0,0,0,247,79.69Z"/><path class="cls-2" d="M250.23,78a1.54,1.54,0,0,1,1.39.77,4.68,4.68,0,0,1,0,4.13,1.64,1.64,0,0,1-2.78,0,4.68,4.68,0,0,1,0-4.13A1.54,1.54,0,0,1,250.23,78Zm-1,4,1.85-2.9a1,1,0,0,0-.38-.43.8.8,0,0,0-.42-.11,1,1,0,0,0-.88.64,3.78,3.78,0,0,0-.3,1.62c0,.15,0,.31,0,.48A5.62,5.62,0,0,0,249.18,82Zm2.08-2.26-1.83,2.91a1.06,1.06,0,0,0,.34.38.73.73,0,0,0,.43.13,1,1,0,0,0,.93-.74,4.59,4.59,0,0,0,.27-1.62A3.72,3.72,0,0,0,251.26,79.69Z"/><path class="cls-2" d="M254.31,82.94V78.82a5.81,5.81,0,0,1-.57.39,4.09,4.09,0,0,1-.74.33V79a4.64,4.64,0,0,0,1.31-.83H255v4.81h1.28v.54H253v-.54Z"/><path class="cls-2" d="M258.54,82.94V78.82a5.72,5.72,0,0,1-.56.39,3.93,3.93,0,0,1-.75.33V79a4.5,4.5,0,0,0,1.31-.83h.64v4.81h1.29v.54h-3.24v-.54Z"/><path class="cls-2" d="M262.93,78a1.56,1.56,0,0,1,1.4.77,4.77,4.77,0,0,1,0,4.13,1.65,1.65,0,0,1-2.79,0,4.68,4.68,0,0,1,0-4.13A1.56,1.56,0,0,1,262.93,78Zm-1,4,1.85-2.9a1.1,1.1,0,0,0-.38-.43.84.84,0,0,0-.43-.11.94.94,0,0,0-.87.64,3.78,3.78,0,0,0-.3,1.62c0,.15,0,.31,0,.48A4.43,4.43,0,0,0,261.89,82ZM264,79.69l-1.84,2.91a1.16,1.16,0,0,0,.34.38.75.75,0,0,0,.43.13,1,1,0,0,0,.93-.74,4.37,4.37,0,0,0,.28-1.62A4.11,4.11,0,0,0,264,79.69Z"/><path class="cls-2" d="M267,82.94V78.82a5.72,5.72,0,0,1-.56.39,3.93,3.93,0,0,1-.75.33V79a4.5,4.5,0,0,0,1.31-.83h.64v4.81h1.28v.54H265.7v-.54Z"/><path class="cls-2" d="M271.24,82.94V78.82a5.72,5.72,0,0,1-.56.39,3.93,3.93,0,0,1-.75.33V79a4.37,4.37,0,0,0,1.31-.83h.64v4.81h1.29v.54h-3.24v-.54Z"/><path class="cls-2" d="M199.42,86.44a1.56,1.56,0,0,1,1.39.77,4.68,4.68,0,0,1,0,4.13,1.56,1.56,0,0,1-1.39.77,1.57,1.57,0,0,1-1.4-.77,4.68,4.68,0,0,1,0-4.13A1.57,1.57,0,0,1,199.42,86.44Zm-1,4,1.85-2.9a1.1,1.1,0,0,0-.38-.43.84.84,0,0,0-.43-.11.94.94,0,0,0-.87.63,3.84,3.84,0,0,0-.3,1.62c0,.15,0,.31,0,.49A4.43,4.43,0,0,0,198.37,90.42Zm2.08-2.26-1.84,2.91a1.08,1.08,0,0,0,.35.38.8.8,0,0,0,.43.12,1,1,0,0,0,.93-.73,4.67,4.67,0,0,0,.27-1.62A4.11,4.11,0,0,0,200.45,88.16Z"/><path class="cls-2" d="M203.49,91.41V87.29a5.72,5.72,0,0,1-.56.39,3.93,3.93,0,0,1-.75.33v-.58a4.5,4.5,0,0,0,1.31-.83h.64v4.81h1.29V92h-3.24v-.54Z"/><path class="cls-2" d="M207.88,86.44a1.56,1.56,0,0,1,1.4.77,4.68,4.68,0,0,1,0,4.13,1.65,1.65,0,0,1-2.79,0,4.68,4.68,0,0,1,0-4.13A1.56,1.56,0,0,1,207.88,86.44Zm-1,4,1.85-2.9a1.1,1.1,0,0,0-.38-.43.84.84,0,0,0-.43-.11.94.94,0,0,0-.87.63,3.84,3.84,0,0,0-.3,1.62c0,.15,0,.31,0,.49A4.43,4.43,0,0,0,206.84,90.42Zm2.08-2.26-1.84,2.91a1.08,1.08,0,0,0,.35.38.76.76,0,0,0,.42.12,1,1,0,0,0,.93-.73,4.45,4.45,0,0,0,.28-1.62A4.11,4.11,0,0,0,208.92,88.16Z"/><path class="cls-2" d="M212.12,86.44a1.54,1.54,0,0,1,1.39.77,4.68,4.68,0,0,1,0,4.13,1.64,1.64,0,0,1-2.78,0,4.68,4.68,0,0,1,0-4.13A1.54,1.54,0,0,1,212.12,86.44Zm-1,4,1.84-2.9a1,1,0,0,0-.38-.43.8.8,0,0,0-.42-.11,1,1,0,0,0-.88.63,3.84,3.84,0,0,0-.3,1.62c0,.15,0,.31,0,.49A4.43,4.43,0,0,0,211.08,90.42Zm2.07-2.26-1.83,2.91a1.06,1.06,0,0,0,.34.38.8.8,0,0,0,.43.12,1,1,0,0,0,.93-.73,4.67,4.67,0,0,0,.27-1.62A3.72,3.72,0,0,0,213.15,88.16Z"/><path class="cls-2" d="M216.35,86.44a1.56,1.56,0,0,1,1.4.77,4.77,4.77,0,0,1,0,4.13,1.65,1.65,0,0,1-2.79,0,4.68,4.68,0,0,1,0-4.13A1.56,1.56,0,0,1,216.35,86.44Zm-1,4,1.85-2.9a1.1,1.1,0,0,0-.38-.43.84.84,0,0,0-.43-.11.94.94,0,0,0-.87.63,3.84,3.84,0,0,0-.3,1.62c0,.15,0,.31,0,.49A4.43,4.43,0,0,0,215.31,90.42Zm2.08-2.26-1.84,2.91a1.16,1.16,0,0,0,.34.38.82.82,0,0,0,.43.12,1,1,0,0,0,.93-.73,4.45,4.45,0,0,0,.28-1.62A4.11,4.11,0,0,0,217.39,88.16Z"/><path class="cls-2" d="M220.59,86.44a1.54,1.54,0,0,1,1.39.77,4.68,4.68,0,0,1,0,4.13,1.64,1.64,0,0,1-2.78,0,4.68,4.68,0,0,1,0-4.13A1.54,1.54,0,0,1,220.59,86.44Zm-1.05,4,1.85-2.9a1,1,0,0,0-.38-.43.83.83,0,0,0-.42-.11,1,1,0,0,0-.88.63,3.84,3.84,0,0,0-.3,1.62c0,.15,0,.31,0,.49A5.62,5.62,0,0,0,219.54,90.42Zm2.08-2.26-1.83,2.91a1.06,1.06,0,0,0,.34.38.8.8,0,0,0,.43.12,1,1,0,0,0,.93-.73,4.67,4.67,0,0,0,.27-1.62A3.72,3.72,0,0,0,221.62,88.16Z"/><path class="cls-2" d="M224.66,91.41V87.29a5.72,5.72,0,0,1-.56.39,3.93,3.93,0,0,1-.75.33v-.58a4.37,4.37,0,0,0,1.31-.83h.64v4.81h1.29V92h-3.24v-.54Z"/><path class="cls-2" d="M228.9,91.41V87.29c-.2.15-.38.28-.56.39a3.93,3.93,0,0,1-.75.33v-.58a4.5,4.5,0,0,0,1.31-.83h.64v4.81h1.28V92h-3.23v-.54Z"/><path class="cls-2" d="M233.13,91.41V87.29a5.72,5.72,0,0,1-.56.39,3.93,3.93,0,0,1-.75.33v-.58a4.37,4.37,0,0,0,1.31-.83h.64v4.81h1.29V92h-3.24v-.54Z"/><path class="cls-2" d="M237.37,91.41V87.29a5.72,5.72,0,0,1-.56.39,4.23,4.23,0,0,1-.75.33v-.58a4.5,4.5,0,0,0,1.31-.83H238v4.81h1.28V92h-3.23v-.54Z"/><path class="cls-2" d="M241.76,86.44a1.54,1.54,0,0,1,1.39.77,4.68,4.68,0,0,1,0,4.13,1.64,1.64,0,0,1-2.78,0,4.68,4.68,0,0,1,0-4.13A1.54,1.54,0,0,1,241.76,86.44Zm-1,4,1.84-2.9a1,1,0,0,0-.38-.43.78.78,0,0,0-.42-.11.94.94,0,0,0-.87.63,3.69,3.69,0,0,0-.3,1.62c0,.15,0,.31,0,.49A4.43,4.43,0,0,0,240.72,90.42Zm2.07-2.26L241,91.07a1.06,1.06,0,0,0,.34.38.8.8,0,0,0,.43.12,1,1,0,0,0,.93-.73,4.67,4.67,0,0,0,.27-1.62A3.72,3.72,0,0,0,242.79,88.16Z"/><path class="cls-2" d="M245.84,91.41V87.29a5.81,5.81,0,0,1-.57.39,3.8,3.8,0,0,1-.74.33v-.58a4.5,4.5,0,0,0,1.31-.83h.64v4.81h1.28V92h-3.23v-.54Z"/><path class="cls-2" d="M250.23,86.44a1.54,1.54,0,0,1,1.39.77,4.68,4.68,0,0,1,0,4.13,1.64,1.64,0,0,1-2.78,0,4.68,4.68,0,0,1,0-4.13A1.54,1.54,0,0,1,250.23,86.44Zm-1,4,1.85-2.9a1,1,0,0,0-.38-.43.8.8,0,0,0-.42-.11,1,1,0,0,0-.88.63,3.84,3.84,0,0,0-.3,1.62c0,.15,0,.31,0,.49A5.62,5.62,0,0,0,249.18,90.42Zm2.08-2.26-1.83,2.91a1.06,1.06,0,0,0,.34.38.8.8,0,0,0,.43.12,1,1,0,0,0,.93-.73,4.67,4.67,0,0,0,.27-1.62A3.72,3.72,0,0,0,251.26,88.16Z"/><path class="cls-2" d="M254.31,91.41V87.29a5.81,5.81,0,0,1-.57.39A4.09,4.09,0,0,1,253,88v-.58a4.64,4.64,0,0,0,1.31-.83H255v4.81h1.28V92H253v-.54Z"/><path class="cls-2" d="M258.54,91.41V87.29a5.72,5.72,0,0,1-.56.39,3.93,3.93,0,0,1-.75.33v-.58a4.5,4.5,0,0,0,1.31-.83h.64v4.81h1.29V92h-3.24v-.54Z"/><path class="cls-2" d="M262.77,91.41V87.29a4.73,4.73,0,0,1-.56.39,4.09,4.09,0,0,1-.74.33v-.58a4.32,4.32,0,0,0,1.3-.83h.65v4.81h1.28V92h-3.23v-.54Z"/><path class="cls-2" d="M267.17,86.44a1.54,1.54,0,0,1,1.39.77,4.68,4.68,0,0,1,0,4.13,1.64,1.64,0,0,1-2.78,0,4.68,4.68,0,0,1,0-4.13A1.54,1.54,0,0,1,267.17,86.44Zm-1.05,4,1.85-2.9a1,1,0,0,0-.38-.43.83.83,0,0,0-.42-.11,1,1,0,0,0-.88.63,3.84,3.84,0,0,0-.3,1.62c0,.15,0,.31,0,.49A5.62,5.62,0,0,0,266.12,90.42Zm2.08-2.26-1.83,2.91a1.06,1.06,0,0,0,.34.38.8.8,0,0,0,.43.12,1,1,0,0,0,.93-.73,4.67,4.67,0,0,0,.27-1.62A3.72,3.72,0,0,0,268.2,88.16Z"/><path class="cls-2" d="M271.24,91.41V87.29a5.72,5.72,0,0,1-.56.39,3.93,3.93,0,0,1-.75.33v-.58a4.37,4.37,0,0,0,1.31-.83h.64v4.81h1.29V92h-3.24v-.54Z"/><path class="cls-2" d="M215.78,69.22v-.93a5,5,0,0,0,2.12.56,1.94,1.94,0,0,0,.76-.15,1.21,1.21,0,0,0,.56-.45,1.15,1.15,0,0,0,.18-.62,1.2,1.2,0,0,0-.25-.74,3.38,3.38,0,0,0-1-.76l-.5-.29-.5-.29a2.27,2.27,0,0,1-1.33-2,2,2,0,0,1,.59-1.44,2.62,2.62,0,0,1,1.86-.58,5.4,5.4,0,0,1,1.56.23v.84a4.51,4.51,0,0,0-1.62-.31,1.53,1.53,0,0,0-1,.33,1,1,0,0,0-.38.8,1.08,1.08,0,0,0,.29.78,3.33,3.33,0,0,0,.76.56l.39.23.47.29.39.23a2.24,2.24,0,0,1,1.25,1.92,2,2,0,0,1-.64,1.51,2.83,2.83,0,0,1-2.05.63,4.63,4.63,0,0,1-.85-.08A7,7,0,0,1,215.78,69.22Z"/><path class="cls-2" d="M226.3,69a4.72,4.72,0,0,1-2.06.52,2.33,2.33,0,0,1-1.31-.37,2.55,2.55,0,0,1-.93-1,3.08,3.08,0,0,1-.35-1.46,3.22,3.22,0,0,1,.33-1.43,2.5,2.5,0,0,1,.93-1.07,2.35,2.35,0,0,1,1.32-.39,1.92,1.92,0,0,1,1.56.7,3.19,3.19,0,0,1,.59,2.13v.2h-3.76a2.23,2.23,0,0,0,.24,1,1.67,1.67,0,0,0,.62.71,1.72,1.72,0,0,0,.88.23,4.06,4.06,0,0,0,1.94-.58Zm-3.62-2.89h2.72V66a1.62,1.62,0,0,0-.33-1.06,1.09,1.09,0,0,0-.88-.39,1.3,1.3,0,0,0-.95.4A2.21,2.21,0,0,0,222.68,66.12Z"/><path class="cls-2" d="M231.42,68.15a2.91,2.91,0,0,1-1,1,2.17,2.17,0,0,1-1.08.35,1.67,1.67,0,0,1-1.23-.59,2.57,2.57,0,0,1-.54-1.79,3.86,3.86,0,0,1,.36-1.7,3,3,0,0,1,1-1.17,2.49,2.49,0,0,1,1.5-.43,7,7,0,0,1,.78,0l.23,0h.91V71.5h-.9Zm0-1.08V64.73a3.43,3.43,0,0,0-.9-.13,1.81,1.81,0,0,0-1.41.65,2.66,2.66,0,0,0-.55,1.77,2.11,2.11,0,0,0,.3,1.23.88.88,0,0,0,.7.41,1.54,1.54,0,0,0,.94-.43A4.1,4.1,0,0,0,231.42,67.07Z"/><path class="cls-2" d="M239.36,67.33v-.68h1l.53-2h-1.49V64H241l.57-2.16h.71L241.74,64h1.39l.59-2.16h.71L243.85,64h.82v.68h-1l-.54,2h1.55v.68h-1.74l-.55,2h-.73l.56-2h-1.35l-.54,2h-.72l.54-2Zm1.68-.68h1.36l.54-2h-1.38Z"/><path class="cls-2" d="M245.72,69.24v-1a4.43,4.43,0,0,0,1.94.57,1.71,1.71,0,0,0,1.24-.46,1.5,1.5,0,0,0,.49-1.17,1.45,1.45,0,0,0-.54-1.18,2.87,2.87,0,0,0-1.83-.45h-.5v-.76h.7a1.89,1.89,0,0,0,1.37-.42,1.32,1.32,0,0,0,.43-.95,1,1,0,0,0-.35-.8,1.48,1.48,0,0,0-1.06-.33,3.9,3.9,0,0,0-1.74.46v-.87a4.93,4.93,0,0,1,1.7-.34,2.64,2.64,0,0,1,1.91.54,1.75,1.75,0,0,1,.53,1.24,1.85,1.85,0,0,1-.28,1,2.27,2.27,0,0,1-1,.81,2.82,2.82,0,0,1,1,.48,2.06,2.06,0,0,1,.51.67,2.33,2.33,0,0,1-.62,2.62,2.92,2.92,0,0,1-2,.7,5.54,5.54,0,0,1-.78-.06A4,4,0,0,1,245.72,69.24Z"/><path class="cls-2" d="M252.57,69.38V68.7a4.3,4.3,0,0,1,.18-1.34,5.07,5.07,0,0,1,.64-1.2c.3-.45.54-.79.73-1l.79-1,.28-.36a5.1,5.1,0,0,0,.56-1h-3.93V61.8h4.81v.61a1.45,1.45,0,0,1-.15.66,9.48,9.48,0,0,1-.87,1.32l-.34.48-.52.71c-.32.46-.56.82-.72,1.1a3.91,3.91,0,0,0-.35.85,4.67,4.67,0,0,0-.12,1.17v.68Z"/><rect class="cls-1" x="193.44" y="110.07" width="89.16" height="35.85" rx="4.27"/><path class="cls-2" d="M201.42,132.75a1.55,1.55,0,0,1,1.4.76,4.79,4.79,0,0,1,0,4.14,1.66,1.66,0,0,1-2.79,0,4.7,4.7,0,0,1,0-4.14A1.55,1.55,0,0,1,201.42,132.75Zm-1,4,1.85-2.9a1.17,1.17,0,0,0-.38-.43.91.91,0,0,0-1.3.53,3.78,3.78,0,0,0-.3,1.62c0,.15,0,.31,0,.48A4.25,4.25,0,0,0,200.38,136.72Zm2.08-2.26-1.84,2.92a1.23,1.23,0,0,0,.34.37.75.75,0,0,0,.43.13,1,1,0,0,0,.93-.73,4.46,4.46,0,0,0,.28-1.63A4.17,4.17,0,0,0,202.46,134.46Z"/><path class="cls-2" d="M205.66,132.75a1.54,1.54,0,0,1,1.39.76,4.7,4.7,0,0,1,0,4.14,1.65,1.65,0,0,1-2.78,0,4.7,4.7,0,0,1,0-4.14A1.54,1.54,0,0,1,205.66,132.75Zm-1,4,1.85-2.9a1.09,1.09,0,0,0-.38-.43.91.91,0,0,0-1.3.53,3.78,3.78,0,0,0-.3,1.62c0,.15,0,.31,0,.48A5.35,5.35,0,0,0,204.61,136.72Zm2.08-2.26-1.83,2.92a1.11,1.11,0,0,0,.34.37.73.73,0,0,0,.43.13,1,1,0,0,0,.93-.73,4.68,4.68,0,0,0,.27-1.63A3.76,3.76,0,0,0,206.69,134.46Z"/><path class="cls-2" d="M209.73,137.72v-4.13a3.57,3.57,0,0,1-.56.39,3.93,3.93,0,0,1-.75.33v-.58a4.37,4.37,0,0,0,1.31-.83h.64v4.82h1.29v.53h-3.24v-.53Z"/><path class="cls-2" d="M214.13,132.75a1.54,1.54,0,0,1,1.39.76,4.7,4.7,0,0,1,0,4.14,1.65,1.65,0,0,1-2.78,0,4.7,4.7,0,0,1,0-4.14A1.54,1.54,0,0,1,214.13,132.75Zm-1,4,1.85-2.9a1.09,1.09,0,0,0-.38-.43.91.91,0,0,0-1.3.53,3.78,3.78,0,0,0-.3,1.62c0,.15,0,.31,0,.48A5.35,5.35,0,0,0,213.08,136.72Zm2.08-2.26-1.83,2.92a1.11,1.11,0,0,0,.34.37.73.73,0,0,0,.43.13,1,1,0,0,0,.93-.73,4.68,4.68,0,0,0,.27-1.63A3.76,3.76,0,0,0,215.16,134.46Z"/><path class="cls-2" d="M218.2,137.72v-4.13a3.57,3.57,0,0,1-.56.39,3.93,3.93,0,0,1-.75.33v-.58a4.37,4.37,0,0,0,1.31-.83h.64v4.82h1.29v.53h-3.24v-.53Z"/><path class="cls-2" d="M222.44,137.72v-4.13a4.1,4.1,0,0,1-.56.39,4.23,4.23,0,0,1-.75.33v-.58a4.5,4.5,0,0,0,1.31-.83h.64v4.82h1.28v.53h-3.23v-.53Z"/><path class="cls-2" d="M226.67,137.72v-4.13a3.57,3.57,0,0,1-.56.39,3.93,3.93,0,0,1-.75.33v-.58a4.37,4.37,0,0,0,1.31-.83h.64v4.82h1.29v.53h-3.24v-.53Z"/><path class="cls-2" d="M231.06,132.75a1.55,1.55,0,0,1,1.4.76,4.7,4.7,0,0,1,0,4.14,1.55,1.55,0,0,1-1.4.76,1.53,1.53,0,0,1-1.38-.76,4.62,4.62,0,0,1,0-4.14A1.53,1.53,0,0,1,231.06,132.75Zm-1,4,1.85-2.9a1.17,1.17,0,0,0-.38-.43.91.91,0,0,0-1.3.53,3.78,3.78,0,0,0-.3,1.62c0,.15,0,.31,0,.48A4.25,4.25,0,0,0,230,136.72Zm2.08-2.26-1.83,2.92a1,1,0,0,0,.34.37.71.71,0,0,0,.43.13,1,1,0,0,0,.93-.73,4.68,4.68,0,0,0,.27-1.63A4.17,4.17,0,0,0,232.1,134.46Z"/><path class="cls-2" d="M235.14,137.72v-4.13a3.57,3.57,0,0,1-.56.39,3.93,3.93,0,0,1-.75.33v-.58a4.37,4.37,0,0,0,1.31-.83h.64v4.82h1.29v.53h-3.24v-.53Z"/><path class="cls-2" d="M239.38,137.72v-4.13a3.62,3.62,0,0,1-.57.39,4.09,4.09,0,0,1-.74.33v-.58a4.5,4.5,0,0,0,1.31-.83H240v4.82h1.28v.53h-3.23v-.53Z"/><path class="cls-2" d="M243.77,132.75a1.54,1.54,0,0,1,1.39.76,4.7,4.7,0,0,1,0,4.14,1.65,1.65,0,0,1-2.78,0,4.7,4.7,0,0,1,0-4.14A1.54,1.54,0,0,1,243.77,132.75Zm-1.05,4,1.85-2.9a1,1,0,0,0-.38-.43.91.91,0,0,0-.42-.11.94.94,0,0,0-.88.64,3.78,3.78,0,0,0-.3,1.62c0,.15,0,.31,0,.48A5.35,5.35,0,0,0,242.72,136.72Zm2.08-2.26L243,137.38a1.11,1.11,0,0,0,.34.37.73.73,0,0,0,.43.13,1,1,0,0,0,.93-.73,4.68,4.68,0,0,0,.27-1.63A3.76,3.76,0,0,0,244.8,134.46Z"/><path class="cls-2" d="M248,132.75a1.55,1.55,0,0,1,1.4.76,4.79,4.79,0,0,1,0,4.14,1.66,1.66,0,0,1-2.79,0,4.7,4.7,0,0,1,0-4.14A1.55,1.55,0,0,1,248,132.75Zm-1,4,1.85-2.9a1.17,1.17,0,0,0-.38-.43.91.91,0,0,0-1.3.53,3.78,3.78,0,0,0-.3,1.62c0,.15,0,.31,0,.48A4.25,4.25,0,0,0,247,136.72Zm2.08-2.26-1.84,2.92a1.23,1.23,0,0,0,.34.37.75.75,0,0,0,.43.13,1,1,0,0,0,.93-.73,4.46,4.46,0,0,0,.28-1.63A4.17,4.17,0,0,0,249,134.46Z"/><path class="cls-2" d="M252.24,132.75a1.54,1.54,0,0,1,1.39.76,4.7,4.7,0,0,1,0,4.14,1.65,1.65,0,0,1-2.78,0,4.7,4.7,0,0,1,0-4.14A1.54,1.54,0,0,1,252.24,132.75Zm-1.05,4,1.85-2.9a1.09,1.09,0,0,0-.38-.43.91.91,0,0,0-1.3.53,3.78,3.78,0,0,0-.3,1.62c0,.15,0,.31,0,.48A5.35,5.35,0,0,0,251.19,136.72Zm2.08-2.26-1.83,2.92a1.11,1.11,0,0,0,.34.37.73.73,0,0,0,.43.13,1,1,0,0,0,.93-.73,4.68,4.68,0,0,0,.27-1.63A3.76,3.76,0,0,0,253.27,134.46Z"/><path class="cls-2" d="M256.31,137.72v-4.13a3.57,3.57,0,0,1-.56.39,3.93,3.93,0,0,1-.75.33v-.58a4.37,4.37,0,0,0,1.31-.83H257v4.82h1.29v.53H255v-.53Z"/><path class="cls-2" d="M260.71,132.75a1.54,1.54,0,0,1,1.39.76,4.7,4.7,0,0,1,0,4.14,1.65,1.65,0,0,1-2.78,0,4.7,4.7,0,0,1,0-4.14A1.54,1.54,0,0,1,260.71,132.75Zm-1,4,1.85-2.9a1.09,1.09,0,0,0-.38-.43.91.91,0,0,0-1.3.53,3.78,3.78,0,0,0-.3,1.62c0,.15,0,.31,0,.48A5.35,5.35,0,0,0,259.66,136.72Zm2.08-2.26-1.83,2.92a1.11,1.11,0,0,0,.34.37.73.73,0,0,0,.43.13,1,1,0,0,0,.93-.73,4.68,4.68,0,0,0,.27-1.63A3.76,3.76,0,0,0,261.74,134.46Z"/><path class="cls-2" d="M264.78,137.72v-4.13a3.57,3.57,0,0,1-.56.39,3.93,3.93,0,0,1-.75.33v-.58a4.37,4.37,0,0,0,1.31-.83h.64v4.82h1.29v.53h-3.24v-.53Z"/><path class="cls-2" d="M269.18,132.75a1.54,1.54,0,0,1,1.39.76,4.7,4.7,0,0,1,0,4.14,1.65,1.65,0,0,1-2.78,0,4.7,4.7,0,0,1,0-4.14A1.54,1.54,0,0,1,269.18,132.75Zm-1.05,4,1.85-2.9a1.09,1.09,0,0,0-.38-.43.91.91,0,0,0-1.3.53,3.78,3.78,0,0,0-.3,1.62c0,.15,0,.31,0,.48A3.26,3.26,0,0,0,268.13,136.72Zm2.08-2.26-1.83,2.92a1,1,0,0,0,.34.37.73.73,0,0,0,.43.13,1,1,0,0,0,.93-.73,4.68,4.68,0,0,0,.27-1.63A4.17,4.17,0,0,0,270.21,134.46Z"/><path class="cls-2" d="M273.25,137.72v-4.13a3.57,3.57,0,0,1-.56.39,3.93,3.93,0,0,1-.75.33v-.58a4.37,4.37,0,0,0,1.31-.83h.64v4.82h1.29v.53h-3.24v-.53Z"/><path class="cls-2" d="M217.79,124v-.93a4.83,4.83,0,0,0,2.12.56,1.94,1.94,0,0,0,.76-.15,1.11,1.11,0,0,0,.74-1.07,1.22,1.22,0,0,0-.25-.74,3.57,3.57,0,0,0-1-.76l-.5-.29-.5-.29a2.26,2.26,0,0,1-1.33-1.95,2,2,0,0,1,.59-1.44,2.58,2.58,0,0,1,1.86-.59,5.4,5.4,0,0,1,1.56.23v.85a4.53,4.53,0,0,0-1.62-.32,1.53,1.53,0,0,0-1,.33,1,1,0,0,0-.38.8,1.06,1.06,0,0,0,.29.78,3.67,3.67,0,0,0,.76.57l.38.23.48.28.39.24a2.22,2.22,0,0,1,1.25,1.91,2,2,0,0,1-.64,1.51,2.84,2.84,0,0,1-2,.63,4.63,4.63,0,0,1-.85-.08A6.67,6.67,0,0,1,217.79,124Z"/><path class="cls-2" d="M228.31,123.79a4.84,4.84,0,0,1-2.06.51,2.47,2.47,0,0,1-1.32-.36,2.8,2.8,0,0,1-.93-1,3.18,3.18,0,0,1-.35-1.46A3.3,3.3,0,0,1,224,120a2.55,2.55,0,0,1,.92-1.07,2.37,2.37,0,0,1,1.33-.38,1.94,1.94,0,0,1,1.56.69,3.24,3.24,0,0,1,.59,2.13v.2h-3.76a2.27,2.27,0,0,0,.24,1,1.7,1.7,0,0,0,.62.7,1.64,1.64,0,0,0,.88.24,4.09,4.09,0,0,0,1.94-.59Zm-3.63-2.9h2.72v-.13a1.58,1.58,0,0,0-.32-1.06,1.07,1.07,0,0,0-.88-.4,1.34,1.34,0,0,0-.95.4A2.33,2.33,0,0,0,224.68,120.89Z"/><path class="cls-2" d="M233.43,122.92a3.13,3.13,0,0,1-1,1,2.15,2.15,0,0,1-1.08.34,1.67,1.67,0,0,1-1.23-.59,2.57,2.57,0,0,1-.54-1.79,3.82,3.82,0,0,1,.36-1.69,3,3,0,0,1,1-1.18,2.49,2.49,0,0,1,1.5-.43c.17,0,.43,0,.78,0l.23,0h.91v7.57h-.9Zm0-1.08V119.5a3.86,3.86,0,0,0-.91-.12,1.76,1.76,0,0,0-1.4.65,2.63,2.63,0,0,0-.56,1.77,2.07,2.07,0,0,0,.31,1.22.85.85,0,0,0,.7.41,1.54,1.54,0,0,0,.94-.43A4.13,4.13,0,0,0,233.43,121.84Z"/><path class="cls-2" d="M241.37,122.1v-.68h1l.53-2h-1.49v-.67H243l.57-2.17h.71l-.57,2.17h1.39l.59-2.17h.71l-.59,2.17h.83v.67h-1l-.54,2h1.55v.68h-1.74l-.56,2.05h-.72l.56-2.05h-1.35l-.54,2.05h-.72l.54-2.05Zm1.68-.68h1.36l.54-2h-1.38Z"/><path class="cls-2" d="M248.58,124.15v-.68a4.34,4.34,0,0,1,.18-1.34,4.73,4.73,0,0,1,.64-1.2c.3-.44.54-.79.72-1l.79-1,.29-.37a5,5,0,0,0,.56-1h-3.94v-.92h4.81v.61a1.52,1.52,0,0,1-.14.67,13.39,13.39,0,0,1-.87,1.31l-.35.48-.51.71c-.32.46-.56.83-.72,1.1a3.91,3.91,0,0,0-.35.85,4.67,4.67,0,0,0-.12,1.17v.68Z"/><path class="cls-2" d="M253.73,124v-1a4.53,4.53,0,0,0,1.94.56,1.75,1.75,0,0,0,1.24-.45,1.54,1.54,0,0,0,.49-1.18,1.45,1.45,0,0,0-.54-1.17,2.8,2.8,0,0,0-1.83-.46h-.5v-.76h.7a1.89,1.89,0,0,0,1.37-.42,1.31,1.31,0,0,0,.43-1,1.06,1.06,0,0,0-.35-.8,1.48,1.48,0,0,0-1.06-.33,4,4,0,0,0-1.74.46v-.87a4.93,4.93,0,0,1,1.7-.34,2.64,2.64,0,0,1,1.91.54,1.76,1.76,0,0,1,.53,1.24,1.92,1.92,0,0,1-.28,1,2.41,2.41,0,0,1-1,.81,2.82,2.82,0,0,1,1,.48,1.92,1.92,0,0,1,.51.66,2.21,2.21,0,0,1,.17.87,2.24,2.24,0,0,1-.79,1.76,3,3,0,0,1-2,.69,7.79,7.79,0,0,1-.79,0A4.09,4.09,0,0,1,253.73,124Z"/><line class="cls-4" x1="100.91" y1="23.98" x2="179.93" y2="23.98"/><line class="cls-3" x1="102.93" y1="71.69" x2="185.35" y2="126.23"/><line class="cls-4" x1="99.37" y1="126.23" x2="180.7" y2="75.11"/></svg>