<svg id="Layer_1" data-name="Layer 1" xmlns="http://www.w3.org/2000/svg" width="490.36" height="147.28" viewBox="0 0 490.36 147.28"><defs><style>.cls-1{fill:#0a2a66;}.cls-2{fill:#fff;}.cls-11,.cls-3,.cls-4,.cls-5,.cls-9{fill:none;stroke-linecap:round;stroke-miterlimit:10;}.cls-3{stroke:#37c5fd;}.cls-3,.cls-5{stroke-width:4.44px;}.cls-4{stroke:#10a7e3;stroke-width:7.22px;}.cls-5{stroke:#c3eefe;}.cls-6{fill:#37c5fd;}.cls-7{fill:#10a7e3;}.cls-8{fill:#65d0fa;}.cls-9{stroke:#ff714d;}.cls-11,.cls-9{stroke-width:2px;}.cls-10{fill:#ff714d;}.cls-11{stroke:#14bf96;}.cls-12{fill:#14bf96;}</style></defs><title>TCP out of order 3</title><rect class="cls-1" y="1.47" width="136.01" height="136.01" rx="2.79"/><rect class="cls-2" x="5.84" y="7.32" width="124.32" height="76.5"/><line class="cls-3" x1="39.66" y1="25.76" x2="55.25" y2="25.76"/><line class="cls-4" x1="29.51" y1="25.76" x2="29.51" y2="25.76"/><line class="cls-3" x1="39.66" y1="42.35" x2="55.25" y2="42.35"/><line class="cls-4" x1="29.51" y1="42.35" x2="29.51" y2="42.35"/><line class="cls-3" x1="39.66" y1="58.94" x2="55.25" y2="58.94"/><line class="cls-4" x1="29.51" y1="58.94" x2="29.51" y2="58.94"/><line class="cls-5" x1="64.58" y1="25.76" x2="108.36" y2="25.76"/><line class="cls-5" x1="64.58" y1="34.05" x2="98.76" y2="34.05"/><line class="cls-5" x1="64.58" y1="50.65" x2="98.76" y2="50.65"/><line class="cls-5" x1="64.58" y1="67.24" x2="98.76" y2="67.24"/><line class="cls-5" x1="64.58" y1="42.35" x2="108.36" y2="42.35"/><line class="cls-5" x1="64.58" y1="58.94" x2="108.36" y2="58.94"/><path class="cls-6" d="M0,83.82H136a0,0,0,0,1,0,0V143a4,4,0,0,1-4,4H4a4,4,0,0,1-4-4V83.82A0,0,0,0,1,0,83.82Z"/><rect class="cls-7" x="5.84" y="90.73" width="9.03" height="9.03" rx="1.11"/><rect class="cls-7" x="17.37" y="90.73" width="9.03" height="9.03" rx="1.11"/><rect class="cls-7" x="28.9" y="90.73" width="9.03" height="9.03" rx="1.11"/><rect class="cls-7" x="40.43" y="90.73" width="9.03" height="9.03" rx="1.11"/><rect class="cls-7" x="51.96" y="90.73" width="9.03" height="9.03" rx="1.11"/><rect class="cls-7" x="63.49" y="90.73" width="9.03" height="9.03" rx="1.11"/><rect class="cls-7" x="75.02" y="90.73" width="9.03" height="9.03" rx="1.11"/><rect class="cls-7" x="86.55" y="90.73" width="9.03" height="9.03" rx="1.11"/><rect class="cls-7" x="98.07" y="90.73" width="9.03" height="9.03" rx="1.11"/><rect class="cls-7" x="109.6" y="90.73" width="9.03" height="9.03" rx="1.11"/><rect class="cls-7" x="121.13" y="90.73" width="9.03" height="9.03" rx="1.11"/><rect class="cls-7" x="17.37" y="102.95" width="9.03" height="9.03" rx="1.11"/><rect class="cls-7" x="28.9" y="102.95" width="9.03" height="9.03" rx="1.11"/><rect class="cls-7" x="40.43" y="102.95" width="9.03" height="9.03" rx="1.11"/><rect class="cls-7" x="51.96" y="102.95" width="9.03" height="9.03" rx="1.11"/><rect class="cls-7" x="63.49" y="102.95" width="9.03" height="9.03" rx="1.11"/><rect class="cls-7" x="75.02" y="102.95" width="9.03" height="9.03" rx="1.11"/><rect class="cls-7" x="86.55" y="102.95" width="9.03" height="9.03" rx="1.11"/><rect class="cls-7" x="98.07" y="102.95" width="9.03" height="9.03" rx="1.11"/><rect class="cls-7" x="109.6" y="102.95" width="9.03" height="9.03" rx="1.11"/><rect class="cls-7" x="5.84" y="115.17" width="9.03" height="9.03" rx="1.11"/><rect class="cls-7" x="17.37" y="115.17" width="9.03" height="9.03" rx="1.11"/><rect class="cls-7" x="28.9" y="115.17" width="9.03" height="9.03" rx="1.11"/><rect class="cls-7" x="40.43" y="115.17" width="9.03" height="9.03" rx="1.11"/><rect class="cls-7" x="51.96" y="115.17" width="9.03" height="9.03" rx="1.11"/><rect class="cls-7" x="63.49" y="115.17" width="9.03" height="9.03" rx="1.11"/><rect class="cls-7" x="75.02" y="115.17" width="9.03" height="9.03" rx="1.11"/><rect class="cls-7" x="86.55" y="115.17" width="9.03" height="9.03" rx="1.11"/><rect class="cls-7" x="98.07" y="115.17" width="9.03" height="9.03" rx="1.11"/><rect class="cls-7" x="109.6" y="115.17" width="9.03" height="9.03" rx="1.11"/><rect class="cls-7" x="121.13" y="115.17" width="9.03" height="9.03" rx="1.11"/><rect class="cls-7" x="42.5" y="115.17" width="51" height="9.03" rx="1.11"/><rect class="cls-8" x="49.94" y="127.92" width="34" height="14.34" rx="2.29"/><rect class="cls-1" x="354.35" y="1.47" width="136.01" height="136.01" rx="2.79"/><rect class="cls-2" x="360.2" y="7.32" width="124.32" height="76.5"/><line class="cls-3" x1="394.01" y1="25.76" x2="409.6" y2="25.76"/><line class="cls-4" x1="383.86" y1="25.76" x2="383.86" y2="25.76"/><line class="cls-3" x1="394.01" y1="42.35" x2="409.6" y2="42.35"/><line class="cls-4" x1="383.86" y1="42.35" x2="383.86" y2="42.35"/><line class="cls-3" x1="394.01" y1="58.94" x2="409.6" y2="58.94"/><line class="cls-4" x1="383.86" y1="58.94" x2="383.86" y2="58.94"/><line class="cls-5" x1="418.93" y1="25.76" x2="462.71" y2="25.76"/><line class="cls-5" x1="418.93" y1="34.05" x2="453.11" y2="34.05"/><line class="cls-5" x1="418.93" y1="50.65" x2="453.11" y2="50.65"/><line class="cls-5" x1="418.93" y1="67.24" x2="453.11" y2="67.24"/><line class="cls-5" x1="418.93" y1="42.35" x2="462.71" y2="42.35"/><line class="cls-5" x1="418.93" y1="58.94" x2="462.71" y2="58.94"/><path class="cls-6" d="M354.35,83.82h136a0,0,0,0,1,0,0V143a4,4,0,0,1-4,4h-128a4,4,0,0,1-4-4V83.82A0,0,0,0,1,354.35,83.82Z"/><rect class="cls-7" x="360.2" y="90.73" width="9.03" height="9.03" rx="1.11"/><rect class="cls-7" x="371.72" y="90.73" width="9.03" height="9.03" rx="1.11"/><rect class="cls-7" x="383.25" y="90.73" width="9.03" height="9.03" rx="1.11"/><rect class="cls-7" x="394.78" y="90.73" width="9.03" height="9.03" rx="1.11"/><rect class="cls-7" x="406.31" y="90.73" width="9.03" height="9.03" rx="1.11"/><rect class="cls-7" x="417.84" y="90.73" width="9.03" height="9.03" rx="1.11"/><rect class="cls-7" x="429.37" y="90.73" width="9.03" height="9.03" rx="1.11"/><rect class="cls-7" x="440.9" y="90.73" width="9.03" height="9.03" rx="1.11"/><rect class="cls-7" x="452.43" y="90.73" width="9.03" height="9.03" rx="1.11"/><rect class="cls-7" x="463.95" y="90.73" width="9.03" height="9.03" rx="1.11"/><rect class="cls-7" x="475.48" y="90.73" width="9.03" height="9.03" rx="1.11"/><rect class="cls-7" x="371.72" y="102.95" width="9.03" height="9.03" rx="1.11"/><rect class="cls-7" x="383.25" y="102.95" width="9.03" height="9.03" rx="1.11"/><rect class="cls-7" x="394.78" y="102.95" width="9.03" height="9.03" rx="1.11"/><rect class="cls-7" x="406.31" y="102.95" width="9.03" height="9.03" rx="1.11"/><rect class="cls-7" x="417.84" y="102.95" width="9.03" height="9.03" rx="1.11"/><rect class="cls-7" x="429.37" y="102.95" width="9.03" height="9.03" rx="1.11"/><rect class="cls-7" x="440.9" y="102.95" width="9.03" height="9.03" rx="1.11"/><rect class="cls-7" x="452.43" y="102.95" width="9.03" height="9.03" rx="1.11"/><rect class="cls-7" x="463.95" y="102.95" width="9.03" height="9.03" rx="1.11"/><rect class="cls-7" x="360.2" y="115.17" width="9.03" height="9.03" rx="1.11"/><rect class="cls-7" x="371.72" y="115.17" width="9.03" height="9.03" rx="1.11"/><rect class="cls-7" x="383.25" y="115.17" width="9.03" height="9.03" rx="1.11"/><rect class="cls-7" x="394.78" y="115.17" width="9.03" height="9.03" rx="1.11"/><rect class="cls-7" x="406.31" y="115.17" width="9.03" height="9.03" rx="1.11"/><rect class="cls-7" x="417.84" y="115.17" width="9.03" height="9.03" rx="1.11"/><rect class="cls-7" x="429.37" y="115.17" width="9.03" height="9.03" rx="1.11"/><rect class="cls-7" x="440.9" y="115.17" width="9.03" height="9.03" rx="1.11"/><rect class="cls-7" x="452.43" y="115.17" width="9.03" height="9.03" rx="1.11"/><rect class="cls-7" x="463.95" y="115.17" width="9.03" height="9.03" rx="1.11"/><rect class="cls-7" x="475.48" y="115.17" width="9.03" height="9.03" rx="1.11"/><rect class="cls-7" x="396.85" y="115.17" width="51" height="9.03" rx="1.11"/><rect class="cls-8" x="404.29" y="127.92" width="34" height="14.34" rx="2.29"/><line class="cls-9" x1="144.7" y1="68.69" x2="336.1" y2="84.73"/><polygon class="cls-10" points="333.61 87.5 335.12 84.65 334.11 81.59 340.86 85.13 333.61 87.5"/><line class="cls-9" x1="339.86" y1="96.47" x2="148.66" y2="110.07"/><polygon class="cls-10" points="150.69 106.95 149.65 110 151.11 112.86 143.9 110.41 150.69 106.95"/><line class="cls-11" x1="144.97" y1="55.2" x2="268.36" y2="113.4"/><path class="cls-12" d="M224.62,80.88a.36.36,0,0,1-.18.08.27.27,0,0,1-.17,0,.42.42,0,0,1-.17-.16l-.19-.28a1.71,1.71,0,0,0-.29-.33,1.86,1.86,0,0,0-.92-.45,1,1,0,0,0-.4,0,.73.73,0,0,0-.31.17.84.84,0,0,0-.22.3.65.65,0,0,0-.06.45,1.22,1.22,0,0,0,.22.42,3.74,3.74,0,0,0,.39.42l.47.45a5.23,5.23,0,0,1,.45.49,2.06,2.06,0,0,1,.33.55,1.52,1.52,0,0,1,.11.64,1.83,1.83,0,0,1-.2.76,2.44,2.44,0,0,1-.54.75,2,2,0,0,1-.76.47,2.21,2.21,0,0,1-.93.11,2.87,2.87,0,0,1-1-.29,3.26,3.26,0,0,1-1.08-.8,4,4,0,0,1-.4-.52,2.57,2.57,0,0,1-.26-.56l.63-.41a.42.42,0,0,1,.17,0,.25.25,0,0,1,.17,0,.51.51,0,0,1,.2.21l.21.35a3.71,3.71,0,0,0,.33.41,1.59,1.59,0,0,0,.54.36,1.31,1.31,0,0,0,.92.14,1,1,0,0,0,.62-.57.76.76,0,0,0,.07-.48,1.37,1.37,0,0,0-.21-.44,2.56,2.56,0,0,0-.4-.41l-.47-.43a5.11,5.11,0,0,1-.45-.48,2.12,2.12,0,0,1-.33-.56,1.81,1.81,0,0,1-.1-.67,2.08,2.08,0,0,1,.23-.81,1.93,1.93,0,0,1,.47-.63,2.05,2.05,0,0,1,.7-.41,2.24,2.24,0,0,1,.87-.1,2.83,2.83,0,0,1,1,.27,3.52,3.52,0,0,1,1,.69,2.75,2.75,0,0,1,.59.9Z"/><path class="cls-12" d="M225.27,85.06a2.93,2.93,0,0,0-.17.68,1.6,1.6,0,0,0,.06.55,1.25,1.25,0,0,0,.27.44,1.45,1.45,0,0,0,.46.32,1.86,1.86,0,0,0,.49.16,3,3,0,0,0,.41,0l.33,0a.47.47,0,0,1,.24,0,.25.25,0,0,1,.16.2l.13.56a2.19,2.19,0,0,1-.59.17,2.91,2.91,0,0,1-.59,0,3.38,3.38,0,0,1-.57-.11,3.52,3.52,0,0,1-.52-.21,2.63,2.63,0,0,1-.83-.58,2.38,2.38,0,0,1-.5-.82,2.56,2.56,0,0,1-.11-1,3.36,3.36,0,0,1,.33-1.15,2.7,2.7,0,0,1,.58-.82,2.27,2.27,0,0,1,1.72-.68,2.65,2.65,0,0,1,1,.26,2.49,2.49,0,0,1,.74.53,1.88,1.88,0,0,1,.44.71,2.16,2.16,0,0,1,.11.85,2.93,2.93,0,0,1-.28,1,.79.79,0,0,1-.21.31.23.23,0,0,1-.25,0Zm2.45.34a1.47,1.47,0,0,0,.13-.44,1.17,1.17,0,0,0,0-.42,1,1,0,0,0-.21-.38,1.2,1.2,0,0,0-.39-.29,1.13,1.13,0,0,0-.89-.08,1.45,1.45,0,0,0-.73.61Z"/><path class="cls-12" d="M234.43,86.39l-2.91,6.15L230.4,92l1-2.1a2.43,2.43,0,0,1-.84.18,2,2,0,0,1-.9-.2,1.67,1.67,0,0,1-.62-.49,1.76,1.76,0,0,1-.33-.72,2.77,2.77,0,0,1,0-.91,4.35,4.35,0,0,1,.36-1.07,3.53,3.53,0,0,1,.59-.89,2.79,2.79,0,0,1,.77-.58,2.22,2.22,0,0,1,.87-.21,2.11,2.11,0,0,1,.9.21,1.75,1.75,0,0,1,.66.49,2.24,2.24,0,0,1,.34.65l.18-.23a.29.29,0,0,1,.38-.07Zm-1.68.66a1.16,1.16,0,0,0-.26-.52,1.27,1.27,0,0,0-.43-.33,1.19,1.19,0,0,0-.51-.12,1.07,1.07,0,0,0-.48.12,1.47,1.47,0,0,0-.45.39,2.88,2.88,0,0,0-.41.66A3.55,3.55,0,0,0,230,88a1.32,1.32,0,0,0,0,.55.7.7,0,0,0,.18.4,1,1,0,0,0,.35.26,1.25,1.25,0,0,0,.66.14,2.21,2.21,0,0,0,.66-.19Z"/><path class="cls-12" d="M242.32,90.05l-.3.43a.54.54,0,0,1-.27.19.64.64,0,0,1-.39-.09l-.45-.21-.82,1.14.64.3a.29.29,0,0,1,.19.22.54.54,0,0,1-.12.37l-.23.32-1-.46-1.22,1.68-.51-.25a.41.41,0,0,1-.13-.1.47.47,0,0,1-.06-.15.37.37,0,0,1,0-.18.38.38,0,0,1,.09-.18l.91-1.26-.92-.43-.95,1.3a.47.47,0,0,1-.32.23.6.6,0,0,1-.37-.06l-.5-.23L236.83,91l-.52-.25a.3.3,0,0,1-.2-.21.59.59,0,0,1,.13-.37l.23-.33.86.41.82-1.14-1-.46.31-.42a.5.5,0,0,1,.26-.19.69.69,0,0,1,.39.08l.51.24,1-1.32a.46.46,0,0,1,.3-.2.56.56,0,0,1,.36,0l.51.25-1.22,1.67.93.44,1.21-1.68.5.24a.35.35,0,0,1,.22.24.34.34,0,0,1,0,.32l-1,1.31ZM240,89.94l-.92-.44-.83,1.13.93.44Z"/><path class="cls-12" d="M242.94,90.33a2.78,2.78,0,0,1,.66-.7,2.12,2.12,0,0,1,.76-.36,2.15,2.15,0,0,1,.84,0,3.2,3.2,0,0,1,.87.26,2.84,2.84,0,0,1,.75.52,2.11,2.11,0,0,1,.45.65,1.79,1.79,0,0,1,.15.72,1.91,1.91,0,0,1-.18.73,2.33,2.33,0,0,1-.33.52,1.71,1.71,0,0,1-.4.32,1.43,1.43,0,0,1-.47.14,2.34,2.34,0,0,1-.53,0,1.85,1.85,0,0,1,.61,1,1.75,1.75,0,0,1-.16,1.1,2.22,2.22,0,0,1-.59.77,2,2,0,0,1-.79.4,2.21,2.21,0,0,1-.89,0,3,3,0,0,1-.92-.27,3.43,3.43,0,0,1-.81-.52,2.11,2.11,0,0,1-.48-.64,2.14,2.14,0,0,1-.2-.76,4.49,4.49,0,0,1,0-.89l.59,0a.67.67,0,0,1,.39.12.41.41,0,0,1,.16.3,2.6,2.6,0,0,0,0,.4,1.26,1.26,0,0,0,.1.38,1.12,1.12,0,0,0,.23.35,1.24,1.24,0,0,0,.4.28,1.27,1.27,0,0,0,.54.14,1.19,1.19,0,0,0,.47-.07,1.1,1.1,0,0,0,.37-.23,1,1,0,0,0,.24-.34,1.62,1.62,0,0,0,.16-.45.69.69,0,0,0-.06-.42,1.21,1.21,0,0,0-.35-.43,3.16,3.16,0,0,0-.76-.45l.38-.8a3,3,0,0,0,.72.25,1.13,1.13,0,0,0,.52,0,.74.74,0,0,0,.38-.2,1.27,1.27,0,0,0,.25-.37,1,1,0,0,0,.07-.82,1.13,1.13,0,0,0-.57-.57,1.31,1.31,0,0,0-.77-.1,1.4,1.4,0,0,0-.34.13,1,1,0,0,0-.27.24.61.61,0,0,1-.33.18.64.64,0,0,1-.37-.14Z"/><path class="cls-12" d="M253.49,93.1l-.23.48a1.18,1.18,0,0,1-.21.33.81.81,0,0,1-.2.18L248,98a.93.93,0,0,1-.35.16.63.63,0,0,1-.43-.07l-.81-.38,4.9-3.79a2.73,2.73,0,0,1,.3-.21,2.1,2.1,0,0,1,.3-.15l-3.12-1.48a.31.31,0,0,1-.15-.17.3.3,0,0,1,0-.21L249,91Z"/><path class="cls-10" d="M282,67a.37.37,0,0,1-.14.14.23.23,0,0,1-.17,0,.45.45,0,0,1-.22-.09l-.27-.2a2.7,2.7,0,0,0-.38-.21,1.65,1.65,0,0,0-.53-.13,2,2,0,0,0-.5,0,1,1,0,0,0-.36.15.62.62,0,0,0-.24.27.88.88,0,0,0-.1.36.61.61,0,0,0,.1.44,1.09,1.09,0,0,0,.35.32,4,4,0,0,0,.51.26l.6.26a6.54,6.54,0,0,1,.59.3,2.19,2.19,0,0,1,.5.41,1.84,1.84,0,0,1,.33.56,2.12,2.12,0,0,1,.07.78,2.51,2.51,0,0,1-.25.9,2.08,2.08,0,0,1-.56.69,2.12,2.12,0,0,1-.83.43,3.08,3.08,0,0,1-1.07.09,3.89,3.89,0,0,1-.68-.13,4.73,4.73,0,0,1-.62-.25,3.94,3.94,0,0,1-.55-.35,3.58,3.58,0,0,1-.44-.43l.45-.61.14-.11a.57.57,0,0,1,.18,0,.49.49,0,0,1,.26.13l.32.26a3,3,0,0,0,.45.27,2.07,2.07,0,0,0,.63.16,1.31,1.31,0,0,0,.91-.2,1,1,0,0,0,.38-.75.67.67,0,0,0-.1-.47,1.14,1.14,0,0,0-.35-.34,3,3,0,0,0-.51-.25l-.59-.24-.59-.29a2,2,0,0,1-.5-.42,1.6,1.6,0,0,1-.32-.59,2,2,0,0,1-.07-.84,2,2,0,0,1,.74-1.38,2.38,2.38,0,0,1,.78-.39,2.78,2.78,0,0,1,1-.09,3.31,3.31,0,0,1,1.16.31,2.81,2.81,0,0,1,.87.64Z"/><path class="cls-10" d="M284,70.71a2.87,2.87,0,0,0,.08.7,1.47,1.47,0,0,0,.25.5,1.11,1.11,0,0,0,.4.31,1.49,1.49,0,0,0,.53.15,1.78,1.78,0,0,0,.53,0,2,2,0,0,0,.39-.12l.3-.13a.41.41,0,0,1,.24,0,.24.24,0,0,1,.22.13l.31.48a1.88,1.88,0,0,1-.49.36,2.92,2.92,0,0,1-.56.21,2.82,2.82,0,0,1-.57.09,5.14,5.14,0,0,1-.56,0,2.64,2.64,0,0,1-1-.27,2.26,2.26,0,0,1-.75-.59,2.67,2.67,0,0,1-.45-.91,3.3,3.3,0,0,1-.09-1.2,2.84,2.84,0,0,1,.26-1,2.5,2.5,0,0,1,.56-.76,2.45,2.45,0,0,1,.82-.47,2.51,2.51,0,0,1,1-.1,2.65,2.65,0,0,1,.88.23,1.89,1.89,0,0,1,.66.52,2.09,2.09,0,0,1,.4.77,2.87,2.87,0,0,1,.08,1,.75.75,0,0,1-.1.37c0,.07-.12.09-.23.08Zm2.41-.52a1.4,1.4,0,0,0,0-.46,1.05,1.05,0,0,0-.17-.39.87.87,0,0,0-.32-.28,1.13,1.13,0,0,0-.47-.14,1.18,1.18,0,0,0-.87.23,1.56,1.56,0,0,0-.47.83Z"/><path class="cls-10" d="M293.1,68.8l-.62,6.78-1.23-.11.21-2.32a2.43,2.43,0,0,1-.73.46,1.92,1.92,0,0,1-.91.12,1.58,1.58,0,0,1-.75-.24,1.76,1.76,0,0,1-.56-.56,2.59,2.59,0,0,1-.31-.85,4.6,4.6,0,0,1,0-1.13,3.69,3.69,0,0,1,.25-1,2.75,2.75,0,0,1,.52-.81,2.1,2.1,0,0,1,.75-.5,2,2,0,0,1,.92-.12,1.8,1.8,0,0,1,.79.24,2.05,2.05,0,0,1,.53.49l.1-.28a.27.27,0,0,1,.32-.19ZM291.75,70a1.06,1.06,0,0,0-.42-.4,1.37,1.37,0,0,0-.52-.16,1.46,1.46,0,0,0-.52.06,1,1,0,0,0-.41.29,1.39,1.39,0,0,0-.29.51,3.07,3.07,0,0,0-.16.76,3.84,3.84,0,0,0,0,.77,1.51,1.51,0,0,0,.16.53.89.89,0,0,0,.3.31,1,1,0,0,0,.43.12,1.19,1.19,0,0,0,.66-.1,2,2,0,0,0,.55-.4Z"/><path class="cls-10" d="M301.76,69.52l-.13.5a.49.49,0,0,1-.19.27.69.69,0,0,1-.39.06l-.5,0-.38,1.35.71.07a.32.32,0,0,1,.26.13.55.55,0,0,1,0,.39l-.1.38L300,72.53l-.56,2-.57,0a.3.3,0,0,1-.15,0,.34.34,0,0,1-.12-.12.84.84,0,0,1-.05-.17.35.35,0,0,1,0-.2l.42-1.49-1-.1-.44,1.56a.49.49,0,0,1-.23.33.63.63,0,0,1-.36.07l-.55,0,.56-2-.57,0a.31.31,0,0,1-.26-.14.48.48,0,0,1,0-.38l.1-.39.94.09.38-1.35-1.07-.1.15-.51a.39.39,0,0,1,.18-.26.58.58,0,0,1,.39-.06l.56.05.45-1.57a.52.52,0,0,1,.21-.3.59.59,0,0,1,.35-.08l.56,0-.56,2,1,.09.56-2,.55.05a.38.38,0,0,1,.29.15.33.33,0,0,1,.06.31l-.45,1.57Zm-2.22.69-1-.09-.38,1.35,1,.09Z"/><path class="cls-10" d="M307.53,68l0,.53a.92.92,0,0,1-.09.38,1.33,1.33,0,0,1-.12.24L304,74.52a1,1,0,0,1-.27.28.63.63,0,0,1-.42.08l-.9-.08,3.29-5.25q.11-.17.21-.3l.23-.25-3.44-.31a.32.32,0,0,1-.2-.1.26.26,0,0,1-.06-.21l.07-.83Z"/><path class="cls-10" d="M308.22,70.09a2.87,2.87,0,0,1,.37-.89,2.23,2.23,0,0,1,1.37-.93,3,3,0,0,1,.91,0,2.91,2.91,0,0,1,.88.22,2,2,0,0,1,.65.46,1.57,1.57,0,0,1,.38.63,1.82,1.82,0,0,1,.09.74,2,2,0,0,1-.13.6,1.48,1.48,0,0,1-.27.44,1.1,1.1,0,0,1-.38.29,1.92,1.92,0,0,1-.51.18,1.88,1.88,0,0,1,.91.72,1.69,1.69,0,0,1,.23,1.07,2.31,2.31,0,0,1-.29.94,2,2,0,0,1-.6.64,2.33,2.33,0,0,1-.82.36,3.07,3.07,0,0,1-1,.06,3.36,3.36,0,0,1-.93-.21,2,2,0,0,1-.67-.43,2.18,2.18,0,0,1-.46-.65,4.46,4.46,0,0,1-.28-.85l.56-.17a.64.64,0,0,1,.41,0,.39.39,0,0,1,.25.22,2.37,2.37,0,0,0,.17.36,1.23,1.23,0,0,0,.23.33,1,1,0,0,0,.33.24,1.24,1.24,0,0,0,.47.13,1.45,1.45,0,0,0,.56,0,1.25,1.25,0,0,0,.41-.23,1,1,0,0,0,.27-.35,1.14,1.14,0,0,0,.11-.4,1.82,1.82,0,0,0,0-.47.64.64,0,0,0-.2-.38,1.11,1.11,0,0,0-.47-.28,3.93,3.93,0,0,0-.87-.17l.08-.87a3.66,3.66,0,0,0,.76,0,1.22,1.22,0,0,0,.49-.18.72.72,0,0,0,.28-.32,1.18,1.18,0,0,0,.11-.43,1,1,0,0,0-.21-.8,1.11,1.11,0,0,0-.74-.33,1.39,1.39,0,0,0-.41,0,1.28,1.28,0,0,0-.34.14,1.05,1.05,0,0,0-.27.24,1,1,0,0,0-.18.31.57.57,0,0,1-.25.29.64.64,0,0,1-.39,0Z"/><path class="cls-10" d="M177.51,103l-1,.06a.41.41,0,0,1-.29-.07.53.53,0,0,1-.18-.21l-.62-1.44-3,.18-.46,1.5a.41.41,0,0,1-.14.22.37.37,0,0,1-.27.11l-1.05.07,2.41-7.39,1.37-.08ZM175,100.45l-1-2.34-.16-.38-.17-.46c0,.17-.07.33-.1.48l-.11.4-.74,2.44Z"/><path class="cls-10" d="M181.36,98.76l-.1.12a.21.21,0,0,1-.15.05.34.34,0,0,1-.19-.05l-.22-.11a1.25,1.25,0,0,0-.31-.12,1.4,1.4,0,0,0-.43,0,1.26,1.26,0,0,0-.56.15,1,1,0,0,0-.38.36,1.71,1.71,0,0,0-.22.55,2.72,2.72,0,0,0,0,.71,2.25,2.25,0,0,0,.13.72,1.43,1.43,0,0,0,.28.52,1.15,1.15,0,0,0,.42.31,1.16,1.16,0,0,0,.53.08,1.23,1.23,0,0,0,.48-.1,1.19,1.19,0,0,0,.29-.18l.21-.17a.32.32,0,0,1,.2-.08.25.25,0,0,1,.24.1l.38.43a2.38,2.38,0,0,1-.42.42,2.56,2.56,0,0,1-1,.46,3.33,3.33,0,0,1-.54.07,2.28,2.28,0,0,1-.9-.12,2,2,0,0,1-.76-.48,2.33,2.33,0,0,1-.55-.8,3.35,3.35,0,0,1-.25-1.11,3.26,3.26,0,0,1,.1-1,2.4,2.4,0,0,1,.43-.86,2.21,2.21,0,0,1,.75-.6,2.62,2.62,0,0,1,1.05-.26,2.33,2.33,0,0,1,1.83.61Z"/><path class="cls-10" d="M183.54,95.25l.25,4.24H184l.19,0a.41.41,0,0,0,.14-.15l1.18-1.64a.55.55,0,0,1,.17-.17.44.44,0,0,1,.25-.07l1.13-.07-1.48,2a1.72,1.72,0,0,1-.35.36.77.77,0,0,1,.19.17,1.63,1.63,0,0,1,.17.2l1.86,2.39-1.12.06a.51.51,0,0,1-.25,0,.39.39,0,0,1-.18-.16l-1.43-1.87a.39.39,0,0,0-.15-.14.51.51,0,0,0-.23,0l-.28,0,.14,2.34-1.23.07-.44-7.41Z"/><path class="cls-10" d="M195.23,96.79l-.06.52a.42.42,0,0,1-.14.29.61.61,0,0,1-.38.12l-.5,0L194,99.14l.7,0a.31.31,0,0,1,.28.09.59.59,0,0,1,.07.39L195,100l-1.08.06-.26,2.06-.57,0a.45.45,0,0,1-.16,0,.35.35,0,0,1-.13-.11.36.36,0,0,1-.08-.15.45.45,0,0,1,0-.2l.2-1.55-1,.06-.2,1.61a.48.48,0,0,1-.18.35.63.63,0,0,1-.35.13l-.55,0,.26-2.06-.57,0a.34.34,0,0,1-.28-.1.51.51,0,0,1-.06-.38l0-.4,1-.05.17-1.39L190,98l.07-.52a.47.47,0,0,1,.14-.29.61.61,0,0,1,.38-.12l.56,0,.21-1.63a.48.48,0,0,1,.17-.32.54.54,0,0,1,.33-.13l.56,0-.26,2,1-.06.27-2,.55,0a.42.42,0,0,1,.31.1.37.37,0,0,1,.1.31l-.21,1.61Zm-2.09,1-1,.06-.18,1.39,1-.06Z"/><path class="cls-10" d="M195.92,96.74a2.45,2.45,0,0,1,.23-.93,2.16,2.16,0,0,1,1.22-1.13,3.06,3.06,0,0,1,.88-.18,2.63,2.63,0,0,1,.91.09,2.14,2.14,0,0,1,.71.35,1.71,1.71,0,0,1,.47.57,1.76,1.76,0,0,1,.2.72,2.31,2.31,0,0,1,0,.61,1.34,1.34,0,0,1-.2.47,1.29,1.29,0,0,1-.34.36,2.3,2.3,0,0,1-.47.25,1.94,1.94,0,0,1,1,.56,1.75,1.75,0,0,1,.38,1,2.11,2.11,0,0,1-.15,1,2,2,0,0,1-.49.73,2.58,2.58,0,0,1-.76.48,3.28,3.28,0,0,1-.94.2,3.58,3.58,0,0,1-1-.07,2.16,2.16,0,0,1-.72-.33,2.3,2.3,0,0,1-.55-.57,4.27,4.27,0,0,1-.41-.8l.54-.25a.64.64,0,0,1,.39-.08.43.43,0,0,1,.29.19,3.78,3.78,0,0,0,.22.33,1.24,1.24,0,0,0,.27.29,1.18,1.18,0,0,0,.37.19,1.19,1.19,0,0,0,.48.06,1.26,1.26,0,0,0,.54-.14,1,1,0,0,0,.38-.29,1,1,0,0,0,.21-.38,1.13,1.13,0,0,0,.06-.41,1.71,1.71,0,0,0-.09-.47.66.66,0,0,0-.25-.35,1.21,1.21,0,0,0-.51-.2,3.43,3.43,0,0,0-.88,0l0-.88a3.2,3.2,0,0,0,.74-.13,1.38,1.38,0,0,0,.47-.25.77.77,0,0,0,.23-.36,1.53,1.53,0,0,0,0-.44,1,1,0,0,0-.33-.76,1.1,1.1,0,0,0-.78-.22,1.24,1.24,0,0,0-.39.09,1.19,1.19,0,0,0-.33.19,1.23,1.23,0,0,0-.23.28,1.26,1.26,0,0,0-.13.34.59.59,0,0,1-.2.32.65.65,0,0,1-.39,0Z"/><path class="cls-10" d="M206.5,94.09l0,.54a1.14,1.14,0,0,1,0,.39,1.23,1.23,0,0,1-.08.25L204,101.06a.77.77,0,0,1-.22.31.63.63,0,0,1-.4.15l-.9,0L205,95.89a3.24,3.24,0,0,1,.17-.32,1.73,1.73,0,0,1,.19-.28l-3.46.2a.31.31,0,0,1-.2-.07.32.32,0,0,1-.1-.2l-.05-.83Z"/><line class="cls-11" x1="142.41" y1="2.72" x2="337.21" y2="19.53"/><polygon class="cls-12" points="334.72 22.29 336.23 19.44 335.23 16.38 341.97 19.94 334.72 22.29"/><path class="cls-12" d="M289.51,3.11a.37.37,0,0,1-.14.14.23.23,0,0,1-.17,0,.39.39,0,0,1-.22-.1L288.71,3a2,2,0,0,0-.38-.21,1.65,1.65,0,0,0-.53-.13,1.6,1.6,0,0,0-.5,0,1.11,1.11,0,0,0-.37.15.67.67,0,0,0-.23.27.88.88,0,0,0-.1.36.57.57,0,0,0,.1.43,1.11,1.11,0,0,0,.35.33,4,4,0,0,0,.51.26l.6.26a6.54,6.54,0,0,1,.59.3,2.19,2.19,0,0,1,.5.41,1.73,1.73,0,0,1,.33.56,1.93,1.93,0,0,1,.07.78,2.61,2.61,0,0,1-.25.89,2,2,0,0,1-.56.7,2.26,2.26,0,0,1-.83.43,3.06,3.06,0,0,1-1.07.09,3.61,3.61,0,0,1-.67-.13,4.35,4.35,0,0,1-.63-.25,3.33,3.33,0,0,1-.54-.35,3.71,3.71,0,0,1-.45-.43l.45-.61a.49.49,0,0,1,.14-.11l.18,0a.49.49,0,0,1,.26.13l.32.26a2.56,2.56,0,0,0,.44.26,1.72,1.72,0,0,0,.64.16,1.26,1.26,0,0,0,.91-.19,1,1,0,0,0,.38-.75.7.7,0,0,0-.1-.47,1.14,1.14,0,0,0-.35-.34,3,3,0,0,0-.51-.25l-.59-.24a6.54,6.54,0,0,1-.59-.3,2,2,0,0,1-.5-.41,1.6,1.6,0,0,1-.32-.59,2.08,2.08,0,0,1-.07-.85,2,2,0,0,1,.22-.75,1.94,1.94,0,0,1,.52-.62,2.4,2.4,0,0,1,.78-.4,2.79,2.79,0,0,1,1-.08,3.31,3.31,0,0,1,1.16.31,2.81,2.81,0,0,1,.87.64Z"/><path class="cls-12" d="M291.56,6.81a2.87,2.87,0,0,0,.08.7,1.42,1.42,0,0,0,.25.49,1,1,0,0,0,.4.32,1.3,1.3,0,0,0,.53.14,1.81,1.81,0,0,0,.53,0,2.22,2.22,0,0,0,.39-.12l.3-.13a.52.52,0,0,1,.24,0,.27.27,0,0,1,.22.14l.31.48a1.88,1.88,0,0,1-.49.36,2.92,2.92,0,0,1-.56.21,2.82,2.82,0,0,1-.57.09h-.56a3.09,3.09,0,0,1-1-.27,2.43,2.43,0,0,1-.75-.6,2.54,2.54,0,0,1-.45-.9,3.3,3.3,0,0,1-.09-1.2,2.84,2.84,0,0,1,.26-1,2.24,2.24,0,0,1,.56-.76,2.29,2.29,0,0,1,.82-.47,2.51,2.51,0,0,1,1-.1,2.43,2.43,0,0,1,.88.23,1.89,1.89,0,0,1,.66.52,2.09,2.09,0,0,1,.4.77,2.85,2.85,0,0,1,.08,1A.75.75,0,0,1,295,7a.24.24,0,0,1-.23.08ZM294,6.28a1.34,1.34,0,0,0,0-.45,1,1,0,0,0-.17-.39.87.87,0,0,0-.32-.28A1.13,1.13,0,0,0,293,5a1.14,1.14,0,0,0-.87.23,1.57,1.57,0,0,0-.47.82Z"/><path class="cls-12" d="M300.62,4.9,300,11.68l-1.23-.11L299,9.25a2.43,2.43,0,0,1-.73.46,1.92,1.92,0,0,1-.91.12,1.7,1.7,0,0,1-.75-.24A1.87,1.87,0,0,1,296,9a2.56,2.56,0,0,1-.31-.86,4.52,4.52,0,0,1,0-1.12,3.84,3.84,0,0,1,.25-1,2.83,2.83,0,0,1,.52-.8,2.19,2.19,0,0,1,.75-.5,2,2,0,0,1,.92-.12,1.8,1.8,0,0,1,.79.24,2.05,2.05,0,0,1,.53.49l.1-.28a.28.28,0,0,1,.32-.2Zm-1.35,1.19a1.11,1.11,0,0,0-.42-.39,1.32,1.32,0,0,0-.52-.16,1.26,1.26,0,0,0-.52.06,1.11,1.11,0,0,0-.41.28,1.44,1.44,0,0,0-.29.52,3.07,3.07,0,0,0-.16.76,3.86,3.86,0,0,0,0,.77,1.45,1.45,0,0,0,.16.52.78.78,0,0,0,.3.32,1,1,0,0,0,.43.12,1.19,1.19,0,0,0,.66-.1,2,2,0,0,0,.55-.4Z"/><path class="cls-12" d="M309.28,5.61l-.13.51a.49.49,0,0,1-.19.27.63.63,0,0,1-.39.05l-.5,0-.38,1.35.71.06a.35.35,0,0,1,.26.14.55.55,0,0,1,0,.39l-.1.38-1.09-.1-.56,2-.57,0a.3.3,0,0,1-.15-.05.25.25,0,0,1-.11-.12.49.49,0,0,1-.06-.17.35.35,0,0,1,0-.2l.42-1.5-1-.09L305,10a.47.47,0,0,1-.23.32.64.64,0,0,1-.36.08l-.55-.05.56-2-.57,0a.31.31,0,0,1-.26-.14.52.52,0,0,1,0-.38l.11-.39.94.09L305,6.12,304,6l.14-.51a.44.44,0,0,1,.19-.26.58.58,0,0,1,.39-.06l.56,0,.45-1.58a.53.53,0,0,1,.21-.29.59.59,0,0,1,.35-.08l.56.05-.56,2,1,.09.56-2,.55.05a.41.41,0,0,1,.29.15.36.36,0,0,1,.06.32l-.45,1.56Zm-2.22.7-1-.1-.38,1.36,1,.09Z"/><path class="cls-12" d="M314.2,10.35l-.09.92-4-.36.08-.92,1.46.13.38-4.19.06-.52L311,6.19a.56.56,0,0,1-.19.07h-.16a.4.4,0,0,1-.13-.07.38.38,0,0,1-.09-.09l-.33-.57,2.36-1.67,1,.1-.57,6.28Z"/><line class="cls-11" x1="336.77" y1="31.33" x2="145.56" y2="44.93"/><polygon class="cls-12" points="147.59 41.81 146.55 44.86 148.01 47.72 140.8 45.27 147.59 41.81"/><path class="cls-12" d="M173.41,36.9l-1,.06a.47.47,0,0,1-.29-.07.63.63,0,0,1-.18-.21l-.62-1.44-3,.18-.45,1.5a.59.59,0,0,1-.14.22.41.41,0,0,1-.28.11l-1,.06,2.41-7.38,1.37-.08Zm-2.53-2.59-1-2.34-.16-.38c0-.14-.11-.3-.16-.46,0,.17-.07.33-.11.48s-.08.28-.11.4l-.74,2.44Z"/><path class="cls-12" d="M177.26,32.62a.63.63,0,0,1-.1.12.26.26,0,0,1-.15,0,.34.34,0,0,1-.19,0l-.22-.12a1.85,1.85,0,0,0-.31-.11,1.36,1.36,0,0,0-.42,0,1.26,1.26,0,0,0-.57.15,1.09,1.09,0,0,0-.38.36,1.62,1.62,0,0,0-.22.55,2.7,2.7,0,0,0,0,.71,2.57,2.57,0,0,0,.13.72,1.52,1.52,0,0,0,.28.52,1.15,1.15,0,0,0,.42.31,1.33,1.33,0,0,0,.54.08,1.43,1.43,0,0,0,.47-.1,2,2,0,0,0,.3-.18l.2-.17a.4.4,0,0,1,.21-.09.26.26,0,0,1,.23.11l.38.42a2.3,2.3,0,0,1-.9.72,2.52,2.52,0,0,1-.53.17,3.06,3.06,0,0,1-.54.07,2.28,2.28,0,0,1-.9-.12,2.09,2.09,0,0,1-.76-.48,2.33,2.33,0,0,1-.55-.8,3.35,3.35,0,0,1-.25-1.11,3.26,3.26,0,0,1,.1-1,2.4,2.4,0,0,1,.43-.86,2.21,2.21,0,0,1,.75-.6,2.8,2.8,0,0,1,1.06-.27,2.48,2.48,0,0,1,1,.13,2.56,2.56,0,0,1,.81.48Z"/><path class="cls-12" d="M179.44,29.1l.25,4.25h.23a.43.43,0,0,0,.19-.05.31.31,0,0,0,.14-.14l1.18-1.65a.64.64,0,0,1,.17-.16.46.46,0,0,1,.25-.07L183,31.2l-1.48,2a1.39,1.39,0,0,1-.35.37,1.56,1.56,0,0,1,.2.16l.17.21,1.85,2.38-1.11.07a.53.53,0,0,1-.26,0,.39.39,0,0,1-.18-.16l-1.42-1.87a.4.4,0,0,0-.16-.14.48.48,0,0,0-.22,0h-.28l.13,2.35-1.23.07-.43-7.41Z"/><path class="cls-12" d="M191.13,30.65l-.06.52a.4.4,0,0,1-.14.29.68.68,0,0,1-.38.12l-.5,0-.17,1.4.7,0a.31.31,0,0,1,.28.09.58.58,0,0,1,.07.39l-.05.39-1.08.06L189.54,36,189,36a.33.33,0,0,1-.29-.14.45.45,0,0,1-.09-.35l.2-1.55-1,.06-.2,1.61a.48.48,0,0,1-.18.35.63.63,0,0,1-.35.13l-.55,0,.26-2.06-.57,0a.34.34,0,0,1-.28-.1.51.51,0,0,1-.06-.38l0-.4,1,0,.17-1.4-1.07.07.07-.52a.47.47,0,0,1,.14-.29.63.63,0,0,1,.38-.12l.56,0,.21-1.63a.48.48,0,0,1,.17-.32.54.54,0,0,1,.33-.13l.56,0-.26,2,1-.06.27-2.05.55,0a.38.38,0,0,1,.31.1.36.36,0,0,1,.1.3l-.21,1.62Zm-2.09,1-1,.06-.18,1.4,1-.06Z"/><path class="cls-12" d="M191.82,30.59a2.89,2.89,0,0,1,.23-.92,2.35,2.35,0,0,1,.5-.69,2.28,2.28,0,0,1,.72-.44,3.13,3.13,0,0,1,.88-.18,2.63,2.63,0,0,1,.91.09,2.05,2.05,0,0,1,.71.35,1.87,1.87,0,0,1,.48.57,1.75,1.75,0,0,1,.19.72,2.31,2.31,0,0,1,0,.61,1.34,1.34,0,0,1-.2.47,1.14,1.14,0,0,1-.34.35,1.91,1.91,0,0,1-.47.26,1.94,1.94,0,0,1,1,.56,1.75,1.75,0,0,1,.38,1,2.26,2.26,0,0,1-.14,1,2.11,2.11,0,0,1-.5.73,2.37,2.37,0,0,1-.76.47,2.73,2.73,0,0,1-.94.2,3.26,3.26,0,0,1-1-.06,2.16,2.16,0,0,1-.72-.33,2.3,2.3,0,0,1-.55-.57,4,4,0,0,1-.4-.8l.53-.26a.73.73,0,0,1,.4-.07.4.4,0,0,1,.28.19c.07.11.14.22.22.33a1.5,1.5,0,0,0,.27.29,1.18,1.18,0,0,0,.37.19,1.19,1.19,0,0,0,.48.06,1.53,1.53,0,0,0,.55-.14,1.06,1.06,0,0,0,.37-.29,1.11,1.11,0,0,0,.22-.38,1.15,1.15,0,0,0,.05-.41,2.19,2.19,0,0,0-.08-.47.78.78,0,0,0-.25-.35,1.31,1.31,0,0,0-.52-.2,3,3,0,0,0-.88,0l0-.88a3.4,3.4,0,0,0,.75-.13,1.42,1.42,0,0,0,.46-.25.77.77,0,0,0,.23-.36,1.25,1.25,0,0,0,0-.44,1,1,0,0,0-.33-.76,1.09,1.09,0,0,0-.77-.22,1.24,1.24,0,0,0-.4.09,1.19,1.19,0,0,0-.33.19,1,1,0,0,0-.23.28,1.2,1.2,0,0,0-.13.33.52.52,0,0,1-.2.32.58.58,0,0,1-.39.06Z"/><path class="cls-12" d="M202.4,28l0,.54a1.53,1.53,0,0,1,0,.39,2.3,2.3,0,0,1-.09.25l-2.4,5.79a.79.79,0,0,1-.23.31.63.63,0,0,1-.4.15l-.9,0,2.47-5.68a3.24,3.24,0,0,1,.17-.32,2.4,2.4,0,0,1,.19-.29l-3.46.21a.27.27,0,0,1-.2-.08.27.27,0,0,1-.1-.19l-.05-.83Z"/><path class="cls-12" d="M271.2,120.73l-1.65-.77a.39.39,0,0,1-.23-.22.8.8,0,0,1-.06-.3l-.27-4.85a1.48,1.48,0,0,1-.26.25l-3.65,2.65a1.16,1.16,0,0,1-.27.14.35.35,0,0,1-.3,0L263,116.9l5.38-3.82-.57-6.23,1.66.77a.49.49,0,0,1,.23.17.53.53,0,0,1,.06.24l.32,4.65a2.8,2.8,0,0,1,.31-.28l3.41-2.45a.72.72,0,0,1,.24-.13.39.39,0,0,1,.23,0l1.59.74-5.12,3.48Z"/><line class="cls-11" x1="144.9" y1="127.72" x2="339.7" y2="144.52"/><polygon class="cls-12" points="337.2 147.28 338.71 144.44 337.71 141.38 344.46 144.93 337.2 147.28"/><path class="cls-12" d="M290.11,128.85a.47.47,0,0,1-.14.14.4.4,0,0,1-.17,0,.47.47,0,0,1-.22-.1l-.27-.2-.38-.21a2,2,0,0,0-.53-.12,1.62,1.62,0,0,0-.5,0,1,1,0,0,0-.36.16.66.66,0,0,0-.24.26.88.88,0,0,0-.1.36.59.59,0,0,0,.1.44,1.09,1.09,0,0,0,.35.32,4,4,0,0,0,.51.27l.6.25a4.75,4.75,0,0,1,.59.31,2.44,2.44,0,0,1,.5.4,1.78,1.78,0,0,1,.33.57,2.07,2.07,0,0,1,.07.77,2.4,2.4,0,0,1-.25.9,2.12,2.12,0,0,1-.56.7,2.42,2.42,0,0,1-.83.43,2.87,2.87,0,0,1-1.07.08,3.14,3.14,0,0,1-.68-.13,3,3,0,0,1-.62-.25,3.19,3.19,0,0,1-.55-.35,3,3,0,0,1-.44-.43l.45-.6a.49.49,0,0,1,.14-.11.29.29,0,0,1,.18,0,.47.47,0,0,1,.26.12l.32.26a1.91,1.91,0,0,0,.45.27,1.81,1.81,0,0,0,.63.16,1.31,1.31,0,0,0,.91-.19,1,1,0,0,0,.38-.75.69.69,0,0,0-.1-.48,1,1,0,0,0-.35-.33,3,3,0,0,0-.51-.26c-.2-.07-.39-.15-.59-.24a4.6,4.6,0,0,1-.59-.29,2,2,0,0,1-.5-.41,1.64,1.64,0,0,1-.32-.6,2,2,0,0,1-.07-.84,1.87,1.87,0,0,1,.23-.75,1.79,1.79,0,0,1,.51-.62,2.22,2.22,0,0,1,.78-.4,2.59,2.59,0,0,1,1-.08,3.54,3.54,0,0,1,1.16.3,3,3,0,0,1,.87.64Z"/><path class="cls-12" d="M292.16,132.55a2.84,2.84,0,0,0,.08.69,1.38,1.38,0,0,0,.25.5,1.13,1.13,0,0,0,.4.32,1.83,1.83,0,0,0,1.06.12l.39-.12.3-.13a.42.42,0,0,1,.24-.05.25.25,0,0,1,.22.14l.31.48a2.09,2.09,0,0,1-.49.35,2.41,2.41,0,0,1-.56.22,3.72,3.72,0,0,1-.57.08,3.45,3.45,0,0,1-.56,0,2.84,2.84,0,0,1-1-.26,2.43,2.43,0,0,1-.75-.6,2.54,2.54,0,0,1-.45-.9,3.34,3.34,0,0,1-.09-1.2,2.78,2.78,0,0,1,.26-1,2.38,2.38,0,0,1,.56-.76,2.15,2.15,0,0,1,.82-.47,2.51,2.51,0,0,1,1-.11,2.43,2.43,0,0,1,.88.24,2,2,0,0,1,.66.51,2.17,2.17,0,0,1,.4.77,2.93,2.93,0,0,1,.08,1,.75.75,0,0,1-.1.37.24.24,0,0,1-.23.08Zm2.41-.53a1.41,1.41,0,0,0,0-.46,1.13,1.13,0,0,0-.17-.39,1.1,1.1,0,0,0-.32-.28,1.12,1.12,0,0,0-.47-.13,1.14,1.14,0,0,0-.87.22,1.6,1.6,0,0,0-.47.83Z"/><path class="cls-12" d="M301.22,130.64l-.62,6.77-1.23-.11.21-2.31a2.43,2.43,0,0,1-.73.46,1.92,1.92,0,0,1-.91.12,1.71,1.71,0,0,1-.75-.25,1.67,1.67,0,0,1-.56-.56,2.51,2.51,0,0,1-.31-.85,4.58,4.58,0,0,1,0-1.13,3.77,3.77,0,0,1,.25-1,3,3,0,0,1,.52-.81,2.17,2.17,0,0,1,.75-.49,2,2,0,0,1,.92-.12,1.8,1.8,0,0,1,.79.23,2.09,2.09,0,0,1,.53.5l.1-.28a.28.28,0,0,1,.32-.2Zm-1.35,1.19a1.22,1.22,0,0,0-.42-.4,1.56,1.56,0,0,0-.52-.15,1.12,1.12,0,0,0-.52.06,1,1,0,0,0-.41.28,1.36,1.36,0,0,0-.29.52,3,3,0,0,0-.16.76,3.74,3.74,0,0,0,0,.76,1.51,1.51,0,0,0,.16.53.81.81,0,0,0,.3.31,1.2,1.2,0,0,0,.43.13,1.28,1.28,0,0,0,.66-.1,2,2,0,0,0,.55-.41Z"/><path class="cls-12" d="M309.88,131.35l-.13.51a.44.44,0,0,1-.19.26.55.55,0,0,1-.39.06l-.5,0-.38,1.35.71.06a.32.32,0,0,1,.26.14.55.55,0,0,1,0,.39l-.1.38-1.09-.1-.56,2-.57-.05a.47.47,0,0,1-.15-.06.34.34,0,0,1-.12-.12.69.69,0,0,1-.05-.17.32.32,0,0,1,0-.19l.42-1.5-1-.09-.44,1.55a.49.49,0,0,1-.23.33.63.63,0,0,1-.36.07l-.55,0,.56-2-.57-.06a.3.3,0,0,1-.26-.13.51.51,0,0,1,0-.39l.1-.38.94.08.38-1.35-1.07-.1.15-.5a.48.48,0,0,1,.18-.27.65.65,0,0,1,.39-.05l.56,0,.45-1.57a.49.49,0,0,1,.21-.29.52.52,0,0,1,.35-.08l.56.05-.56,2,1,.09.56-2,.55,0a.38.38,0,0,1,.29.15.34.34,0,0,1,.06.31l-.45,1.57Zm-2.22.69-1-.09-.38,1.35,1,.1Z"/><path class="cls-12" d="M310.57,131.4a2.51,2.51,0,0,1,.37-.88,2.15,2.15,0,0,1,.59-.61,2.53,2.53,0,0,1,.77-.33,3.41,3.41,0,0,1,.91-.05,2.71,2.71,0,0,1,.89.23,2.16,2.16,0,0,1,.64.45,1.74,1.74,0,0,1,.39.63,1.71,1.71,0,0,1,.08.75,2,2,0,0,1-.13.6,1.54,1.54,0,0,1-.26.43,1.45,1.45,0,0,1-.39.3,3.25,3.25,0,0,1-.5.18,1.86,1.86,0,0,1,.91.71,1.73,1.73,0,0,1,.22,1.08,2.08,2.08,0,0,1-.29.93,2,2,0,0,1-.6.65,2.42,2.42,0,0,1-.82.35,3,3,0,0,1-1,.06,3,3,0,0,1-.94-.21,2.2,2.2,0,0,1-.67-.43,2.46,2.46,0,0,1-.45-.64,4,4,0,0,1-.29-.85l.57-.18a.61.61,0,0,1,.4,0,.37.37,0,0,1,.25.22c.05.13.11.25.17.37a1.44,1.44,0,0,0,.23.32,1.2,1.2,0,0,0,.33.25,1.3,1.3,0,0,0,.47.12,1.43,1.43,0,0,0,.56-.05,1.22,1.22,0,0,0,.42-.23,1.1,1.1,0,0,0,.26-.35,1.15,1.15,0,0,0,.12-.4,1.79,1.79,0,0,0,0-.47.66.66,0,0,0-.19-.38,1.22,1.22,0,0,0-.48-.28,3.3,3.3,0,0,0-.87-.16l.08-.88a3.06,3.06,0,0,0,.76,0,1.18,1.18,0,0,0,.5-.18.7.7,0,0,0,.27-.32,1.13,1.13,0,0,0,.11-.43,1,1,0,0,0-.21-.79,1.05,1.05,0,0,0-.73-.34,1.37,1.37,0,0,0-.41,0,1.35,1.35,0,0,0-.35.14,1.55,1.55,0,0,0-.27.24,1.26,1.26,0,0,0-.18.32.54.54,0,0,1-.25.28.63.63,0,0,1-.39,0Z"/><path class="cls-12" d="M321.42,130.35l0,.54a1.41,1.41,0,0,1-.09.38,1.78,1.78,0,0,1-.12.24l-3.24,5.37a.75.75,0,0,1-.26.27.64.64,0,0,1-.43.09l-.89-.08,3.28-5.25.22-.3a1.79,1.79,0,0,1,.23-.25l-3.45-.31a.27.27,0,0,1-.19-.11.31.31,0,0,1-.07-.2l.08-.83Z"/></svg>