<svg id="Layer_1" data-name="Layer 1" xmlns="http://www.w3.org/2000/svg" width="494.59" height="147.86" viewBox="0 0 494.59 147.86"><defs><style>.cls-1,.cls-10,.cls-11{fill:#14bf96;}.cls-2{fill:#0a2a66;}.cls-3{fill:#fff;}.cls-4,.cls-5,.cls-6{fill:none;stroke-linecap:round;}.cls-4{stroke:#37c5fd;}.cls-10,.cls-11,.cls-4,.cls-5,.cls-6{stroke-miterlimit:10;}.cls-4,.cls-6{stroke-width:4.44px;}.cls-5{stroke:#10a7e3;stroke-width:7.22px;}.cls-6{stroke:#c3eefe;}.cls-7{fill:#37c5fd;}.cls-8{fill:#10a7e3;}.cls-9{fill:#65d0fa;}.cls-10,.cls-11{stroke:#00e5ae;}.cls-10{stroke-width:1.05px;}</style></defs><title>TCP send packet</title><rect class="cls-1" x="143.82" y="62.35" width="192.76" height="9.63"/><polygon class="cls-1" points="350.77 68.13 335.46 58.1 335.46 78.15 350.77 68.13"/><rect class="cls-1" x="158.01" y="126.73" width="192.76" height="9.63" transform="translate(508.78 263.1) rotate(180)"/><polygon class="cls-1" points="143.82 130.59 159.13 140.61 159.13 120.56 143.82 130.59"/><rect class="cls-2" y="0.85" width="136.01" height="136.01" rx="2.79"/><rect class="cls-3" x="5.84" y="6.69" width="124.32" height="76.5"/><line class="cls-4" x1="39.66" y1="25.13" x2="55.25" y2="25.13"/><line class="cls-5" x1="29.51" y1="25.13" x2="29.51" y2="25.13"/><line class="cls-4" x1="39.66" y1="41.72" x2="55.25" y2="41.72"/><line class="cls-5" x1="29.51" y1="41.72" x2="29.51" y2="41.72"/><line class="cls-4" x1="39.66" y1="58.32" x2="55.25" y2="58.32"/><line class="cls-5" x1="29.51" y1="58.32" x2="29.51" y2="58.32"/><line class="cls-6" x1="64.58" y1="25.13" x2="108.36" y2="25.13"/><line class="cls-6" x1="64.58" y1="33.43" x2="98.76" y2="33.43"/><line class="cls-6" x1="64.58" y1="50.02" x2="98.76" y2="50.02"/><line class="cls-6" x1="64.58" y1="66.61" x2="98.76" y2="66.61"/><line class="cls-6" x1="64.58" y1="41.72" x2="108.36" y2="41.72"/><line class="cls-6" x1="64.58" y1="58.32" x2="108.36" y2="58.32"/><path class="cls-7" d="M0,83.2H136a0,0,0,0,1,0,0v59.22a4,4,0,0,1-4,4H4a4,4,0,0,1-4-4V83.2A0,0,0,0,1,0,83.2Z"/><rect class="cls-8" x="5.84" y="90.1" width="9.03" height="9.03" rx="1.11"/><rect class="cls-8" x="17.37" y="90.1" width="9.03" height="9.03" rx="1.11"/><rect class="cls-8" x="28.9" y="90.1" width="9.03" height="9.03" rx="1.11"/><rect class="cls-8" x="40.43" y="90.1" width="9.03" height="9.03" rx="1.11"/><rect class="cls-8" x="51.96" y="90.1" width="9.03" height="9.03" rx="1.11"/><rect class="cls-8" x="63.49" y="90.1" width="9.03" height="9.03" rx="1.11"/><rect class="cls-8" x="75.02" y="90.1" width="9.03" height="9.03" rx="1.11"/><rect class="cls-8" x="86.55" y="90.1" width="9.03" height="9.03" rx="1.11"/><rect class="cls-8" x="98.07" y="90.1" width="9.03" height="9.03" rx="1.11"/><rect class="cls-8" x="109.6" y="90.1" width="9.03" height="9.03" rx="1.11"/><rect class="cls-8" x="121.13" y="90.1" width="9.03" height="9.03" rx="1.11"/><rect class="cls-8" x="17.37" y="102.32" width="9.03" height="9.03" rx="1.11"/><rect class="cls-8" x="28.9" y="102.32" width="9.03" height="9.03" rx="1.11"/><rect class="cls-8" x="40.43" y="102.32" width="9.03" height="9.03" rx="1.11"/><rect class="cls-8" x="51.96" y="102.32" width="9.03" height="9.03" rx="1.11"/><rect class="cls-8" x="63.49" y="102.32" width="9.03" height="9.03" rx="1.11"/><rect class="cls-8" x="75.02" y="102.32" width="9.03" height="9.03" rx="1.11"/><rect class="cls-8" x="86.55" y="102.32" width="9.03" height="9.03" rx="1.11"/><rect class="cls-8" x="98.07" y="102.32" width="9.03" height="9.03" rx="1.11"/><rect class="cls-8" x="109.6" y="102.32" width="9.03" height="9.03" rx="1.11"/><rect class="cls-8" x="5.84" y="114.54" width="9.03" height="9.03" rx="1.11"/><rect class="cls-8" x="17.37" y="114.54" width="9.03" height="9.03" rx="1.11"/><rect class="cls-8" x="28.9" y="114.54" width="9.03" height="9.03" rx="1.11"/><rect class="cls-8" x="40.43" y="114.54" width="9.03" height="9.03" rx="1.11"/><rect class="cls-8" x="51.96" y="114.54" width="9.03" height="9.03" rx="1.11"/><rect class="cls-8" x="63.49" y="114.54" width="9.03" height="9.03" rx="1.11"/><rect class="cls-8" x="75.02" y="114.54" width="9.03" height="9.03" rx="1.11"/><rect class="cls-8" x="86.55" y="114.54" width="9.03" height="9.03" rx="1.11"/><rect class="cls-8" x="98.07" y="114.54" width="9.03" height="9.03" rx="1.11"/><rect class="cls-8" x="109.6" y="114.54" width="9.03" height="9.03" rx="1.11"/><rect class="cls-8" x="121.13" y="114.54" width="9.03" height="9.03" rx="1.11"/><rect class="cls-8" x="42.5" y="114.54" width="51" height="9.03" rx="1.11"/><rect class="cls-9" x="49.94" y="127.29" width="34" height="14.34" rx="2.29"/><rect class="cls-2" x="357.71" y="0.85" width="136.01" height="136.01" rx="2.79"/><rect class="cls-3" x="363.55" y="6.69" width="124.32" height="76.5"/><line class="cls-4" x1="397.37" y1="25.13" x2="412.95" y2="25.13"/><line class="cls-5" x1="387.21" y1="25.13" x2="387.21" y2="25.13"/><line class="cls-4" x1="397.37" y1="41.72" x2="412.95" y2="41.72"/><line class="cls-5" x1="387.21" y1="41.72" x2="387.21" y2="41.72"/><line class="cls-4" x1="397.37" y1="58.32" x2="412.95" y2="58.32"/><line class="cls-5" x1="387.21" y1="58.32" x2="387.21" y2="58.32"/><line class="cls-6" x1="422.29" y1="25.13" x2="466.07" y2="25.13"/><line class="cls-6" x1="422.29" y1="33.43" x2="456.47" y2="33.43"/><line class="cls-6" x1="422.29" y1="50.02" x2="456.47" y2="50.02"/><line class="cls-6" x1="422.29" y1="66.61" x2="456.47" y2="66.61"/><line class="cls-6" x1="422.29" y1="41.72" x2="466.07" y2="41.72"/><line class="cls-6" x1="422.29" y1="58.32" x2="466.07" y2="58.32"/><path class="cls-7" d="M357.71,83.2h136a0,0,0,0,1,0,0v59.22a4,4,0,0,1-4,4h-128a4,4,0,0,1-4-4V83.2A0,0,0,0,1,357.71,83.2Z"/><rect class="cls-8" x="363.55" y="90.1" width="9.03" height="9.03" rx="1.11"/><rect class="cls-8" x="375.08" y="90.1" width="9.03" height="9.03" rx="1.11"/><rect class="cls-8" x="386.61" y="90.1" width="9.03" height="9.03" rx="1.11"/><rect class="cls-8" x="398.14" y="90.1" width="9.03" height="9.03" rx="1.11"/><rect class="cls-8" x="409.67" y="90.1" width="9.03" height="9.03" rx="1.11"/><rect class="cls-8" x="421.2" y="90.1" width="9.03" height="9.03" rx="1.11"/><rect class="cls-8" x="432.72" y="90.1" width="9.03" height="9.03" rx="1.11"/><rect class="cls-8" x="444.25" y="90.1" width="9.03" height="9.03" rx="1.11"/><rect class="cls-8" x="455.78" y="90.1" width="9.03" height="9.03" rx="1.11"/><rect class="cls-8" x="467.31" y="90.1" width="9.03" height="9.03" rx="1.11"/><rect class="cls-8" x="478.84" y="90.1" width="9.03" height="9.03" rx="1.11"/><rect class="cls-8" x="375.08" y="102.32" width="9.03" height="9.03" rx="1.11"/><rect class="cls-8" x="386.61" y="102.32" width="9.03" height="9.03" rx="1.11"/><rect class="cls-8" x="398.14" y="102.32" width="9.03" height="9.03" rx="1.11"/><rect class="cls-8" x="409.67" y="102.32" width="9.03" height="9.03" rx="1.11"/><rect class="cls-8" x="421.2" y="102.32" width="9.03" height="9.03" rx="1.11"/><rect class="cls-8" x="432.72" y="102.32" width="9.03" height="9.03" rx="1.11"/><rect class="cls-8" x="444.25" y="102.32" width="9.03" height="9.03" rx="1.11"/><rect class="cls-8" x="455.78" y="102.32" width="9.03" height="9.03" rx="1.11"/><rect class="cls-8" x="467.31" y="102.32" width="9.03" height="9.03" rx="1.11"/><rect class="cls-8" x="363.55" y="114.54" width="9.03" height="9.03" rx="1.11"/><rect class="cls-8" x="375.08" y="114.54" width="9.03" height="9.03" rx="1.11"/><rect class="cls-8" x="386.61" y="114.54" width="9.03" height="9.03" rx="1.11"/><rect class="cls-8" x="398.14" y="114.54" width="9.03" height="9.03" rx="1.11"/><rect class="cls-8" x="409.67" y="114.54" width="9.03" height="9.03" rx="1.11"/><rect class="cls-8" x="421.2" y="114.54" width="9.03" height="9.03" rx="1.11"/><rect class="cls-8" x="432.72" y="114.54" width="9.03" height="9.03" rx="1.11"/><rect class="cls-8" x="444.25" y="114.54" width="9.03" height="9.03" rx="1.11"/><rect class="cls-8" x="455.78" y="114.54" width="9.03" height="9.03" rx="1.11"/><rect class="cls-8" x="467.31" y="114.54" width="9.03" height="9.03" rx="1.11"/><rect class="cls-8" x="478.84" y="114.54" width="9.03" height="9.03" rx="1.11"/><rect class="cls-8" x="400.21" y="114.54" width="51" height="9.03" rx="1.11"/><rect class="cls-9" x="407.65" y="127.29" width="34" height="14.34" rx="2.29"/><rect class="cls-10" x="198.36" y="12.36" width="89.16" height="42.44" rx="4.65"/><path class="cls-3" d="M206.34,35a1.54,1.54,0,0,1,1.4.77,3.83,3.83,0,0,1,.47,2.06,3.87,3.87,0,0,1-.47,2.07,1.65,1.65,0,0,1-2.79,0,3.87,3.87,0,0,1-.48-2.07,3.83,3.83,0,0,1,.48-2.06A1.54,1.54,0,0,1,206.34,35Zm-1,4,1.85-2.89a1.14,1.14,0,0,0-.38-.44.91.91,0,0,0-1.3.53,3.84,3.84,0,0,0-.3,1.62c0,.15,0,.31,0,.48A4.09,4.09,0,0,0,205.3,39Zm2.08-2.26-1.84,2.92a1.28,1.28,0,0,0,.34.38.82.82,0,0,0,.43.12,1,1,0,0,0,.93-.73,4.46,4.46,0,0,0,.28-1.63A4.17,4.17,0,0,0,207.38,36.75Z"/><path class="cls-3" d="M210.42,40V35.89a5.72,5.72,0,0,1-.56.39,5.79,5.79,0,0,1-.75.33V36a4.72,4.72,0,0,0,1.31-.83h.64V40h1.29v.53h-3.24V40Z"/><path class="cls-3" d="M214.65,40V35.89a5.72,5.72,0,0,1-.56.39,5.79,5.79,0,0,1-.75.33V36a4.58,4.58,0,0,0,1.31-.83h.64V40h1.29v.53h-3.24V40Z"/><path class="cls-3" d="M219.05,35a1.53,1.53,0,0,1,1.39.77,3.83,3.83,0,0,1,.48,2.06,3.87,3.87,0,0,1-.48,2.07,1.64,1.64,0,0,1-2.78,0,3.87,3.87,0,0,1-.48-2.07,3.83,3.83,0,0,1,.48-2.06A1.53,1.53,0,0,1,219.05,35ZM218,39l1.85-2.89a1.06,1.06,0,0,0-.38-.44.94.94,0,0,0-.42-.11,1,1,0,0,0-.88.64,3.84,3.84,0,0,0-.3,1.62c0,.15,0,.31,0,.48A5.11,5.11,0,0,0,218,39Zm2.08-2.26-1.83,2.92a1.16,1.16,0,0,0,.34.38.8.8,0,0,0,.43.12,1,1,0,0,0,.93-.73,4.68,4.68,0,0,0,.27-1.63A3.76,3.76,0,0,0,220.08,36.75Z"/><path class="cls-3" d="M223.12,40V35.89a5.72,5.72,0,0,1-.56.39,5.79,5.79,0,0,1-.75.33V36a4.58,4.58,0,0,0,1.31-.83h.64V40h1.29v.53h-3.24V40Z"/><path class="cls-3" d="M227.36,40V35.89c-.2.15-.38.28-.56.39a6.49,6.49,0,0,1-.75.33V36a4.72,4.72,0,0,0,1.31-.83H228V40h1.28v.53h-3.23V40Z"/><path class="cls-3" d="M231.59,40V35.89a5.72,5.72,0,0,1-.56.39,5.79,5.79,0,0,1-.75.33V36a4.58,4.58,0,0,0,1.31-.83h.64V40h1.29v.53h-3.24V40Z"/><path class="cls-3" d="M236,35a1.54,1.54,0,0,1,1.4.77,3.83,3.83,0,0,1,.48,2.06,3.87,3.87,0,0,1-.48,2.07,1.56,1.56,0,0,1-1.4.77,1.54,1.54,0,0,1-1.38-.77,3.78,3.78,0,0,1-.49-2.07,3.74,3.74,0,0,1,.49-2.06A1.52,1.52,0,0,1,236,35Zm-1,4,1.85-2.89a1.14,1.14,0,0,0-.38-.44.91.91,0,0,0-1.3.53,3.84,3.84,0,0,0-.3,1.62c0,.15,0,.31,0,.48A4.09,4.09,0,0,0,234.94,39ZM237,36.75l-1.83,2.92a1.06,1.06,0,0,0,.34.38.77.77,0,0,0,.43.12,1,1,0,0,0,.93-.73,4.68,4.68,0,0,0,.27-1.63A4.17,4.17,0,0,0,237,36.75Z"/><path class="cls-3" d="M240.06,40V35.89a5.72,5.72,0,0,1-.56.39,5.79,5.79,0,0,1-.75.33V36a4.58,4.58,0,0,0,1.31-.83h.64V40H242v.53h-3.24V40Z"/><path class="cls-3" d="M244.3,40V35.89a5.81,5.81,0,0,1-.57.39,6.23,6.23,0,0,1-.74.33V36a4.72,4.72,0,0,0,1.31-.83h.64V40h1.28v.53H243V40Z"/><path class="cls-3" d="M248.69,35a1.53,1.53,0,0,1,1.39.77,3.83,3.83,0,0,1,.48,2.06,3.87,3.87,0,0,1-.48,2.07,1.64,1.64,0,0,1-2.78,0,3.87,3.87,0,0,1-.48-2.07,3.83,3.83,0,0,1,.48-2.06A1.53,1.53,0,0,1,248.69,35Zm-1.05,4,1.85-2.89a1,1,0,0,0-.38-.44.91.91,0,0,0-.42-.11,1,1,0,0,0-.88.64,3.84,3.84,0,0,0-.3,1.62c0,.15,0,.31,0,.48A5.11,5.11,0,0,0,247.64,39Zm2.08-2.26-1.83,2.92a1.16,1.16,0,0,0,.34.38.8.8,0,0,0,.43.12,1,1,0,0,0,.93-.73,4.68,4.68,0,0,0,.27-1.63A3.76,3.76,0,0,0,249.72,36.75Z"/><path class="cls-3" d="M252.77,40V35.89a5.81,5.81,0,0,1-.57.39,6.23,6.23,0,0,1-.74.33V36a4.87,4.87,0,0,0,1.31-.83h.64V40h1.28v.53h-3.23V40Z"/><path class="cls-3" d="M257.16,35a1.53,1.53,0,0,1,1.39.77,3.83,3.83,0,0,1,.48,2.06,3.87,3.87,0,0,1-.48,2.07,1.64,1.64,0,0,1-2.78,0,3.87,3.87,0,0,1-.48-2.07,3.83,3.83,0,0,1,.48-2.06A1.53,1.53,0,0,1,257.16,35Zm-1.05,4L258,36.12a1.06,1.06,0,0,0-.38-.44.94.94,0,0,0-.42-.11,1,1,0,0,0-.88.64,3.84,3.84,0,0,0-.3,1.62c0,.15,0,.31,0,.48A5.11,5.11,0,0,0,256.11,39Zm2.08-2.26-1.83,2.92a1.16,1.16,0,0,0,.34.38.8.8,0,0,0,.43.12,1,1,0,0,0,.93-.73,4.68,4.68,0,0,0,.27-1.63A3.76,3.76,0,0,0,258.19,36.75Z"/><path class="cls-3" d="M261.23,40V35.89a5.72,5.72,0,0,1-.56.39,5.79,5.79,0,0,1-.75.33V36a4.58,4.58,0,0,0,1.31-.83h.64V40h1.29v.53h-3.24V40Z"/><path class="cls-3" d="M265.63,35a1.53,1.53,0,0,1,1.39.77,3.83,3.83,0,0,1,.48,2.06,3.87,3.87,0,0,1-.48,2.07,1.64,1.64,0,0,1-2.78,0,3.87,3.87,0,0,1-.48-2.07,3.83,3.83,0,0,1,.48-2.06A1.53,1.53,0,0,1,265.63,35Zm-1.05,4,1.85-2.89a1.06,1.06,0,0,0-.38-.44.94.94,0,0,0-.42-.11,1,1,0,0,0-.88.64,3.84,3.84,0,0,0-.3,1.62c0,.15,0,.31,0,.48A5.11,5.11,0,0,0,264.58,39Zm2.08-2.26-1.83,2.92a1.16,1.16,0,0,0,.34.38.8.8,0,0,0,.43.12,1,1,0,0,0,.93-.73,4.68,4.68,0,0,0,.27-1.63A3.76,3.76,0,0,0,266.66,36.75Z"/><path class="cls-3" d="M269.7,40V35.89a5.72,5.72,0,0,1-.56.39,5.79,5.79,0,0,1-.75.33V36a4.58,4.58,0,0,0,1.31-.83h.64V40h1.29v.53h-3.24V40Z"/><path class="cls-3" d="M274.1,35a1.53,1.53,0,0,1,1.39.77,3.83,3.83,0,0,1,.48,2.06,3.87,3.87,0,0,1-.48,2.07,1.64,1.64,0,0,1-2.78,0,3.87,3.87,0,0,1-.48-2.07,3.83,3.83,0,0,1,.48-2.06A1.53,1.53,0,0,1,274.1,35Zm-1.05,4,1.85-2.89a1.06,1.06,0,0,0-.38-.44.91.91,0,0,0-1.3.53,3.84,3.84,0,0,0-.3,1.62c0,.15,0,.31,0,.48A3.17,3.17,0,0,0,273.05,39Zm2.08-2.26-1.83,2.92a1.06,1.06,0,0,0,.34.38.8.8,0,0,0,.43.12,1,1,0,0,0,.93-.73,4.68,4.68,0,0,0,.27-1.63A4.17,4.17,0,0,0,275.13,36.75Z"/><path class="cls-3" d="M278.17,40V35.89a5.72,5.72,0,0,1-.56.39,5.79,5.79,0,0,1-.75.33V36a4.58,4.58,0,0,0,1.31-.83h.64V40h1.29v.53h-3.24V40Z"/><path class="cls-3" d="M206.34,43.51a1.55,1.55,0,0,1,1.4.76,4.79,4.79,0,0,1,0,4.14,1.66,1.66,0,0,1-2.79,0,4.7,4.7,0,0,1,0-4.14A1.55,1.55,0,0,1,206.34,43.51Zm-1,4,1.85-2.9a1.17,1.17,0,0,0-.38-.43.91.91,0,0,0-1.3.53,3.78,3.78,0,0,0-.3,1.62c0,.15,0,.31,0,.48A4.25,4.25,0,0,0,205.3,47.48Zm2.08-2.26-1.84,2.92a1.23,1.23,0,0,0,.34.37.75.75,0,0,0,.43.13,1,1,0,0,0,.93-.73,4.46,4.46,0,0,0,.28-1.63A4.17,4.17,0,0,0,207.38,45.22Z"/><path class="cls-3" d="M210.42,48.48V44.35a3.57,3.57,0,0,1-.56.39,3.93,3.93,0,0,1-.75.33v-.58a4.5,4.5,0,0,0,1.31-.83h.64v4.82h1.29V49h-3.24v-.53Z"/><path class="cls-3" d="M214.65,48.48V44.35a3.57,3.57,0,0,1-.56.39,3.93,3.93,0,0,1-.75.33v-.58a4.37,4.37,0,0,0,1.31-.83h.64v4.82h1.29V49h-3.24v-.53Z"/><path class="cls-3" d="M219.05,43.51a1.54,1.54,0,0,1,1.39.76,4.7,4.7,0,0,1,0,4.14,1.65,1.65,0,0,1-2.78,0,4.7,4.7,0,0,1,0-4.14A1.54,1.54,0,0,1,219.05,43.51Zm-1.05,4,1.85-2.9a1.09,1.09,0,0,0-.38-.43.91.91,0,0,0-1.3.53,3.78,3.78,0,0,0-.3,1.62c0,.15,0,.31,0,.48A5.35,5.35,0,0,0,218,47.48Zm2.08-2.26-1.83,2.92a1.11,1.11,0,0,0,.34.37.73.73,0,0,0,.43.13,1,1,0,0,0,.93-.73,4.68,4.68,0,0,0,.27-1.63A3.76,3.76,0,0,0,220.08,45.22Z"/><path class="cls-3" d="M223.28,43.51a1.54,1.54,0,0,1,1.39.76,4.7,4.7,0,0,1,0,4.14,1.65,1.65,0,0,1-2.78,0,4.7,4.7,0,0,1,0-4.14A1.55,1.55,0,0,1,223.28,43.51Zm-1,4,1.84-2.9a1,1,0,0,0-.38-.43.88.88,0,0,0-.42-.11.94.94,0,0,0-.87.64,3.78,3.78,0,0,0-.3,1.62c0,.15,0,.31,0,.48A4.25,4.25,0,0,0,222.24,47.48Zm2.08-2.26-1.84,2.92a1.11,1.11,0,0,0,.34.37.73.73,0,0,0,.43.13,1,1,0,0,0,.93-.73,4.68,4.68,0,0,0,.28-1.63A4.17,4.17,0,0,0,224.32,45.22Z"/><path class="cls-3" d="M227.52,43.51a1.54,1.54,0,0,1,1.39.76,4.7,4.7,0,0,1,0,4.14,1.65,1.65,0,0,1-2.78,0,4.7,4.7,0,0,1,0-4.14A1.54,1.54,0,0,1,227.52,43.51Zm-1.05,4,1.85-2.9a1.09,1.09,0,0,0-.38-.43.91.91,0,0,0-1.3.53,3.78,3.78,0,0,0-.3,1.62c0,.15,0,.31,0,.48A4.25,4.25,0,0,0,226.47,47.48Zm2.08-2.26-1.83,2.92a1,1,0,0,0,.34.37.73.73,0,0,0,.43.13,1,1,0,0,0,.93-.73,4.68,4.68,0,0,0,.27-1.63A4.17,4.17,0,0,0,228.55,45.22Z"/><path class="cls-3" d="M231.59,48.48V44.35a3.57,3.57,0,0,1-.56.39,3.93,3.93,0,0,1-.75.33v-.58a4.37,4.37,0,0,0,1.31-.83h.64v4.82h1.29V49h-3.24v-.53Z"/><path class="cls-3" d="M236,43.51a1.55,1.55,0,0,1,1.4.76,4.7,4.7,0,0,1,0,4.14,1.55,1.55,0,0,1-1.4.76,1.53,1.53,0,0,1-1.38-.76,4.62,4.62,0,0,1,0-4.14A1.53,1.53,0,0,1,236,43.51Zm-1,4,1.85-2.9a1.17,1.17,0,0,0-.38-.43.91.91,0,0,0-1.3.53,3.78,3.78,0,0,0-.3,1.62c0,.15,0,.31,0,.48A4.25,4.25,0,0,0,234.94,47.48ZM237,45.22l-1.83,2.92a1,1,0,0,0,.34.37.71.71,0,0,0,.43.13,1,1,0,0,0,.93-.73,4.68,4.68,0,0,0,.27-1.63A4.17,4.17,0,0,0,237,45.22Z"/><path class="cls-3" d="M240.22,43.51a1.54,1.54,0,0,1,1.39.76,4.7,4.7,0,0,1,0,4.14,1.65,1.65,0,0,1-2.78,0,4.7,4.7,0,0,1,0-4.14A1.54,1.54,0,0,1,240.22,43.51Zm-1,4,1.84-2.9a1,1,0,0,0-.38-.43.91.91,0,0,0-.42-.11.93.93,0,0,0-.87.64,3.63,3.63,0,0,0-.3,1.62c0,.15,0,.31,0,.48A4.25,4.25,0,0,0,239.18,47.48Zm2.07-2.26-1.83,2.92a1.11,1.11,0,0,0,.34.37.73.73,0,0,0,.43.13,1,1,0,0,0,.93-.73,4.68,4.68,0,0,0,.27-1.63A3.76,3.76,0,0,0,241.25,45.22Z"/><path class="cls-3" d="M244.3,48.48V44.35a3.62,3.62,0,0,1-.57.39,4.09,4.09,0,0,1-.74.33v-.58a4.5,4.5,0,0,0,1.31-.83h.64v4.82h1.28V49H243v-.53Z"/><path class="cls-3" d="M248.69,43.51a1.54,1.54,0,0,1,1.39.76,4.7,4.7,0,0,1,0,4.14,1.65,1.65,0,0,1-2.78,0,4.7,4.7,0,0,1,0-4.14A1.54,1.54,0,0,1,248.69,43.51Zm-1.05,4,1.85-2.9a1,1,0,0,0-.38-.43.91.91,0,0,0-.42-.11.94.94,0,0,0-.88.64,3.78,3.78,0,0,0-.3,1.62c0,.15,0,.31,0,.48A5.35,5.35,0,0,0,247.64,47.48Zm2.08-2.26-1.83,2.92a1.11,1.11,0,0,0,.34.37.73.73,0,0,0,.43.13,1,1,0,0,0,.93-.73,4.68,4.68,0,0,0,.27-1.63A3.76,3.76,0,0,0,249.72,45.22Z"/><path class="cls-3" d="M252.77,48.48V44.35a3.62,3.62,0,0,1-.57.39,4.09,4.09,0,0,1-.74.33v-.58a4.64,4.64,0,0,0,1.31-.83h.64v4.82h1.28V49h-3.23v-.53Z"/><path class="cls-3" d="M257.16,43.51a1.54,1.54,0,0,1,1.39.76,4.7,4.7,0,0,1,0,4.14,1.65,1.65,0,0,1-2.78,0,4.7,4.7,0,0,1,0-4.14A1.54,1.54,0,0,1,257.16,43.51Zm-1.05,4,1.85-2.9a1.09,1.09,0,0,0-.38-.43.91.91,0,0,0-1.3.53,3.78,3.78,0,0,0-.3,1.62c0,.15,0,.31,0,.48A5.35,5.35,0,0,0,256.11,47.48Zm2.08-2.26-1.83,2.92a1.11,1.11,0,0,0,.34.37.73.73,0,0,0,.43.13,1,1,0,0,0,.93-.73,4.68,4.68,0,0,0,.27-1.63A3.76,3.76,0,0,0,258.19,45.22Z"/><path class="cls-3" d="M261.23,48.48V44.35a3.57,3.57,0,0,1-.56.39,3.93,3.93,0,0,1-.75.33v-.58a4.37,4.37,0,0,0,1.31-.83h.64v4.82h1.29V49h-3.24v-.53Z"/><path class="cls-3" d="M265.63,43.51a1.54,1.54,0,0,1,1.39.76,4.7,4.7,0,0,1,0,4.14,1.65,1.65,0,0,1-2.78,0,4.7,4.7,0,0,1,0-4.14A1.54,1.54,0,0,1,265.63,43.51Zm-1.05,4,1.85-2.9a1.09,1.09,0,0,0-.38-.43.91.91,0,0,0-1.3.53,3.78,3.78,0,0,0-.3,1.62c0,.15,0,.31,0,.48A5.35,5.35,0,0,0,264.58,47.48Zm2.08-2.26-1.83,2.92a1.11,1.11,0,0,0,.34.37.73.73,0,0,0,.43.13,1,1,0,0,0,.93-.73,4.68,4.68,0,0,0,.27-1.63A3.76,3.76,0,0,0,266.66,45.22Z"/><path class="cls-3" d="M269.7,48.48V44.35a3.57,3.57,0,0,1-.56.39,3.93,3.93,0,0,1-.75.33v-.58a4.37,4.37,0,0,0,1.31-.83h.64v4.82h1.29V49h-3.24v-.53Z"/><path class="cls-3" d="M273.94,48.48V44.35a4.1,4.1,0,0,1-.56.39,4.23,4.23,0,0,1-.75.33v-.58a4.5,4.5,0,0,0,1.31-.83h.64v4.82h1.28V49h-3.23v-.53Z"/><path class="cls-3" d="M278.33,43.51a1.54,1.54,0,0,1,1.39.76,4.7,4.7,0,0,1,0,4.14,1.65,1.65,0,0,1-2.78,0,4.7,4.7,0,0,1,0-4.14A1.54,1.54,0,0,1,278.33,43.51Zm-1,4,1.84-2.9a1,1,0,0,0-.38-.43.88.88,0,0,0-.42-.11.93.93,0,0,0-.87.64,3.78,3.78,0,0,0-.3,1.62c0,.15,0,.31,0,.48A4.25,4.25,0,0,0,277.29,47.48Zm2.07-2.26-1.83,2.92a1.11,1.11,0,0,0,.34.37.73.73,0,0,0,.43.13,1,1,0,0,0,.93-.73,4.68,4.68,0,0,0,.28-1.63A3.77,3.77,0,0,0,279.36,45.22Z"/><path class="cls-3" d="M225.71,26.28v-.93a4.89,4.89,0,0,0,2.12.57,2,2,0,0,0,.76-.16,1.19,1.19,0,0,0,.56-.44,1.16,1.16,0,0,0,.18-.63,1.22,1.22,0,0,0-.25-.74,3.57,3.57,0,0,0-1-.76l-.5-.28-.5-.3a2.26,2.26,0,0,1-1.33-1.95,2,2,0,0,1,.59-1.44,2.58,2.58,0,0,1,1.86-.58,5.4,5.4,0,0,1,1.56.22v.85a4.53,4.53,0,0,0-1.62-.32,1.53,1.53,0,0,0-1,.33,1,1,0,0,0-.38.81,1,1,0,0,0,.29.77,3.35,3.35,0,0,0,.76.57l.39.23.47.28.39.24a2.23,2.23,0,0,1,1.25,1.91,2,2,0,0,1-.64,1.51,2.83,2.83,0,0,1-2.05.63,4.64,4.64,0,0,1-.85-.07A7.22,7.22,0,0,1,225.71,26.28Z"/><path class="cls-3" d="M236.23,26.08a4.84,4.84,0,0,1-2.06.51,2.47,2.47,0,0,1-1.32-.36,2.63,2.63,0,0,1-.92-1.05,3,3,0,0,1-.35-1.45,3.3,3.3,0,0,1,.33-1.44,2.56,2.56,0,0,1,.93-1.07,2.42,2.42,0,0,1,1.32-.38,1.94,1.94,0,0,1,1.56.69,3.19,3.19,0,0,1,.59,2.13v.2h-3.76a2.27,2.27,0,0,0,.24,1,1.62,1.62,0,0,0,1.5.94,4.09,4.09,0,0,0,1.94-.59Zm-3.62-2.9h2.72v-.13A1.58,1.58,0,0,0,235,22a1.1,1.1,0,0,0-.88-.4,1.31,1.31,0,0,0-1,.41A2.18,2.18,0,0,0,232.61,23.18Z"/><path class="cls-3" d="M241.35,25.22a3,3,0,0,1-1,1,2.15,2.15,0,0,1-1.08.34A1.64,1.64,0,0,1,238,26a2.57,2.57,0,0,1-.54-1.79,3.85,3.85,0,0,1,.36-1.69,3,3,0,0,1,1-1.18,2.49,2.49,0,0,1,1.5-.43c.17,0,.43,0,.78.05l.23,0h.91v7.57h-.9Zm0-1.08V21.79a3.85,3.85,0,0,0-.9-.12,1.78,1.78,0,0,0-1.41.65,2.63,2.63,0,0,0-.56,1.77,2,2,0,0,0,.31,1.22.85.85,0,0,0,.7.41,1.54,1.54,0,0,0,.94-.43A4,4,0,0,0,241.35,24.14Z"/><path class="cls-3" d="M249.29,24.4v-.69h1l.53-2h-1.49V21H251l.57-2.17h.71L251.67,21h1.39l.59-2.17h.71L253.77,21h.83v.68h-1l-.54,2h1.55v.69h-1.74l-.55,2h-.73l.56-2h-1.35l-.54,2h-.72l.54-2Zm1.68-.69h1.36l.54-2h-1.38Z"/><path class="cls-3" d="M257.72,25.69V19.84a6.77,6.77,0,0,1-.8.55,5.47,5.47,0,0,1-1.06.47V20a6.21,6.21,0,0,0,1.86-1.18h.91v6.83h1.82v.75h-4.59v-.75Z"/><rect class="cls-11" x="198.36" y="82.06" width="89.16" height="38.44" rx="4.42"/><path class="cls-3" d="M223.05,96.17h-1l2.34-7.58h1l2.34,7.58h-1l-.51-1.66h-2.67Zm.75-2.42H226l-.92-2.88-.21-.77-.19.77Z"/><path class="cls-3" d="M233.29,96a5.59,5.59,0,0,1-1.74.3,2.74,2.74,0,0,1-1.46-.38,2.62,2.62,0,0,1-1-1,3,3,0,0,1-.36-1.47,2.8,2.8,0,0,1,.81-2.06,2.63,2.63,0,0,1,1.95-.82,5.67,5.67,0,0,1,1.79.31v.88a4.24,4.24,0,0,0-1.71-.44,1.87,1.87,0,0,0-.94.25,1.6,1.6,0,0,0-.67.77,2.53,2.53,0,0,0-.24,1.07,2.44,2.44,0,0,0,.46,1.41,1.65,1.65,0,0,0,1.45.67,5.65,5.65,0,0,0,.58,0,7.47,7.47,0,0,0,1.07-.31Z"/><path class="cls-3" d="M234.94,96.17V88.29h.91v4.95l2.62-2.52h1.2l-2.59,2.5,2.67,3H238.5l-2.65-2.93v2.93Z"/><path class="cls-3" d="M246.29,94.13v-.69h1l.53-2h-1.49v-.67H248l.57-2.17h.71l-.57,2.17h1.39l.59-2.17h.71l-.59,2.17h.83v.67h-1l-.54,2h1.55v.69h-1.74l-.56,2h-.72l.56-2h-1.35l-.54,2h-.72l.54-2Zm1.68-.69h1.36l.54-2h-1.38Z"/><path class="cls-3" d="M252.65,96v-1a4.53,4.53,0,0,0,1.94.56,1.75,1.75,0,0,0,1.24-.45,1.54,1.54,0,0,0,.49-1.18,1.45,1.45,0,0,0-.54-1.17,2.82,2.82,0,0,0-1.83-.46h-.5v-.75h.7a1.89,1.89,0,0,0,1.37-.43,1.31,1.31,0,0,0,.43-1,1.06,1.06,0,0,0-.35-.8,1.48,1.48,0,0,0-1.06-.32,4,4,0,0,0-1.74.45v-.86a4.74,4.74,0,0,1,1.7-.35,2.64,2.64,0,0,1,1.91.54,1.76,1.76,0,0,1,.52,1.25,1.9,1.9,0,0,1-.27,1,2.41,2.41,0,0,1-1,.81,2.82,2.82,0,0,1,1,.48,1.87,1.87,0,0,1,.51.67,2.13,2.13,0,0,1,.17.86,2.24,2.24,0,0,1-.79,1.76,3,3,0,0,1-2,.69,7.79,7.79,0,0,1-.79-.05A4.09,4.09,0,0,1,252.65,96Z"/><path class="cls-3" d="M259.5,96.17v-.68a4.34,4.34,0,0,1,.18-1.34,5.07,5.07,0,0,1,.64-1.2c.3-.44.54-.79.73-1l.78-1,.29-.37a5,5,0,0,0,.56-1h-3.93v-.92h4.81v.61a1.53,1.53,0,0,1-.15.67,13.39,13.39,0,0,1-.87,1.31l-.35.48-.51.71c-.32.46-.56.83-.72,1.1a3.91,3.91,0,0,0-.35.85,4.67,4.67,0,0,0-.12,1.17v.68Z"/><path class="cls-3" d="M231.89,114.08h-1.32l3.27-10.61h1.4l3.28,10.61h-1.45l-.73-2.33h-3.73Zm1.05-3.39H236l-1.28-4-.3-1.08-.27,1.08Z"/><path class="cls-3" d="M246.18,114a6.08,6.08,0,0,1-2.13.45,4.12,4.12,0,0,1-2.29-.67,4.31,4.31,0,0,1-1.63-2,7.27,7.27,0,0,1-.58-3,7.37,7.37,0,0,1,.57-3,4.5,4.5,0,0,1,1.62-2,4.18,4.18,0,0,1,2.31-.67,6,6,0,0,1,2.13.44v1.26a4.28,4.28,0,0,0-2.19-.64,2.3,2.3,0,0,0-1.5.56,3.91,3.91,0,0,0-1.1,1.64,6.72,6.72,0,0,0-.41,2.36,6.43,6.43,0,0,0,.43,2.39,3.83,3.83,0,0,0,1.1,1.63,2.27,2.27,0,0,0,1.48.55,4.33,4.33,0,0,0,2.19-.64Z"/><path class="cls-3" d="M248.22,114.08V103.47h1.38v5.2l3.93-5.2H255l-3.8,5,4.33,5.58h-1.72l-4.21-5.41v5.41Z"/></svg>