<svg id="Layer_1" data-name="Layer 1" xmlns="http://www.w3.org/2000/svg" width="496.32" height="212.4" viewBox="0 0 496.32 212.4"><defs><style>.cls-1{fill:#c3eefe;}.cls-2,.cls-4{fill:none;}.cls-2,.cls-6{stroke:#fff;}.cls-2,.cls-4,.cls-6{stroke-miterlimit:10;}.cls-3{fill:#304752;}.cls-4{stroke:#0a2a66;}.cls-5{fill:#0a2a66;}.cls-7{fill:#14bf96;}.cls-8{fill:#fff;}</style></defs><title>TCP header only copy</title><rect class="cls-1" x="1.49" y="20.4" width="494.82" height="192"/><line class="cls-2" x1="1.49" y1="53.59" x2="496.32" y2="53.59"/><line class="cls-2" x1="248.92" y1="20.96" x2="248.92" y2="52.75"/><path d="M81.75,34.64a.58.58,0,0,1-.12.14.31.31,0,0,1-.17,0,.5.5,0,0,1-.26-.11l-.37-.24a3.44,3.44,0,0,0-.54-.25,2.46,2.46,0,0,0-.77-.11,2.09,2.09,0,0,0-.74.12,1.41,1.41,0,0,0-.54.3,1.35,1.35,0,0,0-.33.46,1.56,1.56,0,0,0-.11.57,1,1,0,0,0,.19.65,1.69,1.69,0,0,0,.51.44,4.22,4.22,0,0,0,.71.31l.82.28a7.34,7.34,0,0,1,.82.32,2.92,2.92,0,0,1,.72.45,2,2,0,0,1,.5.67,2.22,2.22,0,0,1,.2,1,3.08,3.08,0,0,1-.21,1.14,2.68,2.68,0,0,1-.61.94,2.88,2.88,0,0,1-1,.62,3.65,3.65,0,0,1-1.32.23,4.07,4.07,0,0,1-1.66-.33,3.79,3.79,0,0,1-1.26-.89l.36-.6.13-.12a.29.29,0,0,1,.16,0,.45.45,0,0,1,.2.06l.24.18.31.22a2.2,2.2,0,0,0,.4.23,2.35,2.35,0,0,0,.51.17,2.59,2.59,0,0,0,.65.07,2.43,2.43,0,0,0,.79-.12,1.61,1.61,0,0,0,.6-.35,1.45,1.45,0,0,0,.37-.54,1.7,1.7,0,0,0,.13-.69,1.15,1.15,0,0,0-.19-.69,1.71,1.71,0,0,0-.5-.46,3.39,3.39,0,0,0-.72-.3l-.82-.26c-.27-.09-.55-.2-.82-.31a2.79,2.79,0,0,1-.71-.46,1.9,1.9,0,0,1-.5-.7,2.42,2.42,0,0,1-.2-1,2.46,2.46,0,0,1,.2-1,2.37,2.37,0,0,1,.55-.82,2.71,2.71,0,0,1,.91-.57,3.37,3.37,0,0,1,1.23-.21,4,4,0,0,1,1.42.24,3.52,3.52,0,0,1,1.13.72Z"/><path d="M86.5,35.81a3.31,3.31,0,0,1,1.3.24,2.66,2.66,0,0,1,1,.68,2.92,2.92,0,0,1,.63,1.07,4.37,4.37,0,0,1,.22,1.4,4.33,4.33,0,0,1-.22,1.4,3,3,0,0,1-.63,1.07,2.78,2.78,0,0,1-1,.68,3.31,3.31,0,0,1-1.3.23,3.43,3.43,0,0,1-1.31-.23,2.77,2.77,0,0,1-1.61-1.75,4.56,4.56,0,0,1,0-2.8,2.9,2.9,0,0,1,.62-1.07,2.83,2.83,0,0,1,1-.68A3.43,3.43,0,0,1,86.5,35.81Zm0,5.87A1.71,1.71,0,0,0,88,41a3,3,0,0,0,.48-1.82A3.07,3.07,0,0,0,88,37.37a1.68,1.68,0,0,0-1.46-.65,2.1,2.1,0,0,0-.86.16,1.72,1.72,0,0,0-.61.49,2.21,2.21,0,0,0-.36.79,4.15,4.15,0,0,0-.12,1.05A3,3,0,0,0,85,41,1.74,1.74,0,0,0,86.5,41.68Z"/><path d="M96.51,35.91v6.58h-.69a.3.3,0,0,1-.31-.24l-.09-.71a3.36,3.36,0,0,1-1,.77,2.53,2.53,0,0,1-1.22.29,2.33,2.33,0,0,1-.95-.18,2,2,0,0,1-.7-.5,2.38,2.38,0,0,1-.42-.79,3.64,3.64,0,0,1-.14-1v-4.2h1.16v4.2a1.82,1.82,0,0,0,.34,1.16,1.31,1.31,0,0,0,1,.41,2,2,0,0,0,1-.25,3.06,3.06,0,0,0,.83-.67V35.91Z"/><path d="M99.45,37.23a3,3,0,0,1,.76-1.06,1.72,1.72,0,0,1,1.11-.38,1.68,1.68,0,0,1,.4.05,1.22,1.22,0,0,1,.35.14l-.09.87a.19.19,0,0,1-.19.16,1.09,1.09,0,0,1-.27,0,1.64,1.64,0,0,0-.4,0,1.55,1.55,0,0,0-.55.09,1.25,1.25,0,0,0-.44.27,1.91,1.91,0,0,0-.34.44,3.32,3.32,0,0,0-.28.6v4.16H98.35V35.91H99a.35.35,0,0,1,.26.07.45.45,0,0,1,.1.25Z"/><path d="M107.4,37.08l-.11.11a.2.2,0,0,1-.14,0,.42.42,0,0,1-.22-.08,1.46,1.46,0,0,0-.29-.18,1.65,1.65,0,0,0-.42-.18,2.3,2.3,0,0,0-1.47.09,1.68,1.68,0,0,0-.62.5,2.32,2.32,0,0,0-.38.79,4,4,0,0,0-.13,1,3.78,3.78,0,0,0,.14,1.06,2.2,2.2,0,0,0,.39.78,1.72,1.72,0,0,0,.6.48,1.88,1.88,0,0,0,.8.17,2.19,2.19,0,0,0,.69-.1,1.79,1.79,0,0,0,.46-.23l.3-.22a.36.36,0,0,1,.23-.1.25.25,0,0,1,.22.11l.33.42a2.37,2.37,0,0,1-.49.46,3,3,0,0,1-.59.31,2.94,2.94,0,0,1-.66.19,4,4,0,0,1-.7,0,2.94,2.94,0,0,1-1.15-.22,2.6,2.6,0,0,1-.92-.66,3.14,3.14,0,0,1-.61-1.06,4.58,4.58,0,0,1-.22-1.44,4.26,4.26,0,0,1,.21-1.36,3.06,3.06,0,0,1,.59-1.08,2.84,2.84,0,0,1,1-.7,3.29,3.29,0,0,1,1.33-.25,3.09,3.09,0,0,1,1.22.22,3,3,0,0,1,.94.63Z"/><path d="M114.25,41.57a2.25,2.25,0,0,1-.52.45,3,3,0,0,1-.64.32,4.23,4.23,0,0,1-.7.18,4.59,4.59,0,0,1-.73.06,3.2,3.2,0,0,1-1.25-.23,2.63,2.63,0,0,1-1-.67,3.24,3.24,0,0,1-.65-1.1,4.4,4.4,0,0,1-.23-1.51,3.88,3.88,0,0,1,.21-1.29,3,3,0,0,1,.6-1,2.69,2.69,0,0,1,1-.69,3.13,3.13,0,0,1,1.29-.25,3.07,3.07,0,0,1,1.1.19,2.71,2.71,0,0,1,.87.58,2.66,2.66,0,0,1,.57.92,3.49,3.49,0,0,1,.21,1.25.72.72,0,0,1-.06.36.25.25,0,0,1-.22.1h-4.4a3.82,3.82,0,0,0,.17,1.08,2.2,2.2,0,0,0,.43.77,1.65,1.65,0,0,0,.65.46,2.24,2.24,0,0,0,.84.16,2.37,2.37,0,0,0,.75-.11,4.24,4.24,0,0,0,.55-.21l.38-.22a.48.48,0,0,1,.26-.1.27.27,0,0,1,.22.11Zm-.94-3.09a2.38,2.38,0,0,0-.11-.73,1.59,1.59,0,0,0-.34-.58,1.36,1.36,0,0,0-.53-.38,1.71,1.71,0,0,0-.7-.13,1.78,1.78,0,0,0-1.32.48,2.29,2.29,0,0,0-.6,1.34Z"/><path d="M120.2,36.93a3.59,3.59,0,0,1,1-.83,2.57,2.57,0,0,1,1.25-.31,2.43,2.43,0,0,1,1,.22,2.21,2.21,0,0,1,.79.64,3.16,3.16,0,0,1,.5,1.06,5.27,5.27,0,0,1,.18,1.45,4.45,4.45,0,0,1-.2,1.35,3.4,3.4,0,0,1-.56,1.09,2.52,2.52,0,0,1-.9.72,2.57,2.57,0,0,1-1.19.26,2.38,2.38,0,0,1-1-.2,2.49,2.49,0,0,1-.76-.57v2.91h-1.17V35.91h.7a.29.29,0,0,1,.31.24Zm.06,4a1.82,1.82,0,0,0,.69.6,2,2,0,0,0,.85.18,1.68,1.68,0,0,0,1.42-.66,3.06,3.06,0,0,0,.49-1.87,5.08,5.08,0,0,0-.11-1.11,2.26,2.26,0,0,0-.33-.75,1.28,1.28,0,0,0-.53-.43,1.61,1.61,0,0,0-.71-.14,1.92,1.92,0,0,0-1,.26,3,3,0,0,0-.78.73Z"/><path d="M129.16,35.81a3.38,3.38,0,0,1,1.3.24,2.83,2.83,0,0,1,1,.68,2.9,2.9,0,0,1,.62,1.07,4.56,4.56,0,0,1,0,2.8,2.77,2.77,0,0,1-1.61,1.75,3.82,3.82,0,0,1-2.61,0,2.78,2.78,0,0,1-1-.68,2.86,2.86,0,0,1-.63-1.07,4.56,4.56,0,0,1,0-2.8,2.79,2.79,0,0,1,.63-1.07,2.66,2.66,0,0,1,1-.68A3.36,3.36,0,0,1,129.16,35.81Zm0,5.87a1.69,1.69,0,0,0,1.45-.65,3,3,0,0,0,.48-1.82,3.07,3.07,0,0,0-.48-1.84,1.66,1.66,0,0,0-1.45-.65,2.06,2.06,0,0,0-.86.16,1.75,1.75,0,0,0-.62.49,2.21,2.21,0,0,0-.36.79,4.15,4.15,0,0,0-.12,1.05,3,3,0,0,0,.48,1.82A1.75,1.75,0,0,0,129.16,41.68Z"/><path d="M134.85,37.23a3,3,0,0,1,.77-1.06,1.68,1.68,0,0,1,1.11-.38,1.75,1.75,0,0,1,.4.05,1.16,1.16,0,0,1,.34.14l-.08.87a.2.2,0,0,1-.2.16,1.16,1.16,0,0,1-.27,0,1.56,1.56,0,0,0-.39,0A1.6,1.6,0,0,0,136,37a1.21,1.21,0,0,0-.43.27,1.94,1.94,0,0,0-.35.44,4.17,4.17,0,0,0-.27.6v4.16h-1.17V35.91h.66a.38.38,0,0,1,.27.07.45.45,0,0,1,.09.25Z"/><path d="M140.51,42.6a1.59,1.59,0,0,1-1.2-.44,1.73,1.73,0,0,1-.42-1.25v-4h-.8a.27.27,0,0,1-.17-.06.24.24,0,0,1-.07-.2v-.46l1.08-.13.26-2a.42.42,0,0,1,.09-.16.28.28,0,0,1,.18-.06H140V36H142v.84H140v3.95a.83.83,0,0,0,.21.62.7.7,0,0,0,.52.2,1,1,0,0,0,.31,0,1,1,0,0,0,.23-.11l.17-.1a.16.16,0,0,1,.12,0,.19.19,0,0,1,.16.11l.34.55a2.18,2.18,0,0,1-.72.44A2.58,2.58,0,0,1,140.51,42.6Z"/><path d="M147.57,36.87a3.73,3.73,0,0,1,.45-.44,3.48,3.48,0,0,1,.51-.34,2.78,2.78,0,0,1,.57-.21,2.73,2.73,0,0,1,.66-.07,2.59,2.59,0,0,1,1,.17,1.94,1.94,0,0,1,.69.51,2.38,2.38,0,0,1,.42.79,3.64,3.64,0,0,1,.14,1v4.19H150.8V38.3a1.76,1.76,0,0,0-.35-1.16,1.26,1.26,0,0,0-1-.41,1.89,1.89,0,0,0-1,.25,2.85,2.85,0,0,0-.82.67v4.84h-1.17V35.91h.7a.28.28,0,0,1,.3.24Z"/><path d="M159.14,35.91v6.58h-.69a.29.29,0,0,1-.31-.24l-.09-.71a3.66,3.66,0,0,1-1,.77,2.6,2.6,0,0,1-1.23.29,2.4,2.4,0,0,1-1-.18,2,2,0,0,1-.69-.5,2.07,2.07,0,0,1-.42-.79,3.64,3.64,0,0,1-.14-1v-4.2h1.16v4.2a1.76,1.76,0,0,0,.34,1.16,1.3,1.3,0,0,0,1,.41,2,2,0,0,0,1-.25,3,3,0,0,0,.82-.67V35.91Z"/><path d="M161,42.49V35.91h.7a.29.29,0,0,1,.31.24l.08.68a3.19,3.19,0,0,1,.82-.74,1.92,1.92,0,0,1,1.05-.28,1.56,1.56,0,0,1,1.08.37,2.07,2.07,0,0,1,.59,1,2.22,2.22,0,0,1,.37-.62,2.24,2.24,0,0,1,.5-.43,2.63,2.63,0,0,1,.6-.25,2.73,2.73,0,0,1,.64-.07,2.43,2.43,0,0,1,.92.16,1.71,1.71,0,0,1,.69.49,2.12,2.12,0,0,1,.44.78,3.43,3.43,0,0,1,.15,1.06v4.19h-1.17V38.3a1.76,1.76,0,0,0-.34-1.17,1.18,1.18,0,0,0-1-.4,1.4,1.4,0,0,0-.54.1,1.44,1.44,0,0,0-.46.29,1.57,1.57,0,0,0-.31.5,2,2,0,0,0-.11.68v4.19h-1.16V38.3a1.85,1.85,0,0,0-.32-1.18,1.12,1.12,0,0,0-.93-.39,1.46,1.46,0,0,0-.79.23,2.34,2.34,0,0,0-.67.63v4.9Z"/><path d="M172.83,36.86a3.42,3.42,0,0,1,.94-.77,2.47,2.47,0,0,1,1.2-.28A2.38,2.38,0,0,1,176,36a2.11,2.11,0,0,1,.79.64,3.29,3.29,0,0,1,.5,1,5.09,5.09,0,0,1,.17,1.35,5.15,5.15,0,0,1-.2,1.46,3.46,3.46,0,0,1-.56,1.12,2.49,2.49,0,0,1-.89.72,2.7,2.7,0,0,1-1.19.25,2.25,2.25,0,0,1-1.09-.24,2.32,2.32,0,0,1-.78-.69l-.06.6a.27.27,0,0,1-.3.24h-.74V32.92h1.16Zm0,4a1.85,1.85,0,0,0,.7.6,1.9,1.9,0,0,0,.83.18,1.68,1.68,0,0,0,1.43-.66,3.22,3.22,0,0,0,.49-2,2.93,2.93,0,0,0-.44-1.78,1.48,1.48,0,0,0-1.25-.57,1.84,1.84,0,0,0-1,.26,3,3,0,0,0-.78.73Z"/><path d="M184.29,41.57a2,2,0,0,1-.51.45,3.19,3.19,0,0,1-.64.32,4.41,4.41,0,0,1-1.43.24,3.21,3.21,0,0,1-1.26-.23,2.68,2.68,0,0,1-1-.67,3.26,3.26,0,0,1-.66-1.1,4.65,4.65,0,0,1-.23-1.51,3.88,3.88,0,0,1,.21-1.29,2.88,2.88,0,0,1,.61-1,2.61,2.61,0,0,1,1-.69,3.11,3.11,0,0,1,1.28-.25,3,3,0,0,1,1.1.19,2.71,2.71,0,0,1,.87.58,2.54,2.54,0,0,1,.58.92,3.72,3.72,0,0,1,.2,1.25.72.72,0,0,1-.06.36.23.23,0,0,1-.22.1h-4.4a3.81,3.81,0,0,0,.18,1.08,2.19,2.19,0,0,0,.42.77,1.65,1.65,0,0,0,.65.46,2.26,2.26,0,0,0,.85.16,2.37,2.37,0,0,0,.75-.11,3.59,3.59,0,0,0,.54-.21,3.9,3.9,0,0,0,.38-.22.48.48,0,0,1,.26-.1.25.25,0,0,1,.22.11Zm-.94-3.09a2.11,2.11,0,0,0-.11-.73,1.72,1.72,0,0,0-.33-.58,1.44,1.44,0,0,0-.53-.38,2,2,0,0,0-2,.35,2.29,2.29,0,0,0-.6,1.34Z"/><path d="M186.91,37.23a3,3,0,0,1,.77-1.06,1.68,1.68,0,0,1,1.11-.38,1.75,1.75,0,0,1,.4.05,1.28,1.28,0,0,1,.34.14l-.09.87a.18.18,0,0,1-.19.16,1.16,1.16,0,0,1-.27,0A1.84,1.84,0,0,0,188,37a1.34,1.34,0,0,0-.44.27,2.23,2.23,0,0,0-.34.44,5.62,5.62,0,0,0-.28.6v4.16h-1.16V35.91h.66c.13,0,.22,0,.26.07a.45.45,0,0,1,.1.25Z"/><path d="M315,37.84a5.23,5.23,0,0,1-.33,1.9,4,4,0,0,1-.94,1.47,4.11,4.11,0,0,1-1.45.95,5.15,5.15,0,0,1-1.88.33h-3.47V33.18h3.47a5.15,5.15,0,0,1,1.88.33,4.25,4.25,0,0,1,1.45,1,4.12,4.12,0,0,1,.94,1.48A5.23,5.23,0,0,1,315,37.84Zm-1.29,0a4.55,4.55,0,0,0-.24-1.53,3.1,3.1,0,0,0-.66-1.15,2.8,2.8,0,0,0-1-.71,3.52,3.52,0,0,0-1.37-.25h-2.21v7.27h2.21a3.72,3.72,0,0,0,1.37-.24,2.94,2.94,0,0,0,1-.72,3,3,0,0,0,.66-1.14A4.55,4.55,0,0,0,313.69,37.84Z"/><path d="M321.77,41.57a2,2,0,0,1-.51.45,3,3,0,0,1-.64.32,4.1,4.1,0,0,1-.71.18,4.37,4.37,0,0,1-.72.06,3.28,3.28,0,0,1-1.26-.23,2.68,2.68,0,0,1-1-.67,3.09,3.09,0,0,1-.65-1.1,4.39,4.39,0,0,1-.24-1.51,3.88,3.88,0,0,1,.21-1.29,3.2,3.2,0,0,1,.61-1,2.69,2.69,0,0,1,1-.69,3.13,3.13,0,0,1,1.29-.25,3,3,0,0,1,1.09.19,2.51,2.51,0,0,1,.87.58,2.54,2.54,0,0,1,.58.92,3.49,3.49,0,0,1,.21,1.25.72.72,0,0,1-.06.36.25.25,0,0,1-.22.1h-4.4a3.82,3.82,0,0,0,.17,1.08,2.19,2.19,0,0,0,.42.77,1.68,1.68,0,0,0,.66.46,2.24,2.24,0,0,0,.84.16,2.37,2.37,0,0,0,.75-.11,3.59,3.59,0,0,0,.54-.21,3,3,0,0,0,.38-.22.5.5,0,0,1,.27-.1.27.27,0,0,1,.22.11Zm-.93-3.09a2.11,2.11,0,0,0-.12-.73,1.44,1.44,0,0,0-.33-.58,1.36,1.36,0,0,0-.53-.38,2,2,0,0,0-2,.35,2.17,2.17,0,0,0-.6,1.34Z"/><path d="M327.13,37a.26.26,0,0,1-.24.14.51.51,0,0,1-.22-.07l-.31-.16a2.28,2.28,0,0,0-1-.24,1.67,1.67,0,0,0-.52.08,1,1,0,0,0-.4.2,1,1,0,0,0-.26.3.81.81,0,0,0-.08.38.61.61,0,0,0,.14.42,1.32,1.32,0,0,0,.39.29,3.37,3.37,0,0,0,.54.22l.63.2a5.87,5.87,0,0,1,.63.24,2.14,2.14,0,0,1,.55.32,1.5,1.5,0,0,1,.38.48,1.42,1.42,0,0,1,.15.68,2.32,2.32,0,0,1-.16.84,1.88,1.88,0,0,1-.48.67,2.43,2.43,0,0,1-.79.45,3.38,3.38,0,0,1-1.06.16,3.34,3.34,0,0,1-2.2-.8l.28-.44a.3.3,0,0,1,.12-.13.35.35,0,0,1,.18,0,.45.45,0,0,1,.25.09l.31.2a2.85,2.85,0,0,0,.46.21,2,2,0,0,0,.66.09,1.78,1.78,0,0,0,.59-.09,1.22,1.22,0,0,0,.42-.24.91.91,0,0,0,.25-.34,1,1,0,0,0,.08-.42.73.73,0,0,0-.14-.45,1.37,1.37,0,0,0-.39-.31,4.19,4.19,0,0,0-.55-.22l-.63-.2a5.33,5.33,0,0,1-.63-.23,2,2,0,0,1-.55-.34,1.57,1.57,0,0,1-.39-.49,1.74,1.74,0,0,1-.14-.72,1.83,1.83,0,0,1,.15-.73,1.93,1.93,0,0,1,.46-.61,2.45,2.45,0,0,1,.73-.42,3.44,3.44,0,0,1,2.16,0,2.74,2.74,0,0,1,.9.56Z"/><path d="M335,42.49h-1.15V36.88h-3.4v3.95a.87.87,0,0,0,.2.62.73.73,0,0,0,.52.2,1,1,0,0,0,.55-.16l.17-.1a.16.16,0,0,1,.12,0,.19.19,0,0,1,.16.11l.34.55a2.18,2.18,0,0,1-.72.44,2.67,2.67,0,0,1-.87.16,1.62,1.62,0,0,1-1.21-.44,1.78,1.78,0,0,1-.41-1.25v-4h-.8a.25.25,0,0,1-.17-.06.24.24,0,0,1-.07-.2v-.46l1.07-.14.27-2a.26.26,0,0,1,.09-.16.24.24,0,0,1,.18-.06h.58V36H335Zm.29-8.69a.67.67,0,0,1-.07.31.81.81,0,0,1-.18.26.9.9,0,0,1-.26.17.71.71,0,0,1-.32.07.68.68,0,0,1-.32-.07.9.9,0,0,1-.26-.17.78.78,0,0,1-.17-.26.74.74,0,0,1,0-.63.73.73,0,0,1,.17-.27.76.76,0,0,1,.26-.18.83.83,0,0,1,.32-.06.87.87,0,0,1,.32.06.76.76,0,0,1,.26.18.75.75,0,0,1,.18.27A.68.68,0,0,1,335.32,33.8Z"/><path d="M338,36.87a4.73,4.73,0,0,1,.46-.44,3.48,3.48,0,0,1,.51-.34,2.78,2.78,0,0,1,.57-.21,2.7,2.7,0,0,1,.65-.07,2.61,2.61,0,0,1,1,.17,1.82,1.82,0,0,1,.68.51,2.07,2.07,0,0,1,.42.79,3.31,3.31,0,0,1,.15,1v4.19h-1.17V38.3a1.76,1.76,0,0,0-.34-1.16,1.28,1.28,0,0,0-1-.41,1.86,1.86,0,0,0-1,.25,3,3,0,0,0-.83.67v4.84h-1.16V35.91h.7a.28.28,0,0,1,.3.24Z"/><path d="M344,36.84a3.84,3.84,0,0,1,1.17-.79,3.71,3.71,0,0,1,1.4-.26,2.52,2.52,0,0,1,1,.18,2.07,2.07,0,0,1,1.17,1.3,3.57,3.57,0,0,1,.14,1v4.21h-.51a.48.48,0,0,1-.26-.05.37.37,0,0,1-.14-.22l-.13-.62a5.93,5.93,0,0,1-.51.42,2.31,2.31,0,0,1-.52.31,2.64,2.64,0,0,1-.58.2,3,3,0,0,1-.69.07,2.46,2.46,0,0,1-.72-.11,1.77,1.77,0,0,1-.59-.32,1.45,1.45,0,0,1-.39-.54,1.87,1.87,0,0,1-.15-.78,1.39,1.39,0,0,1,.22-.75,1.87,1.87,0,0,1,.69-.64,4.45,4.45,0,0,1,1.26-.46,8.9,8.9,0,0,1,1.89-.2v-.52a1.76,1.76,0,0,0-.33-1.16,1.19,1.19,0,0,0-1-.39,1.86,1.86,0,0,0-.71.11,2.69,2.69,0,0,0-.51.24l-.36.24a.51.51,0,0,1-.3.1.32.32,0,0,1-.2-.06.54.54,0,0,1-.15-.15Zm3.73,2.69a9.67,9.67,0,0,0-1.36.13,3.44,3.44,0,0,0-.91.26,1.38,1.38,0,0,0-.52.38.9.9,0,0,0-.16.5,1.06,1.06,0,0,0,.09.45.76.76,0,0,0,.23.3.8.8,0,0,0,.34.18,1.49,1.49,0,0,0,.43.06,2,2,0,0,0,.56-.07,1.76,1.76,0,0,0,.47-.18,2.39,2.39,0,0,0,.43-.27,4.61,4.61,0,0,0,.4-.37Z"/><path d="M356.67,42.49h-1.16V36.88h-3.39v3.95a.87.87,0,0,0,.2.62.73.73,0,0,0,.52.2,1,1,0,0,0,.32,0,1.23,1.23,0,0,0,.23-.11l.16-.1a.19.19,0,0,1,.12,0,.19.19,0,0,1,.17.11l.33.55a2,2,0,0,1-.72.44,2.58,2.58,0,0,1-.87.16,1.59,1.59,0,0,1-1.2-.44,1.73,1.73,0,0,1-.42-1.25v-4h-.79a.28.28,0,0,1-.18-.06.28.28,0,0,1-.07-.2v-.46L351,36l.27-2a.26.26,0,0,1,.09-.16.24.24,0,0,1,.18-.06h.58V36h4.55ZM357,33.8a.82.82,0,0,1-.07.31,1,1,0,0,1-.18.26,1,1,0,0,1-.27.17.68.68,0,0,1-.32.07.67.67,0,0,1-.31-.07.9.9,0,0,1-.26-.17.78.78,0,0,1-.17-.26.67.67,0,0,1-.07-.31.68.68,0,0,1,.07-.32.73.73,0,0,1,.17-.27.76.76,0,0,1,.26-.18.81.81,0,0,1,.31-.06.83.83,0,0,1,.32.06.8.8,0,0,1,.27.18.91.91,0,0,1,.18.27A.83.83,0,0,1,357,33.8Z"/><path d="M361.35,35.81a3.38,3.38,0,0,1,1.3.24,2.7,2.7,0,0,1,1,.68,2.92,2.92,0,0,1,.63,1.07,4.56,4.56,0,0,1,0,2.8,3,3,0,0,1-.63,1.07,2.83,2.83,0,0,1-1,.68,3.38,3.38,0,0,1-1.3.23,3.45,3.45,0,0,1-1.32-.23,2.77,2.77,0,0,1-1.61-1.75,4.56,4.56,0,0,1,0-2.8,2.9,2.9,0,0,1,.62-1.07,2.83,2.83,0,0,1,1-.68A3.45,3.45,0,0,1,361.35,35.81Zm0,5.87A1.7,1.7,0,0,0,362.8,41a3,3,0,0,0,.48-1.82,3.07,3.07,0,0,0-.48-1.84,1.68,1.68,0,0,0-1.45-.65,2.14,2.14,0,0,0-.87.16,1.72,1.72,0,0,0-.61.49,2.21,2.21,0,0,0-.36.79,4.15,4.15,0,0,0-.12,1.05,3,3,0,0,0,.48,1.82A1.75,1.75,0,0,0,361.35,41.68Z"/><path d="M367,36.87a3.81,3.81,0,0,1,.46-.44,3.48,3.48,0,0,1,.51-.34,2.78,2.78,0,0,1,.57-.21,2.7,2.7,0,0,1,.65-.07,2.52,2.52,0,0,1,.95.17,1.78,1.78,0,0,1,.69.51,2.07,2.07,0,0,1,.42.79,3.31,3.31,0,0,1,.15,1v4.19h-1.17V38.3a1.76,1.76,0,0,0-.34-1.16,1.28,1.28,0,0,0-1-.41,1.85,1.85,0,0,0-.95.25,2.88,2.88,0,0,0-.83.67v4.84h-1.16V35.91h.7a.28.28,0,0,1,.3.24Z"/><path d="M377.63,36.93a3.31,3.31,0,0,1,1-.83,2.54,2.54,0,0,1,1.25-.31,2.47,2.47,0,0,1,1,.22,2.21,2.21,0,0,1,.79.64,3.36,3.36,0,0,1,.5,1.06,5.71,5.71,0,0,1,.17,1.45,4.45,4.45,0,0,1-.19,1.35,3.4,3.4,0,0,1-.56,1.09,2.6,2.6,0,0,1-2.09,1,2.36,2.36,0,0,1-1-.2,2.49,2.49,0,0,1-.76-.57v2.91h-1.17V35.91h.7a.28.28,0,0,1,.3.24Zm.06,4a1.82,1.82,0,0,0,.69.6,1.93,1.93,0,0,0,.85.18,1.66,1.66,0,0,0,1.41-.66,3.06,3.06,0,0,0,.5-1.87,4.49,4.49,0,0,0-.12-1.11,2.07,2.07,0,0,0-.32-.75,1.28,1.28,0,0,0-.53-.43,1.64,1.64,0,0,0-.71-.14,1.87,1.87,0,0,0-1,.26,2.68,2.68,0,0,0-.78.73Z"/><path d="M386.58,35.81a3.35,3.35,0,0,1,1.3.24,2.66,2.66,0,0,1,1,.68,3.06,3.06,0,0,1,.63,1.07,4.37,4.37,0,0,1,.22,1.4,4.33,4.33,0,0,1-.22,1.4,3.16,3.16,0,0,1-.63,1.07,2.78,2.78,0,0,1-1,.68,3.35,3.35,0,0,1-1.3.23,3.43,3.43,0,0,1-1.31-.23,2.77,2.77,0,0,1-1.61-1.75,4.56,4.56,0,0,1,0-2.8,2.9,2.9,0,0,1,.62-1.07,2.83,2.83,0,0,1,1-.68A3.43,3.43,0,0,1,386.58,35.81Zm0,5.87A1.71,1.71,0,0,0,388,41a3,3,0,0,0,.48-1.82,3.07,3.07,0,0,0-.48-1.84,1.68,1.68,0,0,0-1.46-.65,2.1,2.1,0,0,0-.86.16,1.72,1.72,0,0,0-.61.49,2.21,2.21,0,0,0-.36.79,4.15,4.15,0,0,0-.12,1.05,3,3,0,0,0,.48,1.82A1.72,1.72,0,0,0,386.58,41.68Z"/><path d="M392.28,37.23a3.11,3.11,0,0,1,.76-1.06,1.73,1.73,0,0,1,1.12-.38,1.83,1.83,0,0,1,.4.05,1.28,1.28,0,0,1,.34.14l-.09.87a.18.18,0,0,1-.19.16,1.16,1.16,0,0,1-.27,0,1.64,1.64,0,0,0-.4,0,1.59,1.59,0,0,0-.55.09,1.34,1.34,0,0,0-.44.27,2.23,2.23,0,0,0-.34.44,4.17,4.17,0,0,0-.28.6v4.16h-1.16V35.91h.66a.35.35,0,0,1,.26.07.45.45,0,0,1,.1.25Z"/><path d="M397.93,42.6a1.59,1.59,0,0,1-1.2-.44,1.73,1.73,0,0,1-.42-1.25v-4h-.79a.24.24,0,0,1-.17-.06.25.25,0,0,1-.08-.2v-.46l1.08-.13.27-2a.26.26,0,0,1,.09-.16.24.24,0,0,1,.18-.06h.58V36h1.91v.84h-1.91v3.95a.87.87,0,0,0,.2.62.73.73,0,0,0,.52.2,1,1,0,0,0,.32,0,1.23,1.23,0,0,0,.23-.11l.17-.1a.16.16,0,0,1,.12,0,.19.19,0,0,1,.16.11l.34.55a2.13,2.13,0,0,1-.73.44A2.58,2.58,0,0,1,397.93,42.6Z"/><path d="M405,36.87a3.81,3.81,0,0,1,.46-.44,3.48,3.48,0,0,1,.51-.34,2.78,2.78,0,0,1,.57-.21,2.7,2.7,0,0,1,.65-.07,2.52,2.52,0,0,1,.95.17,1.78,1.78,0,0,1,.69.51,2.07,2.07,0,0,1,.42.79,3.31,3.31,0,0,1,.15,1v4.19h-1.17V38.3a1.76,1.76,0,0,0-.34-1.16,1.28,1.28,0,0,0-1-.41,1.85,1.85,0,0,0-.95.25,2.88,2.88,0,0,0-.83.67v4.84H403.9V35.91h.7a.28.28,0,0,1,.3.24Z"/><path d="M416.57,35.91v6.58h-.69a.29.29,0,0,1-.31-.24l-.09-.71a3.54,3.54,0,0,1-1,.77,2.53,2.53,0,0,1-1.22.29,2.33,2.33,0,0,1-1-.18,1.86,1.86,0,0,1-.69-.5,2.07,2.07,0,0,1-.42-.79,3.64,3.64,0,0,1-.14-1v-4.2h1.16v4.2a1.76,1.76,0,0,0,.34,1.16,1.27,1.27,0,0,0,1,.41,2,2,0,0,0,1-.25,3,3,0,0,0,.82-.67V35.91Z"/><path d="M418.4,42.49V35.91h.7a.28.28,0,0,1,.3.24l.09.68a3.19,3.19,0,0,1,.82-.74,1.92,1.92,0,0,1,1.05-.28,1.52,1.52,0,0,1,1.07.37.59.59,0,1,0,1,.38,2,2,0,0,1,.5-.43,2.55,2.55,0,0,1,.59-.25,2.79,2.79,0,0,1,.64-.07,2.45,2.45,0,0,1,.93.16,1.78,1.78,0,0,1,.69.49,2.1,2.1,0,0,1,.43.78,3.43,3.43,0,0,1,.15,1.06v4.19h-1.16V38.3a1.76,1.76,0,0,0-.34-1.17,1.18,1.18,0,0,0-1-.4,1.42,1.42,0,0,0-.55.1,1.51,1.51,0,0,0-.45.29,1.57,1.57,0,0,0-.31.5,2,2,0,0,0-.11.68v4.19h-1.17V38.3a1.85,1.85,0,0,0-.31-1.18,1.15,1.15,0,0,0-.93-.39,1.52,1.52,0,0,0-.8.23,2.63,2.63,0,0,0-.67.63v4.9Z"/><path d="M430.26,36.86a3.28,3.28,0,0,1,.94-.77,2.45,2.45,0,0,1,1.2-.28,2.41,2.41,0,0,1,1.05.22,2.08,2.08,0,0,1,.78.64,2.9,2.9,0,0,1,.5,1A4.71,4.71,0,0,1,434.9,39a5.16,5.16,0,0,1-.19,1.46,3.46,3.46,0,0,1-.56,1.12,2.61,2.61,0,0,1-.9.72,2.65,2.65,0,0,1-1.18.25,2.32,2.32,0,0,1-1.1-.24,2.39,2.39,0,0,1-.77-.69l-.06.6a.27.27,0,0,1-.3.24h-.75V32.92h1.17Zm0,4a1.82,1.82,0,0,0,.69.6,2,2,0,0,0,.84.18,1.66,1.66,0,0,0,1.42-.66,3.22,3.22,0,0,0,.5-2,2.93,2.93,0,0,0-.44-1.78,1.48,1.48,0,0,0-1.25-.57,1.87,1.87,0,0,0-1,.26,2.78,2.78,0,0,0-.77.73Z"/><path d="M441.72,41.57a2.25,2.25,0,0,1-.52.45,3,3,0,0,1-.64.32,4.23,4.23,0,0,1-.7.18,4.56,4.56,0,0,1-.72.06,3.21,3.21,0,0,1-1.26-.23,2.63,2.63,0,0,1-1-.67,3.24,3.24,0,0,1-.65-1.1,4.4,4.4,0,0,1-.23-1.51,3.88,3.88,0,0,1,.21-1.29,2.88,2.88,0,0,1,.61-1,2.57,2.57,0,0,1,1-.69,3.13,3.13,0,0,1,1.29-.25,3.07,3.07,0,0,1,1.1.19,2.71,2.71,0,0,1,.87.58,2.66,2.66,0,0,1,.57.92,3.49,3.49,0,0,1,.21,1.25.72.72,0,0,1-.06.36.25.25,0,0,1-.22.1h-4.4a3.82,3.82,0,0,0,.17,1.08,2.2,2.2,0,0,0,.43.77,1.65,1.65,0,0,0,.65.46,2.24,2.24,0,0,0,.84.16,2.37,2.37,0,0,0,.75-.11,4.24,4.24,0,0,0,.55-.21,3.9,3.9,0,0,0,.38-.22.48.48,0,0,1,.26-.1.25.25,0,0,1,.22.11Zm-.94-3.09a2.38,2.38,0,0,0-.11-.73,1.59,1.59,0,0,0-.34-.58,1.4,1.4,0,0,0-.52-.38,2,2,0,0,0-2,.35,2.29,2.29,0,0,0-.6,1.34Z"/><path d="M444.34,37.23a3,3,0,0,1,.76-1.06,1.72,1.72,0,0,1,1.11-.38,1.68,1.68,0,0,1,.4.05A1.22,1.22,0,0,1,447,36l-.09.87a.18.18,0,0,1-.19.16,1.09,1.09,0,0,1-.27,0,1.64,1.64,0,0,0-.4,0,1.59,1.59,0,0,0-.55.09,1.25,1.25,0,0,0-.44.27,1.91,1.91,0,0,0-.34.44,3.32,3.32,0,0,0-.28.6v4.16h-1.16V35.91h.66a.35.35,0,0,1,.26.07.45.45,0,0,1,.1.25Z"/><path class="cls-3" d="M210.63,7.8v.66a.28.28,0,0,1-.06.18.26.26,0,0,1-.19.07h-1.16v2.45h-1V8.71h-4.14a.35.35,0,0,1-.22-.08.36.36,0,0,1-.12-.18l-.12-.59,4.53-6h1.08v6Zm-2.42,0V4c0-.12,0-.24,0-.38s0-.27,0-.4L204.87,7.8Z"/><path class="cls-3" d="M216.41,5.52a3.61,3.61,0,0,1,.94-.77,2.49,2.49,0,0,1,1.21-.28,2.36,2.36,0,0,1,1,.22,2.21,2.21,0,0,1,.79.64,3,3,0,0,1,.5,1,5,5,0,0,1,.17,1.34,5.1,5.1,0,0,1-.2,1.46,3.19,3.19,0,0,1-.56,1.12,2.49,2.49,0,0,1-.89.72,2.69,2.69,0,0,1-1.18.26,2.18,2.18,0,0,1-1.1-.25,2.32,2.32,0,0,1-.78-.69l-.06.6a.27.27,0,0,1-.29.25h-.75V1.58h1.16Zm0,4.05a1.88,1.88,0,0,0,.7.61,2.07,2.07,0,0,0,.84.17,1.66,1.66,0,0,0,1.42-.66,3.2,3.2,0,0,0,.49-1.95A2.86,2.86,0,0,0,219.42,6a1.48,1.48,0,0,0-1.25-.57,1.86,1.86,0,0,0-1,.26,3,3,0,0,0-.78.74Z"/><path class="cls-3" d="M228,4.57l-3.67,8.53a.57.57,0,0,1-.15.21.41.41,0,0,1-.27.08h-.86l1.21-2.62-2.72-6.2h1a.36.36,0,0,1,.24.08.36.36,0,0,1,.12.16L224.7,9a3.43,3.43,0,0,1,.17.57c.06-.2.13-.39.2-.58l1.71-4.14a.36.36,0,0,1,.13-.17.38.38,0,0,1,.21-.07Z"/><path class="cls-3" d="M231.08,11.26a1.59,1.59,0,0,1-1.2-.43,1.74,1.74,0,0,1-.42-1.26v-4h-.79a.28.28,0,0,1-.18-.06.27.27,0,0,1-.07-.19V4.83l1.08-.14.27-2a.24.24,0,0,1,.09-.16.25.25,0,0,1,.18-.07h.58V4.7h1.91v.84h-1.91v4a.85.85,0,0,0,.2.62.69.69,0,0,0,.52.2.8.8,0,0,0,.32-.05l.23-.1.16-.11a.28.28,0,0,1,.12-.05.21.21,0,0,1,.17.11l.33.55a1.86,1.86,0,0,1-.72.44A2.35,2.35,0,0,1,231.08,11.26Z"/><path class="cls-3" d="M239,10.23a2,2,0,0,1-.51.46,3.44,3.44,0,0,1-.64.31,4.12,4.12,0,0,1-.71.19,4.37,4.37,0,0,1-.72.06,3.48,3.48,0,0,1-1.26-.23,2.83,2.83,0,0,1-1-.68,3,3,0,0,1-.65-1.1,4.39,4.39,0,0,1-.24-1.51,3.88,3.88,0,0,1,.21-1.29,3.13,3.13,0,0,1,.61-1,3,3,0,0,1,1-.69,3.13,3.13,0,0,1,1.29-.25,2.78,2.78,0,0,1,1.09.2,2.35,2.35,0,0,1,.87.57,2.63,2.63,0,0,1,.58.92,3.52,3.52,0,0,1,.21,1.25.74.74,0,0,1-.06.37.25.25,0,0,1-.22.09h-4.4A3.76,3.76,0,0,0,234.63,9a2.1,2.1,0,0,0,.42.77,1.87,1.87,0,0,0,.65.47,2.3,2.3,0,0,0,.85.15,2.72,2.72,0,0,0,.75-.1,3.54,3.54,0,0,0,.54-.22,3.9,3.9,0,0,0,.38-.22.48.48,0,0,1,.27-.1.27.27,0,0,1,.22.11Zm-.93-3.08a2.17,2.17,0,0,0-.12-.74,1.51,1.51,0,0,0-.33-.58,1.47,1.47,0,0,0-.53-.38,2,2,0,0,0-2,.35,2.27,2.27,0,0,0-.61,1.35Z"/><path class="cls-3" d="M244.39,5.66a.28.28,0,0,1-.24.14.4.4,0,0,1-.22-.07l-.31-.16a2.85,2.85,0,0,0-.42-.16,2.05,2.05,0,0,0-.59-.08,1.67,1.67,0,0,0-.52.08,1.36,1.36,0,0,0-.4.2,1,1,0,0,0-.26.31.75.75,0,0,0-.08.37.59.59,0,0,0,.14.42,1.32,1.32,0,0,0,.39.29,2.65,2.65,0,0,0,.54.22l.63.2c.22.07.42.15.63.24a2.44,2.44,0,0,1,.54.33,1.49,1.49,0,0,1,.39.47,1.45,1.45,0,0,1,.15.68,2.24,2.24,0,0,1-.16.84,1.79,1.79,0,0,1-.49.67,2.29,2.29,0,0,1-.78.45,3.11,3.11,0,0,1-1.06.16A3.31,3.31,0,0,1,241,11a3.1,3.1,0,0,1-1-.58l.27-.44a.4.4,0,0,1,.13-.13.35.35,0,0,1,.18-.05.4.4,0,0,1,.25.1l.31.2a3.18,3.18,0,0,0,.45.2,2.13,2.13,0,0,0,.67.09,1.78,1.78,0,0,0,.59-.09,1.22,1.22,0,0,0,.42-.24.91.91,0,0,0,.25-.34,1,1,0,0,0,.08-.42.73.73,0,0,0-.14-.45,1.19,1.19,0,0,0-.39-.3,2.52,2.52,0,0,0-.55-.22l-.63-.2a5.87,5.87,0,0,1-.63-.24,2.29,2.29,0,0,1-.55-.33,1.61,1.61,0,0,1-.39-.5,1.74,1.74,0,0,1-.14-.72,1.87,1.87,0,0,1,.15-.73,1.93,1.93,0,0,1,.46-.61,2.45,2.45,0,0,1,.73-.42,3,3,0,0,1,1-.15,3.24,3.24,0,0,1,1.16.2,2.77,2.77,0,0,1,.9.57Z"/><path class="cls-3" d="M250.19,7.07a10.1,10.1,0,0,0,.35,2.7,10.33,10.33,0,0,0,1,2.5.37.37,0,0,1,0,.31.5.5,0,0,1-.15.17l-.52.31a11.56,11.56,0,0,1-.82-1.48,9.52,9.52,0,0,1-.86-3,11.07,11.07,0,0,1-.1-1.54,11.07,11.07,0,0,1,.1-1.54,9.52,9.52,0,0,1,.86-3A11.56,11.56,0,0,1,251,1.08l.52.31a.65.65,0,0,1,.15.18.35.35,0,0,1,0,.3,10.42,10.42,0,0,0-1,2.49A10.23,10.23,0,0,0,250.19,7.07Z"/><path class="cls-3" d="M252.91,4.36a3.42,3.42,0,0,1,.35-1.12,2.69,2.69,0,0,1,.66-.83,2.92,2.92,0,0,1,.92-.5A3.59,3.59,0,0,1,256,1.74a3.16,3.16,0,0,1,1.09.17,2.4,2.4,0,0,1,.86.48,2.2,2.2,0,0,1,.57.75,2.42,2.42,0,0,1,.2,1,2.39,2.39,0,0,1-.12.79,1.69,1.69,0,0,1-.32.61,1.8,1.8,0,0,1-.51.44,3.16,3.16,0,0,1-.67.3,2.52,2.52,0,0,1,1.37.81,2.2,2.2,0,0,1,.46,1.42,2.69,2.69,0,0,1-.25,1.15,2.61,2.61,0,0,1-.66.88,3.08,3.08,0,0,1-1,.55,3.64,3.64,0,0,1-1.2.19,3.92,3.92,0,0,1-1.27-.18,2.84,2.84,0,0,1-.89-.51,2.81,2.81,0,0,1-.6-.77,5.63,5.63,0,0,1-.4-1l.5-.21a.63.63,0,0,1,.38,0,.33.33,0,0,1,.27.21c.06.12.13.27.22.44a1.92,1.92,0,0,0,.34.48,1.87,1.87,0,0,0,.57.4,1.94,1.94,0,0,0,.86.16,2.1,2.1,0,0,0,.86-.16,1.77,1.77,0,0,0,.61-.41,2,2,0,0,0,.37-.56,1.75,1.75,0,0,0,.12-.62,2.17,2.17,0,0,0-.1-.69,1.08,1.08,0,0,0-.36-.54,2,2,0,0,0-.73-.36,4.87,4.87,0,0,0-1.2-.13V6a3.37,3.37,0,0,0,1-.13A1.88,1.88,0,0,0,257,5.5a1.3,1.3,0,0,0,.39-.52,1.76,1.76,0,0,0,.12-.66,1.86,1.86,0,0,0-.13-.7,1.29,1.29,0,0,0-.35-.5,1.46,1.46,0,0,0-.52-.29,2.27,2.27,0,0,0-.65-.1,2,2,0,0,0-.66.11,1.6,1.6,0,0,0-.53.29,1.84,1.84,0,0,0-.39.44,1.92,1.92,0,0,0-.22.55.5.5,0,0,1-.21.31.59.59,0,0,1-.37,0Z"/><path class="cls-3" d="M266,10.06a.44.44,0,0,1,.3.11.4.4,0,0,1,.11.29v.7h-6.22v-.4a.57.57,0,0,1,.06-.25.63.63,0,0,1,.16-.24l3-3c.25-.25.47-.49.68-.72a6,6,0,0,0,.52-.7,3.57,3.57,0,0,0,.33-.72,2.39,2.39,0,0,0,.12-.77,1.91,1.91,0,0,0-.13-.71,1.38,1.38,0,0,0-.36-.51,1.4,1.4,0,0,0-.53-.31,2.27,2.27,0,0,0-.65-.1,2,2,0,0,0-.66.11,1.6,1.6,0,0,0-.53.29,1.84,1.84,0,0,0-.39.44,1.92,1.92,0,0,0-.22.55.5.5,0,0,1-.21.31.6.6,0,0,1-.37,0l-.61-.11a3.21,3.21,0,0,1,.36-1.12,2.69,2.69,0,0,1,.66-.83,3,3,0,0,1,.91-.5,3.7,3.7,0,0,1,1.12-.17,3.57,3.57,0,0,1,1.1.17,2.69,2.69,0,0,1,.89.51,2.42,2.42,0,0,1,.59.82,2.68,2.68,0,0,1,.22,1.09,3,3,0,0,1-.16,1,3.73,3.73,0,0,1-.42.85,7.3,7.3,0,0,1-.62.78c-.23.26-.47.52-.73.78l-2.46,2.5.53-.11a2.92,2.92,0,0,1,.51,0Z"/><path class="cls-3" d="M272.55,5.52a3.61,3.61,0,0,1,.94-.77,2.49,2.49,0,0,1,1.21-.28,2.36,2.36,0,0,1,1,.22,2.21,2.21,0,0,1,.79.64,3,3,0,0,1,.5,1,5,5,0,0,1,.17,1.34,5.1,5.1,0,0,1-.2,1.46,3.19,3.19,0,0,1-.56,1.12,2.49,2.49,0,0,1-.89.72,2.7,2.7,0,0,1-1.19.26,2.17,2.17,0,0,1-1.09-.25,2.32,2.32,0,0,1-.78-.69l-.06.6a.27.27,0,0,1-.29.25h-.75V1.58h1.16Zm0,4.05a1.88,1.88,0,0,0,.7.61,2.07,2.07,0,0,0,.84.17,1.68,1.68,0,0,0,1.42-.66A3.2,3.2,0,0,0,276,7.74,2.86,2.86,0,0,0,275.56,6a1.48,1.48,0,0,0-1.25-.57,1.86,1.86,0,0,0-1,.26,3,3,0,0,0-.78.74Z"/><path class="cls-3" d="M280.14,2.51a.82.82,0,0,1-.07.31,1,1,0,0,1-.18.26.8.8,0,0,1-.27.18.88.88,0,0,1-.64,0,.72.72,0,0,1-.25-.18.68.68,0,0,1-.18-.26.81.81,0,0,1-.06-.31.92.92,0,0,1,.06-.33.68.68,0,0,1,.18-.26.72.72,0,0,1,.25-.18.77.77,0,0,1,.64,0,.8.8,0,0,1,.27.18,1,1,0,0,1,.18.26A.93.93,0,0,1,280.14,2.51Zm-.25,2.06v6.59h-1.16V4.57Z"/><path class="cls-3" d="M283.81,11.26a1.59,1.59,0,0,1-1.2-.43,1.74,1.74,0,0,1-.42-1.26v-4h-.79a.28.28,0,0,1-.18-.06.24.24,0,0,1-.07-.19V4.83l1.08-.14.27-2a.27.27,0,0,1,.08-.16.29.29,0,0,1,.18-.07h.59V4.7h1.9v.84h-1.9v4a.81.81,0,0,0,.2.62.68.68,0,0,0,.52.2.72.72,0,0,0,.31-.05,1,1,0,0,0,.23-.1l.17-.11a.28.28,0,0,1,.12-.05.19.19,0,0,1,.16.11l.34.55a2,2,0,0,1-.72.44A2.35,2.35,0,0,1,283.81,11.26Z"/><path class="cls-3" d="M290.28,5.66a.26.26,0,0,1-.24.14.43.43,0,0,1-.22-.07l-.3-.16a2.61,2.61,0,0,0-.43-.16,2,2,0,0,0-.58-.08,1.74,1.74,0,0,0-.53.08,1.5,1.5,0,0,0-.4.2.93.93,0,0,0-.25.31.75.75,0,0,0-.09.37.6.6,0,0,0,.15.42,1.27,1.27,0,0,0,.38.29,2.74,2.74,0,0,0,.55.22l.63.2a6.62,6.62,0,0,1,.62.24,2.29,2.29,0,0,1,.55.33,1.49,1.49,0,0,1,.39.47,1.45,1.45,0,0,1,.14.68,2.06,2.06,0,0,1-.16.84,1.88,1.88,0,0,1-.48.67,2.29,2.29,0,0,1-.78.45,3.17,3.17,0,0,1-1.07.16,3.26,3.26,0,0,1-1.24-.22,3,3,0,0,1-.95-.58l.27-.44a.51.51,0,0,1,.12-.13.36.36,0,0,1,.19-.05.38.38,0,0,1,.24.1l.32.2a2.4,2.4,0,0,0,.45.2,2.1,2.1,0,0,0,.66.09,1.7,1.7,0,0,0,.59-.09,1.37,1.37,0,0,0,.43-.24,1,1,0,0,0,.25-.34,1.16,1.16,0,0,0,.08-.42.68.68,0,0,0-.15-.45,1.15,1.15,0,0,0-.38-.3,3,3,0,0,0-.55-.22l-.63-.2a5.87,5.87,0,0,1-.63-.24,2.29,2.29,0,0,1-.55-.33,1.51,1.51,0,0,1-.54-1.22,1.88,1.88,0,0,1,.16-.73,1.76,1.76,0,0,1,.45-.61,2.51,2.51,0,0,1,.74-.42,3,3,0,0,1,1-.15,3.26,3.26,0,0,1,1.17.2,2.83,2.83,0,0,1,.89.57Z"/><path class="cls-3" d="M292.75,7.07a10.23,10.23,0,0,0-.35-2.71,10.42,10.42,0,0,0-1-2.49.88.88,0,0,1-.06-.17.28.28,0,0,1,0-.13.36.36,0,0,1,.07-.1.36.36,0,0,1,.09-.08l.51-.31a11.67,11.67,0,0,1,.83,1.48A9.47,9.47,0,0,1,293.35,4a9.62,9.62,0,0,1,.31,1.49,11.07,11.07,0,0,1,.1,1.54,11.07,11.07,0,0,1-.1,1.54,9.62,9.62,0,0,1-.31,1.49,9.47,9.47,0,0,1-.55,1.48,11.67,11.67,0,0,1-.83,1.48l-.51-.31a.24.24,0,0,1-.09-.08.31.31,0,0,1-.07-.09.33.33,0,0,1,0-.14.7.7,0,0,1,.06-.17,10.33,10.33,0,0,0,1-2.5A10.1,10.1,0,0,0,292.75,7.07Z"/><line class="cls-4" x1="192.35" y1="6.57" x2="7.46" y2="6.57"/><polygon class="cls-5" points="10.27 2.87 8.7 6.57 10.27 10.28 1.49 6.57 10.27 2.87"/><line class="cls-4" x1="303.47" y1="6.57" x2="489.91" y2="6.57"/><polygon class="cls-5" points="487.1 10.28 488.67 6.57 487.1 2.87 495.88 6.57 487.1 10.28"/><line class="cls-6" x1="0.57" y1="85.91" x2="495.39" y2="85.91"/><rect class="cls-7" x="1.33" y="86.46" width="494.47" height="31"/><line class="cls-6" x1="0.57" y1="118.22" x2="495.39" y2="118.22"/><path d="M25.05,135a5.37,5.37,0,0,1-.33,1.92,4.39,4.39,0,0,1-.94,1.51,4.32,4.32,0,0,1-1.45,1,5,5,0,0,1-1.88.34,4.9,4.9,0,0,1-1.87-.34,4.32,4.32,0,0,1-1.45-1,4.37,4.37,0,0,1-.93-1.51,5.59,5.59,0,0,1,0-3.84,4.56,4.56,0,0,1,.93-1.51,4.18,4.18,0,0,1,1.45-1,4.9,4.9,0,0,1,1.87-.35,5,5,0,0,1,1.88.35,4.18,4.18,0,0,1,1.45,1,4.59,4.59,0,0,1,.94,1.51A5.41,5.41,0,0,1,25.05,135Zm-1.3,0a4.66,4.66,0,0,0-.23-1.54,3.4,3.4,0,0,0-.66-1.15,2.84,2.84,0,0,0-1-.73,3.56,3.56,0,0,0-1.37-.25,3.51,3.51,0,0,0-1.36.25,2.93,2.93,0,0,0-1,.73,3.26,3.26,0,0,0-.67,1.15,5.27,5.27,0,0,0,0,3.08,3.26,3.26,0,0,0,.67,1.15,2.78,2.78,0,0,0,1,.72,3.51,3.51,0,0,0,1.36.25,3.56,3.56,0,0,0,1.37-.25,2.71,2.71,0,0,0,1-.72,3.4,3.4,0,0,0,.66-1.15A4.62,4.62,0,0,0,23.75,135Z"/><path d="M27,139.61V134l-.73-.08a.9.9,0,0,1-.22-.1.25.25,0,0,1-.09-.2v-.48h1v-.54a3.08,3.08,0,0,1,.16-1,2.06,2.06,0,0,1,.46-.74,1.82,1.82,0,0,1,.71-.46,2.75,2.75,0,0,1,.93-.16,2.66,2.66,0,0,1,.82.13l0,.59a.17.17,0,0,1-.17.17H29.4a1.81,1.81,0,0,0-.54.07,1,1,0,0,0-.42.26,1,1,0,0,0-.27.46,2.41,2.41,0,0,0-.09.71v.5h3v-.71a2.84,2.84,0,0,1,.16-1,1.92,1.92,0,0,1,.45-.74,2,2,0,0,1,.71-.46,2.76,2.76,0,0,1,.94-.16,2.64,2.64,0,0,1,.81.13l0,.58a.17.17,0,0,1-.18.17H33.5a1.8,1.8,0,0,0-.54.08.91.91,0,0,0-.42.26,1,1,0,0,0-.27.46,2.06,2.06,0,0,0-.1.71v.67h1.9V134H32.21v5.62H31.05V134H28.12v5.62Z"/><path d="M39,134.11a.26.26,0,0,1-.24.14.4.4,0,0,1-.22-.07l-.3-.16a2.61,2.61,0,0,0-.43-.16,2,2,0,0,0-.58-.08,1.69,1.69,0,0,0-.53.08,1.36,1.36,0,0,0-.4.2.87.87,0,0,0-.25.3.82.82,0,0,0-.09.38.64.64,0,0,0,.14.42,1.32,1.32,0,0,0,.39.29,2.52,2.52,0,0,0,.55.22l.62.2a5.87,5.87,0,0,1,.63.24,2.27,2.27,0,0,1,.55.32,1.37,1.37,0,0,1,.38.48,1.45,1.45,0,0,1,.15.68,2.06,2.06,0,0,1-.16.84,1.88,1.88,0,0,1-.48.67,2.38,2.38,0,0,1-.78.45,3.21,3.21,0,0,1-1.07.16,3.35,3.35,0,0,1-1.25-.22,3.1,3.1,0,0,1-1-.58l.28-.44a.3.3,0,0,1,.12-.13.35.35,0,0,1,.18-.05.45.45,0,0,1,.25.09l.31.21a2.88,2.88,0,0,0,.46.2,2.06,2.06,0,0,0,.66.09,1.78,1.78,0,0,0,.59-.09,1.22,1.22,0,0,0,.42-.24.81.81,0,0,0,.25-.34,1,1,0,0,0,.08-.42.67.67,0,0,0-.14-.45,1.19,1.19,0,0,0-.39-.3,3.14,3.14,0,0,0-.55-.23l-.63-.19q-.31-.1-.63-.24a2.2,2.2,0,0,1-.55-.34,1.32,1.32,0,0,1-.38-.49,1.59,1.59,0,0,1-.15-.72,1.72,1.72,0,0,1,.16-.73,1.76,1.76,0,0,1,.45-.61,2.45,2.45,0,0,1,.73-.42,3.13,3.13,0,0,1,1-.15,3.34,3.34,0,0,1,1.17.2,2.83,2.83,0,0,1,.89.57Z"/><path d="M46.15,138.68a2.29,2.29,0,0,1-.52.46,3.44,3.44,0,0,1-.64.31,5.13,5.13,0,0,1-.7.19,4.46,4.46,0,0,1-.72.06,3.4,3.4,0,0,1-1.26-.23,2.87,2.87,0,0,1-1-.68,3.15,3.15,0,0,1-.65-1.1,4.4,4.4,0,0,1-.23-1.51,3.88,3.88,0,0,1,.21-1.29,3,3,0,0,1,.61-1,2.57,2.57,0,0,1,1-.69,3.19,3.19,0,0,1,1.29-.25,2.83,2.83,0,0,1,1.1.2,2.53,2.53,0,0,1,.87.57,2.76,2.76,0,0,1,.57.92,3.49,3.49,0,0,1,.21,1.25.77.77,0,0,1-.06.37.24.24,0,0,1-.22.09h-4.4a3.76,3.76,0,0,0,.17,1.08,2.12,2.12,0,0,0,.43.77,1.65,1.65,0,0,0,.65.46,2.06,2.06,0,0,0,.84.16,2.72,2.72,0,0,0,.75-.1,3.7,3.7,0,0,0,.55-.22,3.9,3.9,0,0,0,.38-.22.48.48,0,0,1,.26-.1.25.25,0,0,1,.22.11Zm-.94-3.08a2.45,2.45,0,0,0-.11-.74,1.83,1.83,0,0,0-.33-.58,1.66,1.66,0,0,0-.53-.38,2,2,0,0,0-2,.35,2.32,2.32,0,0,0-.6,1.35Z"/><path d="M49.64,139.71a1.59,1.59,0,0,1-1.2-.43A1.74,1.74,0,0,1,48,138v-4h-.8a.23.23,0,0,1-.24-.25v-.46l1.07-.14.27-2a.24.24,0,0,1,.09-.15.21.21,0,0,1,.18-.07h.58v2.27h1.91V134H49.18v3.95a.85.85,0,0,0,.2.62.73.73,0,0,0,.52.2.77.77,0,0,0,.32,0l.23-.1.17-.11a.17.17,0,0,1,.28.06l.34.55a2,2,0,0,1-.73.44A2.35,2.35,0,0,1,49.64,139.71Z"/><line class="cls-6" x1="0.57" y1="150.54" x2="495.39" y2="150.54"/><line class="cls-6" y1="182.85" x2="494.82" y2="182.85"/><line class="cls-2" x1="248.92" y1="118.96" x2="248.92" y2="182.3"/><path d="M110.8,169.65a.25.25,0,0,1,.18.08l.5.54a3.94,3.94,0,0,1-1.38,1,4.93,4.93,0,0,1-2,.37,4.65,4.65,0,0,1-1.82-.35,3.94,3.94,0,0,1-1.39-1,4.26,4.26,0,0,1-.9-1.5,5.7,5.7,0,0,1-.32-1.93A5.43,5.43,0,0,1,104,165a4.37,4.37,0,0,1,.93-1.51,4.14,4.14,0,0,1,1.44-1,4.85,4.85,0,0,1,1.86-.35,4.55,4.55,0,0,1,1.75.32,4.49,4.49,0,0,1,1.34.87l-.42.58a.24.24,0,0,1-.1.1.25.25,0,0,1-.16,0,.56.56,0,0,1-.29-.13,3.09,3.09,0,0,0-.44-.28,3.38,3.38,0,0,0-.68-.29,3.68,3.68,0,0,0-1-.12,3.34,3.34,0,0,0-1.32.25,2.87,2.87,0,0,0-1,.72,3.31,3.31,0,0,0-.67,1.16,4.61,4.61,0,0,0-.24,1.54,4.38,4.38,0,0,0,.25,1.55,3.33,3.33,0,0,0,.68,1.16,2.89,2.89,0,0,0,1,.71,3.16,3.16,0,0,0,1.27.25,4.28,4.28,0,0,0,.75-.05,3,3,0,0,0,.62-.15,3.26,3.26,0,0,0,.53-.26,5.31,5.31,0,0,0,.48-.38A.32.32,0,0,1,110.8,169.65Z"/><path d="M113.84,165.87a3.53,3.53,0,0,1,.93-.72,2.5,2.5,0,0,1,1.18-.27,2.42,2.42,0,0,1,1,.18,1.94,1.94,0,0,1,.69.51,2.38,2.38,0,0,1,.42.79,3.64,3.64,0,0,1,.14,1v4.19H117v-4.19a1.76,1.76,0,0,0-.34-1.16,1.26,1.26,0,0,0-1-.41,2,2,0,0,0-1,.24,3.22,3.22,0,0,0-.82.67v4.85h-1.17V162h1.17Z"/><path d="M125.27,170.65a2.46,2.46,0,0,1-.51.45,3.57,3.57,0,0,1-.65.32,4,4,0,0,1-.7.18,4.37,4.37,0,0,1-.72.06,3.21,3.21,0,0,1-1.26-.23,2.8,2.8,0,0,1-1-.67,3.26,3.26,0,0,1-.66-1.1,4.65,4.65,0,0,1-.23-1.51,3.88,3.88,0,0,1,.21-1.29,3,3,0,0,1,.61-1,2.76,2.76,0,0,1,1-.69,3.28,3.28,0,0,1,1.28-.25,3,3,0,0,1,1.1.2,2.85,2.85,0,0,1,.87.57,2.56,2.56,0,0,1,.57.93,3.45,3.45,0,0,1,.21,1.25.72.72,0,0,1-.06.36c0,.06-.11.09-.22.09h-4.4a4.23,4.23,0,0,0,.17,1.09,2.38,2.38,0,0,0,.43.77,1.65,1.65,0,0,0,.65.46,2.26,2.26,0,0,0,.85.15,2.39,2.39,0,0,0,.75-.1,3.59,3.59,0,0,0,.54-.21,3.9,3.9,0,0,0,.38-.22.48.48,0,0,1,.26-.1.23.23,0,0,1,.22.11Zm-.94-3.09a2.38,2.38,0,0,0-.11-.73,1.72,1.72,0,0,0-.33-.58,1.44,1.44,0,0,0-.53-.38,2,2,0,0,0-2,.35,2.29,2.29,0,0,0-.6,1.34Z"/><path d="M131.37,166.16a.55.55,0,0,1-.1.11.21.21,0,0,1-.14,0,.42.42,0,0,1-.22-.08,1.83,1.83,0,0,0-.29-.18,1.65,1.65,0,0,0-.42-.18,2.15,2.15,0,0,0-.61-.08,2.06,2.06,0,0,0-.86.17,1.6,1.6,0,0,0-.62.5,2.11,2.11,0,0,0-.38.78,4.17,4.17,0,0,0-.13,1,3.78,3.78,0,0,0,.14,1.06,2.2,2.2,0,0,0,.39.78,1.56,1.56,0,0,0,.6.48,1.88,1.88,0,0,0,.8.17,2.19,2.19,0,0,0,.69-.1,2.35,2.35,0,0,0,.45-.23,2.94,2.94,0,0,0,.3-.22.36.36,0,0,1,.24-.1.23.23,0,0,1,.22.11l.33.42a2.65,2.65,0,0,1-.49.46,3,3,0,0,1-.59.31,3.58,3.58,0,0,1-.66.19,5.36,5.36,0,0,1-.7,0,2.94,2.94,0,0,1-1.15-.22,2.6,2.6,0,0,1-.92-.66,3.19,3.19,0,0,1-.61-1.07,4.25,4.25,0,0,1-.22-1.43,4.56,4.56,0,0,1,.2-1.36,3.15,3.15,0,0,1,.6-1.08,2.84,2.84,0,0,1,1-.7,3.24,3.24,0,0,1,1.32-.26,3.1,3.1,0,0,1,1.23.23,3,3,0,0,1,.94.63Z"/><path d="M134.16,162v5.63h.3a.69.69,0,0,0,.22,0,.48.48,0,0,0,.18-.15l2.08-2.23a.79.79,0,0,1,.2-.17.49.49,0,0,1,.27-.06h1L136,167.57a1.48,1.48,0,0,1-.38.34l.21.18.18.23,2.57,3.25h-1a.55.55,0,0,1-.26,0,.42.42,0,0,1-.18-.17l-2.17-2.7a.46.46,0,0,0-.19-.18.71.71,0,0,0-.29,0h-.33v3.14H133V162Z"/><path d="M143.44,166.07a.27.27,0,0,1-.24.15.51.51,0,0,1-.22-.07,2.94,2.94,0,0,0-.31-.16,2.81,2.81,0,0,0-.42-.17,2.08,2.08,0,0,0-.59-.07,1.68,1.68,0,0,0-.52.07,1.17,1.17,0,0,0-.4.21,1,1,0,0,0-.26.3.8.8,0,0,0-.08.37.64.64,0,0,0,.14.43,1.32,1.32,0,0,0,.39.29,4.65,4.65,0,0,0,.54.22l.63.2c.22.07.42.15.63.24a2.08,2.08,0,0,1,.54.32,1.53,1.53,0,0,1,.39.48,1.42,1.42,0,0,1,.15.68,2.32,2.32,0,0,1-.16.84,1.79,1.79,0,0,1-.49.67,2.12,2.12,0,0,1-.78.44,3.1,3.1,0,0,1-1.06.17,3.34,3.34,0,0,1-2.2-.8l.27-.44a.4.4,0,0,1,.13-.13.35.35,0,0,1,.18-.05.45.45,0,0,1,.25.09l.31.2a2.34,2.34,0,0,0,.45.2,2.1,2.1,0,0,0,.67.1,1.78,1.78,0,0,0,.59-.09,1.22,1.22,0,0,0,.42-.24.91.91,0,0,0,.25-.34,1,1,0,0,0,.08-.42.73.73,0,0,0-.14-.45,1.37,1.37,0,0,0-.39-.31,3.15,3.15,0,0,0-.55-.22l-.63-.2a5.85,5.85,0,0,1-.63-.23,2,2,0,0,1-.55-.34,1.5,1.5,0,0,1-.39-.5,1.66,1.66,0,0,1-.14-.71,1.8,1.8,0,0,1,.15-.73,1.93,1.93,0,0,1,.46-.61,2.09,2.09,0,0,1,.73-.42,3.26,3.26,0,0,1,2.16.05,2.74,2.74,0,0,1,.9.56Z"/><path d="M150.65,165v6.58H150a.3.3,0,0,1-.32-.24l-.09-.71a3.36,3.36,0,0,1-1,.77,2.53,2.53,0,0,1-1.22.29,2.33,2.33,0,0,1-1-.18,1.89,1.89,0,0,1-.7-.51,2.07,2.07,0,0,1-.41-.78,3.31,3.31,0,0,1-.14-1V165h1.15v4.2a1.77,1.77,0,0,0,.34,1.15,1.27,1.27,0,0,0,1.05.41,2,2,0,0,0,1-.24,3.18,3.18,0,0,0,.82-.67V165Z"/><path d="M152.48,171.57V165h.69a.29.29,0,0,1,.31.24l.08.68a3.55,3.55,0,0,1,.82-.74,2,2,0,0,1,1.06-.29,1.52,1.52,0,0,1,1.07.38,2,2,0,0,1,.6,1,2,2,0,0,1,.36-.62,2.08,2.08,0,0,1,.51-.43,2.06,2.06,0,0,1,.59-.25,2.8,2.8,0,0,1,.64-.08,2.45,2.45,0,0,1,.93.17,1.87,1.87,0,0,1,.69.48,2.23,2.23,0,0,1,.43.79,3.43,3.43,0,0,1,.15,1.06v4.19h-1.16v-4.19a1.79,1.79,0,0,0-.34-1.17,1.2,1.2,0,0,0-1-.4,1.4,1.4,0,0,0-.54.1,1.34,1.34,0,0,0-.45.29,1.52,1.52,0,0,0-.31.49,1.85,1.85,0,0,0-.11.69v4.19h-1.17v-4.19a1.79,1.79,0,0,0-.32-1.18,1.12,1.12,0,0,0-.92-.39,1.41,1.41,0,0,0-.8.23,2.63,2.63,0,0,0-.67.63v4.9Z"/><path d="M337.7,170.59a2.56,2.56,0,0,0,1-.19,2,2,0,0,0,.77-.55A2.35,2.35,0,0,0,340,169a3.14,3.14,0,0,0,.17-1.08v-5.66h1.26v5.66a4.3,4.3,0,0,1-.26,1.5,3.47,3.47,0,0,1-.74,1.19,3.19,3.19,0,0,1-1.16.79,4.29,4.29,0,0,1-3.1,0,3.32,3.32,0,0,1-1.17-.79,3.62,3.62,0,0,1-.74-1.19,4.29,4.29,0,0,1-.25-1.5v-5.66h1.25v5.66a3.33,3.33,0,0,0,.17,1.07,2.49,2.49,0,0,0,.48.84,2.4,2.4,0,0,0,.77.55A2.64,2.64,0,0,0,337.7,170.59Z"/><path d="M344.3,166.33a3,3,0,0,1,.76-1.06,1.73,1.73,0,0,1,1.12-.38,1.67,1.67,0,0,1,.39.05,1.22,1.22,0,0,1,.35.14l-.09.87a.18.18,0,0,1-.19.16,1.16,1.16,0,0,1-.27,0,1.64,1.64,0,0,0-.4,0,1.59,1.59,0,0,0-.55.09,1.34,1.34,0,0,0-.44.27,2.23,2.23,0,0,0-.34.44,3.85,3.85,0,0,0-.28.61v4.16H343.2V165h.66a.4.4,0,0,1,.26.07.45.45,0,0,1,.1.25Z"/><path d="M353.34,165.27v.43q0,.21-.27.27l-.75.1a2,2,0,0,1,.22,1,2,2,0,0,1-.7,1.55,2.25,2.25,0,0,1-.78.43,3.1,3.1,0,0,1-1,.15,3.17,3.17,0,0,1-.88-.12,1.22,1.22,0,0,0-.31.28.47.47,0,0,0-.11.3.39.39,0,0,0,.19.35,1.28,1.28,0,0,0,.5.17,4.88,4.88,0,0,0,.71.07l.82,0a7.35,7.35,0,0,1,.82.1,2.47,2.47,0,0,1,.71.24,1.28,1.28,0,0,1,.51.44,1.37,1.37,0,0,1,.19.74,1.7,1.7,0,0,1-.21.82,2.27,2.27,0,0,1-.61.71,3.15,3.15,0,0,1-1,.49,4.08,4.08,0,0,1-1.3.19,5.21,5.21,0,0,1-1.26-.14,3.13,3.13,0,0,1-.9-.39,1.63,1.63,0,0,1-.53-.55,1.31,1.31,0,0,1-.18-.66,1.21,1.21,0,0,1,.3-.83,2.34,2.34,0,0,1,.84-.54,1.17,1.17,0,0,1-.46-.35.87.87,0,0,1-.17-.58.79.79,0,0,1,.05-.3,1,1,0,0,1,.16-.31,2.26,2.26,0,0,1,.26-.29,1.61,1.61,0,0,1,.36-.24,2,2,0,0,1-.76-.72,2,2,0,0,1-.27-1,1.92,1.92,0,0,1,.19-.87,1.79,1.79,0,0,1,.51-.67,2.32,2.32,0,0,1,.79-.43,3.24,3.24,0,0,1,1-.15,3,3,0,0,1,.8.1,2.48,2.48,0,0,1,.67.27ZM352.16,172a.56.56,0,0,0-.13-.39,1,1,0,0,0-.37-.23,2,2,0,0,0-.54-.12l-.64-.06-.7,0c-.23,0-.46,0-.67-.06a1.68,1.68,0,0,0-.6.43.88.88,0,0,0-.23.6.78.78,0,0,0,.12.41.9.9,0,0,0,.34.33,2.14,2.14,0,0,0,.59.22,3.52,3.52,0,0,0,.84.08A4.28,4.28,0,0,0,351,173a2.36,2.36,0,0,0,.62-.24,1.31,1.31,0,0,0,.4-.37A.89.89,0,0,0,352.16,172Zm-2.08-3.57a1.63,1.63,0,0,0,.61-.1,1.26,1.26,0,0,0,.45-.27,1.17,1.17,0,0,0,.27-.42,1.33,1.33,0,0,0,.1-.54,1.3,1.3,0,0,0-.37-1,1.76,1.76,0,0,0-2.13,0,1.27,1.27,0,0,0-.37,1,1.53,1.53,0,0,0,.09.54,1.34,1.34,0,0,0,.28.42,1.26,1.26,0,0,0,.45.27A1.68,1.68,0,0,0,350.08,168.38Z"/><path d="M359.78,170.67a1.84,1.84,0,0,1-.51.45,3.19,3.19,0,0,1-.64.32,4.35,4.35,0,0,1-.71.18,3.51,3.51,0,0,1-.72.07,3.4,3.4,0,0,1-1.26-.23,2.83,2.83,0,0,1-1-.68,3.16,3.16,0,0,1-.66-1.1,4.65,4.65,0,0,1-.23-1.51,3.88,3.88,0,0,1,.21-1.29,2.88,2.88,0,0,1,.61-1,2.61,2.61,0,0,1,1-.69,3.11,3.11,0,0,1,1.28-.25,2.83,2.83,0,0,1,1.1.2,2.35,2.35,0,0,1,.87.57,2.54,2.54,0,0,1,.58.92,3.72,3.72,0,0,1,.2,1.25.77.77,0,0,1-.06.37c0,.06-.11.09-.22.09h-4.4a3.81,3.81,0,0,0,.18,1.08,2.1,2.1,0,0,0,.42.77,1.65,1.65,0,0,0,.65.46,2.11,2.11,0,0,0,.85.16,2.72,2.72,0,0,0,.75-.1,3.54,3.54,0,0,0,.54-.22,3.9,3.9,0,0,0,.38-.22.48.48,0,0,1,.26-.1.25.25,0,0,1,.22.11Zm-.94-3.09a2.15,2.15,0,0,0-.11-.73,1.72,1.72,0,0,0-.33-.58,1.56,1.56,0,0,0-.53-.38,1.8,1.8,0,0,0-.71-.13,1.82,1.82,0,0,0-1.32.48,2.32,2.32,0,0,0-.6,1.34Z"/><path d="M362.39,166a4.73,4.73,0,0,1,.46-.44,2.78,2.78,0,0,1,.51-.33,2.32,2.32,0,0,1,.57-.22,2.7,2.7,0,0,1,.65-.07,2.42,2.42,0,0,1,1,.18,1.8,1.8,0,0,1,.68.5,2.14,2.14,0,0,1,.42.79,3.31,3.31,0,0,1,.15,1v4.2h-1.17v-4.2a1.76,1.76,0,0,0-.34-1.16,1.28,1.28,0,0,0-1-.41,1.86,1.86,0,0,0-1,.25,3,3,0,0,0-.83.67v4.85H361.3V165h.7a.28.28,0,0,1,.3.24Z"/><path d="M370.49,171.7a1.59,1.59,0,0,1-1.2-.44,1.72,1.72,0,0,1-.42-1.25v-4h-.8a.25.25,0,0,1-.17-.06.24.24,0,0,1-.07-.19v-.47l1.08-.13.26-2a.37.37,0,0,1,.09-.16.26.26,0,0,1,.18-.06H370v2.27h1.91V166H370v4a.82.82,0,0,0,.21.62.7.7,0,0,0,.52.2,1,1,0,0,0,.31-.05,1,1,0,0,0,.23-.11,1.28,1.28,0,0,0,.17-.1.17.17,0,0,1,.28.06l.34.55a2.18,2.18,0,0,1-.72.44A2.43,2.43,0,0,1,370.49,171.7Z"/><path d="M377.56,166a3.25,3.25,0,0,1,1-.82,2.56,2.56,0,0,1,2.28-.1,2.14,2.14,0,0,1,.79.65,3.2,3.2,0,0,1,.5,1.05,5.77,5.77,0,0,1,.17,1.45,4.56,4.56,0,0,1-.19,1.36,3.35,3.35,0,0,1-.56,1.08,2.61,2.61,0,0,1-.9.72,2.57,2.57,0,0,1-1.19.27,2.35,2.35,0,0,1-1-.21,2.21,2.21,0,0,1-.76-.57v2.92h-1.17V165h.7a.28.28,0,0,1,.3.24Zm.06,4a1.74,1.74,0,0,0,.69.6,1.93,1.93,0,0,0,.85.18,1.66,1.66,0,0,0,1.41-.66,3,3,0,0,0,.5-1.87,4.35,4.35,0,0,0-.12-1.1,2.13,2.13,0,0,0-.32-.76,1.28,1.28,0,0,0-.53-.43,1.76,1.76,0,0,0-.71-.14,1.87,1.87,0,0,0-1,.26,2.68,2.68,0,0,0-.78.73Z"/><path d="M386.51,164.91a3.35,3.35,0,0,1,1.3.24,2.78,2.78,0,0,1,1,.68,3.06,3.06,0,0,1,.63,1.07,4.37,4.37,0,0,1,.22,1.4,4.33,4.33,0,0,1-.22,1.4,3.06,3.06,0,0,1-.63,1.07,2.78,2.78,0,0,1-1,.68,3.35,3.35,0,0,1-1.3.24,3.43,3.43,0,0,1-1.31-.24,3,3,0,0,1-1-.68,2.9,2.9,0,0,1-.62-1.07,4.56,4.56,0,0,1,0-2.8,2.9,2.9,0,0,1,.62-1.07,3,3,0,0,1,1-.68A3.43,3.43,0,0,1,386.51,164.91Zm0,5.87a1.68,1.68,0,0,0,1.46-.65,3,3,0,0,0,.48-1.82,3.07,3.07,0,0,0-.48-1.84,1.71,1.71,0,0,0-1.46-.65,1.94,1.94,0,0,0-.86.17,1.59,1.59,0,0,0-.61.48,2.3,2.3,0,0,0-.36.79,4.21,4.21,0,0,0-.12,1.05,3,3,0,0,0,.48,1.82A1.7,1.7,0,0,0,386.51,170.78Z"/><path d="M392.58,162.94a.68.68,0,0,1-.07.32,1.2,1.2,0,0,1-.18.26,1,1,0,0,1-.27.18.88.88,0,0,1-.64,0,.88.88,0,0,1-.25-.18.93.93,0,0,1-.18-.26.83.83,0,0,1-.06-.32.87.87,0,0,1,.06-.32.81.81,0,0,1,.18-.26.72.72,0,0,1,.25-.18.77.77,0,0,1,.64,0,.8.8,0,0,1,.27.18,1,1,0,0,1,.18.26A.71.71,0,0,1,392.58,162.94Zm-.25,2.07v6.59h-1.16V165Z"/><path d="M395.32,166a3.81,3.81,0,0,1,.46-.44,2.78,2.78,0,0,1,.51-.33,2.32,2.32,0,0,1,.57-.22,2.7,2.7,0,0,1,.65-.07,2.33,2.33,0,0,1,.95.18,1.76,1.76,0,0,1,.69.5,2.14,2.14,0,0,1,.42.79,3.31,3.31,0,0,1,.15,1v4.2h-1.17v-4.2a1.76,1.76,0,0,0-.34-1.16,1.28,1.28,0,0,0-1-.41,1.85,1.85,0,0,0-.95.25,2.88,2.88,0,0,0-.83.67v4.85h-1.16V165h.7a.28.28,0,0,1,.3.24Z"/><path d="M403.41,171.7a1.59,1.59,0,0,1-1.2-.44,1.76,1.76,0,0,1-.41-1.25v-4H401a.23.23,0,0,1-.24-.25v-.47l1.07-.13.27-2a.29.29,0,0,1,.09-.16.24.24,0,0,1,.18-.06H403v2.27h1.91V166H403v4a.85.85,0,0,0,.2.62.73.73,0,0,0,.52.2,1,1,0,0,0,.55-.16l.17-.1a.17.17,0,0,1,.28.06l.34.55a2.13,2.13,0,0,1-.73.44A2.35,2.35,0,0,1,403.41,171.7Z"/><path d="M411.36,170.67a1.84,1.84,0,0,1-.51.45,3,3,0,0,1-.64.32,4.1,4.1,0,0,1-.71.18,3.51,3.51,0,0,1-.72.07,3.39,3.39,0,0,1-1.25-.23,2.78,2.78,0,0,1-1-.68,3,3,0,0,1-.65-1.1,4.39,4.39,0,0,1-.24-1.51,3.64,3.64,0,0,1,.22-1.29,3,3,0,0,1,.6-1,2.69,2.69,0,0,1,1-.69,3.13,3.13,0,0,1,1.29-.25,2.78,2.78,0,0,1,1.09.2,2.35,2.35,0,0,1,.87.57,2.54,2.54,0,0,1,.58.92,3.49,3.49,0,0,1,.21,1.25.77.77,0,0,1-.06.37.24.24,0,0,1-.22.09h-4.4a3.82,3.82,0,0,0,.17,1.08,2,2,0,0,0,.43.77,1.58,1.58,0,0,0,.65.46,2.06,2.06,0,0,0,.84.16,2.72,2.72,0,0,0,.75-.1,3.54,3.54,0,0,0,.54-.22,3,3,0,0,0,.38-.22.5.5,0,0,1,.27-.1.27.27,0,0,1,.22.11Zm-.93-3.09a2.15,2.15,0,0,0-.12-.73,1.44,1.44,0,0,0-.33-.58,1.47,1.47,0,0,0-.53-.38,2,2,0,0,0-2,.35,2.32,2.32,0,0,0-.6,1.34Z"/><path d="M414,166.33a3.13,3.13,0,0,1,.77-1.06,1.68,1.68,0,0,1,1.11-.38,1.75,1.75,0,0,1,.4.05,1.16,1.16,0,0,1,.34.14l-.08.87a.19.19,0,0,1-.2.16,1,1,0,0,1-.26,0,1.64,1.64,0,0,0-.4,0,1.55,1.55,0,0,0-.55.09,1.25,1.25,0,0,0-.44.27,2.26,2.26,0,0,0-.35.44,3.85,3.85,0,0,0-.27.61v4.16h-1.17V165h.67a.43.43,0,0,1,.26.07.45.45,0,0,1,.1.25Z"/><path d="M210,197.24a5.16,5.16,0,0,1-.34,1.92,4.46,4.46,0,0,1-.93,1.51,4.15,4.15,0,0,1-1.45,1,4.77,4.77,0,0,1-1.88.35,4.72,4.72,0,0,1-1.87-.35,4.15,4.15,0,0,1-1.45-1,4.49,4.49,0,0,1-.94-1.51,5.75,5.75,0,0,1,0-3.84,4.49,4.49,0,0,1,.94-1.51,4.18,4.18,0,0,1,1.45-1,4.72,4.72,0,0,1,1.87-.35,4.77,4.77,0,0,1,1.88.35,4.18,4.18,0,0,1,1.45,1,4.46,4.46,0,0,1,.93,1.51A5.16,5.16,0,0,1,210,197.24Zm-1.3,0a4.93,4.93,0,0,0-.23-1.54,3.4,3.4,0,0,0-.66-1.15,2.93,2.93,0,0,0-1-.73,3.56,3.56,0,0,0-1.37-.25,3.51,3.51,0,0,0-1.36.25,2.93,2.93,0,0,0-1,.73,3.26,3.26,0,0,0-.67,1.15,5.27,5.27,0,0,0,0,3.08,3.35,3.35,0,0,0,.67,1.15,3,3,0,0,0,1,.72,3.51,3.51,0,0,0,1.36.25,3.56,3.56,0,0,0,1.37-.25,3,3,0,0,0,1-.72,3.5,3.5,0,0,0,.66-1.15A4.89,4.89,0,0,0,208.72,197.24Z"/><path d="M212.52,196.33a3.38,3.38,0,0,1,1-.82,2.56,2.56,0,0,1,2.28-.1,2.21,2.21,0,0,1,.79.64,3.16,3.16,0,0,1,.5,1.06,5.3,5.3,0,0,1,.17,1.45,4.56,4.56,0,0,1-.19,1.36,3.35,3.35,0,0,1-.56,1.08,2.61,2.61,0,0,1-.9.72,2.57,2.57,0,0,1-1.19.27,2.28,2.28,0,0,1-1.8-.78v2.91h-1.17v-8.81h.7a.28.28,0,0,1,.3.24Zm.06,4a1.74,1.74,0,0,0,.69.6,2,2,0,0,0,.85.18,1.66,1.66,0,0,0,1.41-.66,3,3,0,0,0,.5-1.87,4.35,4.35,0,0,0-.12-1.1,2.13,2.13,0,0,0-.32-.76,1.28,1.28,0,0,0-.53-.43,1.61,1.61,0,0,0-.71-.14,1.87,1.87,0,0,0-1,.26,3,3,0,0,0-.78.73Z"/><path d="M224.73,201.9h-1.16v-5.62h-3.39v3.95a.83.83,0,0,0,.2.62.7.7,0,0,0,.52.2,1,1,0,0,0,.31-.05,1,1,0,0,0,.23-.11l.17-.1a.16.16,0,0,1,.12,0,.19.19,0,0,1,.16.11l.34.55a2.18,2.18,0,0,1-.72.44,2.35,2.35,0,0,1-.87.16,1.59,1.59,0,0,1-1.2-.44,1.73,1.73,0,0,1-.42-1.25v-4h-.79a.28.28,0,0,1-.18-.06A.24.24,0,0,1,218,196v-.47l1.08-.14.26-2a.42.42,0,0,1,.09-.16.28.28,0,0,1,.18-.06h.59v2.27h4.55Zm.28-8.7a.64.64,0,0,1-.07.31.68.68,0,0,1-.18.26,1,1,0,0,1-.26.18.88.88,0,0,1-.64,0,1.14,1.14,0,0,1-.25-.18.81.81,0,0,1-.18-.26.78.78,0,0,1-.06-.31.87.87,0,0,1,.06-.32.85.85,0,0,1,.18-.27.72.72,0,0,1,.25-.18.88.88,0,0,1,.64,0,.68.68,0,0,1,.26.18.88.88,0,0,1,.25.59Z"/><path d="M229.4,195.21a3.38,3.38,0,0,1,1.3.24,2.83,2.83,0,0,1,1,.68,2.9,2.9,0,0,1,.62,1.07,4.56,4.56,0,0,1,0,2.8,2.77,2.77,0,0,1-1.61,1.75,3.67,3.67,0,0,1-2.61,0,2.78,2.78,0,0,1-1-.68,3,3,0,0,1-.63-1.07,4.56,4.56,0,0,1,0-2.8,2.92,2.92,0,0,1,.63-1.07,2.66,2.66,0,0,1,1-.68A3.4,3.4,0,0,1,229.4,195.21Zm0,5.87a1.72,1.72,0,0,0,1.46-.65,3,3,0,0,0,.48-1.82,3.07,3.07,0,0,0-.48-1.84,1.72,1.72,0,0,0-1.46-.65,1.91,1.91,0,0,0-.86.17,1.52,1.52,0,0,0-.61.48,2.14,2.14,0,0,0-.37.79,4.21,4.21,0,0,0-.12,1.05,3,3,0,0,0,.49,1.82A1.72,1.72,0,0,0,229.4,201.08Z"/><path d="M235.09,196.27a3.73,3.73,0,0,1,.45-.44,2.78,2.78,0,0,1,.51-.33,2.32,2.32,0,0,1,.57-.22,2.73,2.73,0,0,1,.66-.07,2.37,2.37,0,0,1,.95.18,1.8,1.8,0,0,1,.69.5,2.38,2.38,0,0,1,.42.79,3.64,3.64,0,0,1,.14,1v4.2h-1.16v-4.2a1.82,1.82,0,0,0-.34-1.16,1.3,1.3,0,0,0-1-.41,1.91,1.91,0,0,0-1,.25,2.85,2.85,0,0,0-.82.67v4.85H234v-6.59h.7a.29.29,0,0,1,.31.24Z"/><path d="M245.08,196.4a.26.26,0,0,1-.24.14.43.43,0,0,1-.22-.07l-.3-.16a2.61,2.61,0,0,0-.43-.16,2,2,0,0,0-.58-.08,1.74,1.74,0,0,0-.53.08,1.25,1.25,0,0,0-.4.2,1,1,0,0,0-.25.3.82.82,0,0,0-.09.38.6.6,0,0,0,.15.42,1.16,1.16,0,0,0,.38.29,3.5,3.5,0,0,0,.55.22l.63.2a6.62,6.62,0,0,1,.62.24,2,2,0,0,1,.55.32,1.53,1.53,0,0,1,.39.48,1.45,1.45,0,0,1,.14.68,2.13,2.13,0,0,1-.16.84,1.88,1.88,0,0,1-.48.67,2.29,2.29,0,0,1-.78.45A3.44,3.44,0,0,1,243,202a3.26,3.26,0,0,1-1.24-.23,3,3,0,0,1-.95-.57l.27-.44a.38.38,0,0,1,.12-.13.36.36,0,0,1,.19,0,.42.42,0,0,1,.24.09,3.71,3.71,0,0,0,.32.2,1.89,1.89,0,0,0,.45.21,2.1,2.1,0,0,0,.66.09,1.7,1.7,0,0,0,.59-.09,1.37,1.37,0,0,0,.43-.24,1,1,0,0,0,.25-.34,1.16,1.16,0,0,0,.08-.42.68.68,0,0,0-.15-.45,1.32,1.32,0,0,0-.38-.31,5.72,5.72,0,0,0-.55-.22l-.63-.2a4.29,4.29,0,0,1-.63-.23,2,2,0,0,1-.55-.34,1.57,1.57,0,0,1-.39-.49,1.59,1.59,0,0,1-.15-.72,1.69,1.69,0,0,1,.16-.73,1.76,1.76,0,0,1,.45-.61,2.51,2.51,0,0,1,.74-.42,3.44,3.44,0,0,1,2.16,0,3,3,0,0,1,.89.56Z"/><path d="M247.51,202a.6.6,0,0,1-.26.34.72.72,0,0,1-.37.11h-.48l3.9-9.73a.61.61,0,0,1,.24-.32.67.67,0,0,1,.37-.11h.49Z"/><path d="M255.78,192.58a5,5,0,0,1,1.53.21,2.91,2.91,0,0,1,1.09.58,2.46,2.46,0,0,1,.64.91,3.19,3.19,0,0,1,.21,1.19,3.08,3.08,0,0,1-.23,1.19,2.46,2.46,0,0,1-.67.93,3,3,0,0,1-1.08.6,4.54,4.54,0,0,1-1.49.22h-1.5v3.49H253v-9.32Zm0,4.83a3.06,3.06,0,0,0,1-.14,2,2,0,0,0,.69-.4,1.69,1.69,0,0,0,.43-.62,2.21,2.21,0,0,0,.14-.78,1.76,1.76,0,0,0-.55-1.39,2.36,2.36,0,0,0-1.66-.5h-1.5v3.83Z"/><path d="M260.18,196.24a4,4,0,0,1,1.18-.79,3.71,3.71,0,0,1,1.4-.26,2.38,2.38,0,0,1,1,.19,2.16,2.16,0,0,1,.72.5,2.1,2.1,0,0,1,.44.79,3.24,3.24,0,0,1,.15,1v4.22h-.51a.48.48,0,0,1-.26-.06.43.43,0,0,1-.15-.22L264,201a5.87,5.87,0,0,1-.5.42,3.17,3.17,0,0,1-.52.32,2.81,2.81,0,0,1-.58.19,3,3,0,0,1-.69.07,2.36,2.36,0,0,1-.72-.11,1.68,1.68,0,0,1-.59-.32,1.47,1.47,0,0,1-.4-.54,2.05,2.05,0,0,1-.14-.78,1.47,1.47,0,0,1,.21-.75,2,2,0,0,1,.7-.64,4.49,4.49,0,0,1,1.25-.46,9.07,9.07,0,0,1,1.9-.2v-.52a1.78,1.78,0,0,0-.33-1.16,1.21,1.21,0,0,0-1-.39,2.1,2.1,0,0,0-.72.11,2.59,2.59,0,0,0-.5.24l-.36.24a.55.55,0,0,1-.3.11.38.38,0,0,1-.21-.07.67.67,0,0,1-.14-.15Zm3.74,2.69a9.52,9.52,0,0,0-1.36.13,3.52,3.52,0,0,0-.92.26,1.41,1.41,0,0,0-.51.38.83.83,0,0,0-.16.5,1.25,1.25,0,0,0,.08.45.81.81,0,0,0,.58.48,1.42,1.42,0,0,0,.42.06,1.91,1.91,0,0,0,.56-.07,2.48,2.48,0,0,0,.48-.17,4,4,0,0,0,.43-.28,4.61,4.61,0,0,0,.4-.37Z"/><path d="M272.26,192.32v9.58h-.69a.3.3,0,0,1-.31-.25l-.1-.8a3.56,3.56,0,0,1-1,.82A2.41,2.41,0,0,1,269,202a2.47,2.47,0,0,1-1-.22,2.21,2.21,0,0,1-.79-.64,3,3,0,0,1-.5-1,5.38,5.38,0,0,1-.18-1.45,4.56,4.56,0,0,1,.2-1.36,3.4,3.4,0,0,1,.56-1.09,2.49,2.49,0,0,1,.89-.72,2.62,2.62,0,0,1,1.2-.27,2.34,2.34,0,0,1,1,.21,2.24,2.24,0,0,1,.77.57v-3.65Zm-1.16,4.56a1.8,1.8,0,0,0-.7-.61,1.91,1.91,0,0,0-.84-.17,1.66,1.66,0,0,0-1.41.65,3.09,3.09,0,0,0-.5,1.88,5,5,0,0,0,.11,1.1,2.16,2.16,0,0,0,.33.75,1.26,1.26,0,0,0,.52.43,1.8,1.8,0,0,0,.71.14,1.91,1.91,0,0,0,1-.26,3,3,0,0,0,.78-.73Z"/><path d="M279.54,192.32v9.58h-.69a.3.3,0,0,1-.31-.25l-.1-.8a3.56,3.56,0,0,1-1,.82,2.41,2.41,0,0,1-1.24.32,2.47,2.47,0,0,1-1-.22,2.21,2.21,0,0,1-.79-.64,3.2,3.2,0,0,1-.5-1,5.39,5.39,0,0,1-.17-1.45,4.56,4.56,0,0,1,.19-1.36,3.4,3.4,0,0,1,.56-1.09,2.49,2.49,0,0,1,.89-.72,2.62,2.62,0,0,1,1.2-.27,2.34,2.34,0,0,1,1,.21,2.24,2.24,0,0,1,.77.57v-3.65Zm-1.16,4.56a1.8,1.8,0,0,0-.7-.61,1.91,1.91,0,0,0-.84-.17,1.66,1.66,0,0,0-1.41.65,3.09,3.09,0,0,0-.5,1.88,5,5,0,0,0,.11,1.1,2.16,2.16,0,0,0,.33.75,1.26,1.26,0,0,0,.52.43,1.8,1.8,0,0,0,.71.14,1.91,1.91,0,0,0,1-.26,3,3,0,0,0,.78-.73Z"/><path d="M282.84,193.24a.68.68,0,0,1-.07.32.76.76,0,0,1-.18.26.91.91,0,0,1-.27.18.87.87,0,0,1-.32.06.78.78,0,0,1-.31-.06,1,1,0,0,1-.26-.18.9.9,0,0,1-.17-.26.68.68,0,0,1-.07-.32.71.71,0,0,1,.07-.32.78.78,0,0,1,.17-.26.68.68,0,0,1,.26-.18.64.64,0,0,1,.31-.07.71.71,0,0,1,.32.07.64.64,0,0,1,.27.18.68.68,0,0,1,.18.26A.71.71,0,0,1,282.84,193.24Zm-.25,2.07v6.59h-1.15v-6.59Z"/><path d="M285.58,196.27a4.73,4.73,0,0,1,.46-.44,2.78,2.78,0,0,1,.51-.33,2.32,2.32,0,0,1,.57-.22,2.73,2.73,0,0,1,.66-.07,2.4,2.4,0,0,1,1,.18,1.8,1.8,0,0,1,.69.5,2.38,2.38,0,0,1,.42.79,3.64,3.64,0,0,1,.14,1v4.2h-1.16v-4.2a1.76,1.76,0,0,0-.35-1.16,1.26,1.26,0,0,0-1-.41,1.89,1.89,0,0,0-1,.25,2.85,2.85,0,0,0-.82.67v4.85h-1.17v-6.59h.7a.28.28,0,0,1,.3.24Z"/><path d="M297.3,195.57V196q0,.21-.27.27l-.75.1a2,2,0,0,1,.22.95,2.05,2.05,0,0,1-.18.87,1.91,1.91,0,0,1-.51.68,2.25,2.25,0,0,1-.78.42,3.12,3.12,0,0,1-1,.15,3.05,3.05,0,0,1-.87-.11,1.13,1.13,0,0,0-.32.28.53.53,0,0,0-.11.3.39.39,0,0,0,.19.35,1.33,1.33,0,0,0,.51.17,4.6,4.6,0,0,0,.71.07l.82,0a7.35,7.35,0,0,1,.82.1,3,3,0,0,1,.71.23,1.36,1.36,0,0,1,.5.45,1.29,1.29,0,0,1,.19.74,1.7,1.7,0,0,1-.21.82,2.14,2.14,0,0,1-.61.71,3,3,0,0,1-1,.49,4,4,0,0,1-1.29.19,4.76,4.76,0,0,1-1.27-.15,2.91,2.91,0,0,1-.89-.38,1.66,1.66,0,0,1-.54-.55,1.31,1.31,0,0,1-.18-.66,1.17,1.17,0,0,1,.31-.83,2,2,0,0,1,.84-.54,1.21,1.21,0,0,1-.47-.35.94.94,0,0,1-.17-.59,1,1,0,0,1,.05-.29,1.84,1.84,0,0,1,.16-.31,1.75,1.75,0,0,1,.26-.29,2,2,0,0,1,.37-.24,2,2,0,0,1-.76-.72,2,2,0,0,1-.28-1.05,2.14,2.14,0,0,1,.19-.88,1.86,1.86,0,0,1,.52-.66,2.23,2.23,0,0,1,.79-.43,3.18,3.18,0,0,1,1-.15,3.38,3.38,0,0,1,.8.09,2.94,2.94,0,0,1,.68.28Zm-1.17,6.68a.56.56,0,0,0-.14-.39.9.9,0,0,0-.37-.23,2,2,0,0,0-.53-.12c-.21,0-.42,0-.65-.06l-.69,0c-.24,0-.46,0-.68-.06a1.75,1.75,0,0,0-.59.42.88.88,0,0,0-.23.61.77.77,0,0,0,.11.41.93.93,0,0,0,.35.33,1.92,1.92,0,0,0,.59.22,3.38,3.38,0,0,0,.83.08,4.28,4.28,0,0,0,.84-.08,2.3,2.3,0,0,0,.63-.24,1.27,1.27,0,0,0,.39-.37A.9.9,0,0,0,296.13,202.25ZM294,198.68a1.68,1.68,0,0,0,.62-.1,1.26,1.26,0,0,0,.45-.27,1.17,1.17,0,0,0,.27-.42,1.53,1.53,0,0,0,.09-.54,1.27,1.27,0,0,0-.37-1A1.45,1.45,0,0,0,294,196a1.47,1.47,0,0,0-1.07.36,1.3,1.3,0,0,0-.37,1,1.53,1.53,0,0,0,.1.54,1.17,1.17,0,0,0,.27.42,1.46,1.46,0,0,0,.45.27A1.72,1.72,0,0,0,294,198.68Z"/><line class="cls-2" x1="64.13" y1="118.6" x2="64.13" y2="150.38"/><line class="cls-2" x1="157.51" y1="118.79" x2="157.51" y2="150.58"/><path d="M90.06,139.61H88.94a.56.56,0,0,1-.51-.27L86,136a.68.68,0,0,0-.23-.22.84.84,0,0,0-.4-.07h-.95v3.89H83.17v-9.32h2.64a5.71,5.71,0,0,1,1.52.18,2.89,2.89,0,0,1,1.07.52,2.15,2.15,0,0,1,.62.81,2.83,2.83,0,0,1,.2,1.07,2.6,2.6,0,0,1-.16.93,2.4,2.4,0,0,1-.45.77,3,3,0,0,1-.72.58,3.61,3.61,0,0,1-1,.36,1.22,1.22,0,0,1,.42.4Zm-4.31-4.81a3.16,3.16,0,0,0,1-.13,1.89,1.89,0,0,0,.7-.38,1.55,1.55,0,0,0,.43-.58A2,2,0,0,0,88,133a1.47,1.47,0,0,0-.55-1.25,2.65,2.65,0,0,0-1.63-.42H84.43v3.51Z"/><path d="M96,138.68a2,2,0,0,1-.51.46,3.44,3.44,0,0,1-.64.31,5.56,5.56,0,0,1-.7.19,4.59,4.59,0,0,1-.73.06,3.39,3.39,0,0,1-1.25-.23,2.78,2.78,0,0,1-1-.68,3,3,0,0,1-.65-1.1,4.39,4.39,0,0,1-.24-1.51,3.88,3.88,0,0,1,.22-1.29,3.1,3.1,0,0,1,.6-1,2.69,2.69,0,0,1,1-.69,3.13,3.13,0,0,1,1.29-.25,2.78,2.78,0,0,1,1.09.2,2.35,2.35,0,0,1,.87.57,2.63,2.63,0,0,1,.58.92,3.49,3.49,0,0,1,.21,1.25.77.77,0,0,1-.06.37.24.24,0,0,1-.22.09h-4.4a3.76,3.76,0,0,0,.17,1.08,2,2,0,0,0,.43.77,1.58,1.58,0,0,0,.65.46,2.06,2.06,0,0,0,.84.16,2.72,2.72,0,0,0,.75-.1,4.19,4.19,0,0,0,.55-.22l.38-.22a.45.45,0,0,1,.26-.1.27.27,0,0,1,.22.11ZM95,135.6a2.17,2.17,0,0,0-.12-.74,1.51,1.51,0,0,0-.33-.58,1.47,1.47,0,0,0-.53-.38,1.73,1.73,0,0,0-.71-.13,1.78,1.78,0,0,0-1.31.48,2.32,2.32,0,0,0-.6,1.35Z"/><path d="M101.32,134.11a.26.26,0,0,1-.24.14.43.43,0,0,1-.22-.07l-.3-.16a2.61,2.61,0,0,0-.43-.16,2,2,0,0,0-.58-.08,1.74,1.74,0,0,0-.53.08,1.36,1.36,0,0,0-.4.2.87.87,0,0,0-.25.3.82.82,0,0,0-.09.38.64.64,0,0,0,.14.42,1.32,1.32,0,0,0,.39.29,2.52,2.52,0,0,0,.55.22l.63.2a6.62,6.62,0,0,1,.62.24,2.27,2.27,0,0,1,.55.32,1.37,1.37,0,0,1,.38.48,1.45,1.45,0,0,1,.15.68,2.06,2.06,0,0,1-.16.84,1.88,1.88,0,0,1-.48.67,2.38,2.38,0,0,1-.78.45,3.21,3.21,0,0,1-1.07.16,3.35,3.35,0,0,1-1.25-.22,3.1,3.1,0,0,1-1-.58l.28-.44a.3.3,0,0,1,.12-.13.35.35,0,0,1,.18-.05.45.45,0,0,1,.25.09,3.58,3.58,0,0,0,.32.21,2.4,2.4,0,0,0,.45.2,2.1,2.1,0,0,0,.66.09,1.74,1.74,0,0,0,.59-.09,1.22,1.22,0,0,0,.42-.24.81.81,0,0,0,.25-.34,1,1,0,0,0,.09-.42.68.68,0,0,0-.15-.45,1.19,1.19,0,0,0-.39-.3,3.14,3.14,0,0,0-.55-.23l-.63-.19q-.31-.1-.63-.24a2.2,2.2,0,0,1-.55-.34,1.41,1.41,0,0,1-.38-.49,1.59,1.59,0,0,1-.15-.72,1.72,1.72,0,0,1,.16-.73,1.76,1.76,0,0,1,.45-.61,2.51,2.51,0,0,1,.74-.42,3,3,0,0,1,1-.15,3.34,3.34,0,0,1,1.17.2,2.83,2.83,0,0,1,.89.57Z"/><path d="M108.46,138.68a2.29,2.29,0,0,1-.52.46,3.44,3.44,0,0,1-.64.31,5.13,5.13,0,0,1-.7.19,4.46,4.46,0,0,1-.72.06,3.4,3.4,0,0,1-1.26-.23,2.87,2.87,0,0,1-1-.68,3.31,3.31,0,0,1-.65-1.1,4.65,4.65,0,0,1-.23-1.51,3.88,3.88,0,0,1,.21-1.29,3,3,0,0,1,.61-1,2.53,2.53,0,0,1,1-.69,3.11,3.11,0,0,1,1.28-.25,2.83,2.83,0,0,1,1.1.2,2.53,2.53,0,0,1,.87.57,2.76,2.76,0,0,1,.57.92,3.49,3.49,0,0,1,.21,1.25.77.77,0,0,1-.06.37.24.24,0,0,1-.22.09h-4.4a3.76,3.76,0,0,0,.17,1.08,2.27,2.27,0,0,0,.43.77,1.65,1.65,0,0,0,.65.46,2.06,2.06,0,0,0,.84.16,2.8,2.8,0,0,0,.76-.1,3.54,3.54,0,0,0,.54-.22,3.9,3.9,0,0,0,.38-.22.48.48,0,0,1,.26-.1.25.25,0,0,1,.22.11Zm-.94-3.08a2.45,2.45,0,0,0-.11-.74,1.83,1.83,0,0,0-.33-.58,1.66,1.66,0,0,0-.53-.38,2,2,0,0,0-2,.35,2.32,2.32,0,0,0-.6,1.35Z"/><path d="M111.08,134.34a2.85,2.85,0,0,1,.76-1.05,1.68,1.68,0,0,1,1.12-.39,1.83,1.83,0,0,1,.4,0,1.28,1.28,0,0,1,.34.14l-.09.87a.18.18,0,0,1-.19.16,1.16,1.16,0,0,1-.27,0,2.35,2.35,0,0,0-.4,0,1.59,1.59,0,0,0-.55.09,1.34,1.34,0,0,0-.44.27,2,2,0,0,0-.34.45,3.36,3.36,0,0,0-.28.6v4.16H110V133h.66a.4.4,0,0,1,.26.07.45.45,0,0,1,.1.25Z"/><path d="M120.35,133l-2.68,6.59h-1L113.94,133h1a.42.42,0,0,1,.23.07.38.38,0,0,1,.12.17l1.67,4.24c.06.16.1.32.14.47s.08.3.11.45c0-.15.07-.3.11-.45s.09-.31.14-.47l1.7-4.24a.3.3,0,0,1,.13-.17.31.31,0,0,1,.21-.07Z"/><path d="M126.58,138.68a2,2,0,0,1-.51.46,3.78,3.78,0,0,1-.64.31,5.71,5.71,0,0,1-.71.19,4.37,4.37,0,0,1-.72.06,3.4,3.4,0,0,1-1.26-.23,2.83,2.83,0,0,1-1-.68,3.16,3.16,0,0,1-.66-1.1,4.65,4.65,0,0,1-.23-1.51,3.88,3.88,0,0,1,.21-1.29,3,3,0,0,1,.61-1,2.61,2.61,0,0,1,1-.69,3.11,3.11,0,0,1,1.28-.25,2.83,2.83,0,0,1,1.1.2,2.44,2.44,0,0,1,.87.57,2.63,2.63,0,0,1,.58.92,3.72,3.72,0,0,1,.2,1.25.77.77,0,0,1-.06.37c0,.06-.11.09-.22.09H122a3.74,3.74,0,0,0,.18,1.08,2.1,2.1,0,0,0,.42.77,1.65,1.65,0,0,0,.65.46,2.08,2.08,0,0,0,.85.16,2.72,2.72,0,0,0,.75-.1,3.54,3.54,0,0,0,.54-.22,3.9,3.9,0,0,0,.38-.22.48.48,0,0,1,.26-.1.25.25,0,0,1,.22.11Zm-.94-3.08a2.17,2.17,0,0,0-.11-.74,1.83,1.83,0,0,0-.33-.58,1.56,1.56,0,0,0-.53-.38,1.8,1.8,0,0,0-.71-.13,1.82,1.82,0,0,0-1.32.48,2.32,2.32,0,0,0-.6,1.35Z"/><path d="M133.55,130v9.58h-.69a.29.29,0,0,1-.31-.24l-.11-.8a3.74,3.74,0,0,1-1,.82,2.54,2.54,0,0,1-1.25.31,2.42,2.42,0,0,1-1-.22,2.21,2.21,0,0,1-.79-.64,3,3,0,0,1-.5-1.05,5.33,5.33,0,0,1-.18-1.45,4.56,4.56,0,0,1,.2-1.36,3.22,3.22,0,0,1,.56-1.09,2.61,2.61,0,0,1,2.08-1,2.35,2.35,0,0,1,1,.21,2.53,2.53,0,0,1,.77.57V130Zm-1.16,4.56a2,2,0,0,0-.7-.61,2.08,2.08,0,0,0-.85-.17,1.68,1.68,0,0,0-1.41.65,3.09,3.09,0,0,0-.49,1.88,5,5,0,0,0,.11,1.1,2.07,2.07,0,0,0,.32.75,1.28,1.28,0,0,0,.53.43,1.64,1.64,0,0,0,.71.14,1.93,1.93,0,0,0,1-.26,3,3,0,0,0,.78-.73Z"/><path d="M164.32,127.51a1.48,1.48,0,0,0,.61-.12,1.23,1.23,0,0,0,.45-.32,1.39,1.39,0,0,0,.28-.49,1.81,1.81,0,0,0,.1-.63v-3.33h.74V126a2.54,2.54,0,0,1-.15.88,2.17,2.17,0,0,1-.43.7,2.09,2.09,0,0,1-.69.46,2.52,2.52,0,0,1-1.82,0,2.09,2.09,0,0,1-.69-.46,2,2,0,0,1-.43-.7,2.54,2.54,0,0,1-.15-.88v-3.33h.73v3.32a2.08,2.08,0,0,0,.1.63,1.46,1.46,0,0,0,.29.5,1.36,1.36,0,0,0,.45.32A1.48,1.48,0,0,0,164.32,127.51Z"/><path d="M166.67,137.27H166a.35.35,0,0,1-.3-.16l-1.42-2a.43.43,0,0,0-.14-.13.59.59,0,0,0-.23,0h-.56v2.29h-.74v-5.48h1.55a3.35,3.35,0,0,1,.9.11,1.71,1.71,0,0,1,.62.3,1.15,1.15,0,0,1,.37.48,1.69,1.69,0,0,1,0,1.17,1.46,1.46,0,0,1-.27.45,1.78,1.78,0,0,1-.42.35,2.4,2.4,0,0,1-.57.21.75.75,0,0,1,.24.23Zm-2.53-2.83a1.71,1.71,0,0,0,.57-.08,1.08,1.08,0,0,0,.41-.22.94.94,0,0,0,.25-.34,1,1,0,0,0,.08-.44.86.86,0,0,0-.32-.74,1.58,1.58,0,0,0-1-.24h-.81v2.06Z"/><path d="M166.67,143.81v2.1a2.69,2.69,0,0,1-.88.44,3.31,3.31,0,0,1-1,.15,3.51,3.51,0,0,1-1.2-.2,2.63,2.63,0,0,1-.9-.58,2.41,2.41,0,0,1-.58-.88,3,3,0,0,1-.21-1.14,3.21,3.21,0,0,1,.2-1.14,2.49,2.49,0,0,1,1.45-1.46,3.24,3.24,0,0,1,1.16-.2,3.73,3.73,0,0,1,.6,0,2.63,2.63,0,0,1,.52.14,2.6,2.6,0,0,1,.81.5l-.21.34a.23.23,0,0,1-.12.1.25.25,0,0,1-.18,0l-.21-.13a1.92,1.92,0,0,0-.29-.15l-.4-.12a2.87,2.87,0,0,0-.55-.05,2.23,2.23,0,0,0-.83.15,1.83,1.83,0,0,0-.64.44,1.85,1.85,0,0,0-.41.68,2.93,2.93,0,0,0,0,1.82,2,2,0,0,0,.42.69,1.76,1.76,0,0,0,.66.43,2.42,2.42,0,0,0,.88.15,2.38,2.38,0,0,0,.68-.09,2.8,2.8,0,0,0,.58-.23v-1.21h-.86a.15.15,0,0,1-.11,0,.14.14,0,0,1,0-.1v-.42Z"/><path d="M195.65,122.62a3.09,3.09,0,0,1,.91.12,1.65,1.65,0,0,1,.63.34,1.41,1.41,0,0,1,.38.53,2,2,0,0,1,.12.7,1.75,1.75,0,0,1-.13.7,1.45,1.45,0,0,1-.39.55,2,2,0,0,1-.64.36,2.91,2.91,0,0,1-.88.13h-.88v2H194v-5.47Zm0,2.84a1.6,1.6,0,0,0,.56-.09,1.09,1.09,0,0,0,.41-.23.9.9,0,0,0,.25-.36,1.19,1.19,0,0,0,.09-.47,1,1,0,0,0-.33-.81,1.39,1.39,0,0,0-1-.3h-.88v2.26Z"/><path d="M197,132.65a.27.27,0,0,1-.07.08.17.17,0,0,1-.1,0,.29.29,0,0,1-.15-.06,1.39,1.39,0,0,0-.22-.15,1.61,1.61,0,0,0-.32-.14,1.42,1.42,0,0,0-.45-.07,1.38,1.38,0,0,0-.43.07,1.07,1.07,0,0,0-.32.18.7.7,0,0,0-.19.27.8.8,0,0,0-.07.34.66.66,0,0,0,.11.38,1.05,1.05,0,0,0,.3.25,2,2,0,0,0,.42.19l.48.16.49.19a1.88,1.88,0,0,1,.42.27,1.14,1.14,0,0,1,.29.39,1.26,1.26,0,0,1,.12.57,1.72,1.72,0,0,1-.13.68,1.67,1.67,0,0,1-.35.55,1.63,1.63,0,0,1-.58.36,2.13,2.13,0,0,1-.78.14,2.54,2.54,0,0,1-1-.19,2.22,2.22,0,0,1-.74-.53l.21-.35.07-.07a.19.19,0,0,1,.1,0,.3.3,0,0,1,.11,0l.15.1.18.14a1.36,1.36,0,0,0,.24.13,1.05,1.05,0,0,0,.3.1,1.48,1.48,0,0,0,.38,0,1.31,1.31,0,0,0,.46-.07,1.25,1.25,0,0,0,.36-.2,1.21,1.21,0,0,0,.22-.32,1.07,1.07,0,0,0,.07-.41.76.76,0,0,0-.11-.41,1.08,1.08,0,0,0-.3-.26,2,2,0,0,0-.42-.18l-.48-.16a4.68,4.68,0,0,1-.48-.18,1.75,1.75,0,0,1-.42-.26,1.33,1.33,0,0,1-.3-.42,1.51,1.51,0,0,1-.11-.61,1.55,1.55,0,0,1,.11-.56,1.58,1.58,0,0,1,.33-.48,1.67,1.67,0,0,1,.53-.34,2,2,0,0,1,.73-.12,2.45,2.45,0,0,1,.83.14,2.06,2.06,0,0,1,.66.42Z"/><path d="M197.75,141v5.48H197V144h-2.95v2.49h-.74V141h.74v2.45H197V141Z"/><path d="M213.31,128.09h-.66a.34.34,0,0,1-.3-.15l-1.42-2a.43.43,0,0,0-.14-.13.47.47,0,0,0-.23,0H210v2.28h-.74v-5.47h1.55a3.44,3.44,0,0,1,.9.1,1.57,1.57,0,0,1,.62.31,1.15,1.15,0,0,1,.37.48,1.52,1.52,0,0,1,.12.62,1.63,1.63,0,0,1-.1.55,1.43,1.43,0,0,1-.26.45,1.62,1.62,0,0,1-.43.34,1.87,1.87,0,0,1-.56.22.75.75,0,0,1,.24.23Zm-2.53-2.82a2,2,0,0,0,.57-.08,1.08,1.08,0,0,0,.41-.22,1,1,0,0,0,.25-.34,1,1,0,0,0,.08-.44.86.86,0,0,0-.32-.74,1.51,1.51,0,0,0-1-.25H210v2.07Z"/><path d="M212.38,132.65a.27.27,0,0,1-.07.08.17.17,0,0,1-.1,0,.29.29,0,0,1-.15-.06,1.39,1.39,0,0,0-.22-.15,1.61,1.61,0,0,0-.32-.14,1.42,1.42,0,0,0-.45-.07,1.5,1.5,0,0,0-.44.07,1.15,1.15,0,0,0-.31.18.86.86,0,0,0-.2.27,1,1,0,0,0-.06.34.66.66,0,0,0,.11.38,1.05,1.05,0,0,0,.3.25,1.62,1.62,0,0,0,.42.19l.48.16c.17.06.33.12.48.19a1.51,1.51,0,0,1,.42.27,1,1,0,0,1,.3.39,1.26,1.26,0,0,1,.12.57,1.91,1.91,0,0,1-.13.68,1.67,1.67,0,0,1-.35.55,1.63,1.63,0,0,1-.58.36,2.13,2.13,0,0,1-.78.14,2.5,2.5,0,0,1-1-.19,2.37,2.37,0,0,1-.75-.53l.22-.35.07-.07a.19.19,0,0,1,.1,0,.3.3,0,0,1,.11,0l.15.1.18.14a1.36,1.36,0,0,0,.24.13,1.05,1.05,0,0,0,.3.1,1.4,1.4,0,0,0,.37,0,1.33,1.33,0,0,0,.47-.07,1.07,1.07,0,0,0,.35-.2.87.87,0,0,0,.22-.32,1.07,1.07,0,0,0,.08-.41.76.76,0,0,0-.11-.41,1.08,1.08,0,0,0-.3-.26,2,2,0,0,0-.42-.18l-.48-.16a4.68,4.68,0,0,1-.48-.18,1.75,1.75,0,0,1-.42-.26,1.33,1.33,0,0,1-.3-.42,1.51,1.51,0,0,1-.11-.61,1.55,1.55,0,0,1,.11-.56,1.58,1.58,0,0,1,.33-.48,1.67,1.67,0,0,1,.53-.34,2,2,0,0,1,.73-.12,2.45,2.45,0,0,1,.83.14,2.06,2.06,0,0,1,.66.42Z"/><path d="M213.22,141.59h-1.78v4.85h-.74v-4.85h-1.77V141h4.29Z"/><path d="M241.71,123.22v1.92H244v.6h-2.25v2.35H241v-5.47h3.38v.6Z"/><path d="M242.71,137.27H242v-5.48h.74Z"/><path d="M244.56,141v5.48h-.37a.33.33,0,0,1-.15,0,.53.53,0,0,1-.12-.1l-3.17-4.13c0,.06,0,.12,0,.19v4.07h-.65V141h.47l.06,0,0,0a.17.17,0,0,1,.06.06l3.17,4.12c0-.06,0-.13,0-.19V141Z"/><line class="cls-2" x1="172.8" y1="118.39" x2="172.8" y2="150.17"/><line class="cls-2" x1="188.44" y1="118.69" x2="188.44" y2="150.48"/><line class="cls-2" x1="203.11" y1="118.38" x2="203.11" y2="150.16"/><line class="cls-2" x1="218.39" y1="118.64" x2="218.39" y2="150.43"/><line class="cls-2" x1="234.29" y1="118.87" x2="234.29" y2="150.65"/><path d="M353.11,130.29l-2.91,9.32h-1.13l-2.36-7.11-.06-.22-.06-.25c0,.09,0,.17-.07.25l-.06.22-2.38,7.11H343l-2.9-9.32h1a.46.46,0,0,1,.29.09.34.34,0,0,1,.14.21l1.93,6.47c0,.12.06.25.08.38s.06.28.08.43c0-.15.07-.29.1-.43a3.44,3.44,0,0,1,.11-.38l2.19-6.47a.39.39,0,0,1,.15-.2.4.4,0,0,1,.28-.1h.36a.4.4,0,0,1,.27.09.42.42,0,0,1,.16.21l2.18,6.47c0,.12.08.24.11.37l.09.41c0-.14.05-.28.08-.41s.05-.25.08-.37l1.93-6.47a.38.38,0,0,1,.15-.21.42.42,0,0,1,.27-.09Z"/><path d="M355.65,131a.82.82,0,0,1-.07.31,1.2,1.2,0,0,1-.18.26.8.8,0,0,1-.27.18.88.88,0,0,1-.64,0,.72.72,0,0,1-.25-.18.76.76,0,0,1-.18-.26A.81.81,0,0,1,354,131a.88.88,0,0,1,.06-.33.68.68,0,0,1,.18-.26.72.72,0,0,1,.25-.18.77.77,0,0,1,.64,0,.8.8,0,0,1,.27.18,1,1,0,0,1,.18.26A.88.88,0,0,1,355.65,131ZM355.4,133v6.59h-1.16V133Z"/><path d="M358.39,134a3.19,3.19,0,0,1,.46-.44,2.78,2.78,0,0,1,.51-.33,2.18,2.18,0,0,1,.57-.22,2.7,2.7,0,0,1,.65-.07,2.33,2.33,0,0,1,.95.18,1.76,1.76,0,0,1,.69.5,2.14,2.14,0,0,1,.42.79,3.31,3.31,0,0,1,.14,1v4.2h-1.16v-4.2a1.78,1.78,0,0,0-.34-1.16,1.28,1.28,0,0,0-1-.41,1.91,1.91,0,0,0-1,.25,3.18,3.18,0,0,0-.82.67v4.85H357.3V133H358a.29.29,0,0,1,.31.24Z"/><path d="M370,130v9.58h-.69a.29.29,0,0,1-.31-.24l-.11-.8a3.74,3.74,0,0,1-1,.82,2.52,2.52,0,0,1-1.25.31,2.42,2.42,0,0,1-1-.22,2.21,2.21,0,0,1-.79-.64,3,3,0,0,1-.5-1.05,5.33,5.33,0,0,1-.18-1.45,4.56,4.56,0,0,1,.2-1.36,3.4,3.4,0,0,1,.56-1.09,2.61,2.61,0,0,1,2.08-1,2.35,2.35,0,0,1,1,.21,2.53,2.53,0,0,1,.77.57V130Zm-1.16,4.56a1.88,1.88,0,0,0-.7-.61,2.08,2.08,0,0,0-.85-.17,1.68,1.68,0,0,0-1.41.65,3.16,3.16,0,0,0-.49,1.88,5,5,0,0,0,.11,1.1,1.92,1.92,0,0,0,.33.75,1.2,1.2,0,0,0,.52.43,1.64,1.64,0,0,0,.71.14,1.91,1.91,0,0,0,1-.26,3,3,0,0,0,.78-.73Z"/><path d="M374.61,132.92a3.38,3.38,0,0,1,1.3.24,2.77,2.77,0,0,1,1.61,1.75,4.15,4.15,0,0,1,.22,1.4,4.07,4.07,0,0,1-.22,1.4,2.9,2.9,0,0,1-.62,1.07,2.83,2.83,0,0,1-1,.68,3.67,3.67,0,0,1-2.61,0,2.66,2.66,0,0,1-1-.68,2.79,2.79,0,0,1-.63-1.07,4.07,4.07,0,0,1-.22-1.4,4.15,4.15,0,0,1,.22-1.4,2.86,2.86,0,0,1,.63-1.07,2.78,2.78,0,0,1,1-.68A3.36,3.36,0,0,1,374.61,132.92Zm0,5.87a1.66,1.66,0,0,0,1.45-.65,3,3,0,0,0,.48-1.82,3.07,3.07,0,0,0-.48-1.84,1.69,1.69,0,0,0-1.45-.65,1.91,1.91,0,0,0-.86.17,1.62,1.62,0,0,0-.62.48,2.3,2.3,0,0,0-.36.79,4.21,4.21,0,0,0-.12,1,3,3,0,0,0,.48,1.82A1.72,1.72,0,0,0,374.61,138.79Z"/><path d="M388.19,133l-2.14,6.59h-.91c-.12,0-.19-.08-.24-.22l-1.45-4.47a1.71,1.71,0,0,1-.09-.3l-.06-.3c0,.1-.05.2-.07.3s-.05.2-.08.31l-1.48,4.46a.26.26,0,0,1-.26.22h-.88L378.4,133h.91a.42.42,0,0,1,.23.07.34.34,0,0,1,.13.17l1.26,4.24c.07.31.13.61.18.88l.12-.43c0-.15.08-.3.13-.45l1.39-4.26a.39.39,0,0,1,.11-.17.36.36,0,0,1,.2-.06h.51a.33.33,0,0,1,.21.06.33.33,0,0,1,.12.17l1.36,4.26c.05.15.09.3.13.45s.08.29.11.43c0-.14.05-.28.08-.43s.07-.29.11-.45l1.29-4.24a.33.33,0,0,1,.12-.17.31.31,0,0,1,.21-.07Z"/><path d="M396.21,134.11a.26.26,0,0,1-.24.14.43.43,0,0,1-.22-.07l-.3-.16a2.61,2.61,0,0,0-.43-.16,2,2,0,0,0-.58-.08,1.74,1.74,0,0,0-.53.08,1.5,1.5,0,0,0-.4.2,1,1,0,0,0-.25.3.82.82,0,0,0-.09.38.6.6,0,0,0,.15.42,1.16,1.16,0,0,0,.38.29,2.74,2.74,0,0,0,.55.22l.63.2a6.62,6.62,0,0,1,.62.24,2.27,2.27,0,0,1,.55.32,1.53,1.53,0,0,1,.39.48,1.59,1.59,0,0,1,.14.68,2.06,2.06,0,0,1-.16.84,1.88,1.88,0,0,1-.48.67,2.29,2.29,0,0,1-.78.45,3.17,3.17,0,0,1-1.07.16,3.26,3.26,0,0,1-1.24-.22,3,3,0,0,1-1-.58l.27-.44a.38.38,0,0,1,.12-.13.36.36,0,0,1,.19-.05.42.42,0,0,1,.24.09,3.58,3.58,0,0,0,.32.21,2.4,2.4,0,0,0,.45.2,2.1,2.1,0,0,0,.66.09,1.74,1.74,0,0,0,.59-.09,1.37,1.37,0,0,0,.43-.24,1,1,0,0,0,.25-.34,1.16,1.16,0,0,0,.08-.42.68.68,0,0,0-.15-.45,1.15,1.15,0,0,0-.38-.3,4,4,0,0,0-.55-.23l-.63-.19a5.87,5.87,0,0,1-.63-.24,2,2,0,0,1-.55-.34,1.57,1.57,0,0,1-.39-.49,1.59,1.59,0,0,1-.15-.72,1.72,1.72,0,0,1,.16-.73,1.76,1.76,0,0,1,.45-.61,2.51,2.51,0,0,1,.74-.42,3,3,0,0,1,1-.15,3.26,3.26,0,0,1,1.17.2,2.83,2.83,0,0,1,.89.57Z"/><path d="M399.48,131a.82.82,0,0,1-.07.31,1.2,1.2,0,0,1-.18.26.8.8,0,0,1-.27.18.88.88,0,0,1-.64,0,.64.64,0,0,1-.25-.18.76.76,0,0,1-.18-.26.82.82,0,0,1-.07-.31.88.88,0,0,1,.07-.33.68.68,0,0,1,.18-.26.64.64,0,0,1,.25-.18.77.77,0,0,1,.64,0,.8.8,0,0,1,.27.18,1,1,0,0,1,.18.26A.88.88,0,0,1,399.48,131Zm-.25,2.06v6.59h-1.16V133Z"/><path d="M405.67,133.52a.67.67,0,0,1,0,.24.82.82,0,0,1-.12.2L402,138.7h3.6v.91h-5v-.48a.51.51,0,0,1,0-.2.65.65,0,0,1,.11-.22l3.59-4.78h-3.54V133h4.88Z"/><path d="M412.22,138.68a2,2,0,0,1-.51.46,3.44,3.44,0,0,1-.64.31,5.28,5.28,0,0,1-.71.19,4.37,4.37,0,0,1-.72.06,3.48,3.48,0,0,1-1.26-.23,2.83,2.83,0,0,1-1-.68,3,3,0,0,1-.65-1.1,4.39,4.39,0,0,1-.24-1.51,3.88,3.88,0,0,1,.21-1.29,3.13,3.13,0,0,1,.61-1,2.69,2.69,0,0,1,1-.69,3.13,3.13,0,0,1,1.29-.25,2.78,2.78,0,0,1,1.09.2,2.35,2.35,0,0,1,.87.57,2.63,2.63,0,0,1,.58.92,3.49,3.49,0,0,1,.21,1.25.77.77,0,0,1-.06.37.24.24,0,0,1-.22.09h-4.4a3.76,3.76,0,0,0,.17,1.08,2.1,2.1,0,0,0,.42.77,1.72,1.72,0,0,0,.65.46,2.15,2.15,0,0,0,.85.16,2.72,2.72,0,0,0,.75-.1,3.54,3.54,0,0,0,.54-.22,3.9,3.9,0,0,0,.38-.22.48.48,0,0,1,.27-.1.27.27,0,0,1,.22.11Zm-.93-3.08a2.17,2.17,0,0,0-.12-.74,1.51,1.51,0,0,0-.33-.58,1.47,1.47,0,0,0-.53-.38,2,2,0,0,0-2,.35,2.2,2.2,0,0,0-.6,1.35Z"/><path d="M182.49,128.09h-.57a.21.21,0,0,1-.16-.05.27.27,0,0,1-.09-.12l-.52-1.32H178.7l-.52,1.32a.28.28,0,0,1-.08.12.24.24,0,0,1-.16.05h-.58l2.19-5.47h.75Zm-1.54-2-.86-2.23a1,1,0,0,1-.08-.23,2.29,2.29,0,0,1-.08-.28,4.55,4.55,0,0,1-.17.52l-.86,2.22Z"/><path d="M181.79,136.14a.13.13,0,0,1,.11.05l.29.31a2.23,2.23,0,0,1-.81.61,2.73,2.73,0,0,1-1.16.22,2.62,2.62,0,0,1-1.07-.21,2.2,2.2,0,0,1-.83-.57,2.66,2.66,0,0,1-.52-.88,3.25,3.25,0,0,1-.19-1.14,3.15,3.15,0,0,1,.19-1.13,2.68,2.68,0,0,1,.55-.89,2.52,2.52,0,0,1,.85-.58,2.94,2.94,0,0,1,1.09-.2,2.56,2.56,0,0,1,1,.19,2.59,2.59,0,0,1,.79.5l-.25.34a.13.13,0,0,1-.06.07l-.09,0a.27.27,0,0,1-.17-.07,2.36,2.36,0,0,0-.26-.17,2.21,2.21,0,0,0-.4-.16,2,2,0,0,0-.6-.08,1.92,1.92,0,0,0-.77.15,1.75,1.75,0,0,0-.61.42,2,2,0,0,0-.39.68,2.6,2.6,0,0,0-.14.91,2.56,2.56,0,0,0,.14.91,2,2,0,0,0,.4.68,1.56,1.56,0,0,0,.6.42,1.86,1.86,0,0,0,.75.15,2.94,2.94,0,0,0,.44,0,2.22,2.22,0,0,0,.37-.09,1.77,1.77,0,0,0,.31-.15,2.83,2.83,0,0,0,.28-.23A.18.18,0,0,1,181.79,136.14Z"/><path d="M178.7,143.36H179a.78.78,0,0,0,.24,0,.61.61,0,0,0,.16-.13l1.82-2.06a.42.42,0,0,1,.16-.14.6.6,0,0,1,.21,0h.62l-2.08,2.36-.15.15-.15.1a.52.52,0,0,1,.18.1.91.91,0,0,1,.17.17l2.18,2.6h-.77l-.09,0-.07-.05,0-.07-1.89-2.17a.42.42,0,0,0-.16-.14.85.85,0,0,0-.27,0h-.34v2.51H178V141h.73Z"/><path d="M227.81,123.47a.22.22,0,0,1-.07.09.17.17,0,0,1-.1,0,.25.25,0,0,1-.15-.07l-.22-.14a1.92,1.92,0,0,0-.32-.14,1.18,1.18,0,0,0-.45-.07,1.23,1.23,0,0,0-.44.07.79.79,0,0,0-.31.18.86.86,0,0,0-.2.27.88.88,0,0,0-.06.33.63.63,0,0,0,.11.38,1.08,1.08,0,0,0,.3.26,2,2,0,0,0,.42.19l.48.16c.17.06.33.12.48.19a1.75,1.75,0,0,1,.42.26,1.08,1.08,0,0,1,.3.4,1.23,1.23,0,0,1,.11.57,1.91,1.91,0,0,1-.12.68,1.53,1.53,0,0,1-.35.54,1.65,1.65,0,0,1-.58.37,2.13,2.13,0,0,1-.78.14,2.38,2.38,0,0,1-1.72-.72l.22-.35.07-.07a.17.17,0,0,1,.1,0,.19.19,0,0,1,.11,0l.15.1a1.4,1.4,0,0,0,.18.13l.23.14a1.89,1.89,0,0,0,.31.1,1.4,1.4,0,0,0,.37,0,1.33,1.33,0,0,0,.47-.07.93.93,0,0,0,.35-.21.84.84,0,0,0,.22-.31,1.07,1.07,0,0,0,.08-.41.73.73,0,0,0-.11-.41,1.08,1.08,0,0,0-.3-.26,1.62,1.62,0,0,0-.42-.19l-.48-.15a3.94,3.94,0,0,1-.48-.18,1.51,1.51,0,0,1-.42-.27,1.15,1.15,0,0,1-.3-.41,1.61,1.61,0,0,1,0-1.17,1.58,1.58,0,0,1,.33-.48,1.67,1.67,0,0,1,.53-.34,2,2,0,0,1,.72-.12,2.25,2.25,0,0,1,.84.14,2.06,2.06,0,0,1,.66.42Z"/><path d="M226.91,135.08v2.19h-.74v-2.19l-2-3.29h.65a.28.28,0,0,1,.16.05.38.38,0,0,1,.09.12l1.26,2.13c0,.09.09.17.12.25a1.22,1.22,0,0,1,.1.24,2.44,2.44,0,0,1,.1-.24,1.87,1.87,0,0,1,.12-.25L228,132a.47.47,0,0,1,.09-.12.28.28,0,0,1,.16-.05h.65Z"/><path d="M228.6,141v5.48h-.37a.29.29,0,0,1-.14,0,.53.53,0,0,1-.12-.1l-3.17-4.13a1.15,1.15,0,0,1,0,.19,1,1,0,0,1,0,.17v3.9h-.65V141h.46a.08.08,0,0,1,.06,0l.06,0s0,0,.06.06l3.16,4.12c0-.06,0-.13,0-.19s0-.12,0-.18V141Z"/><path class="cls-8" d="M180.87,107.69h-1a.41.41,0,0,1-.28-.08.57.57,0,0,1-.15-.22l-.87-2.24h-4.18l-.87,2.24a.51.51,0,0,1-.15.21.45.45,0,0,1-.28.09h-1l3.72-9.31h1.28Zm-2.62-3.45-1.47-3.79-.13-.4c-.05-.15-.1-.31-.14-.48a5.76,5.76,0,0,1-.28.88l-1.46,3.79Z"/><path class="cls-8" d="M186.24,102.28l-.11.11a.2.2,0,0,1-.14,0,.42.42,0,0,1-.22-.08,1.46,1.46,0,0,0-.29-.18,1.65,1.65,0,0,0-.42-.18,2.3,2.3,0,0,0-1.47.09,1.68,1.68,0,0,0-.62.5,2.27,2.27,0,0,0-.38.78,4.17,4.17,0,0,0-.13,1,3.78,3.78,0,0,0,.14,1.06,2.2,2.2,0,0,0,.39.78,1.72,1.72,0,0,0,.6.48,1.88,1.88,0,0,0,.8.17,1.9,1.9,0,0,0,1.15-.33l.3-.22a.34.34,0,0,1,.23-.1.23.23,0,0,1,.22.11l.33.42a2.37,2.37,0,0,1-.49.46,3,3,0,0,1-.59.31,3.58,3.58,0,0,1-.66.19,5.36,5.36,0,0,1-.7,0,2.94,2.94,0,0,1-1.15-.22,2.6,2.6,0,0,1-.92-.66,3.19,3.19,0,0,1-.61-1.07,4.47,4.47,0,0,1-.22-1.43,4.26,4.26,0,0,1,.21-1.36,3,3,0,0,1,.59-1.08,2.84,2.84,0,0,1,1-.7,3.29,3.29,0,0,1,1.33-.26,3.09,3.09,0,0,1,1.22.23,3,3,0,0,1,.94.63Z"/><path class="cls-8" d="M189,98.12v5.63h.3a.69.69,0,0,0,.22,0,.59.59,0,0,0,.19-.15l2.08-2.23a.75.75,0,0,1,.19-.17.54.54,0,0,1,.27-.06h1l-2.42,2.58a1.33,1.33,0,0,1-.38.34l.21.18a1.3,1.3,0,0,1,.18.23l2.58,3.25h-1a.49.49,0,0,1-.25,0,.39.39,0,0,1-.19-.17l-2.16-2.7a.62.62,0,0,0-.19-.18.75.75,0,0,0-.29,0H189v3.14h-1.16V98.12Z"/><path class="cls-8" d="M195.56,102.06a3.64,3.64,0,0,1,.45-.43,3.48,3.48,0,0,1,.51-.34,2.78,2.78,0,0,1,.57-.21,2.71,2.71,0,0,1,.66-.08,2.37,2.37,0,0,1,.95.18,1.94,1.94,0,0,1,.69.51,2.38,2.38,0,0,1,.42.79,3.64,3.64,0,0,1,.14,1v4.19h-1.16V103.5a1.82,1.82,0,0,0-.34-1.16,1.3,1.3,0,0,0-1-.41,2,2,0,0,0-1,.24,3.22,3.22,0,0,0-.82.67v4.85h-1.17v-6.58h.7a.29.29,0,0,1,.31.24Z"/><path class="cls-8" d="M204.49,101a3.17,3.17,0,0,1,1.3.25,2.66,2.66,0,0,1,1,.68,3.06,3.06,0,0,1,.63,1.07,4.37,4.37,0,0,1,.22,1.4,4.33,4.33,0,0,1-.22,1.4,3.16,3.16,0,0,1-.63,1.07,2.78,2.78,0,0,1-1,.68,3.35,3.35,0,0,1-1.3.23,3.43,3.43,0,0,1-1.31-.23,2.77,2.77,0,0,1-1.61-1.75,4.56,4.56,0,0,1,0-2.8,2.9,2.9,0,0,1,.62-1.07,2.83,2.83,0,0,1,1-.68A3.26,3.26,0,0,1,204.49,101Zm0,5.88a1.71,1.71,0,0,0,1.46-.65,3.73,3.73,0,0,0,0-3.66,1.68,1.68,0,0,0-1.46-.65,2.1,2.1,0,0,0-.86.16,1.72,1.72,0,0,0-.61.49,2.16,2.16,0,0,0-.36.78,4.21,4.21,0,0,0-.12,1.05,3.06,3.06,0,0,0,.48,1.83A1.72,1.72,0,0,0,204.49,106.88Z"/><path class="cls-8" d="M218.07,101.11l-2.13,6.58H215c-.11,0-.19-.07-.23-.22L213.33,103a2.81,2.81,0,0,1-.08-.31c0-.1,0-.2-.07-.3l-.06.3a1.58,1.58,0,0,1-.09.31l-1.48,4.46a.25.25,0,0,1-.26.22h-.87l-2.13-6.58h.91a.35.35,0,0,1,.23.07.43.43,0,0,1,.13.17l1.26,4.24c.07.31.13.6.17.88l.12-.43c0-.15.09-.3.14-.45l1.39-4.27a.36.36,0,0,1,.11-.16.34.34,0,0,1,.2-.06h.51a.37.37,0,0,1,.21.06.31.31,0,0,1,.12.16l1.36,4.27c0,.15.09.3.13.45s.07.29.11.43c0-.14.05-.29.08-.43s.07-.3.11-.45l1.28-4.24a.37.37,0,0,1,.34-.24Z"/><path class="cls-8" d="M220.4,98.12v9.57h-1.16V98.12Z"/><path class="cls-8" d="M227.61,106.77a2.22,2.22,0,0,1-.51.45,3,3,0,0,1-.64.32,4.1,4.1,0,0,1-.71.18,4.37,4.37,0,0,1-.72.06,3.2,3.2,0,0,1-1.25-.23,2.75,2.75,0,0,1-1-.67,3.09,3.09,0,0,1-.65-1.1,4.39,4.39,0,0,1-.24-1.51,3.64,3.64,0,0,1,.22-1.29,3.15,3.15,0,0,1,.6-1,3,3,0,0,1,1-.69A3.3,3.3,0,0,1,225,101a3,3,0,0,1,1.09.2,2.63,2.63,0,0,1,.87.57,2.58,2.58,0,0,1,.58.93,3.45,3.45,0,0,1,.21,1.25.72.72,0,0,1-.06.36.24.24,0,0,1-.22.09H223a3.84,3.84,0,0,0,.17,1.09,2.06,2.06,0,0,0,.43.77,1.58,1.58,0,0,0,.65.46,2.24,2.24,0,0,0,.84.15,2.39,2.39,0,0,0,.75-.1,3.59,3.59,0,0,0,.54-.21,3,3,0,0,0,.38-.22.5.5,0,0,1,.27-.1.24.24,0,0,1,.22.11Zm-.93-3.09a2.11,2.11,0,0,0-.12-.73,1.44,1.44,0,0,0-.33-.58,1.36,1.36,0,0,0-.53-.38,2,2,0,0,0-2,.35,2.29,2.29,0,0,0-.6,1.34Z"/><path class="cls-8" d="M234.58,98.12v9.57h-.69a.29.29,0,0,1-.31-.24l-.1-.8a3.71,3.71,0,0,1-1,.82,2.66,2.66,0,0,1-2.28.1,2.21,2.21,0,0,1-.79-.64,3.36,3.36,0,0,1-.5-1.06,5.71,5.71,0,0,1-.17-1.45,4.54,4.54,0,0,1,.19-1.35,3.4,3.4,0,0,1,.56-1.09,2.57,2.57,0,0,1,.9-.73,2.7,2.7,0,0,1,1.19-.26,2.38,2.38,0,0,1,1,.21,2.3,2.3,0,0,1,.76.57V98.12Zm-1.16,4.56a1.8,1.8,0,0,0-.7-.61,1.91,1.91,0,0,0-.84-.17,1.65,1.65,0,0,0-1.41.65,3.06,3.06,0,0,0-.5,1.87,5.08,5.08,0,0,0,.11,1.11,2.36,2.36,0,0,0,.33.75,1.22,1.22,0,0,0,.53.43,1.71,1.71,0,0,0,.7.14,1.88,1.88,0,0,0,1-.26,2.59,2.59,0,0,0,.78-.74Z"/><path class="cls-8" d="M242,101.37v.43q0,.21-.27.27l-.75.1a2,2,0,0,1,.22,1,2.05,2.05,0,0,1-.18.87,2.13,2.13,0,0,1-.51.67,2.27,2.27,0,0,1-.78.43,3.16,3.16,0,0,1-1,.15,3.05,3.05,0,0,1-.87-.11,1.13,1.13,0,0,0-.32.28.5.5,0,0,0-.11.29.39.39,0,0,0,.19.36,1.33,1.33,0,0,0,.51.17,4.6,4.6,0,0,0,.71.07c.26,0,.54,0,.82,0a6.89,6.89,0,0,1,.81.1,2.54,2.54,0,0,1,.72.23,1.44,1.44,0,0,1,.5.45,1.29,1.29,0,0,1,.19.74,1.72,1.72,0,0,1-.21.82,2.14,2.14,0,0,1-.61.71,3.15,3.15,0,0,1-1,.49,4.27,4.27,0,0,1-1.29.19,4.76,4.76,0,0,1-1.27-.15,2.81,2.81,0,0,1-.89-.38,1.69,1.69,0,0,1-.54-.56,1.31,1.31,0,0,1-.18-.66,1.15,1.15,0,0,1,.31-.82,2,2,0,0,1,.84-.54,1.21,1.21,0,0,1-.47-.35.94.94,0,0,1-.17-.59,1,1,0,0,1,.05-.29,1.53,1.53,0,0,1,.16-.31,1.75,1.75,0,0,1,.26-.29,2,2,0,0,1,.37-.24,2,2,0,0,1-.76-.72,1.92,1.92,0,0,1-.28-1,2.14,2.14,0,0,1,.19-.88,2,2,0,0,1,.52-.67,2.38,2.38,0,0,1,.79-.42,3.18,3.18,0,0,1,1-.15,3.38,3.38,0,0,1,.8.09,2.94,2.94,0,0,1,.68.28Zm-1.17,6.68a.56.56,0,0,0-.14-.39.81.81,0,0,0-.37-.23,2,2,0,0,0-.53-.12c-.21,0-.42,0-.65-.06l-.69,0c-.24,0-.46,0-.68-.06a1.75,1.75,0,0,0-.59.42.84.84,0,0,0-.23.6.78.78,0,0,0,.11.42,1,1,0,0,0,.35.33,1.92,1.92,0,0,0,.59.22,4,4,0,0,0,.83.08,4.28,4.28,0,0,0,.84-.08,2.3,2.3,0,0,0,.63-.24,1.27,1.27,0,0,0,.39-.37A.92.92,0,0,0,240.8,108.05Zm-2.09-3.57a2,2,0,0,0,.62-.1,1.68,1.68,0,0,0,.45-.27,1.17,1.17,0,0,0,.27-.42,1.61,1.61,0,0,0,.09-.54,1.27,1.27,0,0,0-.37-1,1.45,1.45,0,0,0-1.06-.36,1.47,1.47,0,0,0-1.07.36,1.3,1.3,0,0,0-.37,1,1.4,1.4,0,0,0,.1.54,1.17,1.17,0,0,0,.27.42,1.54,1.54,0,0,0,.45.27A2,2,0,0,0,238.71,104.48Z"/><path class="cls-8" d="M248.41,106.77a2.22,2.22,0,0,1-.51.45,3,3,0,0,1-.64.32,4.1,4.1,0,0,1-.71.18,4.37,4.37,0,0,1-.72.06,3.28,3.28,0,0,1-1.26-.23,2.8,2.8,0,0,1-1-.67,3.09,3.09,0,0,1-.65-1.1,4.39,4.39,0,0,1-.24-1.51,3.64,3.64,0,0,1,.22-1.29,3.15,3.15,0,0,1,.6-1,3,3,0,0,1,1-.69,3.3,3.3,0,0,1,1.29-.25,3,3,0,0,1,1.09.2,2.63,2.63,0,0,1,.87.57,2.58,2.58,0,0,1,.58.93,3.45,3.45,0,0,1,.21,1.25.72.72,0,0,1-.06.36.24.24,0,0,1-.22.09h-4.4a3.84,3.84,0,0,0,.17,1.09,2.06,2.06,0,0,0,.43.77,1.58,1.58,0,0,0,.65.46,2.24,2.24,0,0,0,.84.15,2.39,2.39,0,0,0,.75-.1,3.59,3.59,0,0,0,.54-.21,3,3,0,0,0,.38-.22.5.5,0,0,1,.27-.1.24.24,0,0,1,.22.11Zm-.93-3.09a2.11,2.11,0,0,0-.12-.73,1.44,1.44,0,0,0-.33-.58,1.36,1.36,0,0,0-.53-.38,2,2,0,0,0-2,.35,2.23,2.23,0,0,0-.6,1.34Z"/><path class="cls-8" d="M249.93,107.69v-6.58h.7a.29.29,0,0,1,.31.24l.08.68a3.36,3.36,0,0,1,.82-.74,1.92,1.92,0,0,1,1-.29,1.56,1.56,0,0,1,1.08.38,2.07,2.07,0,0,1,.59,1,2.22,2.22,0,0,1,.37-.62,2.08,2.08,0,0,1,1.1-.68,2.74,2.74,0,0,1,.64-.08,2.49,2.49,0,0,1,.93.17,1.75,1.75,0,0,1,.68.48,2.25,2.25,0,0,1,.44.79,3.43,3.43,0,0,1,.15,1.06v4.19H257.7V103.5a1.74,1.74,0,0,0-.34-1.17,1.18,1.18,0,0,0-1-.4,1.4,1.4,0,0,0-.54.1,1.34,1.34,0,0,0-.45.29,1.25,1.25,0,0,0-.31.49,1.85,1.85,0,0,0-.12.69v4.19h-1.16V103.5a1.85,1.85,0,0,0-.32-1.18,1.12,1.12,0,0,0-.93-.39,1.4,1.4,0,0,0-.79.23,2.47,2.47,0,0,0-.67.63v4.9Z"/><path class="cls-8" d="M266,106.77a2.22,2.22,0,0,1-.51.45,3.19,3.19,0,0,1-.64.32,4.41,4.41,0,0,1-1.43.24,3.25,3.25,0,0,1-1.26-.23,2.8,2.8,0,0,1-1-.67,3.26,3.26,0,0,1-.66-1.1,4.65,4.65,0,0,1-.23-1.51,3.88,3.88,0,0,1,.21-1.29,3,3,0,0,1,.61-1,2.85,2.85,0,0,1,1-.69,3.28,3.28,0,0,1,1.28-.25,3,3,0,0,1,1.1.2,2.63,2.63,0,0,1,.87.57,2.58,2.58,0,0,1,.58.93,3.68,3.68,0,0,1,.2,1.25.91.91,0,0,1-.05.36.26.26,0,0,1-.23.09h-4.4a3.82,3.82,0,0,0,.18,1.09,2.19,2.19,0,0,0,.42.77,1.65,1.65,0,0,0,.65.46,2.3,2.3,0,0,0,.85.15,2.39,2.39,0,0,0,.75-.1,3.59,3.59,0,0,0,.54-.21,3.9,3.9,0,0,0,.38-.22.48.48,0,0,1,.26-.1.26.26,0,0,1,.23.11Zm-.94-3.09a2.11,2.11,0,0,0-.11-.73,1.72,1.72,0,0,0-.33-.58,1.44,1.44,0,0,0-.53-.38,1.8,1.8,0,0,0-.71-.13,1.82,1.82,0,0,0-1.32.48,2.29,2.29,0,0,0-.6,1.34Z"/><path class="cls-8" d="M268.58,102.06a4.6,4.6,0,0,1,.46-.43,3.48,3.48,0,0,1,.51-.34,2.78,2.78,0,0,1,.57-.21,2.69,2.69,0,0,1,.65-.08,2.42,2.42,0,0,1,1,.18,1.82,1.82,0,0,1,.68.51,2.07,2.07,0,0,1,.42.79,3.31,3.31,0,0,1,.15,1v4.19h-1.17V103.5a1.76,1.76,0,0,0-.34-1.16,1.28,1.28,0,0,0-1-.41,2,2,0,0,0-1,.24,3.22,3.22,0,0,0-.82.67v4.85h-1.17v-6.58h.7a.28.28,0,0,1,.3.24Z"/><path class="cls-8" d="M276.68,107.8a1.59,1.59,0,0,1-1.2-.44,1.73,1.73,0,0,1-.42-1.25v-4h-.8a.27.27,0,0,1-.17-.06.26.26,0,0,1-.07-.2v-.46l1.08-.13.26-2a.42.42,0,0,1,.09-.16.28.28,0,0,1,.18-.06h.58v2.27h1.91v.84h-1.91v4a.83.83,0,0,0,.21.62.7.7,0,0,0,.52.2,1,1,0,0,0,.31,0,1,1,0,0,0,.23-.11l.17-.11a.19.19,0,0,1,.12,0,.19.19,0,0,1,.16.11l.34.55a2.18,2.18,0,0,1-.72.44A2.58,2.58,0,0,1,276.68,107.8Z"/><path class="cls-8" d="M283.74,102.06a3.64,3.64,0,0,1,.45-.43,3.48,3.48,0,0,1,.51-.34,2.78,2.78,0,0,1,.57-.21,2.71,2.71,0,0,1,.66-.08,2.4,2.4,0,0,1,.95.18,1.94,1.94,0,0,1,.69.51,2.38,2.38,0,0,1,.42.79,3.64,3.64,0,0,1,.14,1v4.19H287V103.5a1.76,1.76,0,0,0-.35-1.16,1.26,1.26,0,0,0-1-.41,2,2,0,0,0-1,.24,3.22,3.22,0,0,0-.82.67v4.85h-1.17v-6.58h.7a.28.28,0,0,1,.3.24Z"/><path class="cls-8" d="M295.31,101.11v6.58h-.69a.29.29,0,0,1-.31-.24l-.09-.71a3.66,3.66,0,0,1-1,.77,2.6,2.6,0,0,1-1.23.29,2.4,2.4,0,0,1-.95-.18,2,2,0,0,1-1.11-1.29,3.64,3.64,0,0,1-.14-1v-4.2H291v4.2a1.72,1.72,0,0,0,.34,1.15,1.27,1.27,0,0,0,1,.41,2,2,0,0,0,1-.24,3,3,0,0,0,.82-.67v-4.85Z"/><path class="cls-8" d="M297.14,107.69v-6.58h.7a.29.29,0,0,1,.31.24l.08.68a3.36,3.36,0,0,1,.82-.74,1.92,1.92,0,0,1,1.05-.29,1.56,1.56,0,0,1,1.08.38,2.07,2.07,0,0,1,.59,1,2.22,2.22,0,0,1,.37-.62,2.08,2.08,0,0,1,1.1-.68,2.74,2.74,0,0,1,.64-.08,2.49,2.49,0,0,1,.93.17,1.75,1.75,0,0,1,.68.48,2.25,2.25,0,0,1,.44.79,3.43,3.43,0,0,1,.15,1.06v4.19h-1.17V103.5a1.74,1.74,0,0,0-.34-1.17,1.18,1.18,0,0,0-1-.4,1.4,1.4,0,0,0-.54.1,1.34,1.34,0,0,0-.45.29,1.25,1.25,0,0,0-.31.49,1.85,1.85,0,0,0-.12.69v4.19H301V103.5a1.85,1.85,0,0,0-.32-1.18,1.12,1.12,0,0,0-.93-.39,1.4,1.4,0,0,0-.79.23,2.47,2.47,0,0,0-.67.63v4.9Z"/><path class="cls-8" d="M309,102.06a3.42,3.42,0,0,1,.94-.77,2.49,2.49,0,0,1,1.21-.29,2.37,2.37,0,0,1,1,.23,2.11,2.11,0,0,1,.79.64,3,3,0,0,1,.5,1,5.09,5.09,0,0,1,.17,1.35,5.15,5.15,0,0,1-.2,1.46,3.27,3.27,0,0,1-.56,1.12,2.49,2.49,0,0,1-.89.72,2.7,2.7,0,0,1-1.19.25,2.28,2.28,0,0,1-1.09-.24,2.32,2.32,0,0,1-.78-.69l-.06.6a.27.27,0,0,1-.3.24h-.74V98.12H309Zm0,4a1.94,1.94,0,0,0,.7.6,1.9,1.9,0,0,0,.83.18,1.68,1.68,0,0,0,1.43-.66,3.24,3.24,0,0,0,.49-2,2.85,2.85,0,0,0-.44-1.77,1.48,1.48,0,0,0-1.25-.57,1.77,1.77,0,0,0-1,.26,3,3,0,0,0-.78.73Z"/><path class="cls-8" d="M320.46,106.77a2.22,2.22,0,0,1-.51.45,3.19,3.19,0,0,1-.64.32,4.41,4.41,0,0,1-1.43.24,3.21,3.21,0,0,1-1.26-.23,2.8,2.8,0,0,1-1-.67,3.26,3.26,0,0,1-.66-1.1,4.65,4.65,0,0,1-.23-1.51A3.88,3.88,0,0,1,315,103a3,3,0,0,1,.61-1,2.85,2.85,0,0,1,1-.69,3.28,3.28,0,0,1,1.28-.25,3,3,0,0,1,1.1.2,2.85,2.85,0,0,1,.87.57,2.58,2.58,0,0,1,.58.93,3.68,3.68,0,0,1,.2,1.25.72.72,0,0,1-.06.36c0,.06-.11.09-.22.09h-4.4a3.82,3.82,0,0,0,.18,1.09,2.19,2.19,0,0,0,.42.77,1.65,1.65,0,0,0,.65.46,2.26,2.26,0,0,0,.85.15,2.39,2.39,0,0,0,.75-.1,3.59,3.59,0,0,0,.54-.21,3.9,3.9,0,0,0,.38-.22.48.48,0,0,1,.26-.1.23.23,0,0,1,.22.11Zm-.94-3.09a2.11,2.11,0,0,0-.11-.73,1.72,1.72,0,0,0-.33-.58,1.44,1.44,0,0,0-.53-.38,2,2,0,0,0-2,.35,2.29,2.29,0,0,0-.6,1.34Z"/><path class="cls-8" d="M323.08,102.43a3,3,0,0,1,.77-1.06A1.68,1.68,0,0,1,325,101a1.75,1.75,0,0,1,.4.05,1.16,1.16,0,0,1,.34.14l-.09.86a.19.19,0,0,1-.19.17l-.27,0a1.56,1.56,0,0,0-.39,0,1.6,1.6,0,0,0-.56.09,1.21,1.21,0,0,0-.43.27,1.94,1.94,0,0,0-.35.44,5.62,5.62,0,0,0-.28.6v4.16H322v-6.58h.66c.13,0,.22,0,.26.07a.45.45,0,0,1,.1.25Z"/><rect class="cls-7" x="1.33" y="54.11" width="494.47" height="31.19"/><path class="cls-8" d="M203.47,65.47a.44.44,0,0,1-.13.14.28.28,0,0,1-.16,0,.47.47,0,0,1-.26-.11l-.38-.24a3.44,3.44,0,0,0-.54-.25,2.39,2.39,0,0,0-.76-.11,2.09,2.09,0,0,0-.74.12,1.42,1.42,0,0,0-.54.31,1.12,1.12,0,0,0-.33.45,1.38,1.38,0,0,0-.11.57,1,1,0,0,0,.19.65,1.69,1.69,0,0,0,.51.44,4.22,4.22,0,0,0,.71.31l.82.28a8.18,8.18,0,0,1,.82.32,2.86,2.86,0,0,1,.71.45,2.13,2.13,0,0,1,.51.67,2.23,2.23,0,0,1,.19,1,3.29,3.29,0,0,1-.2,1.14,2.82,2.82,0,0,1-.61.94,3,3,0,0,1-1,.62,3.67,3.67,0,0,1-1.33.23,4.05,4.05,0,0,1-1.65-.33,3.79,3.79,0,0,1-1.26-.89l.36-.59a.37.37,0,0,1,.13-.12.24.24,0,0,1,.16,0,.38.38,0,0,1,.19.06l.25.18.31.22a2.2,2.2,0,0,0,.4.23,2.35,2.35,0,0,0,.51.17,2.51,2.51,0,0,0,.64.07,2.45,2.45,0,0,0,.8-.12,1.7,1.7,0,0,0,.6-.35,1.58,1.58,0,0,0,.37-.54,1.7,1.7,0,0,0,.13-.69,1.15,1.15,0,0,0-.19-.69,1.67,1.67,0,0,0-.5-.45,3,3,0,0,0-.72-.31l-.82-.26c-.28-.09-.55-.2-.82-.31a2.48,2.48,0,0,1-.71-.46,2,2,0,0,1-.51-.7,2.59,2.59,0,0,1-.19-1,2.65,2.65,0,0,1,.19-1,2.55,2.55,0,0,1,.56-.82,2.71,2.71,0,0,1,.91-.57,3.3,3.3,0,0,1,1.23-.21,4,4,0,0,1,1.42.24,3.63,3.63,0,0,1,1.13.72Z"/><path class="cls-8" d="M210.79,72.4a2,2,0,0,1-.51.45,3,3,0,0,1-.65.32,4,4,0,0,1-.7.18,4.39,4.39,0,0,1-.72.07,3.22,3.22,0,0,1-1.26-.24,2.68,2.68,0,0,1-1-.67,3.26,3.26,0,0,1-.66-1.1,4.65,4.65,0,0,1-.23-1.51,3.88,3.88,0,0,1,.21-1.29,2.88,2.88,0,0,1,.61-1,2.53,2.53,0,0,1,1-.69,3.11,3.11,0,0,1,1.28-.25,3,3,0,0,1,1.1.19,2.71,2.71,0,0,1,.87.58,2.54,2.54,0,0,1,.58.92,3.72,3.72,0,0,1,.2,1.25.72.72,0,0,1-.06.36.25.25,0,0,1-.22.1h-4.4a4.22,4.22,0,0,0,.17,1.08,2.27,2.27,0,0,0,.43.77,1.65,1.65,0,0,0,.65.46,2.26,2.26,0,0,0,.85.16,2.37,2.37,0,0,0,.75-.11,3.59,3.59,0,0,0,.54-.21A3.9,3.9,0,0,0,210,72a.48.48,0,0,1,.26-.1.25.25,0,0,1,.22.11Zm-.94-3.09a2.38,2.38,0,0,0-.11-.73,1.72,1.72,0,0,0-.33-.58,1.44,1.44,0,0,0-.53-.38,2,2,0,0,0-2,.35,2.29,2.29,0,0,0-.6,1.34Z"/><path class="cls-8" d="M217.76,66.74v8.81H216.6V72.34a3.49,3.49,0,0,1-.94.78,2.45,2.45,0,0,1-1.22.3,2.42,2.42,0,0,1-1-.22,2.21,2.21,0,0,1-.79-.64,3.07,3.07,0,0,1-.5-1.06,5.27,5.27,0,0,1-.18-1.45,4.54,4.54,0,0,1,.2-1.35,3.22,3.22,0,0,1,.56-1.09,2.49,2.49,0,0,1,.89-.72,2.57,2.57,0,0,1,1.19-.27,2.38,2.38,0,0,1,1.09.23,2.44,2.44,0,0,1,.8.64l.08-.51a.29.29,0,0,1,.31-.24ZM216.6,68.3a1.75,1.75,0,0,0-.7-.59,2,2,0,0,0-.85-.18,1.68,1.68,0,0,0-1.41.65,3.08,3.08,0,0,0-.49,1.87,5.08,5.08,0,0,0,.11,1.11,2.15,2.15,0,0,0,.32.75,1.28,1.28,0,0,0,.53.43,1.76,1.76,0,0,0,.71.14,1.93,1.93,0,0,0,1-.26,3,3,0,0,0,.78-.73Z"/><path class="cls-8" d="M225,66.74v6.58h-.69a.3.3,0,0,1-.31-.24l-.09-.7a3.66,3.66,0,0,1-1,.76,2.53,2.53,0,0,1-1.22.29,2.33,2.33,0,0,1-.95-.18,2,2,0,0,1-.7-.5,2.38,2.38,0,0,1-.42-.79,3.65,3.65,0,0,1-.13-1v-4.2h1.15v4.2A1.76,1.76,0,0,0,221,72.1a1.31,1.31,0,0,0,1,.41,2,2,0,0,0,1-.25,3,3,0,0,0,.82-.67V66.74Z"/><path class="cls-8" d="M232.18,72.4a1.84,1.84,0,0,1-.51.45,3.19,3.19,0,0,1-.64.32,4.35,4.35,0,0,1-.71.18,4.39,4.39,0,0,1-.72.07,3.25,3.25,0,0,1-1.26-.24,2.68,2.68,0,0,1-1-.67,3.09,3.09,0,0,1-.65-1.1,4.39,4.39,0,0,1-.24-1.51,3.88,3.88,0,0,1,.21-1.29,3,3,0,0,1,.61-1,2.61,2.61,0,0,1,1-.69,3.11,3.11,0,0,1,1.28-.25,3,3,0,0,1,1.1.19,2.51,2.51,0,0,1,.87.58,2.54,2.54,0,0,1,.58.92,3.72,3.72,0,0,1,.2,1.25.75.75,0,0,1-.05.36.26.26,0,0,1-.22.1h-4.4a3.82,3.82,0,0,0,.17,1.08,2.1,2.1,0,0,0,.42.77,1.65,1.65,0,0,0,.65.46,2.3,2.3,0,0,0,.85.16,2.37,2.37,0,0,0,.75-.11,3.59,3.59,0,0,0,.54-.21,3.9,3.9,0,0,0,.38-.22.48.48,0,0,1,.26-.1.28.28,0,0,1,.23.11Zm-.94-3.09a2.11,2.11,0,0,0-.11-.73,1.57,1.57,0,0,0-.33-.58,1.44,1.44,0,0,0-.53-.38,2,2,0,0,0-2,.35,2.24,2.24,0,0,0-.61,1.34Z"/><path class="cls-8" d="M234.79,67.7a4.73,4.73,0,0,1,.46-.44,3.48,3.48,0,0,1,.51-.34,2.78,2.78,0,0,1,.57-.21,2.7,2.7,0,0,1,.65-.07,2.61,2.61,0,0,1,1,.17,1.82,1.82,0,0,1,.68.51,2.07,2.07,0,0,1,.42.79,3.31,3.31,0,0,1,.15,1v4.19H238V69.13a1.76,1.76,0,0,0-.34-1.16,1.28,1.28,0,0,0-1-.41,1.86,1.86,0,0,0-1,.25,2.88,2.88,0,0,0-.83.67v4.84H233.7V66.74h.7a.28.28,0,0,1,.3.24Z"/><path class="cls-8" d="M245.54,67.91a.57.57,0,0,1-.11.11.2.2,0,0,1-.14,0,.4.4,0,0,1-.21-.08,2.45,2.45,0,0,0-.29-.18,1.92,1.92,0,0,0-.43-.18,2.1,2.1,0,0,0-.61-.08,2.13,2.13,0,0,0-.86.17,1.76,1.76,0,0,0-.62.5,2.52,2.52,0,0,0-.38.79,4,4,0,0,0-.12,1,3.8,3.8,0,0,0,.13,1.06,2.38,2.38,0,0,0,.39.78,1.67,1.67,0,0,0,.61.48,1.83,1.83,0,0,0,.79.17,2,2,0,0,0,.7-.1,1.89,1.89,0,0,0,.45-.23,2.94,2.94,0,0,0,.3-.22.36.36,0,0,1,.24-.1.28.28,0,0,1,.22.11l.32.42a2.14,2.14,0,0,1-.49.46,3.2,3.2,0,0,1-1.24.5,4.17,4.17,0,0,1-.71.06,2.87,2.87,0,0,1-1.14-.23,2.52,2.52,0,0,1-.92-.66,3,3,0,0,1-.61-1.06,4.31,4.31,0,0,1-.22-1.44,4.26,4.26,0,0,1,.2-1.36,3.24,3.24,0,0,1,.6-1.08,2.66,2.66,0,0,1,1-.7,3.21,3.21,0,0,1,1.32-.25,3.09,3.09,0,0,1,1.22.22,2.88,2.88,0,0,1,.94.63Z"/><path class="cls-8" d="M252.39,72.4a1.88,1.88,0,0,1-.52.45,2.74,2.74,0,0,1-.64.32,4,4,0,0,1-.7.18,4.39,4.39,0,0,1-.72.07,3.22,3.22,0,0,1-1.26-.24,2.68,2.68,0,0,1-1-.67,3.26,3.26,0,0,1-.66-1.1,4.65,4.65,0,0,1-.23-1.51,3.88,3.88,0,0,1,.21-1.29,2.88,2.88,0,0,1,.61-1,2.53,2.53,0,0,1,1-.69,3.11,3.11,0,0,1,1.28-.25,3,3,0,0,1,1.1.19,2.71,2.71,0,0,1,.87.58,2.52,2.52,0,0,1,.57.92,3.49,3.49,0,0,1,.21,1.25.72.72,0,0,1-.06.36.25.25,0,0,1-.22.1h-4.4a4.22,4.22,0,0,0,.17,1.08,2.27,2.27,0,0,0,.43.77,1.65,1.65,0,0,0,.65.46,2.26,2.26,0,0,0,.85.16,2.37,2.37,0,0,0,.75-.11,3.59,3.59,0,0,0,.54-.21,3.9,3.9,0,0,0,.38-.22.48.48,0,0,1,.26-.1.25.25,0,0,1,.22.11Zm-.94-3.09a2.38,2.38,0,0,0-.11-.73A1.72,1.72,0,0,0,251,68a1.44,1.44,0,0,0-.53-.38,2,2,0,0,0-2,.35,2.29,2.29,0,0,0-.6,1.34Z"/><path class="cls-8" d="M258.33,67.7a3.73,3.73,0,0,1,.45-.44,4.11,4.11,0,0,1,.51-.34,2.86,2.86,0,0,1,.58-.21,2.7,2.7,0,0,1,.65-.07,2.52,2.52,0,0,1,1,.17,1.78,1.78,0,0,1,.69.51,2.07,2.07,0,0,1,.42.79,3.31,3.31,0,0,1,.14,1v4.19h-1.16V69.13a1.76,1.76,0,0,0-.34-1.16,1.28,1.28,0,0,0-1-.41,1.91,1.91,0,0,0-1,.25,3,3,0,0,0-.82.67v4.84h-1.16V66.74h.69a.29.29,0,0,1,.31.24Z"/><path class="cls-8" d="M269.91,66.74v6.58h-.69a.29.29,0,0,1-.31-.24l-.1-.7a3.5,3.5,0,0,1-1,.76,2.53,2.53,0,0,1-1.22.29,2.33,2.33,0,0,1-.95-.18,1.86,1.86,0,0,1-.69-.5,2.07,2.07,0,0,1-.42-.79,3.31,3.31,0,0,1-.14-1v-4.2h1.15v4.2a1.76,1.76,0,0,0,.35,1.16,1.27,1.27,0,0,0,1,.41,2,2,0,0,0,1-.25,3,3,0,0,0,.82-.67V66.74Z"/><path class="cls-8" d="M271.74,73.32V66.74h.7a.28.28,0,0,1,.3.24l.08.68a3.55,3.55,0,0,1,.82-.74,2,2,0,0,1,1.06-.28,1.52,1.52,0,0,1,1.07.37,2,2,0,0,1,.6,1,2.2,2.2,0,0,1,.36-.62,2.08,2.08,0,0,1,.51-.43,2.38,2.38,0,0,1,.59-.25,2.79,2.79,0,0,1,.64-.07,2.45,2.45,0,0,1,.93.16,1.78,1.78,0,0,1,.69.49,2.1,2.1,0,0,1,.43.78,3.43,3.43,0,0,1,.15,1.06v4.19h-1.16V69.13a1.81,1.81,0,0,0-.34-1.17,1.2,1.2,0,0,0-1-.4,1.4,1.4,0,0,0-.54.1,1.37,1.37,0,0,0-.45.3,1.42,1.42,0,0,0-.31.49,1.76,1.76,0,0,0-.11.68v4.19h-1.17V69.13a1.79,1.79,0,0,0-.32-1.18,1.12,1.12,0,0,0-.93-.39,1.48,1.48,0,0,0-.79.23,2.63,2.63,0,0,0-.67.63v4.9Z"/><path class="cls-8" d="M283.6,67.69a3.38,3.38,0,0,1,.93-.77,2.49,2.49,0,0,1,1.21-.28,2.36,2.36,0,0,1,1,.22,2,2,0,0,1,.79.64,3.08,3.08,0,0,1,.5,1,4.71,4.71,0,0,1,.17,1.35,5.16,5.16,0,0,1-.19,1.46,3.46,3.46,0,0,1-.56,1.12,2.61,2.61,0,0,1-.9.72,2.66,2.66,0,0,1-1.18.26,2.29,2.29,0,0,1-1.1-.25,2.39,2.39,0,0,1-.77-.69l-.06.6a.28.28,0,0,1-.3.24h-.75V63.75h1.17Zm0,4a1.82,1.82,0,0,0,.69.6,2,2,0,0,0,.84.18,1.66,1.66,0,0,0,1.42-.66,3.22,3.22,0,0,0,.5-2,2.93,2.93,0,0,0-.44-1.78,1.49,1.49,0,0,0-1.25-.57,1.87,1.87,0,0,0-1,.26,2.78,2.78,0,0,0-.77.73Z"/><path class="cls-8" d="M295.05,72.4a1.84,1.84,0,0,1-.51.45,3,3,0,0,1-.64.32,4.23,4.23,0,0,1-.7.18,4.62,4.62,0,0,1-.73.07,3.2,3.2,0,0,1-1.25-.24,2.63,2.63,0,0,1-1-.67,3.09,3.09,0,0,1-.65-1.1,4.39,4.39,0,0,1-.24-1.51,3.88,3.88,0,0,1,.22-1.29,3,3,0,0,1,.6-1,2.69,2.69,0,0,1,1-.69,3.13,3.13,0,0,1,1.29-.25,3,3,0,0,1,1.09.19,2.51,2.51,0,0,1,.87.58,2.54,2.54,0,0,1,.58.92,3.49,3.49,0,0,1,.21,1.25.72.72,0,0,1-.06.36.25.25,0,0,1-.22.1h-4.4a3.82,3.82,0,0,0,.17,1.08,2,2,0,0,0,.43.77,1.58,1.58,0,0,0,.65.46,2.24,2.24,0,0,0,.84.16,2.37,2.37,0,0,0,.75-.11,3.59,3.59,0,0,0,.54-.21,4.19,4.19,0,0,0,.39-.22.48.48,0,0,1,.26-.1.27.27,0,0,1,.22.11Zm-.93-3.09a2.38,2.38,0,0,0-.11-.73,1.59,1.59,0,0,0-.34-.58,1.36,1.36,0,0,0-.53-.38,1.71,1.71,0,0,0-.7-.13,1.78,1.78,0,0,0-1.32.48,2.29,2.29,0,0,0-.6,1.34Z"/><path class="cls-8" d="M297.67,68.06a3.13,3.13,0,0,1,.77-1.06,1.68,1.68,0,0,1,1.11-.38,1.75,1.75,0,0,1,.4,0,1.05,1.05,0,0,1,.34.14l-.08.87a.19.19,0,0,1-.19.16,1,1,0,0,1-.27,0,1.64,1.64,0,0,0-.4,0,1.55,1.55,0,0,0-.55.09,1.25,1.25,0,0,0-.44.27,1.91,1.91,0,0,0-.34.44,3.32,3.32,0,0,0-.28.6v4.16h-1.16V66.74h.66a.37.37,0,0,1,.26.07.45.45,0,0,1,.1.25Z"/></svg>