<svg id="Layer_1" data-name="Layer 1" xmlns="http://www.w3.org/2000/svg" width="494.59" height="240" viewBox="0 0 494.59 240"><defs><style>.cls-1{fill:#0a2a66;}.cls-2{fill:#fff;}.cls-11,.cls-3,.cls-4,.cls-5{fill:none;stroke-linecap:round;}.cls-3{stroke:#37c5fd;}.cls-11,.cls-12,.cls-3,.cls-4,.cls-5{stroke-miterlimit:10;}.cls-3,.cls-5{stroke-width:4.44px;}.cls-4{stroke:#10a7e3;stroke-width:7.22px;}.cls-5{stroke:#c3eefe;}.cls-6{fill:#37c5fd;}.cls-7{fill:#10a7e3;}.cls-8{fill:#65d0fa;}.cls-12,.cls-9{fill:#14bf96;}.cls-10{fill:#93dbf7;}.cls-11{stroke:#0a2a66;}.cls-12{stroke:#00e5ae;stroke-width:1.05px;}</style></defs><title>TCP timeout</title><path class="cls-1" d="M163.2,74.12a10.3,10.3,0,0,0-7.38,17.51l.06.08.08.06a10.31,10.31,0,1,0,7.24-17.65Zm8,10.79h1.39a9.31,9.31,0,0,1-2.42,5.81l-1-1a.46.46,0,1,0-.65.65l1,1a9.33,9.33,0,0,1-5.81,2.42V92.41a.45.45,0,0,0-.47-.47.44.44,0,0,0-.47.47V93.8a9.4,9.4,0,0,1-5.85-2.44l1-1a.44.44,0,0,0,0-.65.45.45,0,0,0-.66,0l-1,1a9.36,9.36,0,0,1-2.4-5.79h1.39a.47.47,0,0,0,.47-.47.44.44,0,0,0-.47-.47h-1.39a9.36,9.36,0,0,1,2.42-5.82l1,1a.44.44,0,0,0,.33.14.55.55,0,0,0,.33-.14.47.47,0,0,0,0-.66l-1-1a9.36,9.36,0,0,1,5.82-2.42v1.39a.44.44,0,0,0,.47.47.47.47,0,0,0,.47-.47V75.07a9.33,9.33,0,0,1,5.81,2.42l-1,1a.45.45,0,0,0,0,.66.42.42,0,0,0,.32.14.44.44,0,0,0,.33-.14l1-1A9.36,9.36,0,0,1,172.56,84h-1.39a.47.47,0,0,0,0,.94Z"/><path class="cls-1" d="M174.92,77a1.45,1.45,0,0,0,1-2.48l-1.87-1.88a1.46,1.46,0,0,0-2.33,1.71l-.75.76a12.19,12.19,0,0,0-5.93-2.7V71.31H166a1,1,0,0,0,1-.94v-.89a1,1,0,0,0-1-1h-5.58a1,1,0,0,0-.94,1v.84a1,1,0,0,0,.94,1h.94v1.08a12.19,12.19,0,0,0-5.9,2.68l-.77-.77a1.45,1.45,0,0,0-2.33-1.68l-1.88,1.88a1.46,1.46,0,0,0,2,2.15l.8.81a12.19,12.19,0,1,0,20,0l.81-.81A1.47,1.47,0,0,0,174.92,77ZM163.08,94.45A10.12,10.12,0,0,1,155,78.28l.06,0a9,9,0,0,1,1.35-1.48l0-.06a10.08,10.08,0,0,1,5.38-2.43h.06a11.15,11.15,0,0,1,2.45,0h.07a10.13,10.13,0,0,1-1.29,20.18Z"/><path d="M163.67,82.42V78.14a.45.45,0,0,0-.47-.47.44.44,0,0,0-.47.47v4.28a1.87,1.87,0,1,0,.94,0Zm-.47,2.75a.94.94,0,1,1,.93-.93A.94.94,0,0,1,163.2,85.17Z"/><rect class="cls-1" x="0.89" y="48.92" width="136.01" height="136.01" rx="2.79"/><rect class="cls-2" x="6.73" y="54.76" width="124.32" height="76.5"/><line class="cls-3" x1="40.55" y1="73.2" x2="56.14" y2="73.2"/><line class="cls-4" x1="30.39" y1="73.2" x2="30.39" y2="73.2"/><line class="cls-3" x1="40.55" y1="89.79" x2="56.14" y2="89.79"/><line class="cls-4" x1="30.39" y1="89.79" x2="30.39" y2="89.79"/><line class="cls-3" x1="40.55" y1="106.39" x2="56.14" y2="106.39"/><line class="cls-4" x1="30.39" y1="106.39" x2="30.39" y2="106.39"/><line class="cls-5" x1="65.47" y1="73.2" x2="109.25" y2="73.2"/><line class="cls-5" x1="65.47" y1="81.5" x2="99.65" y2="81.5"/><line class="cls-5" x1="65.47" y1="98.09" x2="99.65" y2="98.09"/><line class="cls-5" x1="65.47" y1="114.68" x2="99.65" y2="114.68"/><line class="cls-5" x1="65.47" y1="89.79" x2="109.25" y2="89.79"/><line class="cls-5" x1="65.47" y1="106.39" x2="109.25" y2="106.39"/><path class="cls-6" d="M.89,131.27h136a0,0,0,0,1,0,0v59.22a4,4,0,0,1-4,4H4.89a4,4,0,0,1-4-4V131.27A0,0,0,0,1,.89,131.27Z"/><rect class="cls-7" x="6.73" y="138.17" width="9.03" height="9.03" rx="1.11"/><rect class="cls-7" x="18.26" y="138.17" width="9.03" height="9.03" rx="1.11"/><rect class="cls-7" x="29.79" y="138.17" width="9.03" height="9.03" rx="1.11"/><rect class="cls-7" x="41.32" y="138.17" width="9.03" height="9.03" rx="1.11"/><rect class="cls-7" x="52.85" y="138.17" width="9.03" height="9.03" rx="1.11"/><rect class="cls-7" x="64.38" y="138.17" width="9.03" height="9.03" rx="1.11"/><rect class="cls-7" x="75.91" y="138.17" width="9.03" height="9.03" rx="1.11"/><rect class="cls-7" x="87.44" y="138.17" width="9.03" height="9.03" rx="1.11"/><rect class="cls-7" x="98.96" y="138.17" width="9.03" height="9.03" rx="1.11"/><rect class="cls-7" x="110.49" y="138.17" width="9.03" height="9.03" rx="1.11"/><rect class="cls-7" x="122.02" y="138.17" width="9.03" height="9.03" rx="1.11"/><rect class="cls-7" x="18.26" y="150.39" width="9.03" height="9.03" rx="1.11"/><rect class="cls-7" x="29.79" y="150.39" width="9.03" height="9.03" rx="1.11"/><rect class="cls-7" x="41.32" y="150.39" width="9.03" height="9.03" rx="1.11"/><rect class="cls-7" x="52.85" y="150.39" width="9.03" height="9.03" rx="1.11"/><rect class="cls-7" x="64.38" y="150.39" width="9.03" height="9.03" rx="1.11"/><rect class="cls-7" x="75.91" y="150.39" width="9.03" height="9.03" rx="1.11"/><rect class="cls-7" x="87.44" y="150.39" width="9.03" height="9.03" rx="1.11"/><rect class="cls-7" x="98.96" y="150.39" width="9.03" height="9.03" rx="1.11"/><rect class="cls-7" x="110.49" y="150.39" width="9.03" height="9.03" rx="1.11"/><rect class="cls-7" x="6.73" y="162.61" width="9.03" height="9.03" rx="1.11"/><rect class="cls-7" x="18.26" y="162.61" width="9.03" height="9.03" rx="1.11"/><rect class="cls-7" x="29.79" y="162.61" width="9.03" height="9.03" rx="1.11"/><rect class="cls-7" x="41.32" y="162.61" width="9.03" height="9.03" rx="1.11"/><rect class="cls-7" x="52.85" y="162.61" width="9.03" height="9.03" rx="1.11"/><rect class="cls-7" x="64.38" y="162.61" width="9.03" height="9.03" rx="1.11"/><rect class="cls-7" x="75.91" y="162.61" width="9.03" height="9.03" rx="1.11"/><rect class="cls-7" x="87.44" y="162.61" width="9.03" height="9.03" rx="1.11"/><rect class="cls-7" x="98.96" y="162.61" width="9.03" height="9.03" rx="1.11"/><rect class="cls-7" x="110.49" y="162.61" width="9.03" height="9.03" rx="1.11"/><rect class="cls-7" x="122.02" y="162.61" width="9.03" height="9.03" rx="1.11"/><rect class="cls-7" x="43.39" y="162.61" width="51" height="9.03" rx="1.11"/><rect class="cls-8" x="50.83" y="175.36" width="34" height="14.34" rx="2.29"/><rect class="cls-1" x="357.71" y="48.92" width="136.01" height="136.01" rx="2.79"/><rect class="cls-2" x="363.55" y="54.76" width="124.32" height="76.5"/><line class="cls-3" x1="397.37" y1="73.2" x2="412.95" y2="73.2"/><line class="cls-4" x1="387.21" y1="73.2" x2="387.21" y2="73.2"/><line class="cls-3" x1="397.37" y1="89.79" x2="412.95" y2="89.79"/><line class="cls-4" x1="387.21" y1="89.79" x2="387.21" y2="89.79"/><line class="cls-3" x1="397.37" y1="106.39" x2="412.95" y2="106.39"/><line class="cls-4" x1="387.21" y1="106.39" x2="387.21" y2="106.39"/><line class="cls-5" x1="422.29" y1="73.2" x2="466.07" y2="73.2"/><line class="cls-5" x1="422.29" y1="81.5" x2="456.47" y2="81.5"/><line class="cls-5" x1="422.29" y1="98.09" x2="456.47" y2="98.09"/><line class="cls-5" x1="422.29" y1="114.68" x2="456.47" y2="114.68"/><line class="cls-5" x1="422.29" y1="89.79" x2="466.07" y2="89.79"/><line class="cls-5" x1="422.29" y1="106.39" x2="466.07" y2="106.39"/><path class="cls-6" d="M357.71,131.27h136a0,0,0,0,1,0,0v59.22a4,4,0,0,1-4,4h-128a4,4,0,0,1-4-4V131.27A0,0,0,0,1,357.71,131.27Z"/><rect class="cls-7" x="363.55" y="138.17" width="9.03" height="9.03" rx="1.11"/><rect class="cls-7" x="375.08" y="138.17" width="9.03" height="9.03" rx="1.11"/><rect class="cls-7" x="386.61" y="138.17" width="9.03" height="9.03" rx="1.11"/><rect class="cls-7" x="398.14" y="138.17" width="9.03" height="9.03" rx="1.11"/><rect class="cls-7" x="409.67" y="138.17" width="9.03" height="9.03" rx="1.11"/><rect class="cls-7" x="421.2" y="138.17" width="9.03" height="9.03" rx="1.11"/><rect class="cls-7" x="432.72" y="138.17" width="9.03" height="9.03" rx="1.11"/><rect class="cls-7" x="444.25" y="138.17" width="9.03" height="9.03" rx="1.11"/><rect class="cls-7" x="455.78" y="138.17" width="9.03" height="9.03" rx="1.11"/><rect class="cls-7" x="467.31" y="138.17" width="9.03" height="9.03" rx="1.11"/><rect class="cls-7" x="478.84" y="138.17" width="9.03" height="9.03" rx="1.11"/><rect class="cls-7" x="375.08" y="150.39" width="9.03" height="9.03" rx="1.11"/><rect class="cls-7" x="386.61" y="150.39" width="9.03" height="9.03" rx="1.11"/><rect class="cls-7" x="398.14" y="150.39" width="9.03" height="9.03" rx="1.11"/><rect class="cls-7" x="409.67" y="150.39" width="9.03" height="9.03" rx="1.11"/><rect class="cls-7" x="421.2" y="150.39" width="9.03" height="9.03" rx="1.11"/><rect class="cls-7" x="432.72" y="150.39" width="9.03" height="9.03" rx="1.11"/><rect class="cls-7" x="444.25" y="150.39" width="9.03" height="9.03" rx="1.11"/><rect class="cls-7" x="455.78" y="150.39" width="9.03" height="9.03" rx="1.11"/><rect class="cls-7" x="467.31" y="150.39" width="9.03" height="9.03" rx="1.11"/><rect class="cls-7" x="363.55" y="162.61" width="9.03" height="9.03" rx="1.11"/><rect class="cls-7" x="375.08" y="162.61" width="9.03" height="9.03" rx="1.11"/><rect class="cls-7" x="386.61" y="162.61" width="9.03" height="9.03" rx="1.11"/><rect class="cls-7" x="398.14" y="162.61" width="9.03" height="9.03" rx="1.11"/><rect class="cls-7" x="409.67" y="162.61" width="9.03" height="9.03" rx="1.11"/><rect class="cls-7" x="421.2" y="162.61" width="9.03" height="9.03" rx="1.11"/><rect class="cls-7" x="432.72" y="162.61" width="9.03" height="9.03" rx="1.11"/><rect class="cls-7" x="444.25" y="162.61" width="9.03" height="9.03" rx="1.11"/><rect class="cls-7" x="455.78" y="162.61" width="9.03" height="9.03" rx="1.11"/><rect class="cls-7" x="467.31" y="162.61" width="9.03" height="9.03" rx="1.11"/><rect class="cls-7" x="478.84" y="162.61" width="9.03" height="9.03" rx="1.11"/><rect class="cls-7" x="400.21" y="162.61" width="51" height="9.03" rx="1.11"/><rect class="cls-8" x="407.65" y="175.36" width="34" height="14.34" rx="2.29"/><rect class="cls-9" x="143.38" y="51.03" width="192.76" height="9.63"/><polygon class="cls-9" points="350.33 55.81 335.03 45.78 335.03 65.83 350.33 55.81"/><path class="cls-1" d="M163.2,109.92a10.3,10.3,0,0,0-7.38,17.51l.06.07.08.07a10.31,10.31,0,1,0,7.24-17.65Zm8,10.78h1.39a9.36,9.36,0,0,1-2.42,5.82l-1-1a.46.46,0,0,0-.65,0,.45.45,0,0,0,0,.66l1,1a9.33,9.33,0,0,1-5.81,2.42v-1.39a.44.44,0,0,0-.47-.47.44.44,0,0,0-.47.47v1.39a9.4,9.4,0,0,1-5.85-2.44l1-1a.45.45,0,0,0,0-.66.47.47,0,0,0-.66,0l-1,1a9.36,9.36,0,0,1-2.4-5.8h1.39a.46.46,0,0,0,.47-.47.43.43,0,0,0-.47-.46h-1.39a9.33,9.33,0,0,1,2.42-5.82l1,1a.44.44,0,0,0,.33.14.55.55,0,0,0,.33-.14.47.47,0,0,0,0-.66l-1-1a9.36,9.36,0,0,1,5.82-2.42v1.39a.44.44,0,0,0,.47.47.48.48,0,0,0,.47-.47v-1.39a9.33,9.33,0,0,1,5.81,2.42l-1,1a.45.45,0,0,0,0,.66.42.42,0,0,0,.32.14.44.44,0,0,0,.33-.14l1-1a9.33,9.33,0,0,1,2.42,5.82h-1.39a.47.47,0,1,0,0,.93Z"/><path class="cls-1" d="M174.92,112.78a1.46,1.46,0,0,0,1-.42,1.49,1.49,0,0,0,0-2.07l-1.87-1.87a1.47,1.47,0,0,0-2.07,0,1.49,1.49,0,0,0-.26,1.71l-.75.75a12.17,12.17,0,0,0-5.93-2.69V107.1H166a1,1,0,0,0,1-.93v-.9a1,1,0,0,0-1-1h-5.58a1,1,0,0,0-.94,1v.85a1,1,0,0,0,.94,1h.94v1.09a12.08,12.08,0,0,0-5.9,2.67l-.77-.76a1.45,1.45,0,0,0-2.33-1.68l-1.88,1.87a1.49,1.49,0,0,0,0,2.07,1.46,1.46,0,0,0,1,.42,1.48,1.48,0,0,0,.94-.33l.8.8a12.2,12.2,0,1,0,20,0l.81-.81A1.54,1.54,0,0,0,174.92,112.78Zm-11.84,17.47A10.13,10.13,0,0,1,155,114.07l.06,0a9,9,0,0,1,1.35-1.48l0-.06a10.09,10.09,0,0,1,5.38-2.44h.06a11.15,11.15,0,0,1,2.45,0h.07a10.14,10.14,0,0,1-1.29,20.19Z"/><path class="cls-10" d="M163.23,113.68l0,5.58a1.17,1.17,0,0,1,0,2.33v5.31a6.61,6.61,0,0,0,0-13.22Z"/><path d="M162.76,122.16v4.28a.47.47,0,1,0,.94,0v-4.28a1.88,1.88,0,1,0-.94,0Zm.47-2.75a.94.94,0,1,1-.94.94A.94.94,0,0,1,163.23,119.41Z"/><path class="cls-1" d="M163.29,146a10.3,10.3,0,0,0-7.38,17.5l.06.08.08.07A10.31,10.31,0,1,0,163.29,146Zm8,10.78h1.39a9.36,9.36,0,0,1-2.42,5.82l-1-1a.44.44,0,0,0-.65,0,.45.45,0,0,0,0,.66l1,1a9.36,9.36,0,0,1-5.82,2.42v-1.4a.47.47,0,0,0-.94,0v1.4a9.31,9.31,0,0,1-5.84-2.45l1-1a.45.45,0,0,0,0-.66.44.44,0,0,0-.65,0l-1,1a9.31,9.31,0,0,1-2.4-5.79h1.4a.47.47,0,0,0,.46-.47.44.44,0,0,0-.46-.47h-1.4a9.36,9.36,0,0,1,2.42-5.82l1,1a.42.42,0,0,0,.33.14A.5.5,0,0,0,158,151a.44.44,0,0,0,0-.65l-1-1a9.42,9.42,0,0,1,5.82-2.43v1.4a.45.45,0,0,0,.47.47.48.48,0,0,0,.47-.47v-1.4a9.37,9.37,0,0,1,5.81,2.43l-1,1a.44.44,0,0,0,0,.65.39.39,0,0,0,.32.14.39.39,0,0,0,.33-.14l1-1a9.36,9.36,0,0,1,2.42,5.82h-1.39a.47.47,0,1,0,0,.94Z"/><path class="cls-1" d="M175,148.84a1.41,1.41,0,0,0,1-.43,1.45,1.45,0,0,0,0-2.06l-1.87-1.88a1.46,1.46,0,0,0-2.32,1.72l-.76.75a12.19,12.19,0,0,0-5.93-2.7v-1.08h.89a1,1,0,0,0,1-.94v-.89a1,1,0,0,0-1-1h-5.58a1,1,0,0,0-.93,1v.85a1,1,0,0,0,.93,1h.94v1.08a12.19,12.19,0,0,0-5.9,2.68l-.77-.77a1.45,1.45,0,0,0-2.33-1.68l-1.88,1.88a1.47,1.47,0,0,0,0,2.06,1.43,1.43,0,0,0,1,.43,1.49,1.49,0,0,0,.94-.34l.81.81a12.05,12.05,0,0,0-2.22,7,12.2,12.2,0,0,0,24.39,0,12.1,12.1,0,0,0-2.19-6.95l.81-.82A1.48,1.48,0,0,0,175,148.84Zm-11.84,17.47A10.17,10.17,0,0,1,153,156.17a10,10,0,0,1,2-6l0,0a8.92,8.92,0,0,1,1.35-1.47l.05-.06a10.09,10.09,0,0,1,5.39-2.44h.05a12.54,12.54,0,0,1,2.45,0h.07a10.14,10.14,0,0,1-1.29,20.19Z"/><path class="cls-10" d="M163.32,149.73v5.58a1.17,1.17,0,0,1,0,2.34V163a6.62,6.62,0,0,0,0-13.23Z"/><path class="cls-10" d="M162.15,156.29h-5.33v0a6.55,6.55,0,0,0,6.47,6.63v-5.31C162.69,157.64,162.19,156.89,162.15,156.29Z"/><path class="cls-10" d="M163.27,149.73l0,5.58a1.17,1.17,0,0,0,0,2.34V163a6.62,6.62,0,0,1,0-13.23Z"/><path d="M163.77,154.48V150.2a.47.47,0,0,0-.94,0v4.28a1.88,1.88,0,1,0,.94,0Zm-.47,2.76a.94.94,0,1,1,.94-.94A.94.94,0,0,1,163.3,157.24Z"/><path class="cls-11" d="M149.81,158.85a4.92,4.92,0,0,0,3.07,6.27"/><path class="cls-11" d="M175,164.29a4.93,4.93,0,0,0,2.26-6.6"/><path class="cls-11" d="M147.32,157.85a7.83,7.83,0,0,0,4.86,9.94"/><path class="cls-11" d="M180,157a7.83,7.83,0,0,1-4.87,9.94"/><path class="cls-11" d="M152.24,142.28a4.94,4.94,0,0,0-4,5.73"/><path class="cls-11" d="M152.18,139.83a7.6,7.6,0,0,0-6.15,8.85"/><path class="cls-11" d="M174.48,142.61a4.94,4.94,0,0,1,4,5.73"/><path class="cls-11" d="M174.53,140.15a7.63,7.63,0,0,1,6.16,8.86"/><rect class="cls-9" x="143.38" y="179.54" width="192.76" height="9.63"/><polygon class="cls-9" points="350.33 184.32 335.03 174.29 335.03 194.34 350.33 184.32"/><rect class="cls-12" x="199.63" y="1.86" width="89.16" height="42.44" rx="4.65"/><path class="cls-2" d="M207.61,24.53a1.54,1.54,0,0,1,1.39.77,3.87,3.87,0,0,1,.48,2.07,3.85,3.85,0,0,1-.48,2.06,1.64,1.64,0,0,1-2.78,0,3.85,3.85,0,0,1-.48-2.06,3.87,3.87,0,0,1,.48-2.07A1.54,1.54,0,0,1,207.61,24.53Zm-1,4,1.84-2.9a1,1,0,0,0-.38-.43.78.78,0,0,0-.42-.11.94.94,0,0,0-.87.64,3.78,3.78,0,0,0-.3,1.62c0,.15,0,.31,0,.48A4.43,4.43,0,0,0,206.57,28.51Zm2.07-2.26-1.83,2.91a1.06,1.06,0,0,0,.34.38.8.8,0,0,0,.43.13,1,1,0,0,0,.93-.74,4.58,4.58,0,0,0,.28-1.62A3.72,3.72,0,0,0,208.64,26.25Z"/><path class="cls-2" d="M211.69,29.5V25.38c-.2.15-.38.28-.56.39a4.59,4.59,0,0,1-.75.33v-.58a4.5,4.5,0,0,0,1.31-.83h.64V29.5h1.28V30h-3.23V29.5Z"/><path class="cls-2" d="M215.92,29.5V25.38a5.72,5.72,0,0,1-.56.39,3.93,3.93,0,0,1-.75.33v-.58a4.5,4.5,0,0,0,1.31-.83h.64V29.5h1.29V30h-3.24V29.5Z"/><path class="cls-2" d="M220.31,24.53a1.56,1.56,0,0,1,1.4.77,3.87,3.87,0,0,1,.48,2.07,3.85,3.85,0,0,1-.48,2.06,1.54,1.54,0,0,1-1.4.77,1.52,1.52,0,0,1-1.38-.77,3.76,3.76,0,0,1-.49-2.06,3.78,3.78,0,0,1,.49-2.07A1.54,1.54,0,0,1,220.31,24.53Zm-1,4,1.85-2.9a1.1,1.1,0,0,0-.38-.43.84.84,0,0,0-.43-.11.94.94,0,0,0-.87.64,3.78,3.78,0,0,0-.3,1.62c0,.15,0,.31,0,.48A4.43,4.43,0,0,0,219.27,28.51Zm2.08-2.26-1.83,2.91a1,1,0,0,0,.34.38.78.78,0,0,0,.43.13,1,1,0,0,0,.93-.74,4.59,4.59,0,0,0,.27-1.62A4.11,4.11,0,0,0,221.35,26.25Z"/><path class="cls-2" d="M224.39,29.5V25.38a5.72,5.72,0,0,1-.56.39,3.93,3.93,0,0,1-.75.33v-.58a4.5,4.5,0,0,0,1.31-.83H225V29.5h1.29V30h-3.24V29.5Z"/><path class="cls-2" d="M228.63,29.5V25.38a5.81,5.81,0,0,1-.57.39,4.09,4.09,0,0,1-.74.33v-.58a4.5,4.5,0,0,0,1.31-.83h.64V29.5h1.28V30h-3.23V29.5Z"/><path class="cls-2" d="M232.86,29.5V25.38a5.72,5.72,0,0,1-.56.39,3.93,3.93,0,0,1-.75.33v-.58a4.5,4.5,0,0,0,1.31-.83h.64V29.5h1.29V30h-3.24V29.5Z"/><path class="cls-2" d="M237.25,24.53a1.53,1.53,0,0,1,1.39.77,3.87,3.87,0,0,1,.48,2.07,3.85,3.85,0,0,1-.48,2.06,1.51,1.51,0,0,1-1.39.77,1.54,1.54,0,0,1-1.39-.77,3.85,3.85,0,0,1-.48-2.06,3.87,3.87,0,0,1,.48-2.07A1.56,1.56,0,0,1,237.25,24.53Zm-1,4,1.85-2.9a1.1,1.1,0,0,0-.38-.43.84.84,0,0,0-.43-.11.94.94,0,0,0-.87.64,3.78,3.78,0,0,0-.3,1.62c0,.15,0,.31,0,.48A4.43,4.43,0,0,0,236.21,28.51Zm2.08-2.26-1.84,2.91a1.06,1.06,0,0,0,.34.38.8.8,0,0,0,.43.13,1,1,0,0,0,.93-.74,4.37,4.37,0,0,0,.28-1.62A4.11,4.11,0,0,0,238.29,26.25Z"/><path class="cls-2" d="M241.33,29.5V25.38a5.72,5.72,0,0,1-.56.39,3.93,3.93,0,0,1-.75.33v-.58a4.5,4.5,0,0,0,1.31-.83H242V29.5h1.29V30H240V29.5Z"/><path class="cls-2" d="M245.56,29.5V25.38a5.72,5.72,0,0,1-.56.39,3.93,3.93,0,0,1-.75.33v-.58a4.37,4.37,0,0,0,1.31-.83h.64V29.5h1.29V30h-3.24V29.5Z"/><path class="cls-2" d="M250,24.53a1.54,1.54,0,0,1,1.39.77,3.87,3.87,0,0,1,.48,2.07,3.85,3.85,0,0,1-.48,2.06,1.64,1.64,0,0,1-2.78,0,3.85,3.85,0,0,1-.48-2.06,3.87,3.87,0,0,1,.48-2.07A1.54,1.54,0,0,1,250,24.53Zm-1.05,4,1.85-2.9a1,1,0,0,0-.38-.43.84.84,0,0,0-.43-.11.94.94,0,0,0-.87.64,3.78,3.78,0,0,0-.3,1.62c0,.15,0,.31,0,.48A4.2,4.2,0,0,0,248.91,28.51ZM251,26.25l-1.83,2.91a1.06,1.06,0,0,0,.34.38.8.8,0,0,0,.43.13,1,1,0,0,0,.93-.74,4.59,4.59,0,0,0,.27-1.62A4.11,4.11,0,0,0,251,26.25Z"/><path class="cls-2" d="M254,29.5V25.38a5.72,5.72,0,0,1-.56.39,3.93,3.93,0,0,1-.75.33v-.58a4.37,4.37,0,0,0,1.31-.83h.64V29.5H256V30h-3.24V29.5Z"/><path class="cls-2" d="M258.43,24.53a1.56,1.56,0,0,1,1.39.77,3.87,3.87,0,0,1,.48,2.07,3.85,3.85,0,0,1-.48,2.06,1.64,1.64,0,0,1-2.78,0,3.85,3.85,0,0,1-.48-2.06A3.87,3.87,0,0,1,257,25.3,1.54,1.54,0,0,1,258.43,24.53Zm-1.05,4,1.85-2.9a1.1,1.1,0,0,0-.38-.43.84.84,0,0,0-.43-.11.94.94,0,0,0-.87.64,3.78,3.78,0,0,0-.3,1.62c0,.15,0,.31,0,.48A4.43,4.43,0,0,0,257.38,28.51Zm2.08-2.26-1.83,2.91a1,1,0,0,0,.34.38.8.8,0,0,0,.43.13,1,1,0,0,0,.93-.74,4.59,4.59,0,0,0,.27-1.62A4.11,4.11,0,0,0,259.46,26.25Z"/><path class="cls-2" d="M262.5,29.5V25.38a5.72,5.72,0,0,1-.56.39,3.93,3.93,0,0,1-.75.33v-.58a4.5,4.5,0,0,0,1.31-.83h.64V29.5h1.29V30h-3.24V29.5Z"/><path class="cls-2" d="M266.89,24.53a1.56,1.56,0,0,1,1.4.77,3.87,3.87,0,0,1,.48,2.07,3.85,3.85,0,0,1-.48,2.06,1.54,1.54,0,0,1-1.4.77,1.52,1.52,0,0,1-1.38-.77,3.85,3.85,0,0,1-.49-2.06,3.86,3.86,0,0,1,.49-2.07A1.54,1.54,0,0,1,266.89,24.53Zm-1,4,1.85-2.9a1.1,1.1,0,0,0-.38-.43.84.84,0,0,0-.43-.11.94.94,0,0,0-.87.64,3.78,3.78,0,0,0-.3,1.62c0,.15,0,.31,0,.48A4.43,4.43,0,0,0,265.85,28.51Zm2.08-2.26-1.83,2.91a1,1,0,0,0,.34.38.78.78,0,0,0,.43.13,1,1,0,0,0,.93-.74,4.59,4.59,0,0,0,.27-1.62A4.11,4.11,0,0,0,267.93,26.25Z"/><path class="cls-2" d="M271,29.5V25.38a5.72,5.72,0,0,1-.56.39,3.93,3.93,0,0,1-.75.33v-.58a4.5,4.5,0,0,0,1.31-.83h.64V29.5h1.29V30h-3.24V29.5Z"/><path class="cls-2" d="M275.36,24.53a1.56,1.56,0,0,1,1.4.77,3.87,3.87,0,0,1,.47,2.07,3.86,3.86,0,0,1-.47,2.06,1.65,1.65,0,0,1-2.79,0,3.85,3.85,0,0,1-.48-2.06A3.87,3.87,0,0,1,274,25.3,1.56,1.56,0,0,1,275.36,24.53Zm-1,4,1.85-2.9a1.1,1.1,0,0,0-.38-.43.84.84,0,0,0-.43-.11.94.94,0,0,0-.87.64,3.78,3.78,0,0,0-.3,1.62c0,.15,0,.31,0,.48A4.43,4.43,0,0,0,274.32,28.51Zm2.08-2.26-1.84,2.91a1.16,1.16,0,0,0,.34.38.83.83,0,0,0,.43.13,1,1,0,0,0,.93-.74,4.37,4.37,0,0,0,.28-1.62A4.11,4.11,0,0,0,276.4,26.25Z"/><path class="cls-2" d="M279.44,29.5V25.38a5.72,5.72,0,0,1-.56.39,3.93,3.93,0,0,1-.75.33v-.58a4.5,4.5,0,0,0,1.31-.83h.64V29.5h1.29V30h-3.24V29.5Z"/><path class="cls-2" d="M207.61,33a1.54,1.54,0,0,1,1.39.77,3.85,3.85,0,0,1,.48,2.06A3.87,3.87,0,0,1,209,37.9a1.64,1.64,0,0,1-2.78,0,3.87,3.87,0,0,1-.48-2.07,3.85,3.85,0,0,1,.48-2.06A1.54,1.54,0,0,1,207.61,33Zm-1,4,1.84-2.9a1,1,0,0,0-.38-.43.79.79,0,0,0-.42-.12,1,1,0,0,0-.87.64,3.84,3.84,0,0,0-.3,1.62c0,.15,0,.31,0,.49A4.43,4.43,0,0,0,206.57,37Zm2.07-2.26-1.83,2.91a1.16,1.16,0,0,0,.34.38.8.8,0,0,0,.43.12,1,1,0,0,0,.93-.73,4.67,4.67,0,0,0,.28-1.62A3.72,3.72,0,0,0,208.64,34.72Z"/><path class="cls-2" d="M211.69,38V33.85c-.2.15-.38.28-.56.39a4.59,4.59,0,0,1-.75.33V34a4.5,4.5,0,0,0,1.31-.83h.64V38h1.28v.54h-3.23V38Z"/><path class="cls-2" d="M215.92,38V33.85a5.72,5.72,0,0,1-.56.39,3.93,3.93,0,0,1-.75.33V34a4.5,4.5,0,0,0,1.31-.83h.64V38h1.29v.54h-3.24V38Z"/><path class="cls-2" d="M220.31,33a1.56,1.56,0,0,1,1.4.77,3.85,3.85,0,0,1,.48,2.06,3.87,3.87,0,0,1-.48,2.07,1.56,1.56,0,0,1-1.4.77,1.54,1.54,0,0,1-1.38-.77,3.78,3.78,0,0,1-.49-2.07,3.76,3.76,0,0,1,.49-2.06A1.54,1.54,0,0,1,220.31,33Zm-1,4,1.85-2.9a1.1,1.1,0,0,0-.38-.43.85.85,0,0,0-.43-.12,1,1,0,0,0-.87.64,3.84,3.84,0,0,0-.3,1.62c0,.15,0,.31,0,.49A4.43,4.43,0,0,0,219.27,37Zm2.08-2.26-1.83,2.91a1.06,1.06,0,0,0,.34.38.77.77,0,0,0,.43.12,1,1,0,0,0,.93-.73,4.67,4.67,0,0,0,.27-1.62A4.11,4.11,0,0,0,221.35,34.72Z"/><path class="cls-2" d="M224.55,33a1.54,1.54,0,0,1,1.39.77,3.85,3.85,0,0,1,.48,2.06,3.87,3.87,0,0,1-.48,2.07,1.64,1.64,0,0,1-2.78,0,3.87,3.87,0,0,1-.48-2.07,3.85,3.85,0,0,1,.48-2.06A1.54,1.54,0,0,1,224.55,33Zm-1,4,1.84-2.9a1,1,0,0,0-.38-.43.81.81,0,0,0-.42-.12,1,1,0,0,0-.88.64,3.84,3.84,0,0,0-.3,1.62c0,.15,0,.31,0,.49A4.43,4.43,0,0,0,223.51,37Zm2.07-2.26-1.83,2.91a1.16,1.16,0,0,0,.34.38.8.8,0,0,0,.43.12,1,1,0,0,0,.93-.73,4.67,4.67,0,0,0,.27-1.62A3.72,3.72,0,0,0,225.58,34.72Z"/><path class="cls-2" d="M228.78,33a1.56,1.56,0,0,1,1.4.77,3.86,3.86,0,0,1,.47,2.06,3.87,3.87,0,0,1-.47,2.07,1.65,1.65,0,0,1-2.79,0,3.87,3.87,0,0,1-.48-2.07,3.85,3.85,0,0,1,.48-2.06A1.56,1.56,0,0,1,228.78,33Zm-1,4,1.85-2.9a1.1,1.1,0,0,0-.38-.43.85.85,0,0,0-.43-.12,1,1,0,0,0-.87.64,3.84,3.84,0,0,0-.3,1.62c0,.15,0,.31,0,.49A4.43,4.43,0,0,0,227.74,37Zm2.08-2.26L228,37.63a1.28,1.28,0,0,0,.34.38.82.82,0,0,0,.43.12,1,1,0,0,0,.93-.73,4.45,4.45,0,0,0,.28-1.62A4.11,4.11,0,0,0,229.82,34.72Z"/><path class="cls-2" d="M232.86,38V33.85a5.72,5.72,0,0,1-.56.39,3.93,3.93,0,0,1-.75.33V34a4.5,4.5,0,0,0,1.31-.83h.64V38h1.29v.54h-3.24V38Z"/><path class="cls-2" d="M237.25,33a1.53,1.53,0,0,1,1.39.77,3.85,3.85,0,0,1,.48,2.06,3.87,3.87,0,0,1-.48,2.07,1.53,1.53,0,0,1-1.39.77,1.56,1.56,0,0,1-1.39-.77,3.87,3.87,0,0,1-.48-2.07,3.85,3.85,0,0,1,.48-2.06A1.56,1.56,0,0,1,237.25,33Zm-1,4,1.85-2.9a1.1,1.1,0,0,0-.38-.43.85.85,0,0,0-.43-.12,1,1,0,0,0-.87.64,3.84,3.84,0,0,0-.3,1.62c0,.15,0,.31,0,.49A4.43,4.43,0,0,0,236.21,37Zm2.08-2.26-1.84,2.91a1.16,1.16,0,0,0,.34.38.8.8,0,0,0,.43.12,1,1,0,0,0,.93-.73,4.45,4.45,0,0,0,.28-1.62A4.11,4.11,0,0,0,238.29,34.72Z"/><path class="cls-2" d="M241.49,33a1.54,1.54,0,0,1,1.39.77,3.85,3.85,0,0,1,.48,2.06,3.87,3.87,0,0,1-.48,2.07,1.64,1.64,0,0,1-2.78,0,3.87,3.87,0,0,1-.48-2.07,3.85,3.85,0,0,1,.48-2.06A1.54,1.54,0,0,1,241.49,33Zm-1.05,4,1.85-2.9a1,1,0,0,0-.38-.43.84.84,0,0,0-.42-.12,1,1,0,0,0-.88.64,3.84,3.84,0,0,0-.3,1.62c0,.15,0,.31,0,.49A5.62,5.62,0,0,0,240.44,37Zm2.08-2.26-1.83,2.91A1.16,1.16,0,0,0,241,38a.8.8,0,0,0,.43.12,1,1,0,0,0,.93-.73,4.67,4.67,0,0,0,.27-1.62A3.72,3.72,0,0,0,242.52,34.72Z"/><path class="cls-2" d="M245.56,38V33.85a5.72,5.72,0,0,1-.56.39,3.93,3.93,0,0,1-.75.33V34a4.37,4.37,0,0,0,1.31-.83h.64V38h1.29v.54h-3.24V38Z"/><path class="cls-2" d="M250,33a1.54,1.54,0,0,1,1.39.77,3.85,3.85,0,0,1,.48,2.06,3.87,3.87,0,0,1-.48,2.07,1.64,1.64,0,0,1-2.78,0,3.87,3.87,0,0,1-.48-2.07,3.85,3.85,0,0,1,.48-2.06A1.54,1.54,0,0,1,250,33Zm-1.05,4,1.85-2.9a1,1,0,0,0-.38-.43.85.85,0,0,0-.43-.12,1,1,0,0,0-.87.64,3.84,3.84,0,0,0-.3,1.62c0,.15,0,.31,0,.49A4.2,4.2,0,0,0,248.91,37ZM251,34.72l-1.83,2.91a1.16,1.16,0,0,0,.34.38.8.8,0,0,0,.43.12,1,1,0,0,0,.93-.73,4.67,4.67,0,0,0,.27-1.62A4.11,4.11,0,0,0,251,34.72Z"/><path class="cls-2" d="M254,38V33.85a5.72,5.72,0,0,1-.56.39,3.93,3.93,0,0,1-.75.33V34a4.37,4.37,0,0,0,1.31-.83h.64V38H256v.54h-3.24V38Z"/><path class="cls-2" d="M258.43,33a1.56,1.56,0,0,1,1.39.77,3.85,3.85,0,0,1,.48,2.06,3.87,3.87,0,0,1-.48,2.07,1.64,1.64,0,0,1-2.78,0,3.87,3.87,0,0,1-.48-2.07,3.85,3.85,0,0,1,.48-2.06A1.54,1.54,0,0,1,258.43,33Zm-1.05,4,1.85-2.9a1.1,1.1,0,0,0-.38-.43.85.85,0,0,0-.43-.12,1,1,0,0,0-.87.64,3.84,3.84,0,0,0-.3,1.62c0,.15,0,.31,0,.49A4.43,4.43,0,0,0,257.38,37Zm2.08-2.26-1.83,2.91A1.06,1.06,0,0,0,258,38a.8.8,0,0,0,.43.12,1,1,0,0,0,.93-.73,4.67,4.67,0,0,0,.27-1.62A4.11,4.11,0,0,0,259.46,34.72Z"/><path class="cls-2" d="M262.5,38V33.85a5.72,5.72,0,0,1-.56.39,3.93,3.93,0,0,1-.75.33V34a4.5,4.5,0,0,0,1.31-.83h.64V38h1.29v.54h-3.24V38Z"/><path class="cls-2" d="M266.89,33a1.56,1.56,0,0,1,1.4.77,3.85,3.85,0,0,1,.48,2.06,3.87,3.87,0,0,1-.48,2.07,1.56,1.56,0,0,1-1.4.77,1.54,1.54,0,0,1-1.38-.77,4.6,4.6,0,0,1,0-4.13A1.54,1.54,0,0,1,266.89,33Zm-1,4,1.85-2.9a1.1,1.1,0,0,0-.38-.43.85.85,0,0,0-.43-.12,1,1,0,0,0-.87.64,3.84,3.84,0,0,0-.3,1.62c0,.15,0,.31,0,.49A4.43,4.43,0,0,0,265.85,37Zm2.08-2.26-1.83,2.91a1.06,1.06,0,0,0,.34.38.77.77,0,0,0,.43.12,1,1,0,0,0,.93-.73,4.67,4.67,0,0,0,.27-1.62A4.11,4.11,0,0,0,267.93,34.72Z"/><path class="cls-2" d="M271,38V33.85a5.72,5.72,0,0,1-.56.39,3.93,3.93,0,0,1-.75.33V34a4.5,4.5,0,0,0,1.31-.83h.64V38h1.29v.54h-3.24V38Z"/><path class="cls-2" d="M275.21,38V33.85a5.81,5.81,0,0,1-.57.39,4.09,4.09,0,0,1-.74.33V34a4.5,4.5,0,0,0,1.31-.83h.64V38h1.28v.54H273.9V38Z"/><path class="cls-2" d="M279.6,33a1.54,1.54,0,0,1,1.39.77,3.85,3.85,0,0,1,.48,2.06A3.87,3.87,0,0,1,281,37.9a1.64,1.64,0,0,1-2.78,0,3.87,3.87,0,0,1-.48-2.07,3.85,3.85,0,0,1,.48-2.06A1.54,1.54,0,0,1,279.6,33Zm-1.05,4,1.85-2.9a1,1,0,0,0-.38-.43.84.84,0,0,0-.42-.12,1,1,0,0,0-.88.64,3.84,3.84,0,0,0-.3,1.62c0,.15,0,.31,0,.49A5.62,5.62,0,0,0,278.55,37Zm2.08-2.26-1.83,2.91a1.16,1.16,0,0,0,.34.38.8.8,0,0,0,.43.12,1,1,0,0,0,.93-.73,4.67,4.67,0,0,0,.27-1.62A3.72,3.72,0,0,0,280.63,34.72Z"/><path class="cls-2" d="M227,15.78v-.93a5,5,0,0,0,2.13.56,2,2,0,0,0,.76-.15,1.18,1.18,0,0,0,.55-.45,1.08,1.08,0,0,0,.19-.62,1.15,1.15,0,0,0-.26-.74,3.18,3.18,0,0,0-1-.76l-.5-.29-.5-.29a2.28,2.28,0,0,1-1.33-2,1.92,1.92,0,0,1,.59-1.44,2.58,2.58,0,0,1,1.85-.58,5.47,5.47,0,0,1,1.57.23V9.2a4.59,4.59,0,0,0-1.62-.31,1.53,1.53,0,0,0-1,.33,1,1,0,0,0-.39.8,1,1,0,0,0,.3.77,3.08,3.08,0,0,0,.76.57l.38.23.48.29.39.23A2.24,2.24,0,0,1,231.59,14a2.06,2.06,0,0,1-.64,1.51,2.84,2.84,0,0,1-2,.63,4.74,4.74,0,0,1-.86-.08A7.32,7.32,0,0,1,227,15.78Z"/><path class="cls-2" d="M237.5,15.57a4.75,4.75,0,0,1-2.06.52,2.39,2.39,0,0,1-1.32-.37,2.55,2.55,0,0,1-.93-1,3.24,3.24,0,0,1,0-2.89,2.66,2.66,0,0,1,.93-1.08,2.46,2.46,0,0,1,1.33-.38A1.94,1.94,0,0,1,237,11a3.29,3.29,0,0,1,.59,2.14v.19h-3.76a2.24,2.24,0,0,0,.24,1,1.66,1.66,0,0,0,.62.71,1.72,1.72,0,0,0,.88.23,4,4,0,0,0,1.94-.59Zm-3.63-2.89h2.72v-.14a1.67,1.67,0,0,0-.32-1.06,1.09,1.09,0,0,0-.88-.39,1.29,1.29,0,0,0-.95.4A2.29,2.29,0,0,0,233.87,12.68Z"/><path class="cls-2" d="M242.61,14.71a2.83,2.83,0,0,1-1,1,2.14,2.14,0,0,1-1.07.35,1.64,1.64,0,0,1-1.23-.59,2.59,2.59,0,0,1-.54-1.79,3.86,3.86,0,0,1,.36-1.7,3,3,0,0,1,1-1.17,2.49,2.49,0,0,1,1.5-.43,7,7,0,0,1,.78.05l.23,0h.91v7.58h-.91Zm0-1.08V11.29a3.32,3.32,0,0,0-.9-.13,1.79,1.79,0,0,0-1.4.65,2.66,2.66,0,0,0-.56,1.77,2,2,0,0,0,.31,1.23.86.86,0,0,0,.69.41,1.49,1.49,0,0,0,.94-.43A3.93,3.93,0,0,0,242.61,13.63Z"/><path class="cls-2" d="M250.56,13.89v-.68h1l.53-2h-1.49v-.68h1.66l.58-2.16h.71l-.57,2.16h1.39l.59-2.16h.71L255,10.52h.82v.68h-1l-.55,2h1.55v.68h-1.73l-.56,2h-.72l.56-2h-1.36l-.53,2h-.73l.54-2Zm1.67-.68h1.36l.55-2h-1.38Z"/><path class="cls-2" d="M259,15.18V9.34a7.1,7.1,0,0,1-.79.55,6.53,6.53,0,0,1-1.06.47V9.54A6.58,6.58,0,0,0,259,8.36h.91v6.82h1.82v.76h-4.58v-.76Z"/><rect class="cls-12" x="199.63" y="196.31" width="89.16" height="42.44" rx="4.65"/><path class="cls-2" d="M207.61,219a1.54,1.54,0,0,1,1.39.76,4.7,4.7,0,0,1,0,4.14,1.64,1.64,0,0,1-2.78,0,4.7,4.7,0,0,1,0-4.14A1.54,1.54,0,0,1,207.61,219Zm-1,4,1.84-2.89a1,1,0,0,0-.38-.44.88.88,0,0,0-.42-.11,1,1,0,0,0-.87.64,3.84,3.84,0,0,0-.3,1.62c0,.15,0,.31,0,.48A4.09,4.09,0,0,0,206.57,223Zm2.07-2.26-1.83,2.92a1.16,1.16,0,0,0,.34.38.8.8,0,0,0,.43.12,1,1,0,0,0,.93-.73,4.68,4.68,0,0,0,.28-1.63A3.77,3.77,0,0,0,208.64,220.7Z"/><path class="cls-2" d="M211.69,224v-4.12c-.2.15-.38.28-.56.39a7.37,7.37,0,0,1-.75.33V220a4.72,4.72,0,0,0,1.31-.83h.64V224h1.28v.53h-3.23V224Z"/><path class="cls-2" d="M215.92,224v-4.12a5.72,5.72,0,0,1-.56.39,5.79,5.79,0,0,1-.75.33V220a4.72,4.72,0,0,0,1.31-.83h.64V224h1.29v.53h-3.24V224Z"/><path class="cls-2" d="M220.31,219a1.55,1.55,0,0,1,1.4.76,4.7,4.7,0,0,1,0,4.14,1.56,1.56,0,0,1-1.4.77,1.54,1.54,0,0,1-1.38-.77,4.62,4.62,0,0,1,0-4.14A1.53,1.53,0,0,1,220.31,219Zm-1,4,1.85-2.89a1.14,1.14,0,0,0-.38-.44.91.91,0,0,0-1.3.53,3.84,3.84,0,0,0-.3,1.62c0,.15,0,.31,0,.48A4.09,4.09,0,0,0,219.27,223Zm2.08-2.26-1.83,2.92a1.06,1.06,0,0,0,.34.38.77.77,0,0,0,.43.12,1,1,0,0,0,.93-.73,4.68,4.68,0,0,0,.27-1.63A4.17,4.17,0,0,0,221.35,220.7Z"/><path class="cls-2" d="M224.39,224v-4.12a5.72,5.72,0,0,1-.56.39,5.79,5.79,0,0,1-.75.33V220a4.72,4.72,0,0,0,1.31-.83H225V224h1.29v.53h-3.24V224Z"/><path class="cls-2" d="M228.63,224v-4.12a5.81,5.81,0,0,1-.57.39,6.23,6.23,0,0,1-.74.33V220a4.72,4.72,0,0,0,1.31-.83h.64V224h1.28v.53h-3.23V224Z"/><path class="cls-2" d="M232.86,224v-4.12a5.72,5.72,0,0,1-.56.39,5.79,5.79,0,0,1-.75.33V220a4.72,4.72,0,0,0,1.31-.83h.64V224h1.29v.53h-3.24V224Z"/><path class="cls-2" d="M237.25,219a1.53,1.53,0,0,1,1.39.76,4.7,4.7,0,0,1,0,4.14,1.53,1.53,0,0,1-1.39.77,1.56,1.56,0,0,1-1.39-.77,4.7,4.7,0,0,1,0-4.14A1.55,1.55,0,0,1,237.25,219Zm-1,4,1.85-2.89a1.14,1.14,0,0,0-.38-.44.91.91,0,0,0-1.3.53,3.84,3.84,0,0,0-.3,1.62c0,.15,0,.31,0,.48A4.09,4.09,0,0,0,236.21,223Zm2.08-2.26-1.84,2.92a1.16,1.16,0,0,0,.34.38.8.8,0,0,0,.43.12,1,1,0,0,0,.93-.73,4.46,4.46,0,0,0,.28-1.63A4.17,4.17,0,0,0,238.29,220.7Z"/><path class="cls-2" d="M241.33,224v-4.12a5.72,5.72,0,0,1-.56.39,5.79,5.79,0,0,1-.75.33V220a4.72,4.72,0,0,0,1.31-.83H242V224h1.29v.53H240V224Z"/><path class="cls-2" d="M245.56,224v-4.12a5.72,5.72,0,0,1-.56.39,5.79,5.79,0,0,1-.75.33V220a4.58,4.58,0,0,0,1.31-.83h.64V224h1.29v.53h-3.24V224Z"/><path class="cls-2" d="M250,219a1.54,1.54,0,0,1,1.39.76,4.7,4.7,0,0,1,0,4.14,1.64,1.64,0,0,1-2.78,0,4.7,4.7,0,0,1,0-4.14A1.54,1.54,0,0,1,250,219Zm-1.05,4,1.85-2.89a1.06,1.06,0,0,0-.38-.44.91.91,0,0,0-1.3.53,3.84,3.84,0,0,0-.3,1.62c0,.15,0,.31,0,.48A3.91,3.91,0,0,0,248.91,223ZM251,220.7l-1.83,2.92a1.16,1.16,0,0,0,.34.38.8.8,0,0,0,.43.12,1,1,0,0,0,.93-.73,4.68,4.68,0,0,0,.27-1.63A4.17,4.17,0,0,0,251,220.7Z"/><path class="cls-2" d="M254,224v-4.12a5.72,5.72,0,0,1-.56.39,5.79,5.79,0,0,1-.75.33V220a4.58,4.58,0,0,0,1.31-.83h.64V224H256v.53h-3.24V224Z"/><path class="cls-2" d="M258.43,219a1.55,1.55,0,0,1,1.39.76,4.7,4.7,0,0,1,0,4.14,1.64,1.64,0,0,1-2.78,0,4.7,4.7,0,0,1,0-4.14A1.54,1.54,0,0,1,258.43,219Zm-1.05,4,1.85-2.89a1.14,1.14,0,0,0-.38-.44.91.91,0,0,0-1.3.53,3.84,3.84,0,0,0-.3,1.62c0,.15,0,.31,0,.48A4.09,4.09,0,0,0,257.38,223Zm2.08-2.26-1.83,2.92a1.06,1.06,0,0,0,.34.38.8.8,0,0,0,.43.12,1,1,0,0,0,.93-.73,4.68,4.68,0,0,0,.27-1.63A4.17,4.17,0,0,0,259.46,220.7Z"/><path class="cls-2" d="M262.5,224v-4.12a5.72,5.72,0,0,1-.56.39,5.79,5.79,0,0,1-.75.33V220a4.72,4.72,0,0,0,1.31-.83h.64V224h1.29v.53h-3.24V224Z"/><path class="cls-2" d="M266.89,219a1.55,1.55,0,0,1,1.4.76,4.7,4.7,0,0,1,0,4.14,1.56,1.56,0,0,1-1.4.77,1.54,1.54,0,0,1-1.38-.77,4.62,4.62,0,0,1,0-4.14A1.53,1.53,0,0,1,266.89,219Zm-1,4,1.85-2.89a1.14,1.14,0,0,0-.38-.44.91.91,0,0,0-1.3.53,3.84,3.84,0,0,0-.3,1.62c0,.15,0,.31,0,.48A4.09,4.09,0,0,0,265.85,223Zm2.08-2.26-1.83,2.92a1.06,1.06,0,0,0,.34.38.77.77,0,0,0,.43.12,1,1,0,0,0,.93-.73,4.68,4.68,0,0,0,.27-1.63A4.17,4.17,0,0,0,267.93,220.7Z"/><path class="cls-2" d="M271,224v-4.12a5.72,5.72,0,0,1-.56.39,5.79,5.79,0,0,1-.75.33V220a4.72,4.72,0,0,0,1.31-.83h.64V224h1.29v.53h-3.24V224Z"/><path class="cls-2" d="M275.36,219a1.55,1.55,0,0,1,1.4.76,4.79,4.79,0,0,1,0,4.14,1.65,1.65,0,0,1-2.79,0,4.7,4.7,0,0,1,0-4.14A1.55,1.55,0,0,1,275.36,219Zm-1,4,1.85-2.89a1.14,1.14,0,0,0-.38-.44.91.91,0,0,0-1.3.53,3.84,3.84,0,0,0-.3,1.62c0,.15,0,.31,0,.48A4.09,4.09,0,0,0,274.32,223Zm2.08-2.26-1.84,2.92a1.28,1.28,0,0,0,.34.38.82.82,0,0,0,.43.12,1,1,0,0,0,.93-.73,4.46,4.46,0,0,0,.28-1.63A4.17,4.17,0,0,0,276.4,220.7Z"/><path class="cls-2" d="M279.44,224v-4.12a5.72,5.72,0,0,1-.56.39,5.79,5.79,0,0,1-.75.33V220a4.72,4.72,0,0,0,1.31-.83h.64V224h1.29v.53h-3.24V224Z"/><path class="cls-2" d="M207.61,227.46a1.54,1.54,0,0,1,1.39.76,4.7,4.7,0,0,1,0,4.14,1.65,1.65,0,0,1-2.78,0,4.7,4.7,0,0,1,0-4.14A1.54,1.54,0,0,1,207.61,227.46Zm-1,4,1.84-2.9a1,1,0,0,0-.38-.43.88.88,0,0,0-.42-.11.94.94,0,0,0-.87.64,3.78,3.78,0,0,0-.3,1.62c0,.15,0,.31,0,.48A4.25,4.25,0,0,0,206.57,231.43Zm2.07-2.26-1.83,2.92a1.11,1.11,0,0,0,.34.37.73.73,0,0,0,.43.13,1,1,0,0,0,.93-.73,4.68,4.68,0,0,0,.28-1.63A3.77,3.77,0,0,0,208.64,229.17Z"/><path class="cls-2" d="M211.69,232.43V228.3a4.1,4.1,0,0,1-.56.39,4.59,4.59,0,0,1-.75.33v-.58a4.5,4.5,0,0,0,1.31-.83h.64v4.82h1.28V233h-3.23v-.53Z"/><path class="cls-2" d="M215.92,232.43V228.3a3.57,3.57,0,0,1-.56.39,3.93,3.93,0,0,1-.75.33v-.58a4.5,4.5,0,0,0,1.31-.83h.64v4.82h1.29V233h-3.24v-.53Z"/><path class="cls-2" d="M220.31,227.46a1.55,1.55,0,0,1,1.4.76,4.7,4.7,0,0,1,0,4.14,1.55,1.55,0,0,1-1.4.76,1.53,1.53,0,0,1-1.38-.76,4.62,4.62,0,0,1,0-4.14A1.53,1.53,0,0,1,220.31,227.46Zm-1,4,1.85-2.9a1.17,1.17,0,0,0-.38-.43.91.91,0,0,0-1.3.53,3.78,3.78,0,0,0-.3,1.62c0,.15,0,.31,0,.48A4.25,4.25,0,0,0,219.27,231.43Zm2.08-2.26-1.83,2.92a1,1,0,0,0,.34.37.71.71,0,0,0,.43.13,1,1,0,0,0,.93-.73,4.68,4.68,0,0,0,.27-1.63A4.17,4.17,0,0,0,221.35,229.17Z"/><path class="cls-2" d="M224.55,227.46a1.54,1.54,0,0,1,1.39.76,4.7,4.7,0,0,1,0,4.14,1.65,1.65,0,0,1-2.78,0,4.7,4.7,0,0,1,0-4.14A1.54,1.54,0,0,1,224.55,227.46Zm-1,4,1.84-2.9a1,1,0,0,0-.38-.43.91.91,0,0,0-.42-.11.94.94,0,0,0-.88.64,3.78,3.78,0,0,0-.3,1.62c0,.15,0,.31,0,.48A4.25,4.25,0,0,0,223.51,231.43Zm2.07-2.26-1.83,2.92a1.11,1.11,0,0,0,.34.37.73.73,0,0,0,.43.13,1,1,0,0,0,.93-.73,4.68,4.68,0,0,0,.27-1.63A3.76,3.76,0,0,0,225.58,229.17Z"/><path class="cls-2" d="M228.78,227.46a1.55,1.55,0,0,1,1.4.76,4.79,4.79,0,0,1,0,4.14,1.66,1.66,0,0,1-2.79,0,4.7,4.7,0,0,1,0-4.14A1.55,1.55,0,0,1,228.78,227.46Zm-1,4,1.85-2.9a1.17,1.17,0,0,0-.38-.43.91.91,0,0,0-1.3.53,3.78,3.78,0,0,0-.3,1.62c0,.15,0,.31,0,.48A4.25,4.25,0,0,0,227.74,231.43Zm2.08-2.26L228,232.09a1.23,1.23,0,0,0,.34.37.75.75,0,0,0,.43.13,1,1,0,0,0,.93-.73,4.46,4.46,0,0,0,.28-1.63A4.17,4.17,0,0,0,229.82,229.17Z"/><path class="cls-2" d="M232.86,232.43V228.3a3.57,3.57,0,0,1-.56.39,3.93,3.93,0,0,1-.75.33v-.58a4.5,4.5,0,0,0,1.31-.83h.64v4.82h1.29V233h-3.24v-.53Z"/><path class="cls-2" d="M237.25,227.46a1.53,1.53,0,0,1,1.39.76,4.7,4.7,0,0,1,0,4.14,1.53,1.53,0,0,1-1.39.76,1.55,1.55,0,0,1-1.39-.76,4.7,4.7,0,0,1,0-4.14A1.55,1.55,0,0,1,237.25,227.46Zm-1,4,1.85-2.9a1.17,1.17,0,0,0-.38-.43.91.91,0,0,0-1.3.53,3.78,3.78,0,0,0-.3,1.62c0,.15,0,.31,0,.48A4.25,4.25,0,0,0,236.21,231.43Zm2.08-2.26-1.84,2.92a1.11,1.11,0,0,0,.34.37.73.73,0,0,0,.43.13,1,1,0,0,0,.93-.73,4.46,4.46,0,0,0,.28-1.63A4.17,4.17,0,0,0,238.29,229.17Z"/><path class="cls-2" d="M241.49,227.46a1.54,1.54,0,0,1,1.39.76,4.7,4.7,0,0,1,0,4.14,1.65,1.65,0,0,1-2.78,0,4.7,4.7,0,0,1,0-4.14A1.54,1.54,0,0,1,241.49,227.46Zm-1.05,4,1.85-2.9a1.09,1.09,0,0,0-.38-.43.91.91,0,0,0-1.3.53,3.78,3.78,0,0,0-.3,1.62c0,.15,0,.31,0,.48A5.35,5.35,0,0,0,240.44,231.43Zm2.08-2.26-1.83,2.92a1.11,1.11,0,0,0,.34.37.73.73,0,0,0,.43.13,1,1,0,0,0,.93-.73,4.68,4.68,0,0,0,.27-1.63A3.76,3.76,0,0,0,242.52,229.17Z"/><path class="cls-2" d="M245.56,232.43V228.3a3.57,3.57,0,0,1-.56.39,3.93,3.93,0,0,1-.75.33v-.58a4.37,4.37,0,0,0,1.31-.83h.64v4.82h1.29V233h-3.24v-.53Z"/><path class="cls-2" d="M250,227.46a1.54,1.54,0,0,1,1.39.76,4.7,4.7,0,0,1,0,4.14,1.65,1.65,0,0,1-2.78,0,4.7,4.7,0,0,1,0-4.14A1.54,1.54,0,0,1,250,227.46Zm-1.05,4,1.85-2.9a1.09,1.09,0,0,0-.38-.43.91.91,0,0,0-1.3.53,3.78,3.78,0,0,0-.3,1.62c0,.15,0,.31,0,.48A4.05,4.05,0,0,0,248.91,231.43Zm2.08-2.26-1.83,2.92a1.11,1.11,0,0,0,.34.37.73.73,0,0,0,.43.13,1,1,0,0,0,.93-.73,4.68,4.68,0,0,0,.27-1.63A4.17,4.17,0,0,0,251,229.17Z"/><path class="cls-2" d="M254,232.43V228.3a3.57,3.57,0,0,1-.56.39,3.93,3.93,0,0,1-.75.33v-.58a4.37,4.37,0,0,0,1.31-.83h.64v4.82H256V233h-3.24v-.53Z"/><path class="cls-2" d="M258.43,227.46a1.55,1.55,0,0,1,1.39.76,4.7,4.7,0,0,1,0,4.14,1.65,1.65,0,0,1-2.78,0,4.7,4.7,0,0,1,0-4.14A1.54,1.54,0,0,1,258.43,227.46Zm-1.05,4,1.85-2.9a1.17,1.17,0,0,0-.38-.43.91.91,0,0,0-1.3.53,3.78,3.78,0,0,0-.3,1.62c0,.15,0,.31,0,.48A4.25,4.25,0,0,0,257.38,231.43Zm2.08-2.26-1.83,2.92a1,1,0,0,0,.34.37.73.73,0,0,0,.43.13,1,1,0,0,0,.93-.73,4.68,4.68,0,0,0,.27-1.63A4.17,4.17,0,0,0,259.46,229.17Z"/><path class="cls-2" d="M262.5,232.43V228.3a3.57,3.57,0,0,1-.56.39,3.93,3.93,0,0,1-.75.33v-.58a4.5,4.5,0,0,0,1.31-.83h.64v4.82h1.29V233h-3.24v-.53Z"/><path class="cls-2" d="M266.89,227.46a1.55,1.55,0,0,1,1.4.76,4.7,4.7,0,0,1,0,4.14,1.55,1.55,0,0,1-1.4.76,1.53,1.53,0,0,1-1.38-.76,4.62,4.62,0,0,1,0-4.14A1.53,1.53,0,0,1,266.89,227.46Zm-1,4,1.85-2.9a1.17,1.17,0,0,0-.38-.43.91.91,0,0,0-1.3.53,3.78,3.78,0,0,0-.3,1.62c0,.15,0,.31,0,.48A4.25,4.25,0,0,0,265.85,231.43Zm2.08-2.26-1.83,2.92a1,1,0,0,0,.34.37.71.71,0,0,0,.43.13,1,1,0,0,0,.93-.73,4.68,4.68,0,0,0,.27-1.63A4.17,4.17,0,0,0,267.93,229.17Z"/><path class="cls-2" d="M271,232.43V228.3a3.57,3.57,0,0,1-.56.39,3.93,3.93,0,0,1-.75.33v-.58a4.5,4.5,0,0,0,1.31-.83h.64v4.82h1.29V233h-3.24v-.53Z"/><path class="cls-2" d="M275.21,232.43V228.3a3.62,3.62,0,0,1-.57.39,4.09,4.09,0,0,1-.74.33v-.58a4.5,4.5,0,0,0,1.31-.83h.64v4.82h1.28V233H273.9v-.53Z"/><path class="cls-2" d="M279.6,227.46a1.54,1.54,0,0,1,1.39.76,4.7,4.7,0,0,1,0,4.14,1.65,1.65,0,0,1-2.78,0,4.7,4.7,0,0,1,0-4.14A1.54,1.54,0,0,1,279.6,227.46Zm-1.05,4,1.85-2.9a1.09,1.09,0,0,0-.38-.43.91.91,0,0,0-1.3.53,3.78,3.78,0,0,0-.3,1.62c0,.15,0,.31,0,.48A5.35,5.35,0,0,0,278.55,231.43Zm2.08-2.26-1.83,2.92a1.11,1.11,0,0,0,.34.37.73.73,0,0,0,.43.13,1,1,0,0,0,.93-.73,4.68,4.68,0,0,0,.27-1.63A3.76,3.76,0,0,0,280.63,229.17Z"/><path class="cls-2" d="M227,210.23v-.93a4.93,4.93,0,0,0,2.13.57,2,2,0,0,0,.76-.16,1.16,1.16,0,0,0,.55-.44,1.09,1.09,0,0,0,.19-.63,1.17,1.17,0,0,0-.26-.74,3.34,3.34,0,0,0-1-.76l-.5-.28-.5-.3a2.26,2.26,0,0,1-1.33-1.95,1.92,1.92,0,0,1,.59-1.44,2.54,2.54,0,0,1,1.85-.59,5.47,5.47,0,0,1,1.57.23v.85a4.62,4.62,0,0,0-1.62-.32,1.53,1.53,0,0,0-1,.33,1,1,0,0,0-.39.81,1.06,1.06,0,0,0,.3.77,3.67,3.67,0,0,0,.76.57l.38.23.48.28.39.24a2.23,2.23,0,0,1,1.25,1.91A2.06,2.06,0,0,1,231,210a2.84,2.84,0,0,1-2,.63,4.76,4.76,0,0,1-.86-.07A7.59,7.59,0,0,1,227,210.23Z"/><path class="cls-2" d="M237.5,210a4.87,4.87,0,0,1-2.06.51,2.47,2.47,0,0,1-1.32-.36,2.64,2.64,0,0,1-.93-1.05,3.17,3.17,0,0,1-.35-1.45,3.3,3.3,0,0,1,.33-1.44,2.63,2.63,0,0,1,.93-1.07,2.37,2.37,0,0,1,1.33-.38,1.94,1.94,0,0,1,1.56.69,3.24,3.24,0,0,1,.59,2.13v.2h-3.76a2.27,2.27,0,0,0,.24,1,1.58,1.58,0,0,0,.62.7,1.64,1.64,0,0,0,.88.24,4.12,4.12,0,0,0,1.94-.59Zm-3.63-2.9h2.72V207a1.63,1.63,0,0,0-.32-1.06,1.1,1.1,0,0,0-.88-.4,1.29,1.29,0,0,0-.95.41A2.26,2.26,0,0,0,233.87,207.13Z"/><path class="cls-2" d="M242.61,209.17a2.91,2.91,0,0,1-1,1,2.11,2.11,0,0,1-1.07.34,1.61,1.61,0,0,1-1.23-.59,2.57,2.57,0,0,1-.54-1.79,3.85,3.85,0,0,1,.36-1.69,3,3,0,0,1,1-1.18,2.49,2.49,0,0,1,1.5-.43c.17,0,.43,0,.78,0l.23,0h.91v7.57h-.91Zm0-1.08v-2.35a3.72,3.72,0,0,0-.9-.12,1.76,1.76,0,0,0-1.4.65,2.63,2.63,0,0,0-.56,1.77,2,2,0,0,0,.31,1.22.84.84,0,0,0,.69.41,1.49,1.49,0,0,0,.94-.43A3.88,3.88,0,0,0,242.61,208.09Z"/><path class="cls-2" d="M250.56,208.35v-.69h1l.53-2h-1.49V205h1.66l.58-2.17h.71l-.57,2.17h1.39l.59-2.17h.71L255,205h.82v.68h-1l-.55,2h1.55v.69h-1.73l-.56,2h-.72l.56-2h-1.36l-.53,2h-.73l.54-2Zm1.67-.69h1.36l.55-2h-1.38Z"/><path class="cls-2" d="M259,209.64v-5.85a6,6,0,0,1-.79.55,5.76,5.76,0,0,1-1.06.47V204a6.16,6.16,0,0,0,1.85-1.18h.91v6.83h1.82v.75h-4.58v-.75Z"/></svg>