<svg id="Layer_1" data-name="Layer 1" xmlns="http://www.w3.org/2000/svg" width="493.72" height="202.31" viewBox="0 0 493.72 202.31"><defs><style>.cls-1{fill:#0a2a66;}.cls-2{fill:#fff;}.cls-11,.cls-13,.cls-3,.cls-4,.cls-5{fill:none;stroke-linecap:round;}.cls-3{stroke:#37c5fd;}.cls-10,.cls-11,.cls-13,.cls-15,.cls-16,.cls-3,.cls-4,.cls-5,.cls-9{stroke-miterlimit:10;}.cls-3,.cls-5{stroke-width:4.44px;}.cls-4{stroke:#10a7e3;stroke-width:7.22px;}.cls-5{stroke:#c3eefe;}.cls-6{fill:#37c5fd;}.cls-7{fill:#10a7e3;}.cls-8{fill:#65d0fa;}.cls-14,.cls-16,.cls-9{fill:#ff714d;}.cls-16,.cls-9{stroke:#ffb8a6;}.cls-9{stroke-width:0.97px;}.cls-10,.cls-12,.cls-15{fill:#14bf96;}.cls-10,.cls-15{stroke:#00e5ae;}.cls-10,.cls-16{stroke-width:0.77px;}.cls-11{stroke:#14bf96;}.cls-11,.cls-13{stroke-width:5px;}.cls-13{stroke:#ff714d;}.cls-15{stroke-width:1.05px;}</style></defs><title>TCP out of order packet</title><rect class="cls-1" y="48.64" width="136.01" height="136.01" rx="2.79"/><rect class="cls-2" x="5.84" y="54.49" width="124.32" height="76.5"/><line class="cls-3" x1="39.66" y1="72.93" x2="55.25" y2="72.93"/><line class="cls-4" x1="29.51" y1="72.93" x2="29.51" y2="72.93"/><line class="cls-3" x1="39.66" y1="89.52" x2="55.25" y2="89.52"/><line class="cls-4" x1="29.51" y1="89.52" x2="29.51" y2="89.52"/><line class="cls-3" x1="39.66" y1="106.11" x2="55.25" y2="106.11"/><line class="cls-4" x1="29.51" y1="106.11" x2="29.51" y2="106.11"/><line class="cls-5" x1="64.58" y1="72.93" x2="108.36" y2="72.93"/><line class="cls-5" x1="64.58" y1="81.22" x2="98.76" y2="81.22"/><line class="cls-5" x1="64.58" y1="97.82" x2="98.76" y2="97.82"/><line class="cls-5" x1="64.58" y1="114.41" x2="98.76" y2="114.41"/><line class="cls-5" x1="64.58" y1="89.52" x2="108.36" y2="89.52"/><line class="cls-5" x1="64.58" y1="106.11" x2="108.36" y2="106.11"/><path class="cls-6" d="M0,131H136a0,0,0,0,1,0,0v59.22a4,4,0,0,1-4,4H4a4,4,0,0,1-4-4V131A0,0,0,0,1,0,131Z"/><rect class="cls-7" x="5.84" y="137.9" width="9.03" height="9.03" rx="1.11"/><rect class="cls-7" x="17.37" y="137.9" width="9.03" height="9.03" rx="1.11"/><rect class="cls-7" x="28.9" y="137.9" width="9.03" height="9.03" rx="1.11"/><rect class="cls-7" x="40.43" y="137.9" width="9.03" height="9.03" rx="1.11"/><rect class="cls-7" x="51.96" y="137.9" width="9.03" height="9.03" rx="1.11"/><rect class="cls-7" x="63.49" y="137.9" width="9.03" height="9.03" rx="1.11"/><rect class="cls-7" x="75.02" y="137.9" width="9.03" height="9.03" rx="1.11"/><rect class="cls-7" x="86.55" y="137.9" width="9.03" height="9.03" rx="1.11"/><rect class="cls-7" x="98.07" y="137.9" width="9.03" height="9.03" rx="1.11"/><rect class="cls-7" x="109.6" y="137.9" width="9.03" height="9.03" rx="1.11"/><rect class="cls-7" x="121.13" y="137.9" width="9.03" height="9.03" rx="1.11"/><rect class="cls-7" x="17.37" y="150.12" width="9.03" height="9.03" rx="1.11"/><rect class="cls-7" x="28.9" y="150.12" width="9.03" height="9.03" rx="1.11"/><rect class="cls-7" x="40.43" y="150.12" width="9.03" height="9.03" rx="1.11"/><rect class="cls-7" x="51.96" y="150.12" width="9.03" height="9.03" rx="1.11"/><rect class="cls-7" x="63.49" y="150.12" width="9.03" height="9.03" rx="1.11"/><rect class="cls-7" x="75.02" y="150.12" width="9.03" height="9.03" rx="1.11"/><rect class="cls-7" x="86.55" y="150.12" width="9.03" height="9.03" rx="1.11"/><rect class="cls-7" x="98.07" y="150.12" width="9.03" height="9.03" rx="1.11"/><rect class="cls-7" x="109.6" y="150.12" width="9.03" height="9.03" rx="1.11"/><rect class="cls-7" x="5.84" y="162.34" width="9.03" height="9.03" rx="1.11"/><rect class="cls-7" x="17.37" y="162.34" width="9.03" height="9.03" rx="1.11"/><rect class="cls-7" x="28.9" y="162.34" width="9.03" height="9.03" rx="1.11"/><rect class="cls-7" x="40.43" y="162.34" width="9.03" height="9.03" rx="1.11"/><rect class="cls-7" x="51.96" y="162.34" width="9.03" height="9.03" rx="1.11"/><rect class="cls-7" x="63.49" y="162.34" width="9.03" height="9.03" rx="1.11"/><rect class="cls-7" x="75.02" y="162.34" width="9.03" height="9.03" rx="1.11"/><rect class="cls-7" x="86.55" y="162.34" width="9.03" height="9.03" rx="1.11"/><rect class="cls-7" x="98.07" y="162.34" width="9.03" height="9.03" rx="1.11"/><rect class="cls-7" x="109.6" y="162.34" width="9.03" height="9.03" rx="1.11"/><rect class="cls-7" x="121.13" y="162.34" width="9.03" height="9.03" rx="1.11"/><rect class="cls-7" x="42.5" y="162.34" width="51" height="9.03" rx="1.11"/><rect class="cls-8" x="49.94" y="175.09" width="34" height="14.34" rx="2.29"/><rect class="cls-1" x="357.71" y="48.64" width="136.01" height="136.01" rx="2.79"/><rect class="cls-2" x="363.55" y="54.49" width="124.32" height="76.5"/><line class="cls-3" x1="397.37" y1="72.93" x2="412.95" y2="72.93"/><line class="cls-4" x1="387.21" y1="72.93" x2="387.21" y2="72.93"/><line class="cls-3" x1="397.37" y1="89.52" x2="412.95" y2="89.52"/><line class="cls-4" x1="387.21" y1="89.52" x2="387.21" y2="89.52"/><line class="cls-3" x1="397.37" y1="106.11" x2="412.95" y2="106.11"/><line class="cls-4" x1="387.21" y1="106.11" x2="387.21" y2="106.11"/><line class="cls-5" x1="422.29" y1="72.93" x2="466.07" y2="72.93"/><line class="cls-5" x1="422.29" y1="81.22" x2="456.47" y2="81.22"/><line class="cls-5" x1="422.29" y1="97.82" x2="456.47" y2="97.82"/><line class="cls-5" x1="422.29" y1="114.41" x2="456.47" y2="114.41"/><line class="cls-5" x1="422.29" y1="89.52" x2="466.07" y2="89.52"/><line class="cls-5" x1="422.29" y1="106.11" x2="466.07" y2="106.11"/><path class="cls-6" d="M357.71,131h136a0,0,0,0,1,0,0v59.22a4,4,0,0,1-4,4h-128a4,4,0,0,1-4-4V131A0,0,0,0,1,357.71,131Z"/><rect class="cls-7" x="363.55" y="137.9" width="9.03" height="9.03" rx="1.11"/><rect class="cls-7" x="375.08" y="137.9" width="9.03" height="9.03" rx="1.11"/><rect class="cls-7" x="386.61" y="137.9" width="9.03" height="9.03" rx="1.11"/><rect class="cls-7" x="398.14" y="137.9" width="9.03" height="9.03" rx="1.11"/><rect class="cls-7" x="409.67" y="137.9" width="9.03" height="9.03" rx="1.11"/><rect class="cls-7" x="421.2" y="137.9" width="9.03" height="9.03" rx="1.11"/><rect class="cls-7" x="432.72" y="137.9" width="9.03" height="9.03" rx="1.11"/><rect class="cls-7" x="444.25" y="137.9" width="9.03" height="9.03" rx="1.11"/><rect class="cls-7" x="455.78" y="137.9" width="9.03" height="9.03" rx="1.11"/><rect class="cls-7" x="467.31" y="137.9" width="9.03" height="9.03" rx="1.11"/><rect class="cls-7" x="478.84" y="137.9" width="9.03" height="9.03" rx="1.11"/><rect class="cls-7" x="375.08" y="150.12" width="9.03" height="9.03" rx="1.11"/><rect class="cls-7" x="386.61" y="150.12" width="9.03" height="9.03" rx="1.11"/><rect class="cls-7" x="398.14" y="150.12" width="9.03" height="9.03" rx="1.11"/><rect class="cls-7" x="409.67" y="150.12" width="9.03" height="9.03" rx="1.11"/><rect class="cls-7" x="421.2" y="150.12" width="9.03" height="9.03" rx="1.11"/><rect class="cls-7" x="432.72" y="150.12" width="9.03" height="9.03" rx="1.11"/><rect class="cls-7" x="444.25" y="150.12" width="9.03" height="9.03" rx="1.11"/><rect class="cls-7" x="455.78" y="150.12" width="9.03" height="9.03" rx="1.11"/><rect class="cls-7" x="467.31" y="150.12" width="9.03" height="9.03" rx="1.11"/><rect class="cls-7" x="363.55" y="162.34" width="9.03" height="9.03" rx="1.11"/><rect class="cls-7" x="375.08" y="162.34" width="9.03" height="9.03" rx="1.11"/><rect class="cls-7" x="386.61" y="162.34" width="9.03" height="9.03" rx="1.11"/><rect class="cls-7" x="398.14" y="162.34" width="9.03" height="9.03" rx="1.11"/><rect class="cls-7" x="409.67" y="162.34" width="9.03" height="9.03" rx="1.11"/><rect class="cls-7" x="421.2" y="162.34" width="9.03" height="9.03" rx="1.11"/><rect class="cls-7" x="432.72" y="162.34" width="9.03" height="9.03" rx="1.11"/><rect class="cls-7" x="444.25" y="162.34" width="9.03" height="9.03" rx="1.11"/><rect class="cls-7" x="455.78" y="162.34" width="9.03" height="9.03" rx="1.11"/><rect class="cls-7" x="467.31" y="162.34" width="9.03" height="9.03" rx="1.11"/><rect class="cls-7" x="478.84" y="162.34" width="9.03" height="9.03" rx="1.11"/><rect class="cls-7" x="400.21" y="162.34" width="51" height="9.03" rx="1.11"/><rect class="cls-8" x="407.65" y="175.09" width="34" height="14.34" rx="2.29"/><rect class="cls-9" x="197.43" y="107.41" width="89.16" height="35.85" rx="4.27"/><path class="cls-2" d="M205.41,130.09a1.54,1.54,0,0,1,1.4.77,4.77,4.77,0,0,1,0,4.13,1.65,1.65,0,0,1-2.79,0,4.68,4.68,0,0,1,0-4.13A1.54,1.54,0,0,1,205.41,130.09Zm-1,4,1.85-2.89a1.14,1.14,0,0,0-.38-.44.91.91,0,0,0-1.3.53,3.84,3.84,0,0,0-.3,1.62c0,.15,0,.31,0,.48A4.09,4.09,0,0,0,204.37,134.06Zm2.08-2.26-1.84,2.92a1.28,1.28,0,0,0,.34.38.82.82,0,0,0,.43.12,1,1,0,0,0,.93-.73,4.45,4.45,0,0,0,.28-1.62A4.18,4.18,0,0,0,206.45,131.8Z"/><path class="cls-2" d="M209.65,130.09a1.53,1.53,0,0,1,1.39.77,4.68,4.68,0,0,1,0,4.13,1.64,1.64,0,0,1-2.78,0,4.68,4.68,0,0,1,0-4.13A1.53,1.53,0,0,1,209.65,130.09Zm-1.05,4,1.85-2.89a1.06,1.06,0,0,0-.38-.44.94.94,0,0,0-.42-.11,1,1,0,0,0-.88.64,3.84,3.84,0,0,0-.3,1.62c0,.15,0,.31,0,.48A5.11,5.11,0,0,0,208.6,134.06Zm2.08-2.26-1.83,2.92a1.16,1.16,0,0,0,.34.38.8.8,0,0,0,.43.12,1,1,0,0,0,.93-.73,4.67,4.67,0,0,0,.27-1.62A3.79,3.79,0,0,0,210.68,131.8Z"/><path class="cls-2" d="M213.72,135.06v-4.12a5.72,5.72,0,0,1-.56.39,6.23,6.23,0,0,1-.74.33v-.58a4.66,4.66,0,0,0,1.3-.83h.64v4.81h1.29v.53h-3.23v-.53Z"/><path class="cls-2" d="M218.12,130.09a1.53,1.53,0,0,1,1.39.77,4.68,4.68,0,0,1,0,4.13,1.64,1.64,0,0,1-2.78,0,4.68,4.68,0,0,1,0-4.13A1.53,1.53,0,0,1,218.12,130.09Zm-1.05,4,1.85-2.89a1.06,1.06,0,0,0-.38-.44.94.94,0,0,0-.42-.11,1,1,0,0,0-.88.64,3.84,3.84,0,0,0-.3,1.62c0,.15,0,.31,0,.48A3.91,3.91,0,0,0,217.07,134.06Zm2.08-2.26-1.83,2.92a1.16,1.16,0,0,0,.34.38.8.8,0,0,0,.43.12,1,1,0,0,0,.93-.73,4.67,4.67,0,0,0,.27-1.62A3.79,3.79,0,0,0,219.15,131.8Z"/><path class="cls-2" d="M222.19,135.06v-4.12a5.72,5.72,0,0,1-.56.39,5.79,5.79,0,0,1-.75.33v-.58a4.58,4.58,0,0,0,1.31-.83h.64v4.81h1.29v.53h-3.24v-.53Z"/><path class="cls-2" d="M226.43,135.06v-4.12a5.72,5.72,0,0,1-.56.39,6.49,6.49,0,0,1-.75.33v-.58a4.72,4.72,0,0,0,1.31-.83h.64v4.81h1.28v.53h-3.23v-.53Z"/><path class="cls-2" d="M230.66,135.06v-4.12a5.72,5.72,0,0,1-.56.39,5.79,5.79,0,0,1-.75.33v-.58a4.58,4.58,0,0,0,1.31-.83h.64v4.81h1.29v.53h-3.24v-.53Z"/><path class="cls-2" d="M235.06,130.09a1.53,1.53,0,0,1,1.39.77,4.68,4.68,0,0,1,0,4.13,1.64,1.64,0,0,1-2.78,0,4.6,4.6,0,0,1,0-4.13A1.53,1.53,0,0,1,235.06,130.09Zm-1.05,4,1.85-2.89a1.14,1.14,0,0,0-.38-.44.91.91,0,0,0-1.3.53,3.84,3.84,0,0,0-.3,1.62c0,.15,0,.31,0,.48A4.09,4.09,0,0,0,234,134.06Zm2.08-2.26-1.84,2.92a1.18,1.18,0,0,0,.35.38.8.8,0,0,0,.43.12,1,1,0,0,0,.93-.73,4.67,4.67,0,0,0,.27-1.62A4.18,4.18,0,0,0,236.09,131.8Z"/><path class="cls-2" d="M239.13,135.06v-4.12a5.72,5.72,0,0,1-.56.39,5.79,5.79,0,0,1-.75.33v-.58a4.58,4.58,0,0,0,1.31-.83h.64v4.81h1.29v.53h-3.24v-.53Z"/><path class="cls-2" d="M243.37,135.06v-4.12c-.2.15-.38.28-.56.39a7.37,7.37,0,0,1-.75.33v-.58a4.72,4.72,0,0,0,1.31-.83H244v4.81h1.28v.53h-3.23v-.53Z"/><path class="cls-2" d="M247.76,130.09a1.53,1.53,0,0,1,1.39.77,4.68,4.68,0,0,1,0,4.13,1.64,1.64,0,0,1-2.78,0,4.68,4.68,0,0,1,0-4.13A1.53,1.53,0,0,1,247.76,130.09Zm-1,4,1.84-2.89a1,1,0,0,0-.38-.44.91.91,0,0,0-.42-.11,1,1,0,0,0-.88.64,3.84,3.84,0,0,0-.3,1.62c0,.15,0,.31,0,.48A4.09,4.09,0,0,0,246.72,134.06Zm2.07-2.26L247,134.72a1.16,1.16,0,0,0,.34.38.8.8,0,0,0,.43.12,1,1,0,0,0,.93-.73,4.67,4.67,0,0,0,.27-1.62A3.79,3.79,0,0,0,248.79,131.8Z"/><path class="cls-2" d="M252,130.09a1.54,1.54,0,0,1,1.4.77,4.77,4.77,0,0,1,0,4.13,1.65,1.65,0,0,1-2.79,0,4.68,4.68,0,0,1,0-4.13A1.54,1.54,0,0,1,252,130.09Zm-1,4,1.85-2.89a1.14,1.14,0,0,0-.38-.44.91.91,0,0,0-1.3.53,3.84,3.84,0,0,0-.3,1.62c0,.15,0,.31,0,.48A4.09,4.09,0,0,0,251,134.06ZM253,131.8l-1.84,2.92a1.28,1.28,0,0,0,.34.38.82.82,0,0,0,.43.12,1,1,0,0,0,.93-.73,4.45,4.45,0,0,0,.28-1.62A4.18,4.18,0,0,0,253,131.8Z"/><path class="cls-2" d="M256.23,130.09a1.53,1.53,0,0,1,1.39.77,4.68,4.68,0,0,1,0,4.13,1.64,1.64,0,0,1-2.78,0,4.68,4.68,0,0,1,0-4.13A1.53,1.53,0,0,1,256.23,130.09Zm-1.05,4,1.85-2.89a1,1,0,0,0-.38-.44.94.94,0,0,0-.42-.11,1,1,0,0,0-.88.64,3.84,3.84,0,0,0-.3,1.62c0,.15,0,.31,0,.48A5.11,5.11,0,0,0,255.18,134.06Zm2.08-2.26-1.83,2.92a1.16,1.16,0,0,0,.34.38.8.8,0,0,0,.43.12,1,1,0,0,0,.93-.73,4.67,4.67,0,0,0,.27-1.62A3.79,3.79,0,0,0,257.26,131.8Z"/><path class="cls-2" d="M260.3,135.06v-4.12a5.72,5.72,0,0,1-.56.39,6.23,6.23,0,0,1-.74.33v-.58a4.66,4.66,0,0,0,1.3-.83h.64v4.81h1.29v.53H259v-.53Z"/><path class="cls-2" d="M264.7,130.09a1.53,1.53,0,0,1,1.39.77,4.68,4.68,0,0,1,0,4.13,1.64,1.64,0,0,1-2.78,0,4.68,4.68,0,0,1,0-4.13A1.53,1.53,0,0,1,264.7,130.09Zm-1.05,4,1.85-2.89a1.06,1.06,0,0,0-.38-.44.94.94,0,0,0-.42-.11,1,1,0,0,0-.88.64,3.84,3.84,0,0,0-.3,1.62c0,.15,0,.31,0,.48A3.91,3.91,0,0,0,263.65,134.06Zm2.08-2.26-1.83,2.92a1.16,1.16,0,0,0,.34.38.8.8,0,0,0,.43.12,1,1,0,0,0,.93-.73,4.67,4.67,0,0,0,.27-1.62A3.79,3.79,0,0,0,265.73,131.8Z"/><path class="cls-2" d="M268.77,135.06v-4.12a5.72,5.72,0,0,1-.56.39,5.79,5.79,0,0,1-.75.33v-.58a4.58,4.58,0,0,0,1.31-.83h.65v4.81h1.28v.53h-3.24v-.53Z"/><path class="cls-2" d="M273.17,130.09a1.53,1.53,0,0,1,1.39.77,4.68,4.68,0,0,1,0,4.13,1.64,1.64,0,0,1-2.78,0,4.68,4.68,0,0,1,0-4.13A1.53,1.53,0,0,1,273.17,130.09Zm-1.05,4,1.85-2.89a1.06,1.06,0,0,0-.38-.44.94.94,0,0,0-.42-.11,1,1,0,0,0-.88.64,3.84,3.84,0,0,0-.3,1.62c0,.15,0,.31,0,.48A4.09,4.09,0,0,0,272.12,134.06Zm2.08-2.26-1.83,2.92a1.16,1.16,0,0,0,.34.38.8.8,0,0,0,.43.12,1,1,0,0,0,.93-.73,4.67,4.67,0,0,0,.27-1.62A4.18,4.18,0,0,0,274.2,131.8Z"/><path class="cls-2" d="M277.24,135.06v-4.12a5.72,5.72,0,0,1-.56.39,5.79,5.79,0,0,1-.75.33v-.58a4.58,4.58,0,0,0,1.31-.83h.64v4.81h1.29v.53h-3.24v-.53Z"/><path class="cls-2" d="M221.78,121.33v-.93a4.89,4.89,0,0,0,2.12.57,2,2,0,0,0,.76-.16,1.19,1.19,0,0,0,.56-.44,1.16,1.16,0,0,0,.18-.63,1.22,1.22,0,0,0-.25-.74,3.57,3.57,0,0,0-1-.76l-.5-.28-.5-.29a2.28,2.28,0,0,1-1.33-2,2,2,0,0,1,.59-1.44,2.58,2.58,0,0,1,1.86-.58,5.13,5.13,0,0,1,1.56.23v.84a4.53,4.53,0,0,0-1.62-.32,1.48,1.48,0,0,0-1,.34,1,1,0,0,0-.39.8,1,1,0,0,0,.3.77,3.08,3.08,0,0,0,.76.57l.38.23.48.29.39.23a2.24,2.24,0,0,1,1.25,1.92,2,2,0,0,1-.64,1.5,2.83,2.83,0,0,1-2.05.63,4.64,4.64,0,0,1-.85-.07A7.22,7.22,0,0,1,221.78,121.33Z"/><path class="cls-2" d="M232.3,121.13a4.86,4.86,0,0,1-2.06.52,2.47,2.47,0,0,1-1.32-.37,2.57,2.57,0,0,1-.92-1,3,3,0,0,1-.35-1.45,3.16,3.16,0,0,1,.33-1.44,2.56,2.56,0,0,1,.93-1.07,2.42,2.42,0,0,1,1.32-.38,1.94,1.94,0,0,1,1.56.69,3.26,3.26,0,0,1,.59,2.14v.19h-3.76a2.24,2.24,0,0,0,.24,1,1.62,1.62,0,0,0,1.5.94,4.09,4.09,0,0,0,1.94-.59Zm-3.63-2.9h2.73v-.13a1.6,1.6,0,0,0-.33-1.06,1.09,1.09,0,0,0-.88-.39,1.3,1.3,0,0,0-.95.4A2.26,2.26,0,0,0,228.67,118.23Z"/><path class="cls-2" d="M237.42,120.27a3,3,0,0,1-1,1,2.17,2.17,0,0,1-1.08.35,1.65,1.65,0,0,1-1.23-.6,2.57,2.57,0,0,1-.54-1.79,3.85,3.85,0,0,1,.36-1.69,3,3,0,0,1,1-1.18,2.56,2.56,0,0,1,1.5-.43,7.59,7.59,0,0,1,.78.06l.23,0h.91v7.57h-.9Zm0-1.08v-2.34a3.44,3.44,0,0,0-.91-.13,1.79,1.79,0,0,0-1.4.65,2.63,2.63,0,0,0-.56,1.77,2,2,0,0,0,.31,1.22.87.87,0,0,0,.7.42,1.6,1.6,0,0,0,.94-.43A4.25,4.25,0,0,0,237.42,119.19Z"/><path class="cls-2" d="M245.36,119.45v-.69h1l.53-2h-1.49v-.68H247l.57-2.16h.71l-.57,2.16h1.39l.59-2.16h.71l-.59,2.16h.83v.68h-1l-.54,2h1.55v.69h-1.74l-.56,2h-.72l.56-2h-1.35l-.54,2h-.72l.54-2Zm1.68-.69h1.36l.54-2h-1.38Z"/><path class="cls-2" d="M252.57,121.49v-.67a4.26,4.26,0,0,1,.18-1.34,4.77,4.77,0,0,1,.64-1.21q.45-.66.72-1l.79-1,.29-.37a5,5,0,0,0,.56-1h-3.93v-.91h4.8v.6a1.52,1.52,0,0,1-.14.67,12.23,12.23,0,0,1-.87,1.31l-.35.48-.51.71c-.32.46-.56.83-.72,1.1a4,4,0,0,0-.35.86,4.56,4.56,0,0,0-.12,1.17v.67Z"/><path class="cls-2" d="M257.72,121.36v-1a4.43,4.43,0,0,0,1.94.57,1.76,1.76,0,0,0,1.24-.46,1.53,1.53,0,0,0,.5-1.17,1.44,1.44,0,0,0-.55-1.18,2.86,2.86,0,0,0-1.83-.46h-.5V117h.7a1.85,1.85,0,0,0,1.37-.43,1.29,1.29,0,0,0,.43-1,1.08,1.08,0,0,0-.35-.8,1.53,1.53,0,0,0-1.06-.32,4,4,0,0,0-1.74.45V114a5,5,0,0,1,1.7-.35,2.58,2.58,0,0,1,1.91.55,1.72,1.72,0,0,1,.52,1.24,1.87,1.87,0,0,1-.27,1,2.41,2.41,0,0,1-1,.81,2.82,2.82,0,0,1,1,.48,2,2,0,0,1,.51.67,2.13,2.13,0,0,1,.17.86,2.23,2.23,0,0,1-.79,1.76,3,3,0,0,1-2,.69,5.67,5.67,0,0,1-.79,0A4.45,4.45,0,0,1,257.72,121.36Z"/><rect class="cls-10" x="198.36" y="63.5" width="89.16" height="22.53" rx="3.39"/><path class="cls-2" d="M223.05,77.62h-1L224.44,70h1l2.34,7.58h-1L226.23,76h-2.67Zm.75-2.42H226l-.92-2.88-.21-.77-.19.77Z"/><path class="cls-2" d="M233.29,77.46a5.33,5.33,0,0,1-1.74.31,2.84,2.84,0,0,1-1.46-.38,2.58,2.58,0,0,1-1-1,3,3,0,0,1-.36-1.47,2.83,2.83,0,0,1,.81-2.06A2.67,2.67,0,0,1,231.5,72a5.7,5.7,0,0,1,1.79.32v.87a4.21,4.21,0,0,0-1.71-.43,1.8,1.8,0,0,0-.93.25,1.59,1.59,0,0,0-.68.76,2.57,2.57,0,0,0-.24,1.08,2.39,2.39,0,0,0,.46,1.4,1.63,1.63,0,0,0,1.45.67,3.77,3.77,0,0,0,.58,0,8,8,0,0,0,1.07-.3Z"/><path class="cls-2" d="M234.94,77.62V69.74h.91v5l2.62-2.53h1.2l-2.59,2.5,2.67,3H238.5l-2.65-2.93v2.93Z"/><path class="cls-2" d="M246.29,75.57v-.68h1l.53-2h-1.49V72.2H248l.57-2.16h.71l-.57,2.16h1.39l.59-2.16h.71l-.59,2.16h.83v.68h-1l-.54,2h1.55v.68h-1.74l-.56,2.05h-.72l.56-2.05h-1.35l-.54,2.05h-.72l.54-2.05Zm1.68-.68h1.36l.54-2h-1.38Z"/><path class="cls-2" d="M252.65,77.48v-1a4.43,4.43,0,0,0,1.94.57,1.71,1.71,0,0,0,1.24-.46,1.5,1.5,0,0,0,.49-1.17,1.48,1.48,0,0,0-.54-1.18,2.89,2.89,0,0,0-1.83-.45h-.5v-.76h.7a1.85,1.85,0,0,0,1.37-.43,1.29,1.29,0,0,0,.43-1,1,1,0,0,0-.35-.79,1.48,1.48,0,0,0-1.06-.33,3.9,3.9,0,0,0-1.74.46v-.87a5,5,0,0,1,1.7-.35,2.64,2.64,0,0,1,1.91.55,1.73,1.73,0,0,1,.52,1.24,1.84,1.84,0,0,1-.27,1,2.27,2.27,0,0,1-1,.81,2.82,2.82,0,0,1,1,.48,2,2,0,0,1,.51.67,2.33,2.33,0,0,1-.62,2.62,2.92,2.92,0,0,1-2,.7,5.79,5.79,0,0,1-.79-.06A4,4,0,0,1,252.65,77.48Z"/><path class="cls-2" d="M259.5,77.62v-.68a4.3,4.3,0,0,1,.18-1.34,5.32,5.32,0,0,1,.64-1.21c.3-.44.54-.78.73-1l.78-1.05.29-.36a5.1,5.1,0,0,0,.56-1h-3.93V70h4.81v.6a1.47,1.47,0,0,1-.15.67,9.48,9.48,0,0,1-.87,1.32l-.34.48-.52.71c-.32.46-.56.82-.72,1.1a3.71,3.71,0,0,0-.35.85,4.67,4.67,0,0,0-.12,1.17v.68Z"/><line class="cls-11" x1="348.07" y1="93.76" x2="157.61" y2="93.76"/><polygon class="cls-12" points="163.23 86.36 160.09 93.76 163.23 101.17 145.68 93.76 163.23 86.36"/><line class="cls-13" x1="145.71" y1="152.29" x2="336.17" y2="152.29"/><polygon class="cls-14" points="330.55 159.7 333.7 152.29 330.55 144.88 348.11 152.29 330.55 159.7"/><line class="cls-11" x1="147.11" y1="51.15" x2="337.57" y2="51.15"/><polygon class="cls-12" points="331.95 58.56 335.1 51.15 331.95 43.74 349.51 51.15 331.95 58.56"/><rect class="cls-15" x="197.9" y="0.53" width="89.16" height="42.44" rx="4.65"/><path class="cls-2" d="M205.88,23.2a1.56,1.56,0,0,1,1.4.77,3.86,3.86,0,0,1,.47,2.06,3.87,3.87,0,0,1-.47,2.07,1.56,1.56,0,0,1-1.4.77,1.54,1.54,0,0,1-1.38-.77A3.78,3.78,0,0,1,204,26,3.76,3.76,0,0,1,204.5,24,1.54,1.54,0,0,1,205.88,23.2Zm-1,4,1.85-2.9a1.1,1.1,0,0,0-.38-.43.85.85,0,0,0-.43-.12,1,1,0,0,0-.87.64,3.84,3.84,0,0,0-.3,1.62c0,.15,0,.31,0,.49A4.43,4.43,0,0,0,204.84,27.18Zm2.08-2.26-1.84,2.91a1.16,1.16,0,0,0,.34.38.82.82,0,0,0,.43.12,1,1,0,0,0,.93-.73,4.45,4.45,0,0,0,.28-1.62A4.11,4.11,0,0,0,206.92,24.92Z"/><path class="cls-2" d="M210,28.17V24.05a5.72,5.72,0,0,1-.56.39,3.93,3.93,0,0,1-.75.33v-.58a4.5,4.5,0,0,0,1.31-.83h.64v4.81h1.29v.54h-3.24v-.54Z"/><path class="cls-2" d="M214.19,28.17V24.05a4.73,4.73,0,0,1-.56.39,4.09,4.09,0,0,1-.74.33v-.58a4.32,4.32,0,0,0,1.3-.83h.64v4.81h1.29v.54h-3.23v-.54Z"/><path class="cls-2" d="M218.59,23.2A1.54,1.54,0,0,1,220,24a3.85,3.85,0,0,1,.48,2.06A3.87,3.87,0,0,1,220,28.1a1.64,1.64,0,0,1-2.78,0,3.87,3.87,0,0,1-.48-2.07A3.85,3.85,0,0,1,217.2,24,1.54,1.54,0,0,1,218.59,23.2Zm-1.05,4,1.85-2.9a1,1,0,0,0-.38-.43.84.84,0,0,0-.42-.12,1,1,0,0,0-.88.64,3.84,3.84,0,0,0-.3,1.62c0,.15,0,.31,0,.49A5.62,5.62,0,0,0,217.54,27.18Zm2.08-2.26-1.83,2.91a1.06,1.06,0,0,0,.34.38.8.8,0,0,0,.43.12,1,1,0,0,0,.93-.73,4.67,4.67,0,0,0,.27-1.62A3.72,3.72,0,0,0,219.62,24.92Z"/><path class="cls-2" d="M222.67,28.17V24.05q-.3.22-.57.39a3.93,3.93,0,0,1-.75.33v-.58a4.55,4.55,0,0,0,1.32-.83h.64v4.81h1.28v.54h-3.24v-.54Z"/><path class="cls-2" d="M226.9,28.17V24.05a5.72,5.72,0,0,1-.56.39,3.93,3.93,0,0,1-.75.33v-.58a4.5,4.5,0,0,0,1.31-.83h.64v4.81h1.29v.54h-3.24v-.54Z"/><path class="cls-2" d="M231.13,28.17V24.05a5.72,5.72,0,0,1-.56.39,3.93,3.93,0,0,1-.75.33v-.58a4.37,4.37,0,0,0,1.31-.83h.64v4.81h1.29v.54h-3.24v-.54Z"/><path class="cls-2" d="M235.53,23.2a1.54,1.54,0,0,1,1.39.77A3.85,3.85,0,0,1,237.4,26a3.87,3.87,0,0,1-.48,2.07,1.64,1.64,0,0,1-2.78,0,3.87,3.87,0,0,1-.48-2.07,3.85,3.85,0,0,1,.48-2.06A1.54,1.54,0,0,1,235.53,23.2Zm-1.05,4,1.85-2.9a1.1,1.1,0,0,0-.38-.43.85.85,0,0,0-.43-.12,1,1,0,0,0-.87.64,3.84,3.84,0,0,0-.3,1.62c0,.15,0,.31,0,.49A4.43,4.43,0,0,0,234.48,27.18Zm2.08-2.26-1.83,2.91a1.06,1.06,0,0,0,.34.38.8.8,0,0,0,.43.12,1,1,0,0,0,.93-.73A4.67,4.67,0,0,0,236.7,26,4.11,4.11,0,0,0,236.56,24.92Z"/><path class="cls-2" d="M239.6,28.17V24.05a5.72,5.72,0,0,1-.56.39,3.93,3.93,0,0,1-.75.33v-.58a4.37,4.37,0,0,0,1.31-.83h.64v4.81h1.29v.54h-3.24v-.54Z"/><path class="cls-2" d="M243.84,28.17V24.05c-.2.15-.38.28-.56.39a4.59,4.59,0,0,1-.75.33v-.58a4.5,4.5,0,0,0,1.31-.83h.64v4.81h1.28v.54h-3.23v-.54Z"/><path class="cls-2" d="M248.23,23.2a1.54,1.54,0,0,1,1.39.77A3.85,3.85,0,0,1,250.1,26a3.87,3.87,0,0,1-.48,2.07,1.64,1.64,0,0,1-2.78,0,3.87,3.87,0,0,1-.48-2.07,3.85,3.85,0,0,1,.48-2.06A1.54,1.54,0,0,1,248.23,23.2Zm-1,4,1.84-2.9a1,1,0,0,0-.38-.43.81.81,0,0,0-.42-.12,1,1,0,0,0-.88.64,4,4,0,0,0-.29,1.62c0,.15,0,.31,0,.49A4.43,4.43,0,0,0,247.19,27.18Zm2.07-2.26-1.83,2.91a1.06,1.06,0,0,0,.34.38.8.8,0,0,0,.43.12,1,1,0,0,0,.93-.73,4.67,4.67,0,0,0,.28-1.62A3.72,3.72,0,0,0,249.26,24.92Z"/><path class="cls-2" d="M252.31,28.17V24.05c-.2.15-.38.28-.56.39a4.59,4.59,0,0,1-.75.33v-.58a4.5,4.5,0,0,0,1.31-.83H253v4.81h1.28v.54H251v-.54Z"/><path class="cls-2" d="M256.7,23.2a1.54,1.54,0,0,1,1.39.77,3.85,3.85,0,0,1,.48,2.06,3.87,3.87,0,0,1-.48,2.07,1.64,1.64,0,0,1-2.78,0,3.87,3.87,0,0,1-.48-2.07,3.85,3.85,0,0,1,.48-2.06A1.54,1.54,0,0,1,256.7,23.2Zm-1,4,1.84-2.9a1,1,0,0,0-.38-.43.81.81,0,0,0-.42-.12,1,1,0,0,0-.88.64,3.84,3.84,0,0,0-.3,1.62c0,.15,0,.31,0,.49A4.43,4.43,0,0,0,255.66,27.18Zm2.07-2.26-1.83,2.91a1.06,1.06,0,0,0,.34.38.8.8,0,0,0,.43.12,1,1,0,0,0,.93-.73,4.67,4.67,0,0,0,.27-1.62A3.72,3.72,0,0,0,257.73,24.92Z"/><path class="cls-2" d="M260.77,28.17V24.05a4.73,4.73,0,0,1-.56.39,4.09,4.09,0,0,1-.74.33v-.58a4.32,4.32,0,0,0,1.3-.83h.65v4.81h1.28v.54h-3.23v-.54Z"/><path class="cls-2" d="M265.17,23.2a1.54,1.54,0,0,1,1.39.77A3.85,3.85,0,0,1,267,26a3.87,3.87,0,0,1-.48,2.07,1.64,1.64,0,0,1-2.78,0A3.87,3.87,0,0,1,263.3,26a3.85,3.85,0,0,1,.48-2.06A1.54,1.54,0,0,1,265.17,23.2Zm-1.05,4,1.85-2.9a1,1,0,0,0-.38-.43.84.84,0,0,0-.42-.12,1,1,0,0,0-.88.64A3.84,3.84,0,0,0,264,26c0,.15,0,.31,0,.49A5.62,5.62,0,0,0,264.12,27.18Zm2.08-2.26-1.83,2.91a1.06,1.06,0,0,0,.34.38.8.8,0,0,0,.43.12,1,1,0,0,0,.93-.73,4.67,4.67,0,0,0,.27-1.62A3.72,3.72,0,0,0,266.2,24.92Z"/><path class="cls-2" d="M269.25,28.17V24.05q-.3.22-.57.39a3.93,3.93,0,0,1-.75.33v-.58a4.55,4.55,0,0,0,1.32-.83h.64v4.81h1.28v.54h-3.24v-.54Z"/><path class="cls-2" d="M273.64,23.2A1.54,1.54,0,0,1,275,24a3.85,3.85,0,0,1,.48,2.06A3.87,3.87,0,0,1,275,28.1a1.64,1.64,0,0,1-2.78,0,3.87,3.87,0,0,1-.48-2.07,3.85,3.85,0,0,1,.48-2.06A1.54,1.54,0,0,1,273.64,23.2Zm-1.05,4,1.85-2.9a1,1,0,0,0-.38-.43.84.84,0,0,0-.42-.12,1,1,0,0,0-.88.64,3.84,3.84,0,0,0-.3,1.62c0,.15,0,.31,0,.49A4.2,4.2,0,0,0,272.59,27.18Zm2.08-2.26-1.83,2.91a1.06,1.06,0,0,0,.34.38.8.8,0,0,0,.43.12,1,1,0,0,0,.93-.73,4.67,4.67,0,0,0,.27-1.62A4.11,4.11,0,0,0,274.67,24.92Z"/><path class="cls-2" d="M277.71,28.17V24.05a5.72,5.72,0,0,1-.56.39,3.93,3.93,0,0,1-.75.33v-.58a4.37,4.37,0,0,0,1.31-.83h.64v4.81h1.29v.54H276.4v-.54Z"/><path class="cls-2" d="M205.88,31.67a1.54,1.54,0,0,1,1.4.77,3.83,3.83,0,0,1,.47,2.06,3.87,3.87,0,0,1-.47,2.07,1.56,1.56,0,0,1-1.4.77,1.54,1.54,0,0,1-1.38-.77A3.78,3.78,0,0,1,204,34.5a3.74,3.74,0,0,1,.49-2.06A1.52,1.52,0,0,1,205.88,31.67Zm-1,4,1.85-2.89a1.14,1.14,0,0,0-.38-.44.91.91,0,0,0-1.3.53,3.84,3.84,0,0,0-.3,1.62c0,.15,0,.31,0,.48A4.09,4.09,0,0,0,204.84,35.64Zm2.08-2.26-1.84,2.92a1.28,1.28,0,0,0,.34.38.82.82,0,0,0,.43.12,1,1,0,0,0,.93-.73,4.45,4.45,0,0,0,.28-1.62A4.18,4.18,0,0,0,206.92,33.38Z"/><path class="cls-2" d="M210,36.64V32.52a5.72,5.72,0,0,1-.56.39,5.79,5.79,0,0,1-.75.33v-.58a4.72,4.72,0,0,0,1.31-.83h.64v4.81h1.29v.53h-3.24v-.53Z"/><path class="cls-2" d="M214.19,36.64V32.52a4.73,4.73,0,0,1-.56.39,6.23,6.23,0,0,1-.74.33v-.58a4.52,4.52,0,0,0,1.3-.83h.64v4.81h1.29v.53h-3.23v-.53Z"/><path class="cls-2" d="M218.59,31.67a1.53,1.53,0,0,1,1.39.77,3.83,3.83,0,0,1,.48,2.06,3.87,3.87,0,0,1-.48,2.07,1.64,1.64,0,0,1-2.78,0,3.87,3.87,0,0,1-.48-2.07,3.83,3.83,0,0,1,.48-2.06A1.53,1.53,0,0,1,218.59,31.67Zm-1.05,4,1.85-2.89a1.06,1.06,0,0,0-.38-.44.94.94,0,0,0-.42-.11,1,1,0,0,0-.88.64,3.84,3.84,0,0,0-.3,1.62c0,.15,0,.31,0,.48A5.11,5.11,0,0,0,217.54,35.64Zm2.08-2.26-1.83,2.92a1.16,1.16,0,0,0,.34.38.8.8,0,0,0,.43.12,1,1,0,0,0,.93-.73,4.67,4.67,0,0,0,.27-1.62A3.79,3.79,0,0,0,219.62,33.38Z"/><path class="cls-2" d="M222.82,31.67a1.54,1.54,0,0,1,1.4.77,3.93,3.93,0,0,1,.47,2.06,4,4,0,0,1-.47,2.07,1.65,1.65,0,0,1-2.79,0A3.87,3.87,0,0,1,221,34.5a3.83,3.83,0,0,1,.48-2.06A1.54,1.54,0,0,1,222.82,31.67Zm-1,4,1.85-2.89a1.14,1.14,0,0,0-.38-.44.91.91,0,0,0-1.3.53,3.84,3.84,0,0,0-.3,1.62c0,.15,0,.31,0,.48A4.09,4.09,0,0,0,221.78,35.64Zm2.08-2.26L222,36.3a1.28,1.28,0,0,0,.34.38.82.82,0,0,0,.43.12,1,1,0,0,0,.93-.73,4.45,4.45,0,0,0,.28-1.62A4.18,4.18,0,0,0,223.86,33.38Z"/><path class="cls-2" d="M227.06,31.67a1.53,1.53,0,0,1,1.39.77,3.83,3.83,0,0,1,.48,2.06,3.87,3.87,0,0,1-.48,2.07,1.64,1.64,0,0,1-2.78,0,3.87,3.87,0,0,1-.48-2.07,3.83,3.83,0,0,1,.48-2.06A1.53,1.53,0,0,1,227.06,31.67Zm-1.05,4,1.85-2.89a1.06,1.06,0,0,0-.38-.44.94.94,0,0,0-.42-.11,1,1,0,0,0-.88.64,3.84,3.84,0,0,0-.3,1.62c0,.15,0,.31,0,.48A3.91,3.91,0,0,0,226,35.64Zm2.08-2.26-1.83,2.92a1.16,1.16,0,0,0,.34.38.8.8,0,0,0,.43.12,1,1,0,0,0,.93-.73,4.67,4.67,0,0,0,.27-1.62A4.18,4.18,0,0,0,228.09,33.38Z"/><path class="cls-2" d="M231.13,36.64V32.52a5.72,5.72,0,0,1-.56.39,5.79,5.79,0,0,1-.75.33v-.58a4.58,4.58,0,0,0,1.31-.83h.64v4.81h1.29v.53h-3.24v-.53Z"/><path class="cls-2" d="M235.53,31.67a1.53,1.53,0,0,1,1.39.77,3.83,3.83,0,0,1,.48,2.06,3.87,3.87,0,0,1-.48,2.07,1.64,1.64,0,0,1-2.78,0,3.87,3.87,0,0,1-.48-2.07,3.83,3.83,0,0,1,.48-2.06A1.53,1.53,0,0,1,235.53,31.67Zm-1.05,4,1.85-2.89a1.14,1.14,0,0,0-.38-.44.91.91,0,0,0-1.3.53,3.84,3.84,0,0,0-.3,1.62c0,.15,0,.31,0,.48A4.09,4.09,0,0,0,234.48,35.64Zm2.08-2.26-1.83,2.92a1.16,1.16,0,0,0,.34.38.8.8,0,0,0,.43.12,1,1,0,0,0,.93-.73,4.67,4.67,0,0,0,.27-1.62A4.18,4.18,0,0,0,236.56,33.38Z"/><path class="cls-2" d="M239.76,31.67a1.53,1.53,0,0,1,1.39.77,3.83,3.83,0,0,1,.48,2.06,3.87,3.87,0,0,1-.48,2.07,1.64,1.64,0,0,1-2.78,0,3.87,3.87,0,0,1-.48-2.07,3.83,3.83,0,0,1,.48-2.06A1.54,1.54,0,0,1,239.76,31.67Zm-1,4,1.84-2.89a1,1,0,0,0-.38-.44.88.88,0,0,0-.42-.11.94.94,0,0,0-.87.64,3.84,3.84,0,0,0-.3,1.62c0,.15,0,.31,0,.48A4.09,4.09,0,0,0,238.72,35.64Zm2.08-2.26L239,36.3a1.16,1.16,0,0,0,.34.38.8.8,0,0,0,.43.12,1,1,0,0,0,.93-.73,4.67,4.67,0,0,0,.28-1.62A4.18,4.18,0,0,0,240.8,33.38Z"/><path class="cls-2" d="M243.84,36.64V32.52c-.2.15-.38.28-.56.39a7.37,7.37,0,0,1-.75.33v-.58a4.72,4.72,0,0,0,1.31-.83h.64v4.81h1.28v.53h-3.23v-.53Z"/><path class="cls-2" d="M248.23,31.67a1.53,1.53,0,0,1,1.39.77,3.83,3.83,0,0,1,.48,2.06,3.87,3.87,0,0,1-.48,2.07,1.64,1.64,0,0,1-2.78,0,3.87,3.87,0,0,1-.48-2.07,3.83,3.83,0,0,1,.48-2.06A1.53,1.53,0,0,1,248.23,31.67Zm-1,4L249,32.75a1,1,0,0,0-.38-.44.91.91,0,0,0-.42-.11,1,1,0,0,0-.88.64,4,4,0,0,0-.29,1.62c0,.15,0,.31,0,.48A4.09,4.09,0,0,0,247.19,35.64Zm2.07-2.26-1.83,2.92a1.16,1.16,0,0,0,.34.38.8.8,0,0,0,.43.12,1,1,0,0,0,.93-.73,4.67,4.67,0,0,0,.28-1.62A3.79,3.79,0,0,0,249.26,33.38Z"/><path class="cls-2" d="M252.31,36.64V32.52c-.2.15-.38.28-.56.39a7.37,7.37,0,0,1-.75.33v-.58a4.72,4.72,0,0,0,1.31-.83H253v4.81h1.28v.53H251v-.53Z"/><path class="cls-2" d="M256.7,31.67a1.53,1.53,0,0,1,1.39.77,3.83,3.83,0,0,1,.48,2.06,3.87,3.87,0,0,1-.48,2.07,1.64,1.64,0,0,1-2.78,0,3.87,3.87,0,0,1-.48-2.07,3.83,3.83,0,0,1,.48-2.06A1.53,1.53,0,0,1,256.7,31.67Zm-1,4,1.84-2.89a1,1,0,0,0-.38-.44.91.91,0,0,0-.42-.11,1,1,0,0,0-.88.64,3.84,3.84,0,0,0-.3,1.62c0,.15,0,.31,0,.48A4.09,4.09,0,0,0,255.66,35.64Zm2.07-2.26L255.9,36.3a1.16,1.16,0,0,0,.34.38.8.8,0,0,0,.43.12,1,1,0,0,0,.93-.73,4.67,4.67,0,0,0,.27-1.62A3.79,3.79,0,0,0,257.73,33.38Z"/><path class="cls-2" d="M260.77,36.64V32.52a4.73,4.73,0,0,1-.56.39,6.23,6.23,0,0,1-.74.33v-.58a4.52,4.52,0,0,0,1.3-.83h.65v4.81h1.28v.53h-3.23v-.53Z"/><path class="cls-2" d="M265.17,31.67a1.53,1.53,0,0,1,1.39.77A3.83,3.83,0,0,1,267,34.5a3.87,3.87,0,0,1-.48,2.07,1.64,1.64,0,0,1-2.78,0,3.87,3.87,0,0,1-.48-2.07,3.83,3.83,0,0,1,.48-2.06A1.53,1.53,0,0,1,265.17,31.67Zm-1.05,4L266,32.75a1.06,1.06,0,0,0-.38-.44.94.94,0,0,0-.42-.11,1,1,0,0,0-.88.64,3.84,3.84,0,0,0-.3,1.62c0,.15,0,.31,0,.48A5.11,5.11,0,0,0,264.12,35.64Zm2.08-2.26-1.83,2.92a1.16,1.16,0,0,0,.34.38.8.8,0,0,0,.43.12,1,1,0,0,0,.93-.73,4.67,4.67,0,0,0,.27-1.62A3.79,3.79,0,0,0,266.2,33.38Z"/><path class="cls-2" d="M269.25,36.64V32.52q-.3.23-.57.39a5.79,5.79,0,0,1-.75.33v-.58a4.78,4.78,0,0,0,1.32-.83h.64v4.81h1.28v.53h-3.24v-.53Z"/><path class="cls-2" d="M273.48,36.64V32.52a5.72,5.72,0,0,1-.56.39,5.79,5.79,0,0,1-.75.33v-.58a4.72,4.72,0,0,0,1.31-.83h.64v4.81h1.29v.53h-3.24v-.53Z"/><path class="cls-2" d="M277.87,31.67a1.53,1.53,0,0,1,1.39.77,3.83,3.83,0,0,1,.48,2.06,3.87,3.87,0,0,1-.48,2.07,1.64,1.64,0,0,1-2.78,0A3.87,3.87,0,0,1,276,34.5a3.83,3.83,0,0,1,.48-2.06A1.53,1.53,0,0,1,277.87,31.67Zm-1,4,1.84-2.89a1,1,0,0,0-.38-.44.88.88,0,0,0-.42-.11,1,1,0,0,0-.87.64,3.84,3.84,0,0,0-.3,1.62c0,.15,0,.31,0,.48A4.09,4.09,0,0,0,276.83,35.64Zm2.08-2.26-1.84,2.92a1.16,1.16,0,0,0,.34.38.8.8,0,0,0,.43.12,1,1,0,0,0,.93-.73,4.67,4.67,0,0,0,.28-1.62A4.18,4.18,0,0,0,278.91,33.38Z"/><path class="cls-2" d="M225.25,14.44v-.92a5,5,0,0,0,2.12.56,1.79,1.79,0,0,0,.76-.16,1.19,1.19,0,0,0,.56-.44,1.16,1.16,0,0,0,.19-.62,1.19,1.19,0,0,0-.26-.74,3.24,3.24,0,0,0-1-.77l-.5-.28-.5-.29a2.28,2.28,0,0,1-1.33-2,2,2,0,0,1,.59-1.44,2.58,2.58,0,0,1,1.86-.58,5.08,5.08,0,0,1,1.56.23v.84a4.53,4.53,0,0,0-1.62-.32,1.53,1.53,0,0,0-1,.34,1,1,0,0,0-.38.8,1.08,1.08,0,0,0,.29.77,3.08,3.08,0,0,0,.76.57l.39.23.47.29.39.23a2.22,2.22,0,0,1,1.25,1.92,2,2,0,0,1-.64,1.51,2.83,2.83,0,0,1-2.05.63,4.63,4.63,0,0,1-.85-.08A7.22,7.22,0,0,1,225.25,14.44Z"/><path class="cls-2" d="M235.77,14.24a4.72,4.72,0,0,1-2.06.52,2.42,2.42,0,0,1-1.31-.37,2.52,2.52,0,0,1-.93-1.05,3,3,0,0,1-.35-1.45,3.3,3.3,0,0,1,.33-1.44,2.62,2.62,0,0,1,.93-1.07A2.42,2.42,0,0,1,233.7,9a1.94,1.94,0,0,1,1.56.69,3.22,3.22,0,0,1,.59,2.14V12h-3.76a2.24,2.24,0,0,0,.24,1,1.71,1.71,0,0,0,.62.7,1.64,1.64,0,0,0,.88.24,4.09,4.09,0,0,0,1.94-.59Zm-3.62-2.9h2.72v-.13a1.6,1.6,0,0,0-.33-1.06,1.08,1.08,0,0,0-.87-.39,1.31,1.31,0,0,0-1,.4A2.21,2.21,0,0,0,232.15,11.34Z"/><path class="cls-2" d="M240.89,13.38a2.91,2.91,0,0,1-1,1,2.17,2.17,0,0,1-1.08.35,1.67,1.67,0,0,1-1.23-.59,2.62,2.62,0,0,1-.54-1.8,3.85,3.85,0,0,1,.36-1.69,3,3,0,0,1,1-1.17,2.49,2.49,0,0,1,1.5-.44,7.59,7.59,0,0,1,.78.06l.23,0h.91v7.57h-.9Zm0-1.08V10a3.43,3.43,0,0,0-.9-.13,1.81,1.81,0,0,0-1.41.65,2.62,2.62,0,0,0-.55,1.77,2.05,2.05,0,0,0,.3,1.22.88.88,0,0,0,.7.42,1.57,1.57,0,0,0,.94-.43A4.25,4.25,0,0,0,240.89,12.3Z"/><path class="cls-2" d="M248.83,12.56v-.68h1l.53-2h-1.49V9.19h1.67L251.07,7h.71l-.57,2.16h1.39L253.19,7h.71l-.58,2.16h.82v.68h-1l-.54,2h1.55v.68H252.4l-.55,2h-.73l.56-2h-1.35l-.54,2h-.72l.54-2Zm1.68-.68h1.36l.54-2H251Z"/><path class="cls-2" d="M257.26,13.85V8a6.16,6.16,0,0,1-.8.56A5.53,5.53,0,0,1,255.4,9V8.2A6.39,6.39,0,0,0,257.26,7h.91v6.82H260v.76H255.4v-.76Z"/><rect class="cls-16" x="196.98" y="164.64" width="89.16" height="22.53" rx="3.39"/><path class="cls-2" d="M221.66,178.76h-.94l2.33-7.58h1l2.35,7.58h-1l-.52-1.67h-2.66Zm.75-2.43h2.21l-.91-2.87-.21-.77-.2.77Z"/><path class="cls-2" d="M231.9,178.6a5.61,5.61,0,0,1-1.74.31,2.8,2.8,0,0,1-1.45-.38,2.67,2.67,0,0,1-1-1,3.07,3.07,0,0,1-.35-1.47,2.83,2.83,0,0,1,.81-2.06,2.59,2.59,0,0,1,1.94-.82,5.65,5.65,0,0,1,1.79.32v.87a4.13,4.13,0,0,0-1.7-.43,1.93,1.93,0,0,0-.94.24,1.71,1.71,0,0,0-.68.77,2.57,2.57,0,0,0-.24,1.08,2.46,2.46,0,0,0,.46,1.4,1.63,1.63,0,0,0,1.45.67,3.81,3.81,0,0,0,.59,0,8.5,8.5,0,0,0,1.06-.3Z"/><path class="cls-2" d="M233.56,178.76v-7.88h.91v5l2.62-2.53h1.2l-2.6,2.5,2.68,3h-1.25l-2.65-2.93v2.93Z"/><path class="cls-2" d="M244.91,176.71V176h1l.53-2h-1.48v-.68h1.66l.57-2.16h.72l-.57,2.16h1.38l.59-2.16H250l-.59,2.16h.82V174h-1l-.54,2h1.55v.68h-1.73l-.56,2h-.72l.55-2H246.4l-.54,2h-.72l.54-2Zm1.67-.68h1.36l.55-2h-1.38Z"/><path class="cls-2" d="M251.27,178.62v-1a4.39,4.39,0,0,0,1.94.57,1.73,1.73,0,0,0,1.24-.46,1.5,1.5,0,0,0,.49-1.17,1.47,1.47,0,0,0-.54-1.18,2.89,2.89,0,0,0-1.83-.45h-.51v-.76h.7a1.87,1.87,0,0,0,1.38-.43,1.32,1.32,0,0,0,.42-.95,1,1,0,0,0-.34-.79,1.51,1.51,0,0,0-1.07-.33,4,4,0,0,0-1.73.45v-.86a4.92,4.92,0,0,1,1.7-.35,2.57,2.57,0,0,1,1.9.55,1.75,1.75,0,0,1,.53,1.24,1.77,1.77,0,0,1-.28,1,2.36,2.36,0,0,1-1,.81,2.77,2.77,0,0,1,1,.48,1.74,1.74,0,0,1,.51.67,2,2,0,0,1,.17.86,2.25,2.25,0,0,1-.78,1.76,3,3,0,0,1-2,.7,5.67,5.67,0,0,1-.79-.06A3.9,3.9,0,0,1,251.27,178.62Z"/><path class="cls-2" d="M258.12,178.76v-.68a4.3,4.3,0,0,1,.18-1.34,5.23,5.23,0,0,1,.63-1.21c.31-.44.55-.78.73-1l.79-1,.28-.36a4.26,4.26,0,0,0,.56-1h-3.93v-.91h4.81v.6a1.64,1.64,0,0,1-.14.67,12,12,0,0,1-.87,1.32l-.35.48-.51.71a12.24,12.24,0,0,0-.72,1.09,3.57,3.57,0,0,0-.36.86,4.67,4.67,0,0,0-.12,1.17v.68Z"/><line class="cls-13" x1="346.69" y1="194.9" x2="156.23" y2="194.9"/><polygon class="cls-14" points="161.85 187.5 158.7 194.9 161.85 202.31 144.29 194.9 161.85 187.5"/></svg>